%TF.GenerationSoftware,KiCad,Pcbnew,7.0.6*%
%TF.CreationDate,2023-10-23T01:01:32+01:00*%
%TF.ProjectId,dasbob,64617362-6f62-42e6-9b69-6361645f7063,rev?*%
%TF.SameCoordinates,Original*%
%TF.FileFunction,Drillmap*%
%TF.FilePolarity,Positive*%
%FSLAX45Y45*%
G04 Gerber Fmt 4.5, Leading zero omitted, Abs format (unit mm)*
G04 Created by KiCad (PCBNEW 7.0.6) date 2023-10-23 01:01:32*
%MOMM*%
%LPD*%
G01*
G04 APERTURE LIST*
%ADD10C,0.090000*%
%ADD11C,0.200000*%
%ADD12C,0.030000*%
%ADD13C,0.050000*%
%ADD14C,0.080000*%
%ADD15C,0.100000*%
%ADD16C,0.109220*%
%ADD17C,0.127000*%
%ADD18C,0.130000*%
%ADD19C,0.220000*%
G04 APERTURE END LIST*
D10*
X15592848Y-9199639D02*
X15592848Y-8590000D01*
X19500744Y-3273501D02*
X19488065Y-3274141D01*
X19475753Y-3276020D01*
X19463870Y-3279076D01*
X19452477Y-3283246D01*
X19441637Y-3288467D01*
X19431414Y-3294678D01*
X19421868Y-3301817D01*
X19413062Y-3309820D01*
X19405059Y-3318626D01*
X19397920Y-3328172D01*
X19391709Y-3338396D01*
X19386487Y-3349235D01*
X19382318Y-3360628D01*
X19379262Y-3372511D01*
X19377383Y-3384824D01*
X19376743Y-3397502D01*
X9428761Y-2797427D02*
X9428120Y-2784748D01*
X9426241Y-2772436D01*
X9423186Y-2760553D01*
X9419016Y-2749160D01*
X9413794Y-2738320D01*
X9407583Y-2728097D01*
X9400445Y-2718551D01*
X9392441Y-2709745D01*
X9383636Y-2701742D01*
X9374090Y-2694603D01*
X9363866Y-2688392D01*
X9353026Y-2683170D01*
X9341634Y-2679001D01*
X9329750Y-2675945D01*
X9317438Y-2674066D01*
X9304760Y-2673426D01*
X15653943Y-11590500D02*
X15517000Y-11727115D01*
X20910973Y-10638090D02*
X21025979Y-10607752D01*
X14976720Y-7955526D02*
X14967771Y-7954399D01*
X14958153Y-7950342D01*
X14950215Y-7943795D01*
X14944444Y-7935243D01*
X14941326Y-7925173D01*
X14940913Y-7919720D01*
X15664461Y-11565151D02*
X15663153Y-11574739D01*
X15659366Y-11583560D01*
X15653943Y-11590500D01*
X21162963Y-8747556D02*
X24760496Y-8747556D01*
X15012528Y-9199639D02*
X15012986Y-9208711D01*
X15015321Y-9221813D01*
X15019500Y-9234174D01*
X15025373Y-9245645D01*
X15032788Y-9256075D01*
X15041596Y-9265314D01*
X15051645Y-9273210D01*
X15062786Y-9279613D01*
X15074868Y-9284373D01*
X15087739Y-9287340D01*
X15101251Y-9288362D01*
X14940913Y-11564798D02*
X14940913Y-8590000D01*
X3142613Y-4896279D02*
X3136812Y-4905642D01*
X3132310Y-4915477D01*
X3129117Y-4925686D01*
X3127239Y-4936173D01*
X3126685Y-4946841D01*
X3127464Y-4957593D01*
X3128150Y-4961895D01*
X7452501Y-3101693D02*
X7451069Y-3111741D01*
X7447035Y-3120713D01*
X7440789Y-3128181D01*
X7432723Y-3133719D01*
X7423227Y-3136901D01*
X7419812Y-3137364D01*
X19746030Y-10952376D02*
X19756053Y-10949330D01*
X19769186Y-10945481D01*
X19785286Y-10940866D01*
X19804214Y-10935520D01*
X19825829Y-10929481D01*
X19849990Y-10922786D01*
X19876556Y-10915470D01*
X19905387Y-10907570D01*
X19936342Y-10899123D01*
X19969280Y-10890166D01*
X20004061Y-10880736D01*
X20040545Y-10870868D01*
X20078589Y-10860600D01*
X20118054Y-10849967D01*
X20158799Y-10839008D01*
X20200683Y-10827757D01*
X20243566Y-10816253D01*
X20287306Y-10804531D01*
X20331764Y-10792628D01*
X20376799Y-10780581D01*
X20422269Y-10768426D01*
X20468034Y-10756201D01*
X20513954Y-10743940D01*
X20559888Y-10731682D01*
X20605695Y-10719463D01*
X20651234Y-10707319D01*
X20696365Y-10695288D01*
X20740947Y-10683405D01*
X20784840Y-10671707D01*
X20827902Y-10660231D01*
X20869993Y-10649013D01*
X20910973Y-10638090D01*
X15628654Y-4847596D02*
X15628654Y-4847596D01*
X17342272Y-12696901D02*
X17359558Y-12679615D01*
X15504125Y-9288362D02*
X15513196Y-9287904D01*
X15526298Y-9285569D01*
X15538660Y-9281390D01*
X15550131Y-9275518D01*
X15560561Y-9268102D01*
X15569799Y-9259295D01*
X15577695Y-9249245D01*
X15584099Y-9238104D01*
X15588859Y-9226023D01*
X15591826Y-9213151D01*
X15592848Y-9199639D01*
X19376743Y-3397502D02*
X19376743Y-3437721D01*
X9442769Y-8747556D02*
X9453272Y-8749108D01*
X9462452Y-8753430D01*
X9469922Y-8760020D01*
X9475299Y-8768377D01*
X9478196Y-8777997D01*
X9478229Y-8788380D01*
X9477354Y-8792634D01*
X14976720Y-4847596D02*
X14976722Y-4847596D01*
X15628654Y-4247520D02*
X15619706Y-4246393D01*
X15610087Y-4242336D01*
X15602150Y-4235789D01*
X15596379Y-4227237D01*
X15593261Y-4217167D01*
X15592848Y-4211714D01*
X16906592Y-13131877D02*
X16914287Y-13125008D01*
X16920861Y-13118771D01*
X16929721Y-13110197D01*
X16941219Y-13098934D01*
X16948066Y-13092184D01*
X16955705Y-13084630D01*
X16964179Y-13076227D01*
X16973532Y-13066933D01*
X16983808Y-13056702D01*
X16995051Y-13045490D01*
X17007305Y-13033255D01*
X17020613Y-13019951D01*
X17035020Y-13005535D01*
X17050570Y-12989963D01*
X17067306Y-12973190D01*
X17085272Y-12955174D01*
X17104513Y-12935869D01*
X17125072Y-12915232D01*
X17146993Y-12893219D01*
X17170320Y-12869786D01*
X17195098Y-12844889D01*
X17221369Y-12818483D01*
X17249178Y-12790526D01*
X17278569Y-12760972D01*
X17309586Y-12729779D01*
X17342272Y-12696901D01*
X3128150Y-4961895D02*
X4031260Y-10083525D01*
X9304760Y-2673426D02*
X7576502Y-2673426D01*
X9477354Y-8792634D02*
X9053053Y-10375271D01*
X5845228Y-8747556D02*
X9442769Y-8747556D01*
X25389134Y-3356052D02*
X25381436Y-3347979D01*
X25372965Y-3340996D01*
X25363825Y-3335160D01*
X25354122Y-3330527D01*
X25343959Y-3327153D01*
X25333443Y-3325096D01*
X25329162Y-3324654D01*
X5276919Y-3324654D02*
X5266150Y-3326169D01*
X5255737Y-3329023D01*
X5245776Y-3333159D01*
X5236364Y-3338521D01*
X5227598Y-3345052D01*
X5219575Y-3352696D01*
X5216595Y-3356052D01*
X9428761Y-3237695D02*
X9428761Y-2797427D01*
X15628654Y-7955526D02*
X15619706Y-7954399D01*
X15610087Y-7950342D01*
X15602150Y-7943795D01*
X15596379Y-7935243D01*
X15593261Y-7925173D01*
X15592848Y-7919720D01*
X15628654Y-4247520D02*
X15628654Y-4247520D01*
X21141160Y-3273501D02*
X19500744Y-3273501D01*
X21025979Y-10607752D02*
X21050285Y-10601281D01*
X21073734Y-10595038D01*
X21096342Y-10589020D01*
X21118125Y-10583220D01*
X21139097Y-10577636D01*
X21159276Y-10572263D01*
X21178676Y-10567097D01*
X21197313Y-10562134D01*
X21215203Y-10557368D01*
X21232362Y-10552797D01*
X21248805Y-10548416D01*
X21264549Y-10544220D01*
X21279608Y-10540205D01*
X21293998Y-10536368D01*
X21307735Y-10532703D01*
X21320836Y-10529207D01*
X21333315Y-10525875D01*
X21345188Y-10522703D01*
X21356471Y-10519687D01*
X21367179Y-10516823D01*
X21377329Y-10514106D01*
X21386936Y-10511531D01*
X21396016Y-10509096D01*
X21412656Y-10504625D01*
X21427376Y-10500657D01*
X21440301Y-10497160D01*
X21451555Y-10494099D01*
X21456596Y-10492721D01*
X15592848Y-7919720D02*
X15592848Y-4883402D01*
X23185788Y-3137361D02*
X23175916Y-3135059D01*
X23167359Y-3130260D01*
X23160498Y-3123391D01*
X23155715Y-3114877D01*
X23153391Y-3105143D01*
X23153228Y-3101701D01*
X7452501Y-2797427D02*
X7452501Y-3101693D01*
X15517000Y-11727115D02*
X15510985Y-11733835D01*
X15503466Y-11744709D01*
X15497752Y-11756351D01*
X15493842Y-11768551D01*
X15491737Y-11781100D01*
X15491436Y-11793789D01*
X15492940Y-11806408D01*
X15496248Y-11818747D01*
X15501361Y-11830599D01*
X15508278Y-11841753D01*
X15517000Y-11852000D01*
X21128379Y-8792636D02*
X21127157Y-8782088D01*
X21128955Y-8772102D01*
X21133386Y-8763180D01*
X21140065Y-8755823D01*
X21148607Y-8750533D01*
X21158627Y-8747812D01*
X21162963Y-8747556D01*
X17359558Y-12679615D02*
X17388729Y-12650279D01*
X17418694Y-12620147D01*
X17449353Y-12589321D01*
X17480606Y-12557903D01*
X17512353Y-12525992D01*
X17544496Y-12493691D01*
X17576935Y-12461102D01*
X17609569Y-12428325D01*
X17642300Y-12395462D01*
X17675028Y-12362614D01*
X17707653Y-12329883D01*
X17740075Y-12297370D01*
X17772196Y-12265176D01*
X17803916Y-12233403D01*
X17835134Y-12202152D01*
X17865752Y-12171525D01*
X17895670Y-12141622D01*
X17924789Y-12112546D01*
X17953008Y-12084397D01*
X17980228Y-12057277D01*
X18006349Y-12031288D01*
X18031273Y-12006530D01*
X18054900Y-11983105D01*
X18077129Y-11961115D01*
X18097861Y-11940660D01*
X18116998Y-11921843D01*
X18134438Y-11904764D01*
X18150083Y-11889525D01*
X18163833Y-11876227D01*
X18175589Y-11864972D01*
X18185251Y-11855860D01*
X18192719Y-11848995D01*
X5196487Y-3420258D02*
X5287460Y-4458601D01*
X16852265Y-13150575D02*
X16861441Y-13150111D01*
X16870422Y-13148725D01*
X16879167Y-13146425D01*
X16887635Y-13143218D01*
X16895787Y-13139115D01*
X16903583Y-13134121D01*
X16906592Y-13131877D01*
X15012528Y-4883402D02*
X15012528Y-4869158D01*
X15012527Y-4894357D01*
X15012527Y-4931554D01*
X15012527Y-4983653D01*
X15012527Y-5049530D01*
X15012527Y-5128063D01*
X15012527Y-5218128D01*
X15012526Y-5318602D01*
X15012526Y-5428363D01*
X15012526Y-5546288D01*
X15012526Y-5671253D01*
X15012526Y-5802135D01*
X15012526Y-5937813D01*
X15012525Y-6077162D01*
X15012525Y-6219060D01*
X15012525Y-6362383D01*
X15012525Y-6506010D01*
X15012525Y-6648816D01*
X15012525Y-6789679D01*
X15012525Y-6927476D01*
X15012525Y-7061085D01*
X15012525Y-7189381D01*
X15012525Y-7311242D01*
X15012525Y-7425545D01*
X15012525Y-7531168D01*
X15012525Y-7626987D01*
X15012525Y-7711879D01*
X15012525Y-7784721D01*
X15012526Y-7844391D01*
X15012526Y-7889765D01*
X15012526Y-7919720D01*
X16789823Y-13124821D02*
X16798110Y-13132044D01*
X16807047Y-13138141D01*
X16816563Y-13143073D01*
X16826585Y-13146798D01*
X16837040Y-13149276D01*
X16847855Y-13150468D01*
X16852265Y-13150575D01*
X5258008Y-4496989D02*
X3199412Y-4859944D01*
X26473220Y-10155138D02*
X26483976Y-10156150D01*
X26494670Y-10155894D01*
X26505190Y-10154395D01*
X26515422Y-10151676D01*
X26525254Y-10147762D01*
X26534573Y-10142678D01*
X26538132Y-10140322D01*
X25318267Y-4458616D02*
X25409243Y-3420611D01*
X13698784Y-13131523D02*
X13706191Y-13136894D01*
X13714138Y-13141414D01*
X13722543Y-13145058D01*
X13731326Y-13147803D01*
X13740406Y-13149624D01*
X13749703Y-13150497D01*
X13753464Y-13150575D01*
X5963072Y-9805889D02*
X5968756Y-9796525D01*
X5973220Y-9786690D01*
X5976430Y-9776481D01*
X5978355Y-9765993D01*
X5978962Y-9755325D01*
X5978219Y-9744573D01*
X5977537Y-9740271D01*
X14976722Y-4247520D02*
X14976720Y-4247520D01*
X12413394Y-11850088D02*
X12422600Y-11858660D01*
X12434675Y-11870157D01*
X12449451Y-11884409D01*
X12466761Y-11901246D01*
X12486436Y-11920496D01*
X12508307Y-11941991D01*
X12532208Y-11965559D01*
X12557969Y-11991031D01*
X12585423Y-12018236D01*
X12614401Y-12047004D01*
X12644736Y-12077164D01*
X12676258Y-12108548D01*
X12708801Y-12140983D01*
X12742196Y-12174301D01*
X12776275Y-12208330D01*
X12810869Y-12242901D01*
X12845811Y-12277843D01*
X12880932Y-12312986D01*
X12916065Y-12348160D01*
X12951041Y-12383194D01*
X12985692Y-12417919D01*
X13019849Y-12452164D01*
X13053346Y-12485759D01*
X13086013Y-12518534D01*
X13117683Y-12550318D01*
X13148188Y-12580941D01*
X13177359Y-12610233D01*
X13205028Y-12638024D01*
X13231027Y-12664143D01*
X13255187Y-12688420D01*
X13277342Y-12710685D01*
X13297323Y-12730768D01*
X15592848Y-4883402D02*
X15593975Y-4874453D01*
X15598032Y-4864835D01*
X15604579Y-4856897D01*
X15613131Y-4851126D01*
X15623201Y-4848008D01*
X15628654Y-4847596D01*
X15012528Y-3876928D02*
X15012528Y-4211714D01*
X14976720Y-4247520D02*
X14967771Y-4246393D01*
X14958153Y-4242336D01*
X14950215Y-4235789D01*
X14944444Y-4227237D01*
X14941326Y-4217167D01*
X14940913Y-4211714D01*
X9053053Y-10375271D02*
X9050713Y-10388383D01*
X9050371Y-10401406D01*
X9051922Y-10414156D01*
X9055261Y-10426449D01*
X9060283Y-10438103D01*
X9066885Y-10448934D01*
X9074961Y-10458759D01*
X9084407Y-10467395D01*
X9095118Y-10474660D01*
X9106989Y-10480369D01*
X9115496Y-10483221D01*
X14940913Y-7919720D02*
X14941011Y-7894278D01*
X14941044Y-7857779D01*
X14941069Y-7806858D01*
X14941085Y-7742590D01*
X14941094Y-7666048D01*
X14941096Y-7578303D01*
X14941091Y-7480431D01*
X14941081Y-7373504D01*
X14941066Y-7258594D01*
X14941047Y-7136777D01*
X14941025Y-7009123D01*
X14940999Y-6876708D01*
X14940972Y-6740604D01*
X14940943Y-6601884D01*
X14940913Y-6461622D01*
X14940884Y-6320891D01*
X14940855Y-6180763D01*
X14940827Y-6042313D01*
X14940802Y-5906613D01*
X14940779Y-5774737D01*
X14940760Y-5647758D01*
X14940745Y-5526749D01*
X14940735Y-5412783D01*
X14940731Y-5306933D01*
X14940732Y-5210274D01*
X14940741Y-5123877D01*
X14940757Y-5048817D01*
X14940782Y-4986166D01*
X14940816Y-4936998D01*
X14940859Y-4902385D01*
X14940913Y-4883402D01*
X4067598Y-10140322D02*
X4076681Y-10145866D01*
X4086340Y-10150242D01*
X4096477Y-10153416D01*
X4106995Y-10155356D01*
X4117798Y-10156030D01*
X4128787Y-10155405D01*
X4133214Y-10154784D01*
X24756251Y-3274561D02*
X24705904Y-3270171D01*
X24654548Y-3265693D01*
X24602294Y-3261135D01*
X24549249Y-3256508D01*
X24495523Y-3251821D01*
X24441225Y-3247083D01*
X24386463Y-3242304D01*
X24331348Y-3237493D01*
X24275987Y-3232661D01*
X24220491Y-3227816D01*
X24164967Y-3222968D01*
X24109525Y-3218126D01*
X24054275Y-3213301D01*
X23999324Y-3208501D01*
X23944782Y-3203737D01*
X23890758Y-3199017D01*
X23837361Y-3194352D01*
X23784701Y-3189750D01*
X23732885Y-3185222D01*
X23682024Y-3180776D01*
X23632225Y-3176423D01*
X23583599Y-3172172D01*
X23536254Y-3168032D01*
X23490299Y-3164013D01*
X23445843Y-3160125D01*
X23402996Y-3156376D01*
X23361865Y-3152778D01*
X23322561Y-3149338D01*
X23285193Y-3146067D01*
X23249868Y-3142974D01*
X23216697Y-3140069D01*
X23185788Y-3137361D01*
X18198555Y-11844821D02*
X19739138Y-10955457D01*
X3199412Y-4859944D02*
X3188743Y-4862424D01*
X3178621Y-4866183D01*
X3169125Y-4871156D01*
X3160336Y-4877279D01*
X3152336Y-4884487D01*
X3145204Y-4892716D01*
X3142613Y-4896279D01*
X14940913Y-4883402D02*
X14942040Y-4874271D01*
X14946097Y-4864593D01*
X14952644Y-4856707D01*
X14961196Y-4851033D01*
X14971267Y-4847995D01*
X14976720Y-4847596D01*
X14951431Y-11590147D02*
X14945566Y-11582449D01*
X14941996Y-11573539D01*
X14940913Y-11564798D01*
X24699805Y-9842224D02*
X26473220Y-10155138D01*
X15664461Y-8590000D02*
X15664461Y-11565151D01*
X15592848Y-4211714D02*
X15592848Y-3876928D01*
X15504125Y-3788205D02*
X15101251Y-3788205D01*
X26574467Y-10083172D02*
X26580319Y-10049932D01*
X26586298Y-10015975D01*
X26592401Y-9981319D01*
X26598625Y-9945982D01*
X26604966Y-9909982D01*
X26611421Y-9873337D01*
X26617987Y-9836066D01*
X26624660Y-9798188D01*
X26631438Y-9759720D01*
X26638317Y-9720680D01*
X26645294Y-9681087D01*
X26652366Y-9640960D01*
X26659529Y-9600316D01*
X26666780Y-9559174D01*
X26674117Y-9517551D01*
X26681535Y-9475468D01*
X26689031Y-9432940D01*
X26696604Y-9389988D01*
X26704248Y-9346629D01*
X26711961Y-9302881D01*
X26719739Y-9258763D01*
X26727580Y-9214293D01*
X26735480Y-9169490D01*
X26743436Y-9124371D01*
X26751445Y-9078954D01*
X26759504Y-9033259D01*
X26767608Y-8987304D01*
X26775756Y-8941106D01*
X26783943Y-8894684D01*
X26792167Y-8848056D01*
X26800424Y-8801241D01*
X26808712Y-8754256D01*
X15664461Y-3597528D02*
X15664461Y-4211714D01*
X13815907Y-13124821D02*
X15088727Y-11852000D01*
X11264440Y-3473528D02*
X11255491Y-3472400D01*
X11245873Y-3468344D01*
X11237935Y-3461797D01*
X11232164Y-3453245D01*
X11229046Y-3443174D01*
X11228633Y-3437721D01*
X7576502Y-2673426D02*
X7563823Y-2674066D01*
X7551511Y-2675945D01*
X7539627Y-2679001D01*
X7528235Y-2683170D01*
X7517395Y-2688392D01*
X7507171Y-2694603D01*
X7497625Y-2701742D01*
X7488820Y-2709745D01*
X7480816Y-2718551D01*
X7473678Y-2728097D01*
X7467467Y-2738320D01*
X7462245Y-2749160D01*
X7458076Y-2760553D01*
X7455020Y-2772436D01*
X7453141Y-2784748D01*
X7452501Y-2797427D01*
X10843942Y-10946135D02*
X10850747Y-10948701D01*
X13297323Y-12730768D02*
X13330913Y-12764518D01*
X13362537Y-12796289D01*
X13392255Y-12826141D01*
X13420127Y-12854136D01*
X13446216Y-12880335D01*
X13470581Y-12904798D01*
X13493284Y-12927587D01*
X13514386Y-12948763D01*
X13533947Y-12968387D01*
X13552029Y-12986519D01*
X13568692Y-13003220D01*
X13583997Y-13018553D01*
X13598005Y-13032576D01*
X13610778Y-13045353D01*
X13622375Y-13056943D01*
X13632859Y-13067407D01*
X13642289Y-13076807D01*
X13650727Y-13085203D01*
X13658233Y-13092657D01*
X13664870Y-13099229D01*
X13675774Y-13109972D01*
X13683929Y-13117920D01*
X13692068Y-13125670D01*
X13698784Y-13131523D01*
X21300968Y-2673426D02*
X21288289Y-2674066D01*
X21275977Y-2675945D01*
X21264093Y-2679001D01*
X21252701Y-2683170D01*
X21241861Y-2688392D01*
X21231637Y-2694603D01*
X21222091Y-2701742D01*
X21213286Y-2709745D01*
X21205282Y-2718551D01*
X21198144Y-2728097D01*
X21191933Y-2738320D01*
X21186711Y-2749160D01*
X21182542Y-2760553D01*
X21179486Y-2772436D01*
X21177607Y-2784748D01*
X21176967Y-2797427D01*
X11228633Y-3397502D02*
X11227993Y-3384824D01*
X11226114Y-3372511D01*
X11223058Y-3360628D01*
X11218889Y-3349235D01*
X11213667Y-3338396D01*
X11207456Y-3328172D01*
X11200318Y-3318626D01*
X11192314Y-3309820D01*
X11183509Y-3301817D01*
X11173963Y-3294678D01*
X11163739Y-3288467D01*
X11152899Y-3283246D01*
X11141507Y-3279076D01*
X11129623Y-3276020D01*
X11117311Y-3274141D01*
X11104633Y-3273501D01*
X5809965Y-8789577D02*
X5809614Y-8779504D01*
X5811948Y-8770116D01*
X5816616Y-8761833D01*
X5823269Y-8755071D01*
X5831554Y-8750249D01*
X5841121Y-8747787D01*
X5845228Y-8747556D01*
X4031260Y-10083525D02*
X4033741Y-10094193D01*
X4037501Y-10104315D01*
X4042474Y-10113810D01*
X4048597Y-10122598D01*
X4055806Y-10130599D01*
X4064035Y-10137730D01*
X4067598Y-10140322D01*
X27477226Y-4961895D02*
X27478518Y-4951137D01*
X27478447Y-4940424D01*
X27477045Y-4929853D01*
X27474345Y-4919521D01*
X27470379Y-4909525D01*
X27465179Y-4899961D01*
X27462761Y-4896279D01*
X15088727Y-11852000D02*
X15094742Y-11845280D01*
X15102262Y-11834405D01*
X15107976Y-11822763D01*
X15111886Y-11810562D01*
X15113992Y-11798013D01*
X15114292Y-11785325D01*
X15112788Y-11772706D01*
X15109480Y-11760366D01*
X15104367Y-11748515D01*
X15097449Y-11737362D01*
X15088727Y-11727115D01*
X21176967Y-3237695D02*
X21175839Y-3246643D01*
X21171783Y-3256262D01*
X21165236Y-3264199D01*
X21156684Y-3269970D01*
X21146613Y-3273089D01*
X21141160Y-3273501D01*
X5216595Y-3356052D02*
X5210201Y-3364874D01*
X5204940Y-3374368D01*
X5200861Y-3384383D01*
X5198012Y-3394765D01*
X5196443Y-3405359D01*
X5196201Y-3416014D01*
X5196487Y-3420258D01*
X14940913Y-8590000D02*
X14942040Y-8581051D01*
X14946097Y-8571433D01*
X14952644Y-8563496D01*
X14961196Y-8557725D01*
X14971267Y-8554606D01*
X14976720Y-8554194D01*
X19376743Y-3437721D02*
X19375616Y-3446670D01*
X19371559Y-3456288D01*
X19365012Y-3464226D01*
X19356460Y-3469997D01*
X19346389Y-3473115D01*
X19340937Y-3473528D01*
X15664461Y-4211714D02*
X15663333Y-4220662D01*
X15659277Y-4230281D01*
X15652730Y-4238218D01*
X15644178Y-4243989D01*
X15634107Y-4247108D01*
X15628654Y-4247520D01*
X5906275Y-9842224D02*
X5916943Y-9839744D01*
X5927065Y-9835985D01*
X5936560Y-9831012D01*
X5945349Y-9824889D01*
X5953349Y-9817681D01*
X5960481Y-9809452D01*
X5963072Y-9805889D01*
X15628654Y-8829047D02*
X15628654Y-8829047D01*
X21176967Y-2797427D02*
X21176967Y-3237695D01*
X15517000Y-11852000D02*
X16789823Y-13124821D01*
X24642655Y-9805889D02*
X24649418Y-9814508D01*
X24657090Y-9822132D01*
X24665598Y-9828697D01*
X24674870Y-9834138D01*
X24684834Y-9838390D01*
X24695415Y-9841389D01*
X24699805Y-9842224D01*
X27405611Y-4859944D02*
X27378391Y-4855131D01*
X27345101Y-4849250D01*
X27306109Y-4842365D01*
X27261783Y-4834542D01*
X27212490Y-4825845D01*
X27158597Y-4816339D01*
X27100474Y-4806089D01*
X27038486Y-4795158D01*
X26973003Y-4783612D01*
X26904390Y-4771516D01*
X26833017Y-4758934D01*
X26759251Y-4745930D01*
X26683459Y-4732570D01*
X26606009Y-4718918D01*
X26527269Y-4705039D01*
X26447606Y-4690996D01*
X26367388Y-4676856D01*
X26286983Y-4662683D01*
X26206758Y-4648541D01*
X26127081Y-4634495D01*
X26048320Y-4620610D01*
X25970842Y-4606950D01*
X25895014Y-4593580D01*
X25821205Y-4580565D01*
X25749783Y-4567969D01*
X25681114Y-4555857D01*
X25615566Y-4544293D01*
X25553508Y-4533343D01*
X25495306Y-4523071D01*
X25441329Y-4513542D01*
X25391944Y-4504819D01*
X25347518Y-4496969D01*
X9115496Y-10483221D02*
X10843942Y-10946135D01*
X5287460Y-4458601D02*
X5286911Y-4468736D01*
X5283675Y-4478025D01*
X5278104Y-4486010D01*
X5270552Y-4492232D01*
X5261370Y-4496229D01*
X5258008Y-4496989D01*
X15101251Y-3788205D02*
X15092180Y-3788663D01*
X15079078Y-3790998D01*
X15066716Y-3795177D01*
X15055245Y-3801050D01*
X15044815Y-3808465D01*
X15035577Y-3817272D01*
X15027681Y-3827322D01*
X15021277Y-3838463D01*
X15016517Y-3850544D01*
X15013550Y-3863416D01*
X15012528Y-3876928D01*
X21456596Y-10492721D02*
X21468625Y-10488767D01*
X21479974Y-10483721D01*
X21490602Y-10477658D01*
X21500465Y-10470655D01*
X21509519Y-10462787D01*
X21517723Y-10454130D01*
X21525034Y-10444759D01*
X21531408Y-10434751D01*
X21536802Y-10424182D01*
X21541174Y-10413126D01*
X21544481Y-10401660D01*
X21546679Y-10389859D01*
X21547727Y-10377800D01*
X21547580Y-10365557D01*
X21546197Y-10353208D01*
X21543533Y-10340826D01*
X9464567Y-3273501D02*
X9455618Y-3272374D01*
X9446000Y-3268317D01*
X9438062Y-3261770D01*
X9432291Y-3253218D01*
X9429173Y-3243148D01*
X9428761Y-3237695D01*
X15012528Y-4211714D02*
X15011401Y-4220662D01*
X15007344Y-4230281D01*
X15000797Y-4238218D01*
X14992245Y-4243989D01*
X14982175Y-4247108D01*
X14976722Y-4247520D01*
X26538132Y-10140322D02*
X26546751Y-10133559D01*
X26554375Y-10125887D01*
X26560940Y-10117378D01*
X26566381Y-10108106D01*
X26570633Y-10098143D01*
X26573632Y-10087561D01*
X26574467Y-10083172D01*
X11867162Y-11533087D02*
X11913727Y-11559899D01*
X15628654Y-8228972D02*
X15628654Y-8228972D01*
X10850747Y-10948701D02*
X10859604Y-10953358D01*
X10871162Y-10959613D01*
X10885298Y-10967392D01*
X10901891Y-10976625D01*
X10920818Y-10987239D01*
X10941957Y-10999163D01*
X10965185Y-11012324D01*
X10990381Y-11026650D01*
X11017421Y-11042070D01*
X11046184Y-11058511D01*
X11076546Y-11075902D01*
X11108387Y-11094171D01*
X11141583Y-11113246D01*
X11176013Y-11133054D01*
X11211553Y-11153524D01*
X11248082Y-11174585D01*
X11285477Y-11196163D01*
X11323615Y-11218187D01*
X11362376Y-11240586D01*
X11401635Y-11263287D01*
X11441272Y-11286218D01*
X11481163Y-11309308D01*
X11521186Y-11332484D01*
X11561219Y-11355674D01*
X11601140Y-11378807D01*
X11640826Y-11401811D01*
X11680155Y-11424613D01*
X11719005Y-11447142D01*
X11757252Y-11469326D01*
X11794776Y-11491093D01*
X11831454Y-11512371D01*
X11867162Y-11533087D01*
X25347518Y-4496969D02*
X25337892Y-4493815D01*
X25329803Y-4488290D01*
X25323587Y-4480851D01*
X25319583Y-4471955D01*
X25318127Y-4462058D01*
X25318267Y-4458616D01*
X12406895Y-11845464D02*
X12413394Y-11850088D01*
X24628192Y-9739917D02*
X24626900Y-9750817D01*
X24626971Y-9761628D01*
X24628372Y-9772261D01*
X24631072Y-9782627D01*
X24635037Y-9792638D01*
X24640237Y-9802206D01*
X24642655Y-9805889D01*
X15664461Y-7919720D02*
X15663333Y-7928668D01*
X15659277Y-7938287D01*
X15652730Y-7946224D01*
X15644178Y-7951995D01*
X15634107Y-7955114D01*
X15628654Y-7955526D01*
X27181951Y-6636179D02*
X27477226Y-4961895D01*
X14976722Y-4847596D02*
X14985670Y-4848723D01*
X14995289Y-4852779D01*
X15003226Y-4859326D01*
X15008997Y-4867878D01*
X15012116Y-4877949D01*
X15012528Y-4883402D01*
X24795759Y-8789579D02*
X24628192Y-9739917D01*
X15012526Y-7919720D02*
X15011399Y-7928668D01*
X15007342Y-7938287D01*
X15000795Y-7946224D01*
X14992243Y-7951995D01*
X14982172Y-7955114D01*
X14976720Y-7955526D01*
X11228633Y-3437721D02*
X11228633Y-3397502D01*
X7419812Y-3137364D02*
X5276919Y-3324654D01*
X24760496Y-8747556D02*
X24770478Y-8748958D01*
X24779318Y-8752886D01*
X24786666Y-8758923D01*
X24792170Y-8766648D01*
X24795480Y-8775645D01*
X24796244Y-8785494D01*
X24795759Y-8789579D01*
X21543533Y-10340826D02*
X21128379Y-8792636D01*
X14940913Y-3597528D02*
X14940273Y-3584850D01*
X14938394Y-3572538D01*
X14935338Y-3560654D01*
X14931169Y-3549262D01*
X14925947Y-3538422D01*
X14919736Y-3528198D01*
X14912597Y-3518652D01*
X14904594Y-3509847D01*
X14895788Y-3501843D01*
X14886242Y-3494705D01*
X14876019Y-3488494D01*
X14865179Y-3483272D01*
X14853786Y-3479102D01*
X14841903Y-3476047D01*
X14829591Y-3474168D01*
X14816912Y-3473528D01*
X11913727Y-11559899D02*
X11944299Y-11577700D01*
X11973646Y-11594785D01*
X12001793Y-11611169D01*
X12028764Y-11626866D01*
X12054585Y-11641891D01*
X12079280Y-11656257D01*
X12102873Y-11669979D01*
X12125390Y-11683071D01*
X12146854Y-11695548D01*
X12167291Y-11707423D01*
X12186726Y-11718711D01*
X12205182Y-11729427D01*
X12222685Y-11739584D01*
X12239259Y-11749197D01*
X12254929Y-11758281D01*
X12269719Y-11766848D01*
X12283655Y-11774915D01*
X12296761Y-11782494D01*
X12309061Y-11789601D01*
X12320580Y-11796249D01*
X12331344Y-11802453D01*
X12341376Y-11808227D01*
X12350701Y-11813585D01*
X12359344Y-11818542D01*
X12367330Y-11823112D01*
X12381428Y-11831148D01*
X12393192Y-11837808D01*
X12402820Y-11843204D01*
X12406895Y-11845464D01*
X15628654Y-4847596D02*
X15637603Y-4848723D01*
X15647221Y-4852779D01*
X15655159Y-4859326D01*
X15660930Y-4867878D01*
X15664048Y-4877949D01*
X15664461Y-4883402D01*
X11104633Y-3273501D02*
X9464567Y-3273501D01*
X23153228Y-3101701D02*
X23153228Y-2797427D01*
X25329162Y-3324654D02*
X24756251Y-3274561D01*
X13753464Y-13150575D02*
X13764402Y-13149910D01*
X13775009Y-13147941D01*
X13785212Y-13144710D01*
X13794939Y-13140256D01*
X13804117Y-13134620D01*
X13812674Y-13127842D01*
X13815907Y-13124821D01*
X18192719Y-11848995D02*
X18198555Y-11844821D01*
X15788462Y-3473528D02*
X15775783Y-3474168D01*
X15763471Y-3476047D01*
X15751587Y-3479102D01*
X15740195Y-3483272D01*
X15729355Y-3488494D01*
X15719131Y-3494705D01*
X15709585Y-3501843D01*
X15700780Y-3509847D01*
X15692776Y-3518652D01*
X15685638Y-3528198D01*
X15679427Y-3538422D01*
X15674205Y-3549262D01*
X15670036Y-3560654D01*
X15666980Y-3572538D01*
X15665101Y-3584850D01*
X15664461Y-3597528D01*
X14976722Y-8228972D02*
X14976720Y-8228972D01*
X14816912Y-3473528D02*
X11264440Y-3473528D01*
X23153228Y-2797427D02*
X23152588Y-2784748D01*
X23150709Y-2772436D01*
X23147654Y-2760553D01*
X23143484Y-2749160D01*
X23138262Y-2738320D01*
X23132051Y-2728097D01*
X23124913Y-2718551D01*
X23116909Y-2709745D01*
X23108104Y-2701742D01*
X23098558Y-2694603D01*
X23088334Y-2688392D01*
X23077494Y-2683170D01*
X23066102Y-2679001D01*
X23054218Y-2675945D01*
X23041906Y-2674066D01*
X23029228Y-2673426D01*
X14940913Y-4211714D02*
X14940913Y-3597528D01*
X19739138Y-10955457D02*
X19746030Y-10952376D01*
X5977537Y-9740271D02*
X5809965Y-8789577D01*
X26808712Y-8754256D02*
X26821374Y-8682588D01*
X26834084Y-8610632D01*
X26846832Y-8538452D01*
X26859606Y-8466114D01*
X26872395Y-8393681D01*
X26885187Y-8321216D01*
X26897971Y-8248785D01*
X26910736Y-8176451D01*
X26923471Y-8104278D01*
X26936163Y-8032330D01*
X26948803Y-7960672D01*
X26961378Y-7889367D01*
X26973878Y-7818480D01*
X26986290Y-7748074D01*
X26998605Y-7678214D01*
X27010809Y-7608964D01*
X27022893Y-7540388D01*
X27034844Y-7472549D01*
X27046652Y-7405513D01*
X27058305Y-7339343D01*
X27069792Y-7274103D01*
X27081102Y-7209857D01*
X27092223Y-7146669D01*
X27103143Y-7084604D01*
X27113853Y-7023726D01*
X27124340Y-6964098D01*
X27134592Y-6905784D01*
X27144600Y-6848849D01*
X27154351Y-6793357D01*
X27163834Y-6739372D01*
X27173038Y-6686958D01*
X27181951Y-6636179D01*
X15592848Y-8590000D02*
X15593975Y-8581051D01*
X15598032Y-8571433D01*
X15604579Y-8563496D01*
X15613131Y-8557725D01*
X15623201Y-8554606D01*
X15628654Y-8554194D01*
X15592848Y-3876928D02*
X15592390Y-3867856D01*
X15590055Y-3854755D01*
X15585876Y-3842393D01*
X15580003Y-3830922D01*
X15572588Y-3820492D01*
X15563780Y-3811253D01*
X15553731Y-3803357D01*
X15542590Y-3796954D01*
X15530508Y-3792194D01*
X15517637Y-3789227D01*
X15504125Y-3788205D01*
X27462761Y-4896279D02*
X27455998Y-4887660D01*
X27448326Y-4880036D01*
X27439818Y-4873471D01*
X27430546Y-4868030D01*
X27420582Y-4863777D01*
X27410001Y-4860778D01*
X27405611Y-4859944D01*
X15088727Y-11727115D02*
X14951431Y-11590147D01*
X23029228Y-2673426D02*
X21300968Y-2673426D01*
X25409243Y-3420611D02*
X25409567Y-3409437D01*
X25408572Y-3398489D01*
X25406282Y-3387886D01*
X25402721Y-3377749D01*
X25397913Y-3368201D01*
X25391883Y-3359362D01*
X25389134Y-3356052D01*
X4133214Y-10154784D02*
X5906275Y-9842224D01*
X15101251Y-9288362D02*
X15504125Y-9288362D01*
X15628654Y-8554194D02*
X15637603Y-8555321D01*
X15647221Y-8559377D01*
X15655159Y-8565925D01*
X15660930Y-8574476D01*
X15664048Y-8584547D01*
X15664461Y-8590000D01*
X15664461Y-4883402D02*
X15664461Y-7919720D01*
X15012528Y-8590000D02*
X15012528Y-9199639D01*
X14976720Y-8554194D02*
X14985668Y-8555321D01*
X14995286Y-8559377D01*
X15003224Y-8565925D01*
X15008995Y-8574476D01*
X15012113Y-8584547D01*
X15012526Y-8590000D01*
X19340937Y-3473528D02*
X15788462Y-3473528D01*
D11*
D12*
X13749000Y-4955000D02*
X13779000Y-4985000D01*
X13779000Y-4955000D02*
X13749000Y-4985000D01*
X13892500Y-5209500D02*
X13922500Y-5239500D01*
X13922500Y-5209500D02*
X13892500Y-5239500D01*
X14136000Y-5481000D02*
X14166000Y-5511000D01*
X14166000Y-5481000D02*
X14136000Y-5511000D01*
X14394000Y-5468000D02*
X14424000Y-5498000D01*
X14424000Y-5468000D02*
X14394000Y-5498000D01*
X17066500Y-4953240D02*
X17096500Y-4983240D01*
X17096500Y-4953240D02*
X17066500Y-4983240D01*
X17122380Y-5207240D02*
X17152380Y-5237240D01*
X17152380Y-5207240D02*
X17122380Y-5237240D01*
D13*
X8493360Y-8178800D02*
G75*
G03*
X8493360Y-8178800I-25000J0D01*
G01*
X9656680Y-8869680D02*
G75*
G03*
X9656680Y-8869680I-25000J0D01*
G01*
X13860380Y-3870960D02*
G75*
G03*
X13860380Y-3870960I-25000J0D01*
G01*
X13944200Y-3632200D02*
G75*
G03*
X13944200Y-3632200I-25000J0D01*
G01*
X14299800Y-4597400D02*
G75*
G03*
X14299800Y-4597400I-25000J0D01*
G01*
X16677240Y-3873500D02*
G75*
G03*
X16677240Y-3873500I-25000J0D01*
G01*
X16750900Y-3632200D02*
G75*
G03*
X16750900Y-3632200I-25000J0D01*
G01*
X21040960Y-8305800D02*
G75*
G03*
X21040960Y-8305800I-25000J0D01*
G01*
X21040960Y-8768080D02*
G75*
G03*
X21040960Y-8768080I-25000J0D01*
G01*
D14*
X13380720Y-3655700D02*
X13380720Y-3735700D01*
X13340720Y-3695700D02*
X13420720Y-3695700D01*
X14447520Y-3655700D02*
X14447520Y-3735700D01*
X14407520Y-3695700D02*
X14487520Y-3695700D01*
X16189960Y-3655700D02*
X16189960Y-3735700D01*
X16149960Y-3695700D02*
X16229960Y-3695700D01*
X17256760Y-3655700D02*
X17256760Y-3735700D01*
X17216760Y-3695700D02*
X17296760Y-3695700D01*
D10*
X13746820Y-8056820D02*
X13746820Y-7993180D01*
X13683180Y-7993180D01*
X13683180Y-8056820D01*
X13746820Y-8056820D01*
D11*
X13735000Y-7980000D02*
X13695000Y-7980000D01*
X13695000Y-7980000D02*
G75*
G03*
X13695000Y-8070000I0J-45000D01*
G01*
X13695000Y-8070000D02*
X13735000Y-8070000D01*
X13735000Y-8070000D02*
G75*
G03*
X13735000Y-7980000I0J45000D01*
G01*
D10*
X13856820Y-8516820D02*
X13856820Y-8453180D01*
X13793180Y-8453180D01*
X13793180Y-8516820D01*
X13856820Y-8516820D01*
D11*
X13845000Y-8440000D02*
X13805000Y-8440000D01*
X13805000Y-8440000D02*
G75*
G03*
X13805000Y-8530000I0J-45000D01*
G01*
X13805000Y-8530000D02*
X13845000Y-8530000D01*
X13845000Y-8530000D02*
G75*
G03*
X13845000Y-8440000I0J45000D01*
G01*
D10*
X14256820Y-8516820D02*
X14256820Y-8453180D01*
X14193180Y-8453180D01*
X14193180Y-8516820D01*
X14256820Y-8516820D01*
D11*
X14245000Y-8440000D02*
X14205000Y-8440000D01*
X14205000Y-8440000D02*
G75*
G03*
X14205000Y-8530000I0J-45000D01*
G01*
X14205000Y-8530000D02*
X14245000Y-8530000D01*
X14245000Y-8530000D02*
G75*
G03*
X14245000Y-8440000I0J45000D01*
G01*
D10*
X14556820Y-8516820D02*
X14556820Y-8453180D01*
X14493180Y-8453180D01*
X14493180Y-8516820D01*
X14556820Y-8516820D01*
D11*
X14545000Y-8440000D02*
X14505000Y-8440000D01*
X14505000Y-8440000D02*
G75*
G03*
X14505000Y-8530000I0J-45000D01*
G01*
X14505000Y-8530000D02*
X14545000Y-8530000D01*
X14545000Y-8530000D02*
G75*
G03*
X14545000Y-8440000I0J45000D01*
G01*
D10*
X16102820Y-8056820D02*
X16102820Y-7993180D01*
X16039180Y-7993180D01*
X16039180Y-8056820D01*
X16102820Y-8056820D01*
D11*
X16051000Y-8070000D02*
X16091000Y-8070000D01*
X16091000Y-8070000D02*
G75*
G03*
X16091000Y-7980000I0J45000D01*
G01*
X16091000Y-7980000D02*
X16051000Y-7980000D01*
X16051000Y-7980000D02*
G75*
G03*
X16051000Y-8070000I0J-45000D01*
G01*
D10*
X16402820Y-8056820D02*
X16402820Y-7993180D01*
X16339180Y-7993180D01*
X16339180Y-8056820D01*
X16402820Y-8056820D01*
D11*
X16351000Y-8070000D02*
X16391000Y-8070000D01*
X16391000Y-8070000D02*
G75*
G03*
X16391000Y-7980000I0J45000D01*
G01*
X16391000Y-7980000D02*
X16351000Y-7980000D01*
X16351000Y-7980000D02*
G75*
G03*
X16351000Y-8070000I0J-45000D01*
G01*
D10*
X16802820Y-8056820D02*
X16802820Y-7993180D01*
X16739180Y-7993180D01*
X16739180Y-8056820D01*
X16802820Y-8056820D01*
D11*
X16751000Y-8070000D02*
X16791000Y-8070000D01*
X16791000Y-8070000D02*
G75*
G03*
X16791000Y-7980000I0J45000D01*
G01*
X16791000Y-7980000D02*
X16751000Y-7980000D01*
X16751000Y-7980000D02*
G75*
G03*
X16751000Y-8070000I0J-45000D01*
G01*
D10*
X16912820Y-8516820D02*
X16912820Y-8453180D01*
X16849180Y-8453180D01*
X16849180Y-8516820D01*
X16912820Y-8516820D01*
D11*
X16861000Y-8530000D02*
X16901000Y-8530000D01*
X16901000Y-8530000D02*
G75*
G03*
X16901000Y-8440000I0J45000D01*
G01*
X16901000Y-8440000D02*
X16861000Y-8440000D01*
X16861000Y-8440000D02*
G75*
G03*
X16861000Y-8530000I0J-45000D01*
G01*
D15*
X13516000Y-7272000D02*
X13566000Y-7222000D01*
X13516000Y-7172000D01*
X13466000Y-7222000D01*
X13516000Y-7272000D01*
X13770000Y-7272000D02*
X13820000Y-7222000D01*
X13770000Y-7172000D01*
X13720000Y-7222000D01*
X13770000Y-7272000D01*
X14024000Y-7272000D02*
X14074000Y-7222000D01*
X14024000Y-7172000D01*
X13974000Y-7222000D01*
X14024000Y-7272000D01*
X14278000Y-7272000D02*
X14328000Y-7222000D01*
X14278000Y-7172000D01*
X14228000Y-7222000D01*
X14278000Y-7272000D01*
X16335000Y-7270000D02*
X16385000Y-7220000D01*
X16335000Y-7170000D01*
X16285000Y-7220000D01*
X16335000Y-7270000D01*
X16589000Y-7270000D02*
X16639000Y-7220000D01*
X16589000Y-7170000D01*
X16539000Y-7220000D01*
X16589000Y-7270000D01*
X16843000Y-7270000D02*
X16893000Y-7220000D01*
X16843000Y-7170000D01*
X16793000Y-7220000D01*
X16843000Y-7270000D01*
X17097000Y-7270000D02*
X17147000Y-7220000D01*
X17097000Y-7170000D01*
X17047000Y-7220000D01*
X17097000Y-7270000D01*
D16*
X13080390Y-3899390D02*
X13189610Y-4008610D01*
X13189610Y-3899390D02*
X13080390Y-4008610D01*
X13189610Y-3954000D02*
G75*
G03*
X13189610Y-3954000I-54610J0D01*
G01*
X13080390Y-4153390D02*
X13189610Y-4262610D01*
X13189610Y-4153390D02*
X13080390Y-4262610D01*
X13189610Y-4208000D02*
G75*
G03*
X13189610Y-4208000I-54610J0D01*
G01*
X13080390Y-4407390D02*
X13189610Y-4516610D01*
X13189610Y-4407390D02*
X13080390Y-4516610D01*
X13189610Y-4462000D02*
G75*
G03*
X13189610Y-4462000I-54610J0D01*
G01*
X13080390Y-4661390D02*
X13189610Y-4770610D01*
X13189610Y-4661390D02*
X13080390Y-4770610D01*
X13189610Y-4716000D02*
G75*
G03*
X13189610Y-4716000I-54610J0D01*
G01*
X13080390Y-4915390D02*
X13189610Y-5024610D01*
X13189610Y-4915390D02*
X13080390Y-5024610D01*
X13189610Y-4970000D02*
G75*
G03*
X13189610Y-4970000I-54610J0D01*
G01*
X13080390Y-5169390D02*
X13189610Y-5278610D01*
X13189610Y-5169390D02*
X13080390Y-5278610D01*
X13189610Y-5224000D02*
G75*
G03*
X13189610Y-5224000I-54610J0D01*
G01*
X13080390Y-5423390D02*
X13189610Y-5532610D01*
X13189610Y-5423390D02*
X13080390Y-5532610D01*
X13189610Y-5478000D02*
G75*
G03*
X13189610Y-5478000I-54610J0D01*
G01*
X13080390Y-5677390D02*
X13189610Y-5786610D01*
X13189610Y-5677390D02*
X13080390Y-5786610D01*
X13189610Y-5732000D02*
G75*
G03*
X13189610Y-5732000I-54610J0D01*
G01*
X13080390Y-5931390D02*
X13189610Y-6040610D01*
X13189610Y-5931390D02*
X13080390Y-6040610D01*
X13189610Y-5986000D02*
G75*
G03*
X13189610Y-5986000I-54610J0D01*
G01*
X13080390Y-6185390D02*
X13189610Y-6294610D01*
X13189610Y-6185390D02*
X13080390Y-6294610D01*
X13189610Y-6240000D02*
G75*
G03*
X13189610Y-6240000I-54610J0D01*
G01*
X13080390Y-6439390D02*
X13189610Y-6548610D01*
X13189610Y-6439390D02*
X13080390Y-6548610D01*
X13189610Y-6494000D02*
G75*
G03*
X13189610Y-6494000I-54610J0D01*
G01*
X13080390Y-6693390D02*
X13189610Y-6802610D01*
X13189610Y-6693390D02*
X13080390Y-6802610D01*
X13189610Y-6748000D02*
G75*
G03*
X13189610Y-6748000I-54610J0D01*
G01*
X13841990Y-6185390D02*
X13951210Y-6294610D01*
X13951210Y-6185390D02*
X13841990Y-6294610D01*
X13951210Y-6240000D02*
G75*
G03*
X13951210Y-6240000I-54610J0D01*
G01*
X13841990Y-6439390D02*
X13951210Y-6548610D01*
X13951210Y-6439390D02*
X13841990Y-6548610D01*
X13951210Y-6494000D02*
G75*
G03*
X13951210Y-6494000I-54610J0D01*
G01*
X13842390Y-6693390D02*
X13951610Y-6802610D01*
X13951610Y-6693390D02*
X13842390Y-6802610D01*
X13951610Y-6748000D02*
G75*
G03*
X13951610Y-6748000I-54610J0D01*
G01*
X14096390Y-6185390D02*
X14205610Y-6294610D01*
X14205610Y-6185390D02*
X14096390Y-6294610D01*
X14205610Y-6240000D02*
G75*
G03*
X14205610Y-6240000I-54610J0D01*
G01*
X14096390Y-6439390D02*
X14205610Y-6548610D01*
X14205610Y-6439390D02*
X14096390Y-6548610D01*
X14205610Y-6494000D02*
G75*
G03*
X14205610Y-6494000I-54610J0D01*
G01*
X14096390Y-6693390D02*
X14205610Y-6802610D01*
X14205610Y-6693390D02*
X14096390Y-6802610D01*
X14205610Y-6748000D02*
G75*
G03*
X14205610Y-6748000I-54610J0D01*
G01*
X14350390Y-6185390D02*
X14459610Y-6294610D01*
X14459610Y-6185390D02*
X14350390Y-6294610D01*
X14459610Y-6240000D02*
G75*
G03*
X14459610Y-6240000I-54610J0D01*
G01*
X14350390Y-6439390D02*
X14459610Y-6548610D01*
X14459610Y-6439390D02*
X14350390Y-6548610D01*
X14459610Y-6494000D02*
G75*
G03*
X14459610Y-6494000I-54610J0D01*
G01*
X14350390Y-6693390D02*
X14459610Y-6802610D01*
X14459610Y-6693390D02*
X14350390Y-6802610D01*
X14459610Y-6748000D02*
G75*
G03*
X14459610Y-6748000I-54610J0D01*
G01*
X14604390Y-3899390D02*
X14713610Y-4008610D01*
X14713610Y-3899390D02*
X14604390Y-4008610D01*
X14713610Y-3954000D02*
G75*
G03*
X14713610Y-3954000I-54610J0D01*
G01*
X14604390Y-4153390D02*
X14713610Y-4262610D01*
X14713610Y-4153390D02*
X14604390Y-4262610D01*
X14713610Y-4208000D02*
G75*
G03*
X14713610Y-4208000I-54610J0D01*
G01*
X14604390Y-4407390D02*
X14713610Y-4516610D01*
X14713610Y-4407390D02*
X14604390Y-4516610D01*
X14713610Y-4462000D02*
G75*
G03*
X14713610Y-4462000I-54610J0D01*
G01*
X14604390Y-4661390D02*
X14713610Y-4770610D01*
X14713610Y-4661390D02*
X14604390Y-4770610D01*
X14713610Y-4716000D02*
G75*
G03*
X14713610Y-4716000I-54610J0D01*
G01*
X14604390Y-4915390D02*
X14713610Y-5024610D01*
X14713610Y-4915390D02*
X14604390Y-5024610D01*
X14713610Y-4970000D02*
G75*
G03*
X14713610Y-4970000I-54610J0D01*
G01*
X14604390Y-5169390D02*
X14713610Y-5278610D01*
X14713610Y-5169390D02*
X14604390Y-5278610D01*
X14713610Y-5224000D02*
G75*
G03*
X14713610Y-5224000I-54610J0D01*
G01*
X14604390Y-5423390D02*
X14713610Y-5532610D01*
X14713610Y-5423390D02*
X14604390Y-5532610D01*
X14713610Y-5478000D02*
G75*
G03*
X14713610Y-5478000I-54610J0D01*
G01*
X14604390Y-5677390D02*
X14713610Y-5786610D01*
X14713610Y-5677390D02*
X14604390Y-5786610D01*
X14713610Y-5732000D02*
G75*
G03*
X14713610Y-5732000I-54610J0D01*
G01*
X14604390Y-5931390D02*
X14713610Y-6040610D01*
X14713610Y-5931390D02*
X14604390Y-6040610D01*
X14713610Y-5986000D02*
G75*
G03*
X14713610Y-5986000I-54610J0D01*
G01*
X14604390Y-6185390D02*
X14713610Y-6294610D01*
X14713610Y-6185390D02*
X14604390Y-6294610D01*
X14713610Y-6240000D02*
G75*
G03*
X14713610Y-6240000I-54610J0D01*
G01*
X14604390Y-6439390D02*
X14713610Y-6548610D01*
X14713610Y-6439390D02*
X14604390Y-6548610D01*
X14713610Y-6494000D02*
G75*
G03*
X14713610Y-6494000I-54610J0D01*
G01*
X14604390Y-6693390D02*
X14713610Y-6802610D01*
X14713610Y-6693390D02*
X14604390Y-6802610D01*
X14713610Y-6748000D02*
G75*
G03*
X14713610Y-6748000I-54610J0D01*
G01*
X15897390Y-3897065D02*
X16006610Y-4006285D01*
X16006610Y-3897065D02*
X15897390Y-4006285D01*
X16006610Y-3951675D02*
G75*
G03*
X16006610Y-3951675I-54610J0D01*
G01*
X15897390Y-4151065D02*
X16006610Y-4260285D01*
X16006610Y-4151065D02*
X15897390Y-4260285D01*
X16006610Y-4205675D02*
G75*
G03*
X16006610Y-4205675I-54610J0D01*
G01*
X15897390Y-4405065D02*
X16006610Y-4514285D01*
X16006610Y-4405065D02*
X15897390Y-4514285D01*
X16006610Y-4459675D02*
G75*
G03*
X16006610Y-4459675I-54610J0D01*
G01*
X15897390Y-4659065D02*
X16006610Y-4768285D01*
X16006610Y-4659065D02*
X15897390Y-4768285D01*
X16006610Y-4713675D02*
G75*
G03*
X16006610Y-4713675I-54610J0D01*
G01*
X15897390Y-4913065D02*
X16006610Y-5022285D01*
X16006610Y-4913065D02*
X15897390Y-5022285D01*
X16006610Y-4967675D02*
G75*
G03*
X16006610Y-4967675I-54610J0D01*
G01*
X15897390Y-5167065D02*
X16006610Y-5276285D01*
X16006610Y-5167065D02*
X15897390Y-5276285D01*
X16006610Y-5221675D02*
G75*
G03*
X16006610Y-5221675I-54610J0D01*
G01*
X15897390Y-5421065D02*
X16006610Y-5530285D01*
X16006610Y-5421065D02*
X15897390Y-5530285D01*
X16006610Y-5475675D02*
G75*
G03*
X16006610Y-5475675I-54610J0D01*
G01*
X15897390Y-5675065D02*
X16006610Y-5784285D01*
X16006610Y-5675065D02*
X15897390Y-5784285D01*
X16006610Y-5729675D02*
G75*
G03*
X16006610Y-5729675I-54610J0D01*
G01*
X15897390Y-5929065D02*
X16006610Y-6038285D01*
X16006610Y-5929065D02*
X15897390Y-6038285D01*
X16006610Y-5983675D02*
G75*
G03*
X16006610Y-5983675I-54610J0D01*
G01*
X15897390Y-6183065D02*
X16006610Y-6292285D01*
X16006610Y-6183065D02*
X15897390Y-6292285D01*
X16006610Y-6237675D02*
G75*
G03*
X16006610Y-6237675I-54610J0D01*
G01*
X15897390Y-6437065D02*
X16006610Y-6546285D01*
X16006610Y-6437065D02*
X15897390Y-6546285D01*
X16006610Y-6491675D02*
G75*
G03*
X16006610Y-6491675I-54610J0D01*
G01*
X15897390Y-6691065D02*
X16006610Y-6800285D01*
X16006610Y-6691065D02*
X15897390Y-6800285D01*
X16006610Y-6745675D02*
G75*
G03*
X16006610Y-6745675I-54610J0D01*
G01*
X16659390Y-6183065D02*
X16768610Y-6292285D01*
X16768610Y-6183065D02*
X16659390Y-6292285D01*
X16768610Y-6237675D02*
G75*
G03*
X16768610Y-6237675I-54610J0D01*
G01*
X16659390Y-6437065D02*
X16768610Y-6546285D01*
X16768610Y-6437065D02*
X16659390Y-6546285D01*
X16768610Y-6491675D02*
G75*
G03*
X16768610Y-6491675I-54610J0D01*
G01*
X16659390Y-6691065D02*
X16768610Y-6800285D01*
X16768610Y-6691065D02*
X16659390Y-6800285D01*
X16768610Y-6745675D02*
G75*
G03*
X16768610Y-6745675I-54610J0D01*
G01*
X16913390Y-6183065D02*
X17022610Y-6292285D01*
X17022610Y-6183065D02*
X16913390Y-6292285D01*
X17022610Y-6237675D02*
G75*
G03*
X17022610Y-6237675I-54610J0D01*
G01*
X16913390Y-6437065D02*
X17022610Y-6546285D01*
X17022610Y-6437065D02*
X16913390Y-6546285D01*
X17022610Y-6491675D02*
G75*
G03*
X17022610Y-6491675I-54610J0D01*
G01*
X16913390Y-6691065D02*
X17022610Y-6800285D01*
X17022610Y-6691065D02*
X16913390Y-6800285D01*
X17022610Y-6745675D02*
G75*
G03*
X17022610Y-6745675I-54610J0D01*
G01*
X17167390Y-6183065D02*
X17276610Y-6292285D01*
X17276610Y-6183065D02*
X17167390Y-6292285D01*
X17276610Y-6237675D02*
G75*
G03*
X17276610Y-6237675I-54610J0D01*
G01*
X17167390Y-6437065D02*
X17276610Y-6546285D01*
X17276610Y-6437065D02*
X17167390Y-6546285D01*
X17276610Y-6491675D02*
G75*
G03*
X17276610Y-6491675I-54610J0D01*
G01*
X17167390Y-6691065D02*
X17276610Y-6800285D01*
X17276610Y-6691065D02*
X17167390Y-6800285D01*
X17276610Y-6745675D02*
G75*
G03*
X17276610Y-6745675I-54610J0D01*
G01*
X17421390Y-3897065D02*
X17530610Y-4006285D01*
X17530610Y-3897065D02*
X17421390Y-4006285D01*
X17530610Y-3951675D02*
G75*
G03*
X17530610Y-3951675I-54610J0D01*
G01*
X17421390Y-4151065D02*
X17530610Y-4260285D01*
X17530610Y-4151065D02*
X17421390Y-4260285D01*
X17530610Y-4205675D02*
G75*
G03*
X17530610Y-4205675I-54610J0D01*
G01*
X17421390Y-4405065D02*
X17530610Y-4514285D01*
X17530610Y-4405065D02*
X17421390Y-4514285D01*
X17530610Y-4459675D02*
G75*
G03*
X17530610Y-4459675I-54610J0D01*
G01*
X17421390Y-4659065D02*
X17530610Y-4768285D01*
X17530610Y-4659065D02*
X17421390Y-4768285D01*
X17530610Y-4713675D02*
G75*
G03*
X17530610Y-4713675I-54610J0D01*
G01*
X17421390Y-4913065D02*
X17530610Y-5022285D01*
X17530610Y-4913065D02*
X17421390Y-5022285D01*
X17530610Y-4967675D02*
G75*
G03*
X17530610Y-4967675I-54610J0D01*
G01*
X17421390Y-5167065D02*
X17530610Y-5276285D01*
X17530610Y-5167065D02*
X17421390Y-5276285D01*
X17530610Y-5221675D02*
G75*
G03*
X17530610Y-5221675I-54610J0D01*
G01*
X17421390Y-5421065D02*
X17530610Y-5530285D01*
X17530610Y-5421065D02*
X17421390Y-5530285D01*
X17530610Y-5475675D02*
G75*
G03*
X17530610Y-5475675I-54610J0D01*
G01*
X17421390Y-5675065D02*
X17530610Y-5784285D01*
X17530610Y-5675065D02*
X17421390Y-5784285D01*
X17530610Y-5729675D02*
G75*
G03*
X17530610Y-5729675I-54610J0D01*
G01*
X17421390Y-5929065D02*
X17530610Y-6038285D01*
X17530610Y-5929065D02*
X17421390Y-6038285D01*
X17530610Y-5983675D02*
G75*
G03*
X17530610Y-5983675I-54610J0D01*
G01*
X17421390Y-6183065D02*
X17530610Y-6292285D01*
X17530610Y-6183065D02*
X17421390Y-6292285D01*
X17530610Y-6237675D02*
G75*
G03*
X17530610Y-6237675I-54610J0D01*
G01*
X17421390Y-6437065D02*
X17530610Y-6546285D01*
X17530610Y-6437065D02*
X17421390Y-6546285D01*
X17530610Y-6491675D02*
G75*
G03*
X17530610Y-6491675I-54610J0D01*
G01*
X17421390Y-6691065D02*
X17530610Y-6800285D01*
X17530610Y-6691065D02*
X17421390Y-6800285D01*
X17530610Y-6745675D02*
G75*
G03*
X17530610Y-6745675I-54610J0D01*
G01*
D17*
X3751403Y-6021512D02*
X3878403Y-6148512D01*
X3878403Y-6021512D02*
X3751403Y-6148512D01*
X3814903Y-6021512D02*
X3814903Y-6148512D01*
X3751403Y-6085012D02*
X3878403Y-6085012D01*
X4045403Y-7697512D02*
X4172403Y-7824512D01*
X4172403Y-7697512D02*
X4045403Y-7824512D01*
X4108903Y-7697512D02*
X4108903Y-7824512D01*
X4045403Y-7761012D02*
X4172403Y-7761012D01*
X4280273Y-6141497D02*
X4407273Y-6268497D01*
X4407273Y-6141497D02*
X4280273Y-6268497D01*
X4343773Y-6141497D02*
X4343773Y-6268497D01*
X4280273Y-6204997D02*
X4407273Y-6204997D01*
X4340928Y-9371642D02*
X4467928Y-9498642D01*
X4467928Y-9371642D02*
X4340928Y-9498642D01*
X4404428Y-9371642D02*
X4404428Y-9498642D01*
X4340928Y-9435142D02*
X4467928Y-9435142D01*
X4574273Y-7817497D02*
X4701273Y-7944497D01*
X4701273Y-7817497D02*
X4574273Y-7944497D01*
X4637773Y-7817497D02*
X4637773Y-7944497D01*
X4574273Y-7880997D02*
X4701273Y-7880997D01*
X4869798Y-9491627D02*
X4996798Y-9618627D01*
X4996798Y-9491627D02*
X4869798Y-9618627D01*
X4933298Y-9491627D02*
X4933298Y-9618627D01*
X4869798Y-9555127D02*
X4996798Y-9555127D01*
X5718522Y-4537632D02*
X5845522Y-4664632D01*
X5845522Y-4537632D02*
X5718522Y-4664632D01*
X5782022Y-4537632D02*
X5782022Y-4664632D01*
X5718522Y-4601132D02*
X5845522Y-4601132D01*
X5866522Y-6228632D02*
X5993522Y-6355632D01*
X5993522Y-6228632D02*
X5866522Y-6355632D01*
X5930022Y-6228632D02*
X5930022Y-6355632D01*
X5866522Y-6292132D02*
X5993522Y-6292132D01*
X6015108Y-7921783D02*
X6142108Y-8048783D01*
X6142108Y-7921783D02*
X6015108Y-8048783D01*
X6078608Y-7921783D02*
X6078608Y-8048783D01*
X6015108Y-7985283D02*
X6142108Y-7985283D01*
X6234922Y-4703255D02*
X6361922Y-4830255D01*
X6361922Y-4703255D02*
X6234922Y-4830255D01*
X6298422Y-4703255D02*
X6298422Y-4830255D01*
X6234922Y-4766755D02*
X6361922Y-4766755D01*
X6382922Y-6394255D02*
X6509922Y-6521255D01*
X6509922Y-6394255D02*
X6382922Y-6521255D01*
X6446422Y-6394255D02*
X6446422Y-6521255D01*
X6382922Y-6457755D02*
X6509922Y-6457755D01*
X6531508Y-8087406D02*
X6658508Y-8214406D01*
X6658508Y-8087406D02*
X6531508Y-8214406D01*
X6595008Y-8087406D02*
X6595008Y-8214406D01*
X6531508Y-8150906D02*
X6658508Y-8150906D01*
X7867000Y-7328500D02*
X7994000Y-7455500D01*
X7994000Y-7328500D02*
X7867000Y-7455500D01*
X7930500Y-7328500D02*
X7930500Y-7455500D01*
X7867000Y-7392000D02*
X7994000Y-7392000D01*
X7869000Y-3924500D02*
X7996000Y-4051500D01*
X7996000Y-3924500D02*
X7869000Y-4051500D01*
X7932500Y-3924500D02*
X7932500Y-4051500D01*
X7869000Y-3988000D02*
X7996000Y-3988000D01*
X7869000Y-5624500D02*
X7996000Y-5751500D01*
X7996000Y-5624500D02*
X7869000Y-5751500D01*
X7932500Y-5624500D02*
X7932500Y-5751500D01*
X7869000Y-5688000D02*
X7996000Y-5688000D01*
X8367000Y-7538500D02*
X8494000Y-7665500D01*
X8494000Y-7538500D02*
X8367000Y-7665500D01*
X8430500Y-7538500D02*
X8430500Y-7665500D01*
X8367000Y-7602000D02*
X8494000Y-7602000D01*
X8369000Y-4134500D02*
X8496000Y-4261500D01*
X8496000Y-4134500D02*
X8369000Y-4261500D01*
X8432500Y-4134500D02*
X8432500Y-4261500D01*
X8369000Y-4198000D02*
X8496000Y-4198000D01*
X8369000Y-5834500D02*
X8496000Y-5961500D01*
X8496000Y-5834500D02*
X8369000Y-5961500D01*
X8432500Y-5834500D02*
X8432500Y-5961500D01*
X8369000Y-5898000D02*
X8496000Y-5898000D01*
X9575500Y-9980500D02*
X9702500Y-10107500D01*
X9702500Y-9980500D02*
X9575500Y-10107500D01*
X9639000Y-9980500D02*
X9639000Y-10107500D01*
X9575500Y-10044000D02*
X9702500Y-10044000D01*
X9668000Y-6226500D02*
X9795000Y-6353500D01*
X9795000Y-6226500D02*
X9668000Y-6353500D01*
X9731500Y-6226500D02*
X9731500Y-6353500D01*
X9668000Y-6290000D02*
X9795000Y-6290000D01*
X9668500Y-7927500D02*
X9795500Y-8054500D01*
X9795500Y-7927500D02*
X9668500Y-8054500D01*
X9732000Y-7927500D02*
X9732000Y-8054500D01*
X9668500Y-7991000D02*
X9795500Y-7991000D01*
X9670500Y-4523500D02*
X9797500Y-4650500D01*
X9797500Y-4523500D02*
X9670500Y-4650500D01*
X9734000Y-4523500D02*
X9734000Y-4650500D01*
X9670500Y-4587000D02*
X9797500Y-4587000D01*
X10004111Y-10312754D02*
X10131111Y-10439754D01*
X10131111Y-10312754D02*
X10004111Y-10439754D01*
X10067611Y-10312754D02*
X10067611Y-10439754D01*
X10004111Y-10376254D02*
X10131111Y-10376254D01*
X10168000Y-6436500D02*
X10295000Y-6563500D01*
X10295000Y-6436500D02*
X10168000Y-6563500D01*
X10231500Y-6436500D02*
X10231500Y-6563500D01*
X10168000Y-6500000D02*
X10295000Y-6500000D01*
X10168500Y-8137500D02*
X10295500Y-8264500D01*
X10295500Y-8137500D02*
X10168500Y-8264500D01*
X10232000Y-8137500D02*
X10232000Y-8264500D01*
X10168500Y-8201000D02*
X10295500Y-8201000D01*
X10170500Y-4733500D02*
X10297500Y-4860500D01*
X10297500Y-4733500D02*
X10170500Y-4860500D01*
X10234000Y-4733500D02*
X10234000Y-4860500D01*
X10170500Y-4797000D02*
X10297500Y-4797000D01*
X11411500Y-10600500D02*
X11538500Y-10727500D01*
X11538500Y-10600500D02*
X11411500Y-10727500D01*
X11475000Y-10600500D02*
X11475000Y-10727500D01*
X11411500Y-10664000D02*
X11538500Y-10664000D01*
X11468500Y-4725500D02*
X11595500Y-4852500D01*
X11595500Y-4725500D02*
X11468500Y-4852500D01*
X11532000Y-4725500D02*
X11532000Y-4852500D01*
X11468500Y-4789000D02*
X11595500Y-4789000D01*
X11469000Y-6426500D02*
X11596000Y-6553500D01*
X11596000Y-6426500D02*
X11469000Y-6553500D01*
X11532500Y-6426500D02*
X11532500Y-6553500D01*
X11469000Y-6490000D02*
X11596000Y-6490000D01*
X11469000Y-8124500D02*
X11596000Y-8251500D01*
X11596000Y-8124500D02*
X11469000Y-8251500D01*
X11532500Y-8124500D02*
X11532500Y-8251500D01*
X11469000Y-8188000D02*
X11596000Y-8188000D01*
X11739513Y-11032365D02*
X11866513Y-11159365D01*
X11866513Y-11032365D02*
X11739513Y-11159365D01*
X11803013Y-11032365D02*
X11803013Y-11159365D01*
X11739513Y-11095865D02*
X11866513Y-11095865D01*
X11968500Y-4935500D02*
X12095500Y-5062500D01*
X12095500Y-4935500D02*
X11968500Y-5062500D01*
X12032000Y-4935500D02*
X12032000Y-5062500D01*
X11968500Y-4999000D02*
X12095500Y-4999000D01*
X11969000Y-6636500D02*
X12096000Y-6763500D01*
X12096000Y-6636500D02*
X11969000Y-6763500D01*
X12032500Y-6636500D02*
X12032500Y-6763500D01*
X11969000Y-6700000D02*
X12096000Y-6700000D01*
X11969000Y-8334500D02*
X12096000Y-8461500D01*
X12096000Y-8334500D02*
X11969000Y-8461500D01*
X12032500Y-8334500D02*
X12032500Y-8461500D01*
X11969000Y-8398000D02*
X12096000Y-8398000D01*
X13024500Y-11674500D02*
X13151500Y-11801500D01*
X13151500Y-11674500D02*
X13024500Y-11801500D01*
X13088000Y-11674500D02*
X13088000Y-11801500D01*
X13024500Y-11738000D02*
X13151500Y-11738000D01*
X13229561Y-12176546D02*
X13356561Y-12303546D01*
X13356561Y-12176546D02*
X13229561Y-12303546D01*
X13293061Y-12176546D02*
X13293061Y-12303546D01*
X13229561Y-12240046D02*
X13356561Y-12240046D01*
X16732454Y-12378561D02*
X16859454Y-12505561D01*
X16859454Y-12378561D02*
X16732454Y-12505561D01*
X16795954Y-12378561D02*
X16795954Y-12505561D01*
X16732454Y-12442061D02*
X16859454Y-12442061D01*
X17234500Y-12173500D02*
X17361500Y-12300500D01*
X17361500Y-12173500D02*
X17234500Y-12300500D01*
X17298000Y-12173500D02*
X17298000Y-12300500D01*
X17234500Y-12237000D02*
X17361500Y-12237000D01*
X17994000Y-4723500D02*
X18121000Y-4850500D01*
X18121000Y-4723500D02*
X17994000Y-4850500D01*
X18057500Y-4723500D02*
X18057500Y-4850500D01*
X17994000Y-4787000D02*
X18121000Y-4787000D01*
X17994000Y-8123500D02*
X18121000Y-8250500D01*
X18121000Y-8123500D02*
X17994000Y-8250500D01*
X18057500Y-8123500D02*
X18057500Y-8250500D01*
X17994000Y-8187000D02*
X18121000Y-8187000D01*
X17995000Y-6422500D02*
X18122000Y-6549500D01*
X18122000Y-6422500D02*
X17995000Y-6549500D01*
X18058500Y-6422500D02*
X18058500Y-6549500D01*
X17995000Y-6486000D02*
X18122000Y-6486000D01*
X18186500Y-11100500D02*
X18313500Y-11227500D01*
X18313500Y-11100500D02*
X18186500Y-11227500D01*
X18250000Y-11100500D02*
X18250000Y-11227500D01*
X18186500Y-11164000D02*
X18313500Y-11164000D01*
X18494000Y-4933500D02*
X18621000Y-5060500D01*
X18621000Y-4933500D02*
X18494000Y-5060500D01*
X18557500Y-4933500D02*
X18557500Y-5060500D01*
X18494000Y-4997000D02*
X18621000Y-4997000D01*
X18494000Y-8333500D02*
X18621000Y-8460500D01*
X18621000Y-8333500D02*
X18494000Y-8460500D01*
X18557500Y-8333500D02*
X18557500Y-8460500D01*
X18494000Y-8397000D02*
X18621000Y-8397000D01*
X18495000Y-6632500D02*
X18622000Y-6759500D01*
X18622000Y-6632500D02*
X18495000Y-6759500D01*
X18558500Y-6632500D02*
X18558500Y-6759500D01*
X18495000Y-6696000D02*
X18622000Y-6696000D01*
X18724513Y-11032365D02*
X18851513Y-11159365D01*
X18851513Y-11032365D02*
X18724513Y-11159365D01*
X18788013Y-11032365D02*
X18788013Y-11159365D01*
X18724513Y-11095865D02*
X18851513Y-11095865D01*
X19794000Y-7921500D02*
X19921000Y-8048500D01*
X19921000Y-7921500D02*
X19794000Y-8048500D01*
X19857500Y-7921500D02*
X19857500Y-8048500D01*
X19794000Y-7985000D02*
X19921000Y-7985000D01*
X19795000Y-4521500D02*
X19922000Y-4648500D01*
X19922000Y-4521500D02*
X19795000Y-4648500D01*
X19858500Y-4521500D02*
X19858500Y-4648500D01*
X19795000Y-4585000D02*
X19922000Y-4585000D01*
X19795000Y-6221500D02*
X19922000Y-6348500D01*
X19922000Y-6221500D02*
X19795000Y-6348500D01*
X19858500Y-6221500D02*
X19858500Y-6348500D01*
X19795000Y-6285000D02*
X19922000Y-6285000D01*
X19920185Y-10240065D02*
X20047185Y-10367065D01*
X20047185Y-10240065D02*
X19920185Y-10367065D01*
X19983685Y-10240065D02*
X19983685Y-10367065D01*
X19920185Y-10303565D02*
X20047185Y-10303565D01*
X20294000Y-8131500D02*
X20421000Y-8258500D01*
X20421000Y-8131500D02*
X20294000Y-8258500D01*
X20357500Y-8131500D02*
X20357500Y-8258500D01*
X20294000Y-8195000D02*
X20421000Y-8195000D01*
X20295000Y-4731500D02*
X20422000Y-4858500D01*
X20422000Y-4731500D02*
X20295000Y-4858500D01*
X20358500Y-4731500D02*
X20358500Y-4858500D01*
X20295000Y-4795000D02*
X20422000Y-4795000D01*
X20295000Y-6431500D02*
X20422000Y-6558500D01*
X20422000Y-6431500D02*
X20295000Y-6558500D01*
X20358500Y-6431500D02*
X20358500Y-6558500D01*
X20295000Y-6495000D02*
X20422000Y-6495000D01*
X20457500Y-10313500D02*
X20584500Y-10440500D01*
X20584500Y-10313500D02*
X20457500Y-10440500D01*
X20521000Y-10313500D02*
X20521000Y-10440500D01*
X20457500Y-10377000D02*
X20584500Y-10377000D01*
X21594000Y-3921500D02*
X21721000Y-4048500D01*
X21721000Y-3921500D02*
X21594000Y-4048500D01*
X21657500Y-3921500D02*
X21657500Y-4048500D01*
X21594000Y-3985000D02*
X21721000Y-3985000D01*
X21594000Y-7322500D02*
X21721000Y-7449500D01*
X21721000Y-7322500D02*
X21594000Y-7449500D01*
X21657500Y-7322500D02*
X21657500Y-7449500D01*
X21594000Y-7386000D02*
X21721000Y-7386000D01*
X21595000Y-5622500D02*
X21722000Y-5749500D01*
X21722000Y-5622500D02*
X21595000Y-5749500D01*
X21658500Y-5622500D02*
X21658500Y-5749500D01*
X21595000Y-5686000D02*
X21722000Y-5686000D01*
X22094000Y-4131500D02*
X22221000Y-4258500D01*
X22221000Y-4131500D02*
X22094000Y-4258500D01*
X22157500Y-4131500D02*
X22157500Y-4258500D01*
X22094000Y-4195000D02*
X22221000Y-4195000D01*
X22094000Y-7532500D02*
X22221000Y-7659500D01*
X22221000Y-7532500D02*
X22094000Y-7659500D01*
X22157500Y-7532500D02*
X22157500Y-7659500D01*
X22094000Y-7596000D02*
X22221000Y-7596000D01*
X22095000Y-5832500D02*
X22222000Y-5959500D01*
X22222000Y-5832500D02*
X22095000Y-5959500D01*
X22158500Y-5832500D02*
X22158500Y-5959500D01*
X22095000Y-5896000D02*
X22222000Y-5896000D01*
X23452680Y-7834755D02*
X23579680Y-7961755D01*
X23579680Y-7834755D02*
X23452680Y-7961755D01*
X23516180Y-7834755D02*
X23516180Y-7961755D01*
X23452680Y-7898255D02*
X23579680Y-7898255D01*
X23600680Y-6140755D02*
X23727680Y-6267755D01*
X23727680Y-6140755D02*
X23600680Y-6267755D01*
X23664180Y-6140755D02*
X23664180Y-6267755D01*
X23600680Y-6204255D02*
X23727680Y-6204255D01*
X23748680Y-4445756D02*
X23875680Y-4572756D01*
X23875680Y-4445756D02*
X23748680Y-4572756D01*
X23812180Y-4445756D02*
X23812180Y-4572756D01*
X23748680Y-4509256D02*
X23875680Y-4509256D01*
X23932474Y-8087534D02*
X24059474Y-8214534D01*
X24059474Y-8087534D02*
X23932474Y-8214534D01*
X23995974Y-8087534D02*
X23995974Y-8214534D01*
X23932474Y-8151034D02*
X24059474Y-8151034D01*
X24080474Y-6393534D02*
X24207474Y-6520534D01*
X24207474Y-6393534D02*
X24080474Y-6520534D01*
X24143974Y-6393534D02*
X24143974Y-6520534D01*
X24080474Y-6457034D02*
X24207474Y-6457034D01*
X24228474Y-4698534D02*
X24355474Y-4825534D01*
X24355474Y-4698534D02*
X24228474Y-4825534D01*
X24291974Y-4698534D02*
X24291974Y-4825534D01*
X24228474Y-4762034D02*
X24355474Y-4762034D01*
X25138063Y-9193512D02*
X25265063Y-9320512D01*
X25265063Y-9193512D02*
X25138063Y-9320512D01*
X25201563Y-9193512D02*
X25201563Y-9320512D01*
X25138063Y-9257012D02*
X25265063Y-9257012D01*
X25434063Y-7518512D02*
X25561063Y-7645512D01*
X25561063Y-7518512D02*
X25434063Y-7645512D01*
X25497563Y-7518512D02*
X25497563Y-7645512D01*
X25434063Y-7582012D02*
X25561063Y-7582012D01*
X25594001Y-9487146D02*
X25721001Y-9614146D01*
X25721001Y-9487146D02*
X25594001Y-9614146D01*
X25657501Y-9487146D02*
X25657501Y-9614146D01*
X25594001Y-9550646D02*
X25721001Y-9550646D01*
X25727314Y-5845733D02*
X25854314Y-5972733D01*
X25854314Y-5845733D02*
X25727314Y-5972733D01*
X25790814Y-5845733D02*
X25790814Y-5972733D01*
X25727314Y-5909233D02*
X25854314Y-5909233D01*
X25890001Y-7812146D02*
X26017001Y-7939146D01*
X26017001Y-7812146D02*
X25890001Y-7939146D01*
X25953501Y-7812146D02*
X25953501Y-7939146D01*
X25890001Y-7875646D02*
X26017001Y-7875646D01*
X26183251Y-6139367D02*
X26310251Y-6266367D01*
X26310251Y-6139367D02*
X26183251Y-6266367D01*
X26246751Y-6139367D02*
X26246751Y-6266367D01*
X26183251Y-6202867D02*
X26310251Y-6202867D01*
D18*
X13503000Y-7550000D02*
X13633000Y-7680000D01*
X13633000Y-7550000D02*
X13503000Y-7680000D01*
X13613962Y-7660962D02*
X13613962Y-7569038D01*
X13522038Y-7569038D01*
X13522038Y-7660962D01*
X13613962Y-7660962D01*
X14153000Y-7550000D02*
X14283000Y-7680000D01*
X14283000Y-7550000D02*
X14153000Y-7680000D01*
X14263962Y-7660962D02*
X14263962Y-7569038D01*
X14172038Y-7569038D01*
X14172038Y-7660962D01*
X14263962Y-7660962D01*
X16337000Y-7551000D02*
X16467000Y-7681000D01*
X16467000Y-7551000D02*
X16337000Y-7681000D01*
X16447962Y-7661962D02*
X16447962Y-7570038D01*
X16356038Y-7570038D01*
X16356038Y-7661962D01*
X16447962Y-7661962D01*
X16987000Y-7551000D02*
X17117000Y-7681000D01*
X17117000Y-7551000D02*
X16987000Y-7681000D01*
X17097962Y-7661962D02*
X17097962Y-7570038D01*
X17006038Y-7570038D01*
X17006038Y-7661962D01*
X17097962Y-7661962D01*
D19*
X7214000Y-6250000D02*
X7434000Y-6470000D01*
X7434000Y-6250000D02*
X7214000Y-6470000D01*
X7324000Y-6470000D02*
X7434000Y-6360000D01*
X7324000Y-6250000D01*
X7214000Y-6360000D01*
X7324000Y-6470000D01*
X9119000Y-4345000D02*
X9339000Y-4565000D01*
X9339000Y-4345000D02*
X9119000Y-4565000D01*
X9229000Y-4565000D02*
X9339000Y-4455000D01*
X9229000Y-4345000D01*
X9119000Y-4455000D01*
X9229000Y-4565000D01*
X9119000Y-8155000D02*
X9339000Y-8375000D01*
X9339000Y-8155000D02*
X9119000Y-8375000D01*
X9229000Y-8375000D02*
X9339000Y-8265000D01*
X9229000Y-8155000D01*
X9119000Y-8265000D01*
X9229000Y-8375000D01*
X11024000Y-6250000D02*
X11244000Y-6470000D01*
X11244000Y-6250000D02*
X11024000Y-6470000D01*
X11134000Y-6470000D02*
X11244000Y-6360000D01*
X11134000Y-6250000D01*
X11024000Y-6360000D01*
X11134000Y-6470000D01*
X19361000Y-6250000D02*
X19581000Y-6470000D01*
X19581000Y-6250000D02*
X19361000Y-6470000D01*
X19471000Y-6470000D02*
X19581000Y-6360000D01*
X19471000Y-6250000D01*
X19361000Y-6360000D01*
X19471000Y-6470000D01*
X21266000Y-4345000D02*
X21486000Y-4565000D01*
X21486000Y-4345000D02*
X21266000Y-4565000D01*
X21376000Y-4565000D02*
X21486000Y-4455000D01*
X21376000Y-4345000D01*
X21266000Y-4455000D01*
X21376000Y-4565000D01*
X21266000Y-8155000D02*
X21486000Y-8375000D01*
X21486000Y-8155000D02*
X21266000Y-8375000D01*
X21376000Y-8375000D02*
X21486000Y-8265000D01*
X21376000Y-8155000D01*
X21266000Y-8265000D01*
X21376000Y-8375000D01*
X23171000Y-6250000D02*
X23391000Y-6470000D01*
X23391000Y-6250000D02*
X23171000Y-6470000D01*
X23281000Y-6470000D02*
X23391000Y-6360000D01*
X23281000Y-6250000D01*
X23171000Y-6360000D01*
X23281000Y-6470000D01*
D11*
X3380194Y-13466559D02*
X3380194Y-13266559D01*
X3380194Y-13266559D02*
X3427813Y-13266559D01*
X3427813Y-13266559D02*
X3456384Y-13276082D01*
X3456384Y-13276082D02*
X3475432Y-13295130D01*
X3475432Y-13295130D02*
X3484956Y-13314178D01*
X3484956Y-13314178D02*
X3494480Y-13352273D01*
X3494480Y-13352273D02*
X3494480Y-13380844D01*
X3494480Y-13380844D02*
X3484956Y-13418940D01*
X3484956Y-13418940D02*
X3475432Y-13437987D01*
X3475432Y-13437987D02*
X3456384Y-13457035D01*
X3456384Y-13457035D02*
X3427813Y-13466559D01*
X3427813Y-13466559D02*
X3380194Y-13466559D01*
X3580194Y-13466559D02*
X3580194Y-13333225D01*
X3580194Y-13371321D02*
X3589718Y-13352273D01*
X3589718Y-13352273D02*
X3599241Y-13342749D01*
X3599241Y-13342749D02*
X3618289Y-13333225D01*
X3618289Y-13333225D02*
X3637337Y-13333225D01*
X3704003Y-13466559D02*
X3704003Y-13333225D01*
X3704003Y-13266559D02*
X3694480Y-13276082D01*
X3694480Y-13276082D02*
X3704003Y-13285606D01*
X3704003Y-13285606D02*
X3713527Y-13276082D01*
X3713527Y-13276082D02*
X3704003Y-13266559D01*
X3704003Y-13266559D02*
X3704003Y-13285606D01*
X3827813Y-13466559D02*
X3808765Y-13457035D01*
X3808765Y-13457035D02*
X3799241Y-13437987D01*
X3799241Y-13437987D02*
X3799241Y-13266559D01*
X3932575Y-13466559D02*
X3913527Y-13457035D01*
X3913527Y-13457035D02*
X3904003Y-13437987D01*
X3904003Y-13437987D02*
X3904003Y-13266559D01*
X4161146Y-13466559D02*
X4161146Y-13266559D01*
X4161146Y-13266559D02*
X4227813Y-13409416D01*
X4227813Y-13409416D02*
X4294480Y-13266559D01*
X4294480Y-13266559D02*
X4294480Y-13466559D01*
X4475432Y-13466559D02*
X4475432Y-13361797D01*
X4475432Y-13361797D02*
X4465908Y-13342749D01*
X4465908Y-13342749D02*
X4446861Y-13333225D01*
X4446861Y-13333225D02*
X4408765Y-13333225D01*
X4408765Y-13333225D02*
X4389718Y-13342749D01*
X4475432Y-13457035D02*
X4456384Y-13466559D01*
X4456384Y-13466559D02*
X4408765Y-13466559D01*
X4408765Y-13466559D02*
X4389718Y-13457035D01*
X4389718Y-13457035D02*
X4380194Y-13437987D01*
X4380194Y-13437987D02*
X4380194Y-13418940D01*
X4380194Y-13418940D02*
X4389718Y-13399892D01*
X4389718Y-13399892D02*
X4408765Y-13390368D01*
X4408765Y-13390368D02*
X4456384Y-13390368D01*
X4456384Y-13390368D02*
X4475432Y-13380844D01*
X4570670Y-13333225D02*
X4570670Y-13533225D01*
X4570670Y-13342749D02*
X4589718Y-13333225D01*
X4589718Y-13333225D02*
X4627813Y-13333225D01*
X4627813Y-13333225D02*
X4646861Y-13342749D01*
X4646861Y-13342749D02*
X4656384Y-13352273D01*
X4656384Y-13352273D02*
X4665908Y-13371321D01*
X4665908Y-13371321D02*
X4665908Y-13428463D01*
X4665908Y-13428463D02*
X4656384Y-13447511D01*
X4656384Y-13447511D02*
X4646861Y-13457035D01*
X4646861Y-13457035D02*
X4627813Y-13466559D01*
X4627813Y-13466559D02*
X4589718Y-13466559D01*
X4589718Y-13466559D02*
X4570670Y-13457035D01*
X4751623Y-13447511D02*
X4761146Y-13457035D01*
X4761146Y-13457035D02*
X4751623Y-13466559D01*
X4751623Y-13466559D02*
X4742099Y-13457035D01*
X4742099Y-13457035D02*
X4751623Y-13447511D01*
X4751623Y-13447511D02*
X4751623Y-13466559D01*
X4751623Y-13342749D02*
X4761146Y-13352273D01*
X4761146Y-13352273D02*
X4751623Y-13361797D01*
X4751623Y-13361797D02*
X4742099Y-13352273D01*
X4742099Y-13352273D02*
X4751623Y-13342749D01*
X4751623Y-13342749D02*
X4751623Y-13361797D01*
D12*
X3089417Y-13780075D02*
X3119417Y-13810075D01*
X3119417Y-13780075D02*
X3089417Y-13810075D01*
D11*
X3418289Y-13686559D02*
X3437337Y-13686559D01*
X3437337Y-13686559D02*
X3456384Y-13696082D01*
X3456384Y-13696082D02*
X3465908Y-13705606D01*
X3465908Y-13705606D02*
X3475432Y-13724654D01*
X3475432Y-13724654D02*
X3484956Y-13762749D01*
X3484956Y-13762749D02*
X3484956Y-13810368D01*
X3484956Y-13810368D02*
X3475432Y-13848463D01*
X3475432Y-13848463D02*
X3465908Y-13867511D01*
X3465908Y-13867511D02*
X3456384Y-13877035D01*
X3456384Y-13877035D02*
X3437337Y-13886559D01*
X3437337Y-13886559D02*
X3418289Y-13886559D01*
X3418289Y-13886559D02*
X3399241Y-13877035D01*
X3399241Y-13877035D02*
X3389718Y-13867511D01*
X3389718Y-13867511D02*
X3380194Y-13848463D01*
X3380194Y-13848463D02*
X3370670Y-13810368D01*
X3370670Y-13810368D02*
X3370670Y-13762749D01*
X3370670Y-13762749D02*
X3380194Y-13724654D01*
X3380194Y-13724654D02*
X3389718Y-13705606D01*
X3389718Y-13705606D02*
X3399241Y-13696082D01*
X3399241Y-13696082D02*
X3418289Y-13686559D01*
X3570670Y-13867511D02*
X3580194Y-13877035D01*
X3580194Y-13877035D02*
X3570670Y-13886559D01*
X3570670Y-13886559D02*
X3561146Y-13877035D01*
X3561146Y-13877035D02*
X3570670Y-13867511D01*
X3570670Y-13867511D02*
X3570670Y-13886559D01*
X3646861Y-13686559D02*
X3770670Y-13686559D01*
X3770670Y-13686559D02*
X3704003Y-13762749D01*
X3704003Y-13762749D02*
X3732575Y-13762749D01*
X3732575Y-13762749D02*
X3751622Y-13772273D01*
X3751622Y-13772273D02*
X3761146Y-13781797D01*
X3761146Y-13781797D02*
X3770670Y-13800844D01*
X3770670Y-13800844D02*
X3770670Y-13848463D01*
X3770670Y-13848463D02*
X3761146Y-13867511D01*
X3761146Y-13867511D02*
X3751622Y-13877035D01*
X3751622Y-13877035D02*
X3732575Y-13886559D01*
X3732575Y-13886559D02*
X3675432Y-13886559D01*
X3675432Y-13886559D02*
X3656384Y-13877035D01*
X3656384Y-13877035D02*
X3646861Y-13867511D01*
X3894480Y-13686559D02*
X3913527Y-13686559D01*
X3913527Y-13686559D02*
X3932575Y-13696082D01*
X3932575Y-13696082D02*
X3942099Y-13705606D01*
X3942099Y-13705606D02*
X3951622Y-13724654D01*
X3951622Y-13724654D02*
X3961146Y-13762749D01*
X3961146Y-13762749D02*
X3961146Y-13810368D01*
X3961146Y-13810368D02*
X3951622Y-13848463D01*
X3951622Y-13848463D02*
X3942099Y-13867511D01*
X3942099Y-13867511D02*
X3932575Y-13877035D01*
X3932575Y-13877035D02*
X3913527Y-13886559D01*
X3913527Y-13886559D02*
X3894480Y-13886559D01*
X3894480Y-13886559D02*
X3875432Y-13877035D01*
X3875432Y-13877035D02*
X3865908Y-13867511D01*
X3865908Y-13867511D02*
X3856384Y-13848463D01*
X3856384Y-13848463D02*
X3846861Y-13810368D01*
X3846861Y-13810368D02*
X3846861Y-13762749D01*
X3846861Y-13762749D02*
X3856384Y-13724654D01*
X3856384Y-13724654D02*
X3865908Y-13705606D01*
X3865908Y-13705606D02*
X3875432Y-13696082D01*
X3875432Y-13696082D02*
X3894480Y-13686559D01*
X4084956Y-13686559D02*
X4104003Y-13686559D01*
X4104003Y-13686559D02*
X4123051Y-13696082D01*
X4123051Y-13696082D02*
X4132575Y-13705606D01*
X4132575Y-13705606D02*
X4142099Y-13724654D01*
X4142099Y-13724654D02*
X4151622Y-13762749D01*
X4151622Y-13762749D02*
X4151622Y-13810368D01*
X4151622Y-13810368D02*
X4142099Y-13848463D01*
X4142099Y-13848463D02*
X4132575Y-13867511D01*
X4132575Y-13867511D02*
X4123051Y-13877035D01*
X4123051Y-13877035D02*
X4104003Y-13886559D01*
X4104003Y-13886559D02*
X4084956Y-13886559D01*
X4084956Y-13886559D02*
X4065908Y-13877035D01*
X4065908Y-13877035D02*
X4056384Y-13867511D01*
X4056384Y-13867511D02*
X4046861Y-13848463D01*
X4046861Y-13848463D02*
X4037337Y-13810368D01*
X4037337Y-13810368D02*
X4037337Y-13762749D01*
X4037337Y-13762749D02*
X4046861Y-13724654D01*
X4046861Y-13724654D02*
X4056384Y-13705606D01*
X4056384Y-13705606D02*
X4065908Y-13696082D01*
X4065908Y-13696082D02*
X4084956Y-13686559D01*
X4237337Y-13886559D02*
X4237337Y-13753225D01*
X4237337Y-13772273D02*
X4246861Y-13762749D01*
X4246861Y-13762749D02*
X4265908Y-13753225D01*
X4265908Y-13753225D02*
X4294480Y-13753225D01*
X4294480Y-13753225D02*
X4313527Y-13762749D01*
X4313527Y-13762749D02*
X4323051Y-13781797D01*
X4323051Y-13781797D02*
X4323051Y-13886559D01*
X4323051Y-13781797D02*
X4332575Y-13762749D01*
X4332575Y-13762749D02*
X4351623Y-13753225D01*
X4351623Y-13753225D02*
X4380194Y-13753225D01*
X4380194Y-13753225D02*
X4399242Y-13762749D01*
X4399242Y-13762749D02*
X4408765Y-13781797D01*
X4408765Y-13781797D02*
X4408765Y-13886559D01*
X4504004Y-13886559D02*
X4504004Y-13753225D01*
X4504004Y-13772273D02*
X4513527Y-13762749D01*
X4513527Y-13762749D02*
X4532575Y-13753225D01*
X4532575Y-13753225D02*
X4561146Y-13753225D01*
X4561146Y-13753225D02*
X4580194Y-13762749D01*
X4580194Y-13762749D02*
X4589718Y-13781797D01*
X4589718Y-13781797D02*
X4589718Y-13886559D01*
X4589718Y-13781797D02*
X4599242Y-13762749D01*
X4599242Y-13762749D02*
X4618289Y-13753225D01*
X4618289Y-13753225D02*
X4646861Y-13753225D01*
X4646861Y-13753225D02*
X4665908Y-13762749D01*
X4665908Y-13762749D02*
X4675432Y-13781797D01*
X4675432Y-13781797D02*
X4675432Y-13886559D01*
X5065908Y-13677035D02*
X4894480Y-13934178D01*
X5323051Y-13686559D02*
X5342099Y-13686559D01*
X5342099Y-13686559D02*
X5361147Y-13696082D01*
X5361147Y-13696082D02*
X5370670Y-13705606D01*
X5370670Y-13705606D02*
X5380194Y-13724654D01*
X5380194Y-13724654D02*
X5389718Y-13762749D01*
X5389718Y-13762749D02*
X5389718Y-13810368D01*
X5389718Y-13810368D02*
X5380194Y-13848463D01*
X5380194Y-13848463D02*
X5370670Y-13867511D01*
X5370670Y-13867511D02*
X5361147Y-13877035D01*
X5361147Y-13877035D02*
X5342099Y-13886559D01*
X5342099Y-13886559D02*
X5323051Y-13886559D01*
X5323051Y-13886559D02*
X5304004Y-13877035D01*
X5304004Y-13877035D02*
X5294480Y-13867511D01*
X5294480Y-13867511D02*
X5284956Y-13848463D01*
X5284956Y-13848463D02*
X5275432Y-13810368D01*
X5275432Y-13810368D02*
X5275432Y-13762749D01*
X5275432Y-13762749D02*
X5284956Y-13724654D01*
X5284956Y-13724654D02*
X5294480Y-13705606D01*
X5294480Y-13705606D02*
X5304004Y-13696082D01*
X5304004Y-13696082D02*
X5323051Y-13686559D01*
X5475432Y-13867511D02*
X5484956Y-13877035D01*
X5484956Y-13877035D02*
X5475432Y-13886559D01*
X5475432Y-13886559D02*
X5465908Y-13877035D01*
X5465908Y-13877035D02*
X5475432Y-13867511D01*
X5475432Y-13867511D02*
X5475432Y-13886559D01*
X5608765Y-13686559D02*
X5627813Y-13686559D01*
X5627813Y-13686559D02*
X5646861Y-13696082D01*
X5646861Y-13696082D02*
X5656385Y-13705606D01*
X5656385Y-13705606D02*
X5665908Y-13724654D01*
X5665908Y-13724654D02*
X5675432Y-13762749D01*
X5675432Y-13762749D02*
X5675432Y-13810368D01*
X5675432Y-13810368D02*
X5665908Y-13848463D01*
X5665908Y-13848463D02*
X5656385Y-13867511D01*
X5656385Y-13867511D02*
X5646861Y-13877035D01*
X5646861Y-13877035D02*
X5627813Y-13886559D01*
X5627813Y-13886559D02*
X5608765Y-13886559D01*
X5608765Y-13886559D02*
X5589718Y-13877035D01*
X5589718Y-13877035D02*
X5580194Y-13867511D01*
X5580194Y-13867511D02*
X5570670Y-13848463D01*
X5570670Y-13848463D02*
X5561147Y-13810368D01*
X5561147Y-13810368D02*
X5561147Y-13762749D01*
X5561147Y-13762749D02*
X5570670Y-13724654D01*
X5570670Y-13724654D02*
X5580194Y-13705606D01*
X5580194Y-13705606D02*
X5589718Y-13696082D01*
X5589718Y-13696082D02*
X5608765Y-13686559D01*
X5865908Y-13886559D02*
X5751623Y-13886559D01*
X5808765Y-13886559D02*
X5808765Y-13686559D01*
X5808765Y-13686559D02*
X5789718Y-13715130D01*
X5789718Y-13715130D02*
X5770670Y-13734178D01*
X5770670Y-13734178D02*
X5751623Y-13743701D01*
X6056385Y-13886559D02*
X5942099Y-13886559D01*
X5999242Y-13886559D02*
X5999242Y-13686559D01*
X5999242Y-13686559D02*
X5980194Y-13715130D01*
X5980194Y-13715130D02*
X5961146Y-13734178D01*
X5961146Y-13734178D02*
X5942099Y-13743701D01*
X6170670Y-13772273D02*
X6151623Y-13762749D01*
X6151623Y-13762749D02*
X6142099Y-13753225D01*
X6142099Y-13753225D02*
X6132575Y-13734178D01*
X6132575Y-13734178D02*
X6132575Y-13724654D01*
X6132575Y-13724654D02*
X6142099Y-13705606D01*
X6142099Y-13705606D02*
X6151623Y-13696082D01*
X6151623Y-13696082D02*
X6170670Y-13686559D01*
X6170670Y-13686559D02*
X6208766Y-13686559D01*
X6208766Y-13686559D02*
X6227813Y-13696082D01*
X6227813Y-13696082D02*
X6237337Y-13705606D01*
X6237337Y-13705606D02*
X6246861Y-13724654D01*
X6246861Y-13724654D02*
X6246861Y-13734178D01*
X6246861Y-13734178D02*
X6237337Y-13753225D01*
X6237337Y-13753225D02*
X6227813Y-13762749D01*
X6227813Y-13762749D02*
X6208766Y-13772273D01*
X6208766Y-13772273D02*
X6170670Y-13772273D01*
X6170670Y-13772273D02*
X6151623Y-13781797D01*
X6151623Y-13781797D02*
X6142099Y-13791321D01*
X6142099Y-13791321D02*
X6132575Y-13810368D01*
X6132575Y-13810368D02*
X6132575Y-13848463D01*
X6132575Y-13848463D02*
X6142099Y-13867511D01*
X6142099Y-13867511D02*
X6151623Y-13877035D01*
X6151623Y-13877035D02*
X6170670Y-13886559D01*
X6170670Y-13886559D02*
X6208766Y-13886559D01*
X6208766Y-13886559D02*
X6227813Y-13877035D01*
X6227813Y-13877035D02*
X6237337Y-13867511D01*
X6237337Y-13867511D02*
X6246861Y-13848463D01*
X6246861Y-13848463D02*
X6246861Y-13810368D01*
X6246861Y-13810368D02*
X6237337Y-13791321D01*
X6237337Y-13791321D02*
X6227813Y-13781797D01*
X6227813Y-13781797D02*
X6208766Y-13772273D01*
X6323051Y-13686559D02*
X6323051Y-13724654D01*
X6399242Y-13686559D02*
X6399242Y-13724654D01*
X6694480Y-13962749D02*
X6684956Y-13953225D01*
X6684956Y-13953225D02*
X6665908Y-13924654D01*
X6665908Y-13924654D02*
X6656385Y-13905606D01*
X6656385Y-13905606D02*
X6646861Y-13877035D01*
X6646861Y-13877035D02*
X6637337Y-13829416D01*
X6637337Y-13829416D02*
X6637337Y-13791321D01*
X6637337Y-13791321D02*
X6646861Y-13743701D01*
X6646861Y-13743701D02*
X6656385Y-13715130D01*
X6656385Y-13715130D02*
X6665908Y-13696082D01*
X6665908Y-13696082D02*
X6684956Y-13667511D01*
X6684956Y-13667511D02*
X6694480Y-13657987D01*
X6856385Y-13686559D02*
X6818289Y-13686559D01*
X6818289Y-13686559D02*
X6799242Y-13696082D01*
X6799242Y-13696082D02*
X6789718Y-13705606D01*
X6789718Y-13705606D02*
X6770670Y-13734178D01*
X6770670Y-13734178D02*
X6761147Y-13772273D01*
X6761147Y-13772273D02*
X6761147Y-13848463D01*
X6761147Y-13848463D02*
X6770670Y-13867511D01*
X6770670Y-13867511D02*
X6780194Y-13877035D01*
X6780194Y-13877035D02*
X6799242Y-13886559D01*
X6799242Y-13886559D02*
X6837337Y-13886559D01*
X6837337Y-13886559D02*
X6856385Y-13877035D01*
X6856385Y-13877035D02*
X6865908Y-13867511D01*
X6865908Y-13867511D02*
X6875432Y-13848463D01*
X6875432Y-13848463D02*
X6875432Y-13800844D01*
X6875432Y-13800844D02*
X6865908Y-13781797D01*
X6865908Y-13781797D02*
X6856385Y-13772273D01*
X6856385Y-13772273D02*
X6837337Y-13762749D01*
X6837337Y-13762749D02*
X6799242Y-13762749D01*
X6799242Y-13762749D02*
X6780194Y-13772273D01*
X6780194Y-13772273D02*
X6770670Y-13781797D01*
X6770670Y-13781797D02*
X6761147Y-13800844D01*
X7113528Y-13886559D02*
X7113528Y-13686559D01*
X7199242Y-13886559D02*
X7199242Y-13781797D01*
X7199242Y-13781797D02*
X7189718Y-13762749D01*
X7189718Y-13762749D02*
X7170670Y-13753225D01*
X7170670Y-13753225D02*
X7142099Y-13753225D01*
X7142099Y-13753225D02*
X7123051Y-13762749D01*
X7123051Y-13762749D02*
X7113528Y-13772273D01*
X7323051Y-13886559D02*
X7304004Y-13877035D01*
X7304004Y-13877035D02*
X7294480Y-13867511D01*
X7294480Y-13867511D02*
X7284956Y-13848463D01*
X7284956Y-13848463D02*
X7284956Y-13791321D01*
X7284956Y-13791321D02*
X7294480Y-13772273D01*
X7294480Y-13772273D02*
X7304004Y-13762749D01*
X7304004Y-13762749D02*
X7323051Y-13753225D01*
X7323051Y-13753225D02*
X7351623Y-13753225D01*
X7351623Y-13753225D02*
X7370670Y-13762749D01*
X7370670Y-13762749D02*
X7380194Y-13772273D01*
X7380194Y-13772273D02*
X7389718Y-13791321D01*
X7389718Y-13791321D02*
X7389718Y-13848463D01*
X7389718Y-13848463D02*
X7380194Y-13867511D01*
X7380194Y-13867511D02*
X7370670Y-13877035D01*
X7370670Y-13877035D02*
X7351623Y-13886559D01*
X7351623Y-13886559D02*
X7323051Y-13886559D01*
X7504004Y-13886559D02*
X7484956Y-13877035D01*
X7484956Y-13877035D02*
X7475432Y-13857987D01*
X7475432Y-13857987D02*
X7475432Y-13686559D01*
X7656385Y-13877035D02*
X7637337Y-13886559D01*
X7637337Y-13886559D02*
X7599242Y-13886559D01*
X7599242Y-13886559D02*
X7580194Y-13877035D01*
X7580194Y-13877035D02*
X7570670Y-13857987D01*
X7570670Y-13857987D02*
X7570670Y-13781797D01*
X7570670Y-13781797D02*
X7580194Y-13762749D01*
X7580194Y-13762749D02*
X7599242Y-13753225D01*
X7599242Y-13753225D02*
X7637337Y-13753225D01*
X7637337Y-13753225D02*
X7656385Y-13762749D01*
X7656385Y-13762749D02*
X7665909Y-13781797D01*
X7665909Y-13781797D02*
X7665909Y-13800844D01*
X7665909Y-13800844D02*
X7570670Y-13819892D01*
X7742099Y-13877035D02*
X7761147Y-13886559D01*
X7761147Y-13886559D02*
X7799242Y-13886559D01*
X7799242Y-13886559D02*
X7818290Y-13877035D01*
X7818290Y-13877035D02*
X7827813Y-13857987D01*
X7827813Y-13857987D02*
X7827813Y-13848463D01*
X7827813Y-13848463D02*
X7818290Y-13829416D01*
X7818290Y-13829416D02*
X7799242Y-13819892D01*
X7799242Y-13819892D02*
X7770670Y-13819892D01*
X7770670Y-13819892D02*
X7751623Y-13810368D01*
X7751623Y-13810368D02*
X7742099Y-13791321D01*
X7742099Y-13791321D02*
X7742099Y-13781797D01*
X7742099Y-13781797D02*
X7751623Y-13762749D01*
X7751623Y-13762749D02*
X7770670Y-13753225D01*
X7770670Y-13753225D02*
X7799242Y-13753225D01*
X7799242Y-13753225D02*
X7818290Y-13762749D01*
X7894480Y-13962749D02*
X7904004Y-13953225D01*
X7904004Y-13953225D02*
X7923051Y-13924654D01*
X7923051Y-13924654D02*
X7932575Y-13905606D01*
X7932575Y-13905606D02*
X7942099Y-13877035D01*
X7942099Y-13877035D02*
X7951623Y-13829416D01*
X7951623Y-13829416D02*
X7951623Y-13791321D01*
X7951623Y-13791321D02*
X7942099Y-13743701D01*
X7942099Y-13743701D02*
X7932575Y-13715130D01*
X7932575Y-13715130D02*
X7923051Y-13696082D01*
X7923051Y-13696082D02*
X7904004Y-13667511D01*
X7904004Y-13667511D02*
X7894480Y-13657987D01*
D13*
X3119417Y-14059075D02*
G75*
G03*
X3119417Y-14059075I-25000J0D01*
G01*
D11*
X3418289Y-13950559D02*
X3437337Y-13950559D01*
X3437337Y-13950559D02*
X3456384Y-13960082D01*
X3456384Y-13960082D02*
X3465908Y-13969606D01*
X3465908Y-13969606D02*
X3475432Y-13988654D01*
X3475432Y-13988654D02*
X3484956Y-14026749D01*
X3484956Y-14026749D02*
X3484956Y-14074368D01*
X3484956Y-14074368D02*
X3475432Y-14112463D01*
X3475432Y-14112463D02*
X3465908Y-14131511D01*
X3465908Y-14131511D02*
X3456384Y-14141035D01*
X3456384Y-14141035D02*
X3437337Y-14150559D01*
X3437337Y-14150559D02*
X3418289Y-14150559D01*
X3418289Y-14150559D02*
X3399241Y-14141035D01*
X3399241Y-14141035D02*
X3389718Y-14131511D01*
X3389718Y-14131511D02*
X3380194Y-14112463D01*
X3380194Y-14112463D02*
X3370670Y-14074368D01*
X3370670Y-14074368D02*
X3370670Y-14026749D01*
X3370670Y-14026749D02*
X3380194Y-13988654D01*
X3380194Y-13988654D02*
X3389718Y-13969606D01*
X3389718Y-13969606D02*
X3399241Y-13960082D01*
X3399241Y-13960082D02*
X3418289Y-13950559D01*
X3570670Y-14131511D02*
X3580194Y-14141035D01*
X3580194Y-14141035D02*
X3570670Y-14150559D01*
X3570670Y-14150559D02*
X3561146Y-14141035D01*
X3561146Y-14141035D02*
X3570670Y-14131511D01*
X3570670Y-14131511D02*
X3570670Y-14150559D01*
X3761146Y-13950559D02*
X3665908Y-13950559D01*
X3665908Y-13950559D02*
X3656384Y-14045797D01*
X3656384Y-14045797D02*
X3665908Y-14036273D01*
X3665908Y-14036273D02*
X3684956Y-14026749D01*
X3684956Y-14026749D02*
X3732575Y-14026749D01*
X3732575Y-14026749D02*
X3751622Y-14036273D01*
X3751622Y-14036273D02*
X3761146Y-14045797D01*
X3761146Y-14045797D02*
X3770670Y-14064844D01*
X3770670Y-14064844D02*
X3770670Y-14112463D01*
X3770670Y-14112463D02*
X3761146Y-14131511D01*
X3761146Y-14131511D02*
X3751622Y-14141035D01*
X3751622Y-14141035D02*
X3732575Y-14150559D01*
X3732575Y-14150559D02*
X3684956Y-14150559D01*
X3684956Y-14150559D02*
X3665908Y-14141035D01*
X3665908Y-14141035D02*
X3656384Y-14131511D01*
X3894480Y-13950559D02*
X3913527Y-13950559D01*
X3913527Y-13950559D02*
X3932575Y-13960082D01*
X3932575Y-13960082D02*
X3942099Y-13969606D01*
X3942099Y-13969606D02*
X3951622Y-13988654D01*
X3951622Y-13988654D02*
X3961146Y-14026749D01*
X3961146Y-14026749D02*
X3961146Y-14074368D01*
X3961146Y-14074368D02*
X3951622Y-14112463D01*
X3951622Y-14112463D02*
X3942099Y-14131511D01*
X3942099Y-14131511D02*
X3932575Y-14141035D01*
X3932575Y-14141035D02*
X3913527Y-14150559D01*
X3913527Y-14150559D02*
X3894480Y-14150559D01*
X3894480Y-14150559D02*
X3875432Y-14141035D01*
X3875432Y-14141035D02*
X3865908Y-14131511D01*
X3865908Y-14131511D02*
X3856384Y-14112463D01*
X3856384Y-14112463D02*
X3846861Y-14074368D01*
X3846861Y-14074368D02*
X3846861Y-14026749D01*
X3846861Y-14026749D02*
X3856384Y-13988654D01*
X3856384Y-13988654D02*
X3865908Y-13969606D01*
X3865908Y-13969606D02*
X3875432Y-13960082D01*
X3875432Y-13960082D02*
X3894480Y-13950559D01*
X4084956Y-13950559D02*
X4104003Y-13950559D01*
X4104003Y-13950559D02*
X4123051Y-13960082D01*
X4123051Y-13960082D02*
X4132575Y-13969606D01*
X4132575Y-13969606D02*
X4142099Y-13988654D01*
X4142099Y-13988654D02*
X4151622Y-14026749D01*
X4151622Y-14026749D02*
X4151622Y-14074368D01*
X4151622Y-14074368D02*
X4142099Y-14112463D01*
X4142099Y-14112463D02*
X4132575Y-14131511D01*
X4132575Y-14131511D02*
X4123051Y-14141035D01*
X4123051Y-14141035D02*
X4104003Y-14150559D01*
X4104003Y-14150559D02*
X4084956Y-14150559D01*
X4084956Y-14150559D02*
X4065908Y-14141035D01*
X4065908Y-14141035D02*
X4056384Y-14131511D01*
X4056384Y-14131511D02*
X4046861Y-14112463D01*
X4046861Y-14112463D02*
X4037337Y-14074368D01*
X4037337Y-14074368D02*
X4037337Y-14026749D01*
X4037337Y-14026749D02*
X4046861Y-13988654D01*
X4046861Y-13988654D02*
X4056384Y-13969606D01*
X4056384Y-13969606D02*
X4065908Y-13960082D01*
X4065908Y-13960082D02*
X4084956Y-13950559D01*
X4237337Y-14150559D02*
X4237337Y-14017225D01*
X4237337Y-14036273D02*
X4246861Y-14026749D01*
X4246861Y-14026749D02*
X4265908Y-14017225D01*
X4265908Y-14017225D02*
X4294480Y-14017225D01*
X4294480Y-14017225D02*
X4313527Y-14026749D01*
X4313527Y-14026749D02*
X4323051Y-14045797D01*
X4323051Y-14045797D02*
X4323051Y-14150559D01*
X4323051Y-14045797D02*
X4332575Y-14026749D01*
X4332575Y-14026749D02*
X4351623Y-14017225D01*
X4351623Y-14017225D02*
X4380194Y-14017225D01*
X4380194Y-14017225D02*
X4399242Y-14026749D01*
X4399242Y-14026749D02*
X4408765Y-14045797D01*
X4408765Y-14045797D02*
X4408765Y-14150559D01*
X4504004Y-14150559D02*
X4504004Y-14017225D01*
X4504004Y-14036273D02*
X4513527Y-14026749D01*
X4513527Y-14026749D02*
X4532575Y-14017225D01*
X4532575Y-14017225D02*
X4561146Y-14017225D01*
X4561146Y-14017225D02*
X4580194Y-14026749D01*
X4580194Y-14026749D02*
X4589718Y-14045797D01*
X4589718Y-14045797D02*
X4589718Y-14150559D01*
X4589718Y-14045797D02*
X4599242Y-14026749D01*
X4599242Y-14026749D02*
X4618289Y-14017225D01*
X4618289Y-14017225D02*
X4646861Y-14017225D01*
X4646861Y-14017225D02*
X4665908Y-14026749D01*
X4665908Y-14026749D02*
X4675432Y-14045797D01*
X4675432Y-14045797D02*
X4675432Y-14150559D01*
X5065908Y-13941035D02*
X4894480Y-14198178D01*
X5323051Y-13950559D02*
X5342099Y-13950559D01*
X5342099Y-13950559D02*
X5361147Y-13960082D01*
X5361147Y-13960082D02*
X5370670Y-13969606D01*
X5370670Y-13969606D02*
X5380194Y-13988654D01*
X5380194Y-13988654D02*
X5389718Y-14026749D01*
X5389718Y-14026749D02*
X5389718Y-14074368D01*
X5389718Y-14074368D02*
X5380194Y-14112463D01*
X5380194Y-14112463D02*
X5370670Y-14131511D01*
X5370670Y-14131511D02*
X5361147Y-14141035D01*
X5361147Y-14141035D02*
X5342099Y-14150559D01*
X5342099Y-14150559D02*
X5323051Y-14150559D01*
X5323051Y-14150559D02*
X5304004Y-14141035D01*
X5304004Y-14141035D02*
X5294480Y-14131511D01*
X5294480Y-14131511D02*
X5284956Y-14112463D01*
X5284956Y-14112463D02*
X5275432Y-14074368D01*
X5275432Y-14074368D02*
X5275432Y-14026749D01*
X5275432Y-14026749D02*
X5284956Y-13988654D01*
X5284956Y-13988654D02*
X5294480Y-13969606D01*
X5294480Y-13969606D02*
X5304004Y-13960082D01*
X5304004Y-13960082D02*
X5323051Y-13950559D01*
X5475432Y-14131511D02*
X5484956Y-14141035D01*
X5484956Y-14141035D02*
X5475432Y-14150559D01*
X5475432Y-14150559D02*
X5465908Y-14141035D01*
X5465908Y-14141035D02*
X5475432Y-14131511D01*
X5475432Y-14131511D02*
X5475432Y-14150559D01*
X5608765Y-13950559D02*
X5627813Y-13950559D01*
X5627813Y-13950559D02*
X5646861Y-13960082D01*
X5646861Y-13960082D02*
X5656385Y-13969606D01*
X5656385Y-13969606D02*
X5665908Y-13988654D01*
X5665908Y-13988654D02*
X5675432Y-14026749D01*
X5675432Y-14026749D02*
X5675432Y-14074368D01*
X5675432Y-14074368D02*
X5665908Y-14112463D01*
X5665908Y-14112463D02*
X5656385Y-14131511D01*
X5656385Y-14131511D02*
X5646861Y-14141035D01*
X5646861Y-14141035D02*
X5627813Y-14150559D01*
X5627813Y-14150559D02*
X5608765Y-14150559D01*
X5608765Y-14150559D02*
X5589718Y-14141035D01*
X5589718Y-14141035D02*
X5580194Y-14131511D01*
X5580194Y-14131511D02*
X5570670Y-14112463D01*
X5570670Y-14112463D02*
X5561147Y-14074368D01*
X5561147Y-14074368D02*
X5561147Y-14026749D01*
X5561147Y-14026749D02*
X5570670Y-13988654D01*
X5570670Y-13988654D02*
X5580194Y-13969606D01*
X5580194Y-13969606D02*
X5589718Y-13960082D01*
X5589718Y-13960082D02*
X5608765Y-13950559D01*
X5865908Y-14150559D02*
X5751623Y-14150559D01*
X5808765Y-14150559D02*
X5808765Y-13950559D01*
X5808765Y-13950559D02*
X5789718Y-13979130D01*
X5789718Y-13979130D02*
X5770670Y-13998178D01*
X5770670Y-13998178D02*
X5751623Y-14007701D01*
X5961146Y-14150559D02*
X5999242Y-14150559D01*
X5999242Y-14150559D02*
X6018289Y-14141035D01*
X6018289Y-14141035D02*
X6027813Y-14131511D01*
X6027813Y-14131511D02*
X6046861Y-14102940D01*
X6046861Y-14102940D02*
X6056385Y-14064844D01*
X6056385Y-14064844D02*
X6056385Y-13988654D01*
X6056385Y-13988654D02*
X6046861Y-13969606D01*
X6046861Y-13969606D02*
X6037337Y-13960082D01*
X6037337Y-13960082D02*
X6018289Y-13950559D01*
X6018289Y-13950559D02*
X5980194Y-13950559D01*
X5980194Y-13950559D02*
X5961146Y-13960082D01*
X5961146Y-13960082D02*
X5951623Y-13969606D01*
X5951623Y-13969606D02*
X5942099Y-13988654D01*
X5942099Y-13988654D02*
X5942099Y-14036273D01*
X5942099Y-14036273D02*
X5951623Y-14055321D01*
X5951623Y-14055321D02*
X5961146Y-14064844D01*
X5961146Y-14064844D02*
X5980194Y-14074368D01*
X5980194Y-14074368D02*
X6018289Y-14074368D01*
X6018289Y-14074368D02*
X6037337Y-14064844D01*
X6037337Y-14064844D02*
X6046861Y-14055321D01*
X6046861Y-14055321D02*
X6056385Y-14036273D01*
X6123051Y-13950559D02*
X6256385Y-13950559D01*
X6256385Y-13950559D02*
X6170670Y-14150559D01*
X6323051Y-13950559D02*
X6323051Y-13988654D01*
X6399242Y-13950559D02*
X6399242Y-13988654D01*
X6694480Y-14226749D02*
X6684956Y-14217225D01*
X6684956Y-14217225D02*
X6665908Y-14188654D01*
X6665908Y-14188654D02*
X6656385Y-14169606D01*
X6656385Y-14169606D02*
X6646861Y-14141035D01*
X6646861Y-14141035D02*
X6637337Y-14093416D01*
X6637337Y-14093416D02*
X6637337Y-14055321D01*
X6637337Y-14055321D02*
X6646861Y-14007701D01*
X6646861Y-14007701D02*
X6656385Y-13979130D01*
X6656385Y-13979130D02*
X6665908Y-13960082D01*
X6665908Y-13960082D02*
X6684956Y-13931511D01*
X6684956Y-13931511D02*
X6694480Y-13921987D01*
X6780194Y-14150559D02*
X6818289Y-14150559D01*
X6818289Y-14150559D02*
X6837337Y-14141035D01*
X6837337Y-14141035D02*
X6846861Y-14131511D01*
X6846861Y-14131511D02*
X6865908Y-14102940D01*
X6865908Y-14102940D02*
X6875432Y-14064844D01*
X6875432Y-14064844D02*
X6875432Y-13988654D01*
X6875432Y-13988654D02*
X6865908Y-13969606D01*
X6865908Y-13969606D02*
X6856385Y-13960082D01*
X6856385Y-13960082D02*
X6837337Y-13950559D01*
X6837337Y-13950559D02*
X6799242Y-13950559D01*
X6799242Y-13950559D02*
X6780194Y-13960082D01*
X6780194Y-13960082D02*
X6770670Y-13969606D01*
X6770670Y-13969606D02*
X6761147Y-13988654D01*
X6761147Y-13988654D02*
X6761147Y-14036273D01*
X6761147Y-14036273D02*
X6770670Y-14055321D01*
X6770670Y-14055321D02*
X6780194Y-14064844D01*
X6780194Y-14064844D02*
X6799242Y-14074368D01*
X6799242Y-14074368D02*
X6837337Y-14074368D01*
X6837337Y-14074368D02*
X6856385Y-14064844D01*
X6856385Y-14064844D02*
X6865908Y-14055321D01*
X6865908Y-14055321D02*
X6875432Y-14036273D01*
X7113528Y-14150559D02*
X7113528Y-13950559D01*
X7199242Y-14150559D02*
X7199242Y-14045797D01*
X7199242Y-14045797D02*
X7189718Y-14026749D01*
X7189718Y-14026749D02*
X7170670Y-14017225D01*
X7170670Y-14017225D02*
X7142099Y-14017225D01*
X7142099Y-14017225D02*
X7123051Y-14026749D01*
X7123051Y-14026749D02*
X7113528Y-14036273D01*
X7323051Y-14150559D02*
X7304004Y-14141035D01*
X7304004Y-14141035D02*
X7294480Y-14131511D01*
X7294480Y-14131511D02*
X7284956Y-14112463D01*
X7284956Y-14112463D02*
X7284956Y-14055321D01*
X7284956Y-14055321D02*
X7294480Y-14036273D01*
X7294480Y-14036273D02*
X7304004Y-14026749D01*
X7304004Y-14026749D02*
X7323051Y-14017225D01*
X7323051Y-14017225D02*
X7351623Y-14017225D01*
X7351623Y-14017225D02*
X7370670Y-14026749D01*
X7370670Y-14026749D02*
X7380194Y-14036273D01*
X7380194Y-14036273D02*
X7389718Y-14055321D01*
X7389718Y-14055321D02*
X7389718Y-14112463D01*
X7389718Y-14112463D02*
X7380194Y-14131511D01*
X7380194Y-14131511D02*
X7370670Y-14141035D01*
X7370670Y-14141035D02*
X7351623Y-14150559D01*
X7351623Y-14150559D02*
X7323051Y-14150559D01*
X7504004Y-14150559D02*
X7484956Y-14141035D01*
X7484956Y-14141035D02*
X7475432Y-14121987D01*
X7475432Y-14121987D02*
X7475432Y-13950559D01*
X7656385Y-14141035D02*
X7637337Y-14150559D01*
X7637337Y-14150559D02*
X7599242Y-14150559D01*
X7599242Y-14150559D02*
X7580194Y-14141035D01*
X7580194Y-14141035D02*
X7570670Y-14121987D01*
X7570670Y-14121987D02*
X7570670Y-14045797D01*
X7570670Y-14045797D02*
X7580194Y-14026749D01*
X7580194Y-14026749D02*
X7599242Y-14017225D01*
X7599242Y-14017225D02*
X7637337Y-14017225D01*
X7637337Y-14017225D02*
X7656385Y-14026749D01*
X7656385Y-14026749D02*
X7665909Y-14045797D01*
X7665909Y-14045797D02*
X7665909Y-14064844D01*
X7665909Y-14064844D02*
X7570670Y-14083892D01*
X7742099Y-14141035D02*
X7761147Y-14150559D01*
X7761147Y-14150559D02*
X7799242Y-14150559D01*
X7799242Y-14150559D02*
X7818290Y-14141035D01*
X7818290Y-14141035D02*
X7827813Y-14121987D01*
X7827813Y-14121987D02*
X7827813Y-14112463D01*
X7827813Y-14112463D02*
X7818290Y-14093416D01*
X7818290Y-14093416D02*
X7799242Y-14083892D01*
X7799242Y-14083892D02*
X7770670Y-14083892D01*
X7770670Y-14083892D02*
X7751623Y-14074368D01*
X7751623Y-14074368D02*
X7742099Y-14055321D01*
X7742099Y-14055321D02*
X7742099Y-14045797D01*
X7742099Y-14045797D02*
X7751623Y-14026749D01*
X7751623Y-14026749D02*
X7770670Y-14017225D01*
X7770670Y-14017225D02*
X7799242Y-14017225D01*
X7799242Y-14017225D02*
X7818290Y-14026749D01*
X7894480Y-14226749D02*
X7904004Y-14217225D01*
X7904004Y-14217225D02*
X7923051Y-14188654D01*
X7923051Y-14188654D02*
X7932575Y-14169606D01*
X7932575Y-14169606D02*
X7942099Y-14141035D01*
X7942099Y-14141035D02*
X7951623Y-14093416D01*
X7951623Y-14093416D02*
X7951623Y-14055321D01*
X7951623Y-14055321D02*
X7942099Y-14007701D01*
X7942099Y-14007701D02*
X7932575Y-13979130D01*
X7932575Y-13979130D02*
X7923051Y-13960082D01*
X7923051Y-13960082D02*
X7904004Y-13931511D01*
X7904004Y-13931511D02*
X7894480Y-13921987D01*
D14*
X3079417Y-14283075D02*
X3079417Y-14363075D01*
X3039417Y-14323075D02*
X3119417Y-14323075D01*
D11*
X3418289Y-14214559D02*
X3437337Y-14214559D01*
X3437337Y-14214559D02*
X3456384Y-14224082D01*
X3456384Y-14224082D02*
X3465908Y-14233606D01*
X3465908Y-14233606D02*
X3475432Y-14252654D01*
X3475432Y-14252654D02*
X3484956Y-14290749D01*
X3484956Y-14290749D02*
X3484956Y-14338368D01*
X3484956Y-14338368D02*
X3475432Y-14376463D01*
X3475432Y-14376463D02*
X3465908Y-14395511D01*
X3465908Y-14395511D02*
X3456384Y-14405035D01*
X3456384Y-14405035D02*
X3437337Y-14414559D01*
X3437337Y-14414559D02*
X3418289Y-14414559D01*
X3418289Y-14414559D02*
X3399241Y-14405035D01*
X3399241Y-14405035D02*
X3389718Y-14395511D01*
X3389718Y-14395511D02*
X3380194Y-14376463D01*
X3380194Y-14376463D02*
X3370670Y-14338368D01*
X3370670Y-14338368D02*
X3370670Y-14290749D01*
X3370670Y-14290749D02*
X3380194Y-14252654D01*
X3380194Y-14252654D02*
X3389718Y-14233606D01*
X3389718Y-14233606D02*
X3399241Y-14224082D01*
X3399241Y-14224082D02*
X3418289Y-14214559D01*
X3570670Y-14395511D02*
X3580194Y-14405035D01*
X3580194Y-14405035D02*
X3570670Y-14414559D01*
X3570670Y-14414559D02*
X3561146Y-14405035D01*
X3561146Y-14405035D02*
X3570670Y-14395511D01*
X3570670Y-14395511D02*
X3570670Y-14414559D01*
X3694480Y-14300273D02*
X3675432Y-14290749D01*
X3675432Y-14290749D02*
X3665908Y-14281225D01*
X3665908Y-14281225D02*
X3656384Y-14262178D01*
X3656384Y-14262178D02*
X3656384Y-14252654D01*
X3656384Y-14252654D02*
X3665908Y-14233606D01*
X3665908Y-14233606D02*
X3675432Y-14224082D01*
X3675432Y-14224082D02*
X3694480Y-14214559D01*
X3694480Y-14214559D02*
X3732575Y-14214559D01*
X3732575Y-14214559D02*
X3751622Y-14224082D01*
X3751622Y-14224082D02*
X3761146Y-14233606D01*
X3761146Y-14233606D02*
X3770670Y-14252654D01*
X3770670Y-14252654D02*
X3770670Y-14262178D01*
X3770670Y-14262178D02*
X3761146Y-14281225D01*
X3761146Y-14281225D02*
X3751622Y-14290749D01*
X3751622Y-14290749D02*
X3732575Y-14300273D01*
X3732575Y-14300273D02*
X3694480Y-14300273D01*
X3694480Y-14300273D02*
X3675432Y-14309797D01*
X3675432Y-14309797D02*
X3665908Y-14319321D01*
X3665908Y-14319321D02*
X3656384Y-14338368D01*
X3656384Y-14338368D02*
X3656384Y-14376463D01*
X3656384Y-14376463D02*
X3665908Y-14395511D01*
X3665908Y-14395511D02*
X3675432Y-14405035D01*
X3675432Y-14405035D02*
X3694480Y-14414559D01*
X3694480Y-14414559D02*
X3732575Y-14414559D01*
X3732575Y-14414559D02*
X3751622Y-14405035D01*
X3751622Y-14405035D02*
X3761146Y-14395511D01*
X3761146Y-14395511D02*
X3770670Y-14376463D01*
X3770670Y-14376463D02*
X3770670Y-14338368D01*
X3770670Y-14338368D02*
X3761146Y-14319321D01*
X3761146Y-14319321D02*
X3751622Y-14309797D01*
X3751622Y-14309797D02*
X3732575Y-14300273D01*
X3894480Y-14214559D02*
X3913527Y-14214559D01*
X3913527Y-14214559D02*
X3932575Y-14224082D01*
X3932575Y-14224082D02*
X3942099Y-14233606D01*
X3942099Y-14233606D02*
X3951622Y-14252654D01*
X3951622Y-14252654D02*
X3961146Y-14290749D01*
X3961146Y-14290749D02*
X3961146Y-14338368D01*
X3961146Y-14338368D02*
X3951622Y-14376463D01*
X3951622Y-14376463D02*
X3942099Y-14395511D01*
X3942099Y-14395511D02*
X3932575Y-14405035D01*
X3932575Y-14405035D02*
X3913527Y-14414559D01*
X3913527Y-14414559D02*
X3894480Y-14414559D01*
X3894480Y-14414559D02*
X3875432Y-14405035D01*
X3875432Y-14405035D02*
X3865908Y-14395511D01*
X3865908Y-14395511D02*
X3856384Y-14376463D01*
X3856384Y-14376463D02*
X3846861Y-14338368D01*
X3846861Y-14338368D02*
X3846861Y-14290749D01*
X3846861Y-14290749D02*
X3856384Y-14252654D01*
X3856384Y-14252654D02*
X3865908Y-14233606D01*
X3865908Y-14233606D02*
X3875432Y-14224082D01*
X3875432Y-14224082D02*
X3894480Y-14214559D01*
X4084956Y-14214559D02*
X4104003Y-14214559D01*
X4104003Y-14214559D02*
X4123051Y-14224082D01*
X4123051Y-14224082D02*
X4132575Y-14233606D01*
X4132575Y-14233606D02*
X4142099Y-14252654D01*
X4142099Y-14252654D02*
X4151622Y-14290749D01*
X4151622Y-14290749D02*
X4151622Y-14338368D01*
X4151622Y-14338368D02*
X4142099Y-14376463D01*
X4142099Y-14376463D02*
X4132575Y-14395511D01*
X4132575Y-14395511D02*
X4123051Y-14405035D01*
X4123051Y-14405035D02*
X4104003Y-14414559D01*
X4104003Y-14414559D02*
X4084956Y-14414559D01*
X4084956Y-14414559D02*
X4065908Y-14405035D01*
X4065908Y-14405035D02*
X4056384Y-14395511D01*
X4056384Y-14395511D02*
X4046861Y-14376463D01*
X4046861Y-14376463D02*
X4037337Y-14338368D01*
X4037337Y-14338368D02*
X4037337Y-14290749D01*
X4037337Y-14290749D02*
X4046861Y-14252654D01*
X4046861Y-14252654D02*
X4056384Y-14233606D01*
X4056384Y-14233606D02*
X4065908Y-14224082D01*
X4065908Y-14224082D02*
X4084956Y-14214559D01*
X4237337Y-14414559D02*
X4237337Y-14281225D01*
X4237337Y-14300273D02*
X4246861Y-14290749D01*
X4246861Y-14290749D02*
X4265908Y-14281225D01*
X4265908Y-14281225D02*
X4294480Y-14281225D01*
X4294480Y-14281225D02*
X4313527Y-14290749D01*
X4313527Y-14290749D02*
X4323051Y-14309797D01*
X4323051Y-14309797D02*
X4323051Y-14414559D01*
X4323051Y-14309797D02*
X4332575Y-14290749D01*
X4332575Y-14290749D02*
X4351623Y-14281225D01*
X4351623Y-14281225D02*
X4380194Y-14281225D01*
X4380194Y-14281225D02*
X4399242Y-14290749D01*
X4399242Y-14290749D02*
X4408765Y-14309797D01*
X4408765Y-14309797D02*
X4408765Y-14414559D01*
X4504004Y-14414559D02*
X4504004Y-14281225D01*
X4504004Y-14300273D02*
X4513527Y-14290749D01*
X4513527Y-14290749D02*
X4532575Y-14281225D01*
X4532575Y-14281225D02*
X4561146Y-14281225D01*
X4561146Y-14281225D02*
X4580194Y-14290749D01*
X4580194Y-14290749D02*
X4589718Y-14309797D01*
X4589718Y-14309797D02*
X4589718Y-14414559D01*
X4589718Y-14309797D02*
X4599242Y-14290749D01*
X4599242Y-14290749D02*
X4618289Y-14281225D01*
X4618289Y-14281225D02*
X4646861Y-14281225D01*
X4646861Y-14281225D02*
X4665908Y-14290749D01*
X4665908Y-14290749D02*
X4675432Y-14309797D01*
X4675432Y-14309797D02*
X4675432Y-14414559D01*
X5065908Y-14205035D02*
X4894480Y-14462178D01*
X5323051Y-14214559D02*
X5342099Y-14214559D01*
X5342099Y-14214559D02*
X5361147Y-14224082D01*
X5361147Y-14224082D02*
X5370670Y-14233606D01*
X5370670Y-14233606D02*
X5380194Y-14252654D01*
X5380194Y-14252654D02*
X5389718Y-14290749D01*
X5389718Y-14290749D02*
X5389718Y-14338368D01*
X5389718Y-14338368D02*
X5380194Y-14376463D01*
X5380194Y-14376463D02*
X5370670Y-14395511D01*
X5370670Y-14395511D02*
X5361147Y-14405035D01*
X5361147Y-14405035D02*
X5342099Y-14414559D01*
X5342099Y-14414559D02*
X5323051Y-14414559D01*
X5323051Y-14414559D02*
X5304004Y-14405035D01*
X5304004Y-14405035D02*
X5294480Y-14395511D01*
X5294480Y-14395511D02*
X5284956Y-14376463D01*
X5284956Y-14376463D02*
X5275432Y-14338368D01*
X5275432Y-14338368D02*
X5275432Y-14290749D01*
X5275432Y-14290749D02*
X5284956Y-14252654D01*
X5284956Y-14252654D02*
X5294480Y-14233606D01*
X5294480Y-14233606D02*
X5304004Y-14224082D01*
X5304004Y-14224082D02*
X5323051Y-14214559D01*
X5475432Y-14395511D02*
X5484956Y-14405035D01*
X5484956Y-14405035D02*
X5475432Y-14414559D01*
X5475432Y-14414559D02*
X5465908Y-14405035D01*
X5465908Y-14405035D02*
X5475432Y-14395511D01*
X5475432Y-14395511D02*
X5475432Y-14414559D01*
X5608765Y-14214559D02*
X5627813Y-14214559D01*
X5627813Y-14214559D02*
X5646861Y-14224082D01*
X5646861Y-14224082D02*
X5656385Y-14233606D01*
X5656385Y-14233606D02*
X5665908Y-14252654D01*
X5665908Y-14252654D02*
X5675432Y-14290749D01*
X5675432Y-14290749D02*
X5675432Y-14338368D01*
X5675432Y-14338368D02*
X5665908Y-14376463D01*
X5665908Y-14376463D02*
X5656385Y-14395511D01*
X5656385Y-14395511D02*
X5646861Y-14405035D01*
X5646861Y-14405035D02*
X5627813Y-14414559D01*
X5627813Y-14414559D02*
X5608765Y-14414559D01*
X5608765Y-14414559D02*
X5589718Y-14405035D01*
X5589718Y-14405035D02*
X5580194Y-14395511D01*
X5580194Y-14395511D02*
X5570670Y-14376463D01*
X5570670Y-14376463D02*
X5561147Y-14338368D01*
X5561147Y-14338368D02*
X5561147Y-14290749D01*
X5561147Y-14290749D02*
X5570670Y-14252654D01*
X5570670Y-14252654D02*
X5580194Y-14233606D01*
X5580194Y-14233606D02*
X5589718Y-14224082D01*
X5589718Y-14224082D02*
X5608765Y-14214559D01*
X5742099Y-14214559D02*
X5865908Y-14214559D01*
X5865908Y-14214559D02*
X5799242Y-14290749D01*
X5799242Y-14290749D02*
X5827813Y-14290749D01*
X5827813Y-14290749D02*
X5846861Y-14300273D01*
X5846861Y-14300273D02*
X5856385Y-14309797D01*
X5856385Y-14309797D02*
X5865908Y-14328844D01*
X5865908Y-14328844D02*
X5865908Y-14376463D01*
X5865908Y-14376463D02*
X5856385Y-14395511D01*
X5856385Y-14395511D02*
X5846861Y-14405035D01*
X5846861Y-14405035D02*
X5827813Y-14414559D01*
X5827813Y-14414559D02*
X5770670Y-14414559D01*
X5770670Y-14414559D02*
X5751623Y-14405035D01*
X5751623Y-14405035D02*
X5742099Y-14395511D01*
X6056385Y-14414559D02*
X5942099Y-14414559D01*
X5999242Y-14414559D02*
X5999242Y-14214559D01*
X5999242Y-14214559D02*
X5980194Y-14243130D01*
X5980194Y-14243130D02*
X5961146Y-14262178D01*
X5961146Y-14262178D02*
X5942099Y-14271701D01*
X6237337Y-14214559D02*
X6142099Y-14214559D01*
X6142099Y-14214559D02*
X6132575Y-14309797D01*
X6132575Y-14309797D02*
X6142099Y-14300273D01*
X6142099Y-14300273D02*
X6161146Y-14290749D01*
X6161146Y-14290749D02*
X6208766Y-14290749D01*
X6208766Y-14290749D02*
X6227813Y-14300273D01*
X6227813Y-14300273D02*
X6237337Y-14309797D01*
X6237337Y-14309797D02*
X6246861Y-14328844D01*
X6246861Y-14328844D02*
X6246861Y-14376463D01*
X6246861Y-14376463D02*
X6237337Y-14395511D01*
X6237337Y-14395511D02*
X6227813Y-14405035D01*
X6227813Y-14405035D02*
X6208766Y-14414559D01*
X6208766Y-14414559D02*
X6161146Y-14414559D01*
X6161146Y-14414559D02*
X6142099Y-14405035D01*
X6142099Y-14405035D02*
X6132575Y-14395511D01*
X6323051Y-14214559D02*
X6323051Y-14252654D01*
X6399242Y-14214559D02*
X6399242Y-14252654D01*
X6694480Y-14490749D02*
X6684956Y-14481225D01*
X6684956Y-14481225D02*
X6665908Y-14452654D01*
X6665908Y-14452654D02*
X6656385Y-14433606D01*
X6656385Y-14433606D02*
X6646861Y-14405035D01*
X6646861Y-14405035D02*
X6637337Y-14357416D01*
X6637337Y-14357416D02*
X6637337Y-14319321D01*
X6637337Y-14319321D02*
X6646861Y-14271701D01*
X6646861Y-14271701D02*
X6656385Y-14243130D01*
X6656385Y-14243130D02*
X6665908Y-14224082D01*
X6665908Y-14224082D02*
X6684956Y-14195511D01*
X6684956Y-14195511D02*
X6694480Y-14185987D01*
X6856385Y-14281225D02*
X6856385Y-14414559D01*
X6808766Y-14205035D02*
X6761147Y-14347892D01*
X6761147Y-14347892D02*
X6884956Y-14347892D01*
X7113528Y-14414559D02*
X7113528Y-14214559D01*
X7199242Y-14414559D02*
X7199242Y-14309797D01*
X7199242Y-14309797D02*
X7189718Y-14290749D01*
X7189718Y-14290749D02*
X7170670Y-14281225D01*
X7170670Y-14281225D02*
X7142099Y-14281225D01*
X7142099Y-14281225D02*
X7123051Y-14290749D01*
X7123051Y-14290749D02*
X7113528Y-14300273D01*
X7323051Y-14414559D02*
X7304004Y-14405035D01*
X7304004Y-14405035D02*
X7294480Y-14395511D01*
X7294480Y-14395511D02*
X7284956Y-14376463D01*
X7284956Y-14376463D02*
X7284956Y-14319321D01*
X7284956Y-14319321D02*
X7294480Y-14300273D01*
X7294480Y-14300273D02*
X7304004Y-14290749D01*
X7304004Y-14290749D02*
X7323051Y-14281225D01*
X7323051Y-14281225D02*
X7351623Y-14281225D01*
X7351623Y-14281225D02*
X7370670Y-14290749D01*
X7370670Y-14290749D02*
X7380194Y-14300273D01*
X7380194Y-14300273D02*
X7389718Y-14319321D01*
X7389718Y-14319321D02*
X7389718Y-14376463D01*
X7389718Y-14376463D02*
X7380194Y-14395511D01*
X7380194Y-14395511D02*
X7370670Y-14405035D01*
X7370670Y-14405035D02*
X7351623Y-14414559D01*
X7351623Y-14414559D02*
X7323051Y-14414559D01*
X7504004Y-14414559D02*
X7484956Y-14405035D01*
X7484956Y-14405035D02*
X7475432Y-14385987D01*
X7475432Y-14385987D02*
X7475432Y-14214559D01*
X7656385Y-14405035D02*
X7637337Y-14414559D01*
X7637337Y-14414559D02*
X7599242Y-14414559D01*
X7599242Y-14414559D02*
X7580194Y-14405035D01*
X7580194Y-14405035D02*
X7570670Y-14385987D01*
X7570670Y-14385987D02*
X7570670Y-14309797D01*
X7570670Y-14309797D02*
X7580194Y-14290749D01*
X7580194Y-14290749D02*
X7599242Y-14281225D01*
X7599242Y-14281225D02*
X7637337Y-14281225D01*
X7637337Y-14281225D02*
X7656385Y-14290749D01*
X7656385Y-14290749D02*
X7665909Y-14309797D01*
X7665909Y-14309797D02*
X7665909Y-14328844D01*
X7665909Y-14328844D02*
X7570670Y-14347892D01*
X7742099Y-14405035D02*
X7761147Y-14414559D01*
X7761147Y-14414559D02*
X7799242Y-14414559D01*
X7799242Y-14414559D02*
X7818290Y-14405035D01*
X7818290Y-14405035D02*
X7827813Y-14385987D01*
X7827813Y-14385987D02*
X7827813Y-14376463D01*
X7827813Y-14376463D02*
X7818290Y-14357416D01*
X7818290Y-14357416D02*
X7799242Y-14347892D01*
X7799242Y-14347892D02*
X7770670Y-14347892D01*
X7770670Y-14347892D02*
X7751623Y-14338368D01*
X7751623Y-14338368D02*
X7742099Y-14319321D01*
X7742099Y-14319321D02*
X7742099Y-14309797D01*
X7742099Y-14309797D02*
X7751623Y-14290749D01*
X7751623Y-14290749D02*
X7770670Y-14281225D01*
X7770670Y-14281225D02*
X7799242Y-14281225D01*
X7799242Y-14281225D02*
X7818290Y-14290749D01*
X7894480Y-14490749D02*
X7904004Y-14481225D01*
X7904004Y-14481225D02*
X7923051Y-14452654D01*
X7923051Y-14452654D02*
X7932575Y-14433606D01*
X7932575Y-14433606D02*
X7942099Y-14405035D01*
X7942099Y-14405035D02*
X7951623Y-14357416D01*
X7951623Y-14357416D02*
X7951623Y-14319321D01*
X7951623Y-14319321D02*
X7942099Y-14271701D01*
X7942099Y-14271701D02*
X7932575Y-14243130D01*
X7932575Y-14243130D02*
X7923051Y-14224082D01*
X7923051Y-14224082D02*
X7904004Y-14195511D01*
X7904004Y-14195511D02*
X7894480Y-14185987D01*
D10*
X3106237Y-14618895D02*
X3106237Y-14555255D01*
X3042597Y-14555255D01*
X3042597Y-14618895D01*
X3106237Y-14618895D01*
D11*
X3418289Y-14478559D02*
X3437337Y-14478559D01*
X3437337Y-14478559D02*
X3456384Y-14488082D01*
X3456384Y-14488082D02*
X3465908Y-14497606D01*
X3465908Y-14497606D02*
X3475432Y-14516654D01*
X3475432Y-14516654D02*
X3484956Y-14554749D01*
X3484956Y-14554749D02*
X3484956Y-14602368D01*
X3484956Y-14602368D02*
X3475432Y-14640463D01*
X3475432Y-14640463D02*
X3465908Y-14659511D01*
X3465908Y-14659511D02*
X3456384Y-14669035D01*
X3456384Y-14669035D02*
X3437337Y-14678559D01*
X3437337Y-14678559D02*
X3418289Y-14678559D01*
X3418289Y-14678559D02*
X3399241Y-14669035D01*
X3399241Y-14669035D02*
X3389718Y-14659511D01*
X3389718Y-14659511D02*
X3380194Y-14640463D01*
X3380194Y-14640463D02*
X3370670Y-14602368D01*
X3370670Y-14602368D02*
X3370670Y-14554749D01*
X3370670Y-14554749D02*
X3380194Y-14516654D01*
X3380194Y-14516654D02*
X3389718Y-14497606D01*
X3389718Y-14497606D02*
X3399241Y-14488082D01*
X3399241Y-14488082D02*
X3418289Y-14478559D01*
X3570670Y-14659511D02*
X3580194Y-14669035D01*
X3580194Y-14669035D02*
X3570670Y-14678559D01*
X3570670Y-14678559D02*
X3561146Y-14669035D01*
X3561146Y-14669035D02*
X3570670Y-14659511D01*
X3570670Y-14659511D02*
X3570670Y-14678559D01*
X3675432Y-14678559D02*
X3713527Y-14678559D01*
X3713527Y-14678559D02*
X3732575Y-14669035D01*
X3732575Y-14669035D02*
X3742099Y-14659511D01*
X3742099Y-14659511D02*
X3761146Y-14630940D01*
X3761146Y-14630940D02*
X3770670Y-14592844D01*
X3770670Y-14592844D02*
X3770670Y-14516654D01*
X3770670Y-14516654D02*
X3761146Y-14497606D01*
X3761146Y-14497606D02*
X3751622Y-14488082D01*
X3751622Y-14488082D02*
X3732575Y-14478559D01*
X3732575Y-14478559D02*
X3694480Y-14478559D01*
X3694480Y-14478559D02*
X3675432Y-14488082D01*
X3675432Y-14488082D02*
X3665908Y-14497606D01*
X3665908Y-14497606D02*
X3656384Y-14516654D01*
X3656384Y-14516654D02*
X3656384Y-14564273D01*
X3656384Y-14564273D02*
X3665908Y-14583321D01*
X3665908Y-14583321D02*
X3675432Y-14592844D01*
X3675432Y-14592844D02*
X3694480Y-14602368D01*
X3694480Y-14602368D02*
X3732575Y-14602368D01*
X3732575Y-14602368D02*
X3751622Y-14592844D01*
X3751622Y-14592844D02*
X3761146Y-14583321D01*
X3761146Y-14583321D02*
X3770670Y-14564273D01*
X3894480Y-14478559D02*
X3913527Y-14478559D01*
X3913527Y-14478559D02*
X3932575Y-14488082D01*
X3932575Y-14488082D02*
X3942099Y-14497606D01*
X3942099Y-14497606D02*
X3951622Y-14516654D01*
X3951622Y-14516654D02*
X3961146Y-14554749D01*
X3961146Y-14554749D02*
X3961146Y-14602368D01*
X3961146Y-14602368D02*
X3951622Y-14640463D01*
X3951622Y-14640463D02*
X3942099Y-14659511D01*
X3942099Y-14659511D02*
X3932575Y-14669035D01*
X3932575Y-14669035D02*
X3913527Y-14678559D01*
X3913527Y-14678559D02*
X3894480Y-14678559D01*
X3894480Y-14678559D02*
X3875432Y-14669035D01*
X3875432Y-14669035D02*
X3865908Y-14659511D01*
X3865908Y-14659511D02*
X3856384Y-14640463D01*
X3856384Y-14640463D02*
X3846861Y-14602368D01*
X3846861Y-14602368D02*
X3846861Y-14554749D01*
X3846861Y-14554749D02*
X3856384Y-14516654D01*
X3856384Y-14516654D02*
X3865908Y-14497606D01*
X3865908Y-14497606D02*
X3875432Y-14488082D01*
X3875432Y-14488082D02*
X3894480Y-14478559D01*
X4084956Y-14478559D02*
X4104003Y-14478559D01*
X4104003Y-14478559D02*
X4123051Y-14488082D01*
X4123051Y-14488082D02*
X4132575Y-14497606D01*
X4132575Y-14497606D02*
X4142099Y-14516654D01*
X4142099Y-14516654D02*
X4151622Y-14554749D01*
X4151622Y-14554749D02*
X4151622Y-14602368D01*
X4151622Y-14602368D02*
X4142099Y-14640463D01*
X4142099Y-14640463D02*
X4132575Y-14659511D01*
X4132575Y-14659511D02*
X4123051Y-14669035D01*
X4123051Y-14669035D02*
X4104003Y-14678559D01*
X4104003Y-14678559D02*
X4084956Y-14678559D01*
X4084956Y-14678559D02*
X4065908Y-14669035D01*
X4065908Y-14669035D02*
X4056384Y-14659511D01*
X4056384Y-14659511D02*
X4046861Y-14640463D01*
X4046861Y-14640463D02*
X4037337Y-14602368D01*
X4037337Y-14602368D02*
X4037337Y-14554749D01*
X4037337Y-14554749D02*
X4046861Y-14516654D01*
X4046861Y-14516654D02*
X4056384Y-14497606D01*
X4056384Y-14497606D02*
X4065908Y-14488082D01*
X4065908Y-14488082D02*
X4084956Y-14478559D01*
X4237337Y-14678559D02*
X4237337Y-14545225D01*
X4237337Y-14564273D02*
X4246861Y-14554749D01*
X4246861Y-14554749D02*
X4265908Y-14545225D01*
X4265908Y-14545225D02*
X4294480Y-14545225D01*
X4294480Y-14545225D02*
X4313527Y-14554749D01*
X4313527Y-14554749D02*
X4323051Y-14573797D01*
X4323051Y-14573797D02*
X4323051Y-14678559D01*
X4323051Y-14573797D02*
X4332575Y-14554749D01*
X4332575Y-14554749D02*
X4351623Y-14545225D01*
X4351623Y-14545225D02*
X4380194Y-14545225D01*
X4380194Y-14545225D02*
X4399242Y-14554749D01*
X4399242Y-14554749D02*
X4408765Y-14573797D01*
X4408765Y-14573797D02*
X4408765Y-14678559D01*
X4504004Y-14678559D02*
X4504004Y-14545225D01*
X4504004Y-14564273D02*
X4513527Y-14554749D01*
X4513527Y-14554749D02*
X4532575Y-14545225D01*
X4532575Y-14545225D02*
X4561146Y-14545225D01*
X4561146Y-14545225D02*
X4580194Y-14554749D01*
X4580194Y-14554749D02*
X4589718Y-14573797D01*
X4589718Y-14573797D02*
X4589718Y-14678559D01*
X4589718Y-14573797D02*
X4599242Y-14554749D01*
X4599242Y-14554749D02*
X4618289Y-14545225D01*
X4618289Y-14545225D02*
X4646861Y-14545225D01*
X4646861Y-14545225D02*
X4665908Y-14554749D01*
X4665908Y-14554749D02*
X4675432Y-14573797D01*
X4675432Y-14573797D02*
X4675432Y-14678559D01*
X5065908Y-14469035D02*
X4894480Y-14726178D01*
X5323051Y-14478559D02*
X5342099Y-14478559D01*
X5342099Y-14478559D02*
X5361147Y-14488082D01*
X5361147Y-14488082D02*
X5370670Y-14497606D01*
X5370670Y-14497606D02*
X5380194Y-14516654D01*
X5380194Y-14516654D02*
X5389718Y-14554749D01*
X5389718Y-14554749D02*
X5389718Y-14602368D01*
X5389718Y-14602368D02*
X5380194Y-14640463D01*
X5380194Y-14640463D02*
X5370670Y-14659511D01*
X5370670Y-14659511D02*
X5361147Y-14669035D01*
X5361147Y-14669035D02*
X5342099Y-14678559D01*
X5342099Y-14678559D02*
X5323051Y-14678559D01*
X5323051Y-14678559D02*
X5304004Y-14669035D01*
X5304004Y-14669035D02*
X5294480Y-14659511D01*
X5294480Y-14659511D02*
X5284956Y-14640463D01*
X5284956Y-14640463D02*
X5275432Y-14602368D01*
X5275432Y-14602368D02*
X5275432Y-14554749D01*
X5275432Y-14554749D02*
X5284956Y-14516654D01*
X5284956Y-14516654D02*
X5294480Y-14497606D01*
X5294480Y-14497606D02*
X5304004Y-14488082D01*
X5304004Y-14488082D02*
X5323051Y-14478559D01*
X5475432Y-14659511D02*
X5484956Y-14669035D01*
X5484956Y-14669035D02*
X5475432Y-14678559D01*
X5475432Y-14678559D02*
X5465908Y-14669035D01*
X5465908Y-14669035D02*
X5475432Y-14659511D01*
X5475432Y-14659511D02*
X5475432Y-14678559D01*
X5608765Y-14478559D02*
X5627813Y-14478559D01*
X5627813Y-14478559D02*
X5646861Y-14488082D01*
X5646861Y-14488082D02*
X5656385Y-14497606D01*
X5656385Y-14497606D02*
X5665908Y-14516654D01*
X5665908Y-14516654D02*
X5675432Y-14554749D01*
X5675432Y-14554749D02*
X5675432Y-14602368D01*
X5675432Y-14602368D02*
X5665908Y-14640463D01*
X5665908Y-14640463D02*
X5656385Y-14659511D01*
X5656385Y-14659511D02*
X5646861Y-14669035D01*
X5646861Y-14669035D02*
X5627813Y-14678559D01*
X5627813Y-14678559D02*
X5608765Y-14678559D01*
X5608765Y-14678559D02*
X5589718Y-14669035D01*
X5589718Y-14669035D02*
X5580194Y-14659511D01*
X5580194Y-14659511D02*
X5570670Y-14640463D01*
X5570670Y-14640463D02*
X5561147Y-14602368D01*
X5561147Y-14602368D02*
X5561147Y-14554749D01*
X5561147Y-14554749D02*
X5570670Y-14516654D01*
X5570670Y-14516654D02*
X5580194Y-14497606D01*
X5580194Y-14497606D02*
X5589718Y-14488082D01*
X5589718Y-14488082D02*
X5608765Y-14478559D01*
X5742099Y-14478559D02*
X5865908Y-14478559D01*
X5865908Y-14478559D02*
X5799242Y-14554749D01*
X5799242Y-14554749D02*
X5827813Y-14554749D01*
X5827813Y-14554749D02*
X5846861Y-14564273D01*
X5846861Y-14564273D02*
X5856385Y-14573797D01*
X5856385Y-14573797D02*
X5865908Y-14592844D01*
X5865908Y-14592844D02*
X5865908Y-14640463D01*
X5865908Y-14640463D02*
X5856385Y-14659511D01*
X5856385Y-14659511D02*
X5846861Y-14669035D01*
X5846861Y-14669035D02*
X5827813Y-14678559D01*
X5827813Y-14678559D02*
X5770670Y-14678559D01*
X5770670Y-14678559D02*
X5751623Y-14669035D01*
X5751623Y-14669035D02*
X5742099Y-14659511D01*
X6046861Y-14478559D02*
X5951623Y-14478559D01*
X5951623Y-14478559D02*
X5942099Y-14573797D01*
X5942099Y-14573797D02*
X5951623Y-14564273D01*
X5951623Y-14564273D02*
X5970670Y-14554749D01*
X5970670Y-14554749D02*
X6018289Y-14554749D01*
X6018289Y-14554749D02*
X6037337Y-14564273D01*
X6037337Y-14564273D02*
X6046861Y-14573797D01*
X6046861Y-14573797D02*
X6056385Y-14592844D01*
X6056385Y-14592844D02*
X6056385Y-14640463D01*
X6056385Y-14640463D02*
X6046861Y-14659511D01*
X6046861Y-14659511D02*
X6037337Y-14669035D01*
X6037337Y-14669035D02*
X6018289Y-14678559D01*
X6018289Y-14678559D02*
X5970670Y-14678559D01*
X5970670Y-14678559D02*
X5951623Y-14669035D01*
X5951623Y-14669035D02*
X5942099Y-14659511D01*
X6227813Y-14545225D02*
X6227813Y-14678559D01*
X6180194Y-14469035D02*
X6132575Y-14611892D01*
X6132575Y-14611892D02*
X6256385Y-14611892D01*
X6323051Y-14478559D02*
X6323051Y-14516654D01*
X6399242Y-14478559D02*
X6399242Y-14516654D01*
X6694480Y-14754749D02*
X6684956Y-14745225D01*
X6684956Y-14745225D02*
X6665908Y-14716654D01*
X6665908Y-14716654D02*
X6656385Y-14697606D01*
X6656385Y-14697606D02*
X6646861Y-14669035D01*
X6646861Y-14669035D02*
X6637337Y-14621416D01*
X6637337Y-14621416D02*
X6637337Y-14583321D01*
X6637337Y-14583321D02*
X6646861Y-14535701D01*
X6646861Y-14535701D02*
X6656385Y-14507130D01*
X6656385Y-14507130D02*
X6665908Y-14488082D01*
X6665908Y-14488082D02*
X6684956Y-14459511D01*
X6684956Y-14459511D02*
X6694480Y-14449987D01*
X6808766Y-14478559D02*
X6827813Y-14478559D01*
X6827813Y-14478559D02*
X6846861Y-14488082D01*
X6846861Y-14488082D02*
X6856385Y-14497606D01*
X6856385Y-14497606D02*
X6865908Y-14516654D01*
X6865908Y-14516654D02*
X6875432Y-14554749D01*
X6875432Y-14554749D02*
X6875432Y-14602368D01*
X6875432Y-14602368D02*
X6865908Y-14640463D01*
X6865908Y-14640463D02*
X6856385Y-14659511D01*
X6856385Y-14659511D02*
X6846861Y-14669035D01*
X6846861Y-14669035D02*
X6827813Y-14678559D01*
X6827813Y-14678559D02*
X6808766Y-14678559D01*
X6808766Y-14678559D02*
X6789718Y-14669035D01*
X6789718Y-14669035D02*
X6780194Y-14659511D01*
X6780194Y-14659511D02*
X6770670Y-14640463D01*
X6770670Y-14640463D02*
X6761147Y-14602368D01*
X6761147Y-14602368D02*
X6761147Y-14554749D01*
X6761147Y-14554749D02*
X6770670Y-14516654D01*
X6770670Y-14516654D02*
X6780194Y-14497606D01*
X6780194Y-14497606D02*
X6789718Y-14488082D01*
X6789718Y-14488082D02*
X6808766Y-14478559D01*
X7113528Y-14678559D02*
X7113528Y-14478559D01*
X7199242Y-14678559D02*
X7199242Y-14573797D01*
X7199242Y-14573797D02*
X7189718Y-14554749D01*
X7189718Y-14554749D02*
X7170670Y-14545225D01*
X7170670Y-14545225D02*
X7142099Y-14545225D01*
X7142099Y-14545225D02*
X7123051Y-14554749D01*
X7123051Y-14554749D02*
X7113528Y-14564273D01*
X7323051Y-14678559D02*
X7304004Y-14669035D01*
X7304004Y-14669035D02*
X7294480Y-14659511D01*
X7294480Y-14659511D02*
X7284956Y-14640463D01*
X7284956Y-14640463D02*
X7284956Y-14583321D01*
X7284956Y-14583321D02*
X7294480Y-14564273D01*
X7294480Y-14564273D02*
X7304004Y-14554749D01*
X7304004Y-14554749D02*
X7323051Y-14545225D01*
X7323051Y-14545225D02*
X7351623Y-14545225D01*
X7351623Y-14545225D02*
X7370670Y-14554749D01*
X7370670Y-14554749D02*
X7380194Y-14564273D01*
X7380194Y-14564273D02*
X7389718Y-14583321D01*
X7389718Y-14583321D02*
X7389718Y-14640463D01*
X7389718Y-14640463D02*
X7380194Y-14659511D01*
X7380194Y-14659511D02*
X7370670Y-14669035D01*
X7370670Y-14669035D02*
X7351623Y-14678559D01*
X7351623Y-14678559D02*
X7323051Y-14678559D01*
X7504004Y-14678559D02*
X7484956Y-14669035D01*
X7484956Y-14669035D02*
X7475432Y-14649987D01*
X7475432Y-14649987D02*
X7475432Y-14478559D01*
X7656385Y-14669035D02*
X7637337Y-14678559D01*
X7637337Y-14678559D02*
X7599242Y-14678559D01*
X7599242Y-14678559D02*
X7580194Y-14669035D01*
X7580194Y-14669035D02*
X7570670Y-14649987D01*
X7570670Y-14649987D02*
X7570670Y-14573797D01*
X7570670Y-14573797D02*
X7580194Y-14554749D01*
X7580194Y-14554749D02*
X7599242Y-14545225D01*
X7599242Y-14545225D02*
X7637337Y-14545225D01*
X7637337Y-14545225D02*
X7656385Y-14554749D01*
X7656385Y-14554749D02*
X7665909Y-14573797D01*
X7665909Y-14573797D02*
X7665909Y-14592844D01*
X7665909Y-14592844D02*
X7570670Y-14611892D01*
X7742099Y-14669035D02*
X7761147Y-14678559D01*
X7761147Y-14678559D02*
X7799242Y-14678559D01*
X7799242Y-14678559D02*
X7818290Y-14669035D01*
X7818290Y-14669035D02*
X7827813Y-14649987D01*
X7827813Y-14649987D02*
X7827813Y-14640463D01*
X7827813Y-14640463D02*
X7818290Y-14621416D01*
X7818290Y-14621416D02*
X7799242Y-14611892D01*
X7799242Y-14611892D02*
X7770670Y-14611892D01*
X7770670Y-14611892D02*
X7751623Y-14602368D01*
X7751623Y-14602368D02*
X7742099Y-14583321D01*
X7742099Y-14583321D02*
X7742099Y-14573797D01*
X7742099Y-14573797D02*
X7751623Y-14554749D01*
X7751623Y-14554749D02*
X7770670Y-14545225D01*
X7770670Y-14545225D02*
X7799242Y-14545225D01*
X7799242Y-14545225D02*
X7818290Y-14554749D01*
X8065909Y-14602368D02*
X8218290Y-14602368D01*
X8142099Y-14678559D02*
X8142099Y-14526178D01*
X8494480Y-14564273D02*
X8475433Y-14554749D01*
X8475433Y-14554749D02*
X8465909Y-14545225D01*
X8465909Y-14545225D02*
X8456385Y-14526178D01*
X8456385Y-14526178D02*
X8456385Y-14516654D01*
X8456385Y-14516654D02*
X8465909Y-14497606D01*
X8465909Y-14497606D02*
X8475433Y-14488082D01*
X8475433Y-14488082D02*
X8494480Y-14478559D01*
X8494480Y-14478559D02*
X8532575Y-14478559D01*
X8532575Y-14478559D02*
X8551623Y-14488082D01*
X8551623Y-14488082D02*
X8561147Y-14497606D01*
X8561147Y-14497606D02*
X8570671Y-14516654D01*
X8570671Y-14516654D02*
X8570671Y-14526178D01*
X8570671Y-14526178D02*
X8561147Y-14545225D01*
X8561147Y-14545225D02*
X8551623Y-14554749D01*
X8551623Y-14554749D02*
X8532575Y-14564273D01*
X8532575Y-14564273D02*
X8494480Y-14564273D01*
X8494480Y-14564273D02*
X8475433Y-14573797D01*
X8475433Y-14573797D02*
X8465909Y-14583321D01*
X8465909Y-14583321D02*
X8456385Y-14602368D01*
X8456385Y-14602368D02*
X8456385Y-14640463D01*
X8456385Y-14640463D02*
X8465909Y-14659511D01*
X8465909Y-14659511D02*
X8475433Y-14669035D01*
X8475433Y-14669035D02*
X8494480Y-14678559D01*
X8494480Y-14678559D02*
X8532575Y-14678559D01*
X8532575Y-14678559D02*
X8551623Y-14669035D01*
X8551623Y-14669035D02*
X8561147Y-14659511D01*
X8561147Y-14659511D02*
X8570671Y-14640463D01*
X8570671Y-14640463D02*
X8570671Y-14602368D01*
X8570671Y-14602368D02*
X8561147Y-14583321D01*
X8561147Y-14583321D02*
X8551623Y-14573797D01*
X8551623Y-14573797D02*
X8532575Y-14564273D01*
X8799242Y-14669035D02*
X8818290Y-14678559D01*
X8818290Y-14678559D02*
X8856385Y-14678559D01*
X8856385Y-14678559D02*
X8875433Y-14669035D01*
X8875433Y-14669035D02*
X8884956Y-14649987D01*
X8884956Y-14649987D02*
X8884956Y-14640463D01*
X8884956Y-14640463D02*
X8875433Y-14621416D01*
X8875433Y-14621416D02*
X8856385Y-14611892D01*
X8856385Y-14611892D02*
X8827814Y-14611892D01*
X8827814Y-14611892D02*
X8808766Y-14602368D01*
X8808766Y-14602368D02*
X8799242Y-14583321D01*
X8799242Y-14583321D02*
X8799242Y-14573797D01*
X8799242Y-14573797D02*
X8808766Y-14554749D01*
X8808766Y-14554749D02*
X8827814Y-14545225D01*
X8827814Y-14545225D02*
X8856385Y-14545225D01*
X8856385Y-14545225D02*
X8875433Y-14554749D01*
X8999242Y-14678559D02*
X8980195Y-14669035D01*
X8980195Y-14669035D02*
X8970671Y-14649987D01*
X8970671Y-14649987D02*
X8970671Y-14478559D01*
X9104004Y-14678559D02*
X9084956Y-14669035D01*
X9084956Y-14669035D02*
X9075433Y-14659511D01*
X9075433Y-14659511D02*
X9065909Y-14640463D01*
X9065909Y-14640463D02*
X9065909Y-14583321D01*
X9065909Y-14583321D02*
X9075433Y-14564273D01*
X9075433Y-14564273D02*
X9084956Y-14554749D01*
X9084956Y-14554749D02*
X9104004Y-14545225D01*
X9104004Y-14545225D02*
X9132576Y-14545225D01*
X9132576Y-14545225D02*
X9151623Y-14554749D01*
X9151623Y-14554749D02*
X9161147Y-14564273D01*
X9161147Y-14564273D02*
X9170671Y-14583321D01*
X9170671Y-14583321D02*
X9170671Y-14640463D01*
X9170671Y-14640463D02*
X9161147Y-14659511D01*
X9161147Y-14659511D02*
X9151623Y-14669035D01*
X9151623Y-14669035D02*
X9132576Y-14678559D01*
X9132576Y-14678559D02*
X9104004Y-14678559D01*
X9227814Y-14545225D02*
X9304004Y-14545225D01*
X9256385Y-14478559D02*
X9256385Y-14649987D01*
X9256385Y-14649987D02*
X9265909Y-14669035D01*
X9265909Y-14669035D02*
X9284956Y-14678559D01*
X9284956Y-14678559D02*
X9304004Y-14678559D01*
X9361147Y-14669035D02*
X9380195Y-14678559D01*
X9380195Y-14678559D02*
X9418290Y-14678559D01*
X9418290Y-14678559D02*
X9437337Y-14669035D01*
X9437337Y-14669035D02*
X9446861Y-14649987D01*
X9446861Y-14649987D02*
X9446861Y-14640463D01*
X9446861Y-14640463D02*
X9437337Y-14621416D01*
X9437337Y-14621416D02*
X9418290Y-14611892D01*
X9418290Y-14611892D02*
X9389718Y-14611892D01*
X9389718Y-14611892D02*
X9370671Y-14602368D01*
X9370671Y-14602368D02*
X9361147Y-14583321D01*
X9361147Y-14583321D02*
X9361147Y-14573797D01*
X9361147Y-14573797D02*
X9370671Y-14554749D01*
X9370671Y-14554749D02*
X9389718Y-14545225D01*
X9389718Y-14545225D02*
X9418290Y-14545225D01*
X9418290Y-14545225D02*
X9437337Y-14554749D01*
X9513528Y-14754749D02*
X9523052Y-14745225D01*
X9523052Y-14745225D02*
X9542099Y-14716654D01*
X9542099Y-14716654D02*
X9551623Y-14697606D01*
X9551623Y-14697606D02*
X9561147Y-14669035D01*
X9561147Y-14669035D02*
X9570671Y-14621416D01*
X9570671Y-14621416D02*
X9570671Y-14583321D01*
X9570671Y-14583321D02*
X9561147Y-14535701D01*
X9561147Y-14535701D02*
X9551623Y-14507130D01*
X9551623Y-14507130D02*
X9542099Y-14488082D01*
X9542099Y-14488082D02*
X9523052Y-14459511D01*
X9523052Y-14459511D02*
X9513528Y-14449987D01*
D15*
X3069417Y-14901075D02*
X3119417Y-14851075D01*
X3069417Y-14801075D01*
X3019417Y-14851075D01*
X3069417Y-14901075D01*
D11*
X3484956Y-14942559D02*
X3370670Y-14942559D01*
X3427813Y-14942559D02*
X3427813Y-14742559D01*
X3427813Y-14742559D02*
X3408765Y-14771130D01*
X3408765Y-14771130D02*
X3389718Y-14790178D01*
X3389718Y-14790178D02*
X3370670Y-14799701D01*
X3570670Y-14923511D02*
X3580194Y-14933035D01*
X3580194Y-14933035D02*
X3570670Y-14942559D01*
X3570670Y-14942559D02*
X3561146Y-14933035D01*
X3561146Y-14933035D02*
X3570670Y-14923511D01*
X3570670Y-14923511D02*
X3570670Y-14942559D01*
X3704003Y-14742559D02*
X3723051Y-14742559D01*
X3723051Y-14742559D02*
X3742099Y-14752082D01*
X3742099Y-14752082D02*
X3751622Y-14761606D01*
X3751622Y-14761606D02*
X3761146Y-14780654D01*
X3761146Y-14780654D02*
X3770670Y-14818749D01*
X3770670Y-14818749D02*
X3770670Y-14866368D01*
X3770670Y-14866368D02*
X3761146Y-14904463D01*
X3761146Y-14904463D02*
X3751622Y-14923511D01*
X3751622Y-14923511D02*
X3742099Y-14933035D01*
X3742099Y-14933035D02*
X3723051Y-14942559D01*
X3723051Y-14942559D02*
X3704003Y-14942559D01*
X3704003Y-14942559D02*
X3684956Y-14933035D01*
X3684956Y-14933035D02*
X3675432Y-14923511D01*
X3675432Y-14923511D02*
X3665908Y-14904463D01*
X3665908Y-14904463D02*
X3656384Y-14866368D01*
X3656384Y-14866368D02*
X3656384Y-14818749D01*
X3656384Y-14818749D02*
X3665908Y-14780654D01*
X3665908Y-14780654D02*
X3675432Y-14761606D01*
X3675432Y-14761606D02*
X3684956Y-14752082D01*
X3684956Y-14752082D02*
X3704003Y-14742559D01*
X3894480Y-14742559D02*
X3913527Y-14742559D01*
X3913527Y-14742559D02*
X3932575Y-14752082D01*
X3932575Y-14752082D02*
X3942099Y-14761606D01*
X3942099Y-14761606D02*
X3951622Y-14780654D01*
X3951622Y-14780654D02*
X3961146Y-14818749D01*
X3961146Y-14818749D02*
X3961146Y-14866368D01*
X3961146Y-14866368D02*
X3951622Y-14904463D01*
X3951622Y-14904463D02*
X3942099Y-14923511D01*
X3942099Y-14923511D02*
X3932575Y-14933035D01*
X3932575Y-14933035D02*
X3913527Y-14942559D01*
X3913527Y-14942559D02*
X3894480Y-14942559D01*
X3894480Y-14942559D02*
X3875432Y-14933035D01*
X3875432Y-14933035D02*
X3865908Y-14923511D01*
X3865908Y-14923511D02*
X3856384Y-14904463D01*
X3856384Y-14904463D02*
X3846861Y-14866368D01*
X3846861Y-14866368D02*
X3846861Y-14818749D01*
X3846861Y-14818749D02*
X3856384Y-14780654D01*
X3856384Y-14780654D02*
X3865908Y-14761606D01*
X3865908Y-14761606D02*
X3875432Y-14752082D01*
X3875432Y-14752082D02*
X3894480Y-14742559D01*
X4084956Y-14742559D02*
X4104003Y-14742559D01*
X4104003Y-14742559D02*
X4123051Y-14752082D01*
X4123051Y-14752082D02*
X4132575Y-14761606D01*
X4132575Y-14761606D02*
X4142099Y-14780654D01*
X4142099Y-14780654D02*
X4151622Y-14818749D01*
X4151622Y-14818749D02*
X4151622Y-14866368D01*
X4151622Y-14866368D02*
X4142099Y-14904463D01*
X4142099Y-14904463D02*
X4132575Y-14923511D01*
X4132575Y-14923511D02*
X4123051Y-14933035D01*
X4123051Y-14933035D02*
X4104003Y-14942559D01*
X4104003Y-14942559D02*
X4084956Y-14942559D01*
X4084956Y-14942559D02*
X4065908Y-14933035D01*
X4065908Y-14933035D02*
X4056384Y-14923511D01*
X4056384Y-14923511D02*
X4046861Y-14904463D01*
X4046861Y-14904463D02*
X4037337Y-14866368D01*
X4037337Y-14866368D02*
X4037337Y-14818749D01*
X4037337Y-14818749D02*
X4046861Y-14780654D01*
X4046861Y-14780654D02*
X4056384Y-14761606D01*
X4056384Y-14761606D02*
X4065908Y-14752082D01*
X4065908Y-14752082D02*
X4084956Y-14742559D01*
X4237337Y-14942559D02*
X4237337Y-14809225D01*
X4237337Y-14828273D02*
X4246861Y-14818749D01*
X4246861Y-14818749D02*
X4265908Y-14809225D01*
X4265908Y-14809225D02*
X4294480Y-14809225D01*
X4294480Y-14809225D02*
X4313527Y-14818749D01*
X4313527Y-14818749D02*
X4323051Y-14837797D01*
X4323051Y-14837797D02*
X4323051Y-14942559D01*
X4323051Y-14837797D02*
X4332575Y-14818749D01*
X4332575Y-14818749D02*
X4351623Y-14809225D01*
X4351623Y-14809225D02*
X4380194Y-14809225D01*
X4380194Y-14809225D02*
X4399242Y-14818749D01*
X4399242Y-14818749D02*
X4408765Y-14837797D01*
X4408765Y-14837797D02*
X4408765Y-14942559D01*
X4504004Y-14942559D02*
X4504004Y-14809225D01*
X4504004Y-14828273D02*
X4513527Y-14818749D01*
X4513527Y-14818749D02*
X4532575Y-14809225D01*
X4532575Y-14809225D02*
X4561146Y-14809225D01*
X4561146Y-14809225D02*
X4580194Y-14818749D01*
X4580194Y-14818749D02*
X4589718Y-14837797D01*
X4589718Y-14837797D02*
X4589718Y-14942559D01*
X4589718Y-14837797D02*
X4599242Y-14818749D01*
X4599242Y-14818749D02*
X4618289Y-14809225D01*
X4618289Y-14809225D02*
X4646861Y-14809225D01*
X4646861Y-14809225D02*
X4665908Y-14818749D01*
X4665908Y-14818749D02*
X4675432Y-14837797D01*
X4675432Y-14837797D02*
X4675432Y-14942559D01*
X5065908Y-14733035D02*
X4894480Y-14990178D01*
X5323051Y-14742559D02*
X5342099Y-14742559D01*
X5342099Y-14742559D02*
X5361147Y-14752082D01*
X5361147Y-14752082D02*
X5370670Y-14761606D01*
X5370670Y-14761606D02*
X5380194Y-14780654D01*
X5380194Y-14780654D02*
X5389718Y-14818749D01*
X5389718Y-14818749D02*
X5389718Y-14866368D01*
X5389718Y-14866368D02*
X5380194Y-14904463D01*
X5380194Y-14904463D02*
X5370670Y-14923511D01*
X5370670Y-14923511D02*
X5361147Y-14933035D01*
X5361147Y-14933035D02*
X5342099Y-14942559D01*
X5342099Y-14942559D02*
X5323051Y-14942559D01*
X5323051Y-14942559D02*
X5304004Y-14933035D01*
X5304004Y-14933035D02*
X5294480Y-14923511D01*
X5294480Y-14923511D02*
X5284956Y-14904463D01*
X5284956Y-14904463D02*
X5275432Y-14866368D01*
X5275432Y-14866368D02*
X5275432Y-14818749D01*
X5275432Y-14818749D02*
X5284956Y-14780654D01*
X5284956Y-14780654D02*
X5294480Y-14761606D01*
X5294480Y-14761606D02*
X5304004Y-14752082D01*
X5304004Y-14752082D02*
X5323051Y-14742559D01*
X5475432Y-14923511D02*
X5484956Y-14933035D01*
X5484956Y-14933035D02*
X5475432Y-14942559D01*
X5475432Y-14942559D02*
X5465908Y-14933035D01*
X5465908Y-14933035D02*
X5475432Y-14923511D01*
X5475432Y-14923511D02*
X5475432Y-14942559D01*
X5608765Y-14742559D02*
X5627813Y-14742559D01*
X5627813Y-14742559D02*
X5646861Y-14752082D01*
X5646861Y-14752082D02*
X5656385Y-14761606D01*
X5656385Y-14761606D02*
X5665908Y-14780654D01*
X5665908Y-14780654D02*
X5675432Y-14818749D01*
X5675432Y-14818749D02*
X5675432Y-14866368D01*
X5675432Y-14866368D02*
X5665908Y-14904463D01*
X5665908Y-14904463D02*
X5656385Y-14923511D01*
X5656385Y-14923511D02*
X5646861Y-14933035D01*
X5646861Y-14933035D02*
X5627813Y-14942559D01*
X5627813Y-14942559D02*
X5608765Y-14942559D01*
X5608765Y-14942559D02*
X5589718Y-14933035D01*
X5589718Y-14933035D02*
X5580194Y-14923511D01*
X5580194Y-14923511D02*
X5570670Y-14904463D01*
X5570670Y-14904463D02*
X5561147Y-14866368D01*
X5561147Y-14866368D02*
X5561147Y-14818749D01*
X5561147Y-14818749D02*
X5570670Y-14780654D01*
X5570670Y-14780654D02*
X5580194Y-14761606D01*
X5580194Y-14761606D02*
X5589718Y-14752082D01*
X5589718Y-14752082D02*
X5608765Y-14742559D01*
X5742099Y-14742559D02*
X5865908Y-14742559D01*
X5865908Y-14742559D02*
X5799242Y-14818749D01*
X5799242Y-14818749D02*
X5827813Y-14818749D01*
X5827813Y-14818749D02*
X5846861Y-14828273D01*
X5846861Y-14828273D02*
X5856385Y-14837797D01*
X5856385Y-14837797D02*
X5865908Y-14856844D01*
X5865908Y-14856844D02*
X5865908Y-14904463D01*
X5865908Y-14904463D02*
X5856385Y-14923511D01*
X5856385Y-14923511D02*
X5846861Y-14933035D01*
X5846861Y-14933035D02*
X5827813Y-14942559D01*
X5827813Y-14942559D02*
X5770670Y-14942559D01*
X5770670Y-14942559D02*
X5751623Y-14933035D01*
X5751623Y-14933035D02*
X5742099Y-14923511D01*
X5961146Y-14942559D02*
X5999242Y-14942559D01*
X5999242Y-14942559D02*
X6018289Y-14933035D01*
X6018289Y-14933035D02*
X6027813Y-14923511D01*
X6027813Y-14923511D02*
X6046861Y-14894940D01*
X6046861Y-14894940D02*
X6056385Y-14856844D01*
X6056385Y-14856844D02*
X6056385Y-14780654D01*
X6056385Y-14780654D02*
X6046861Y-14761606D01*
X6046861Y-14761606D02*
X6037337Y-14752082D01*
X6037337Y-14752082D02*
X6018289Y-14742559D01*
X6018289Y-14742559D02*
X5980194Y-14742559D01*
X5980194Y-14742559D02*
X5961146Y-14752082D01*
X5961146Y-14752082D02*
X5951623Y-14761606D01*
X5951623Y-14761606D02*
X5942099Y-14780654D01*
X5942099Y-14780654D02*
X5942099Y-14828273D01*
X5942099Y-14828273D02*
X5951623Y-14847321D01*
X5951623Y-14847321D02*
X5961146Y-14856844D01*
X5961146Y-14856844D02*
X5980194Y-14866368D01*
X5980194Y-14866368D02*
X6018289Y-14866368D01*
X6018289Y-14866368D02*
X6037337Y-14856844D01*
X6037337Y-14856844D02*
X6046861Y-14847321D01*
X6046861Y-14847321D02*
X6056385Y-14828273D01*
X6227813Y-14809225D02*
X6227813Y-14942559D01*
X6180194Y-14733035D02*
X6132575Y-14875892D01*
X6132575Y-14875892D02*
X6256385Y-14875892D01*
X6323051Y-14742559D02*
X6323051Y-14780654D01*
X6399242Y-14742559D02*
X6399242Y-14780654D01*
X6694480Y-15018749D02*
X6684956Y-15009225D01*
X6684956Y-15009225D02*
X6665908Y-14980654D01*
X6665908Y-14980654D02*
X6656385Y-14961606D01*
X6656385Y-14961606D02*
X6646861Y-14933035D01*
X6646861Y-14933035D02*
X6637337Y-14885416D01*
X6637337Y-14885416D02*
X6637337Y-14847321D01*
X6637337Y-14847321D02*
X6646861Y-14799701D01*
X6646861Y-14799701D02*
X6656385Y-14771130D01*
X6656385Y-14771130D02*
X6665908Y-14752082D01*
X6665908Y-14752082D02*
X6684956Y-14723511D01*
X6684956Y-14723511D02*
X6694480Y-14713987D01*
X6799242Y-14828273D02*
X6780194Y-14818749D01*
X6780194Y-14818749D02*
X6770670Y-14809225D01*
X6770670Y-14809225D02*
X6761147Y-14790178D01*
X6761147Y-14790178D02*
X6761147Y-14780654D01*
X6761147Y-14780654D02*
X6770670Y-14761606D01*
X6770670Y-14761606D02*
X6780194Y-14752082D01*
X6780194Y-14752082D02*
X6799242Y-14742559D01*
X6799242Y-14742559D02*
X6837337Y-14742559D01*
X6837337Y-14742559D02*
X6856385Y-14752082D01*
X6856385Y-14752082D02*
X6865908Y-14761606D01*
X6865908Y-14761606D02*
X6875432Y-14780654D01*
X6875432Y-14780654D02*
X6875432Y-14790178D01*
X6875432Y-14790178D02*
X6865908Y-14809225D01*
X6865908Y-14809225D02*
X6856385Y-14818749D01*
X6856385Y-14818749D02*
X6837337Y-14828273D01*
X6837337Y-14828273D02*
X6799242Y-14828273D01*
X6799242Y-14828273D02*
X6780194Y-14837797D01*
X6780194Y-14837797D02*
X6770670Y-14847321D01*
X6770670Y-14847321D02*
X6761147Y-14866368D01*
X6761147Y-14866368D02*
X6761147Y-14904463D01*
X6761147Y-14904463D02*
X6770670Y-14923511D01*
X6770670Y-14923511D02*
X6780194Y-14933035D01*
X6780194Y-14933035D02*
X6799242Y-14942559D01*
X6799242Y-14942559D02*
X6837337Y-14942559D01*
X6837337Y-14942559D02*
X6856385Y-14933035D01*
X6856385Y-14933035D02*
X6865908Y-14923511D01*
X6865908Y-14923511D02*
X6875432Y-14904463D01*
X6875432Y-14904463D02*
X6875432Y-14866368D01*
X6875432Y-14866368D02*
X6865908Y-14847321D01*
X6865908Y-14847321D02*
X6856385Y-14837797D01*
X6856385Y-14837797D02*
X6837337Y-14828273D01*
X7113528Y-14942559D02*
X7113528Y-14742559D01*
X7199242Y-14942559D02*
X7199242Y-14837797D01*
X7199242Y-14837797D02*
X7189718Y-14818749D01*
X7189718Y-14818749D02*
X7170670Y-14809225D01*
X7170670Y-14809225D02*
X7142099Y-14809225D01*
X7142099Y-14809225D02*
X7123051Y-14818749D01*
X7123051Y-14818749D02*
X7113528Y-14828273D01*
X7323051Y-14942559D02*
X7304004Y-14933035D01*
X7304004Y-14933035D02*
X7294480Y-14923511D01*
X7294480Y-14923511D02*
X7284956Y-14904463D01*
X7284956Y-14904463D02*
X7284956Y-14847321D01*
X7284956Y-14847321D02*
X7294480Y-14828273D01*
X7294480Y-14828273D02*
X7304004Y-14818749D01*
X7304004Y-14818749D02*
X7323051Y-14809225D01*
X7323051Y-14809225D02*
X7351623Y-14809225D01*
X7351623Y-14809225D02*
X7370670Y-14818749D01*
X7370670Y-14818749D02*
X7380194Y-14828273D01*
X7380194Y-14828273D02*
X7389718Y-14847321D01*
X7389718Y-14847321D02*
X7389718Y-14904463D01*
X7389718Y-14904463D02*
X7380194Y-14923511D01*
X7380194Y-14923511D02*
X7370670Y-14933035D01*
X7370670Y-14933035D02*
X7351623Y-14942559D01*
X7351623Y-14942559D02*
X7323051Y-14942559D01*
X7504004Y-14942559D02*
X7484956Y-14933035D01*
X7484956Y-14933035D02*
X7475432Y-14913987D01*
X7475432Y-14913987D02*
X7475432Y-14742559D01*
X7656385Y-14933035D02*
X7637337Y-14942559D01*
X7637337Y-14942559D02*
X7599242Y-14942559D01*
X7599242Y-14942559D02*
X7580194Y-14933035D01*
X7580194Y-14933035D02*
X7570670Y-14913987D01*
X7570670Y-14913987D02*
X7570670Y-14837797D01*
X7570670Y-14837797D02*
X7580194Y-14818749D01*
X7580194Y-14818749D02*
X7599242Y-14809225D01*
X7599242Y-14809225D02*
X7637337Y-14809225D01*
X7637337Y-14809225D02*
X7656385Y-14818749D01*
X7656385Y-14818749D02*
X7665909Y-14837797D01*
X7665909Y-14837797D02*
X7665909Y-14856844D01*
X7665909Y-14856844D02*
X7570670Y-14875892D01*
X7742099Y-14933035D02*
X7761147Y-14942559D01*
X7761147Y-14942559D02*
X7799242Y-14942559D01*
X7799242Y-14942559D02*
X7818290Y-14933035D01*
X7818290Y-14933035D02*
X7827813Y-14913987D01*
X7827813Y-14913987D02*
X7827813Y-14904463D01*
X7827813Y-14904463D02*
X7818290Y-14885416D01*
X7818290Y-14885416D02*
X7799242Y-14875892D01*
X7799242Y-14875892D02*
X7770670Y-14875892D01*
X7770670Y-14875892D02*
X7751623Y-14866368D01*
X7751623Y-14866368D02*
X7742099Y-14847321D01*
X7742099Y-14847321D02*
X7742099Y-14837797D01*
X7742099Y-14837797D02*
X7751623Y-14818749D01*
X7751623Y-14818749D02*
X7770670Y-14809225D01*
X7770670Y-14809225D02*
X7799242Y-14809225D01*
X7799242Y-14809225D02*
X7818290Y-14818749D01*
X7894480Y-15018749D02*
X7904004Y-15009225D01*
X7904004Y-15009225D02*
X7923051Y-14980654D01*
X7923051Y-14980654D02*
X7932575Y-14961606D01*
X7932575Y-14961606D02*
X7942099Y-14933035D01*
X7942099Y-14933035D02*
X7951623Y-14885416D01*
X7951623Y-14885416D02*
X7951623Y-14847321D01*
X7951623Y-14847321D02*
X7942099Y-14799701D01*
X7942099Y-14799701D02*
X7932575Y-14771130D01*
X7932575Y-14771130D02*
X7923051Y-14752082D01*
X7923051Y-14752082D02*
X7904004Y-14723511D01*
X7904004Y-14723511D02*
X7894480Y-14713987D01*
D16*
X3010197Y-15060465D02*
X3119417Y-15169685D01*
X3119417Y-15060465D02*
X3010197Y-15169685D01*
X3119417Y-15115075D02*
G75*
G03*
X3119417Y-15115075I-54610J0D01*
G01*
D11*
X3484956Y-15206559D02*
X3370670Y-15206559D01*
X3427813Y-15206559D02*
X3427813Y-15006559D01*
X3427813Y-15006559D02*
X3408765Y-15035130D01*
X3408765Y-15035130D02*
X3389718Y-15054178D01*
X3389718Y-15054178D02*
X3370670Y-15063701D01*
X3570670Y-15187511D02*
X3580194Y-15197035D01*
X3580194Y-15197035D02*
X3570670Y-15206559D01*
X3570670Y-15206559D02*
X3561146Y-15197035D01*
X3561146Y-15197035D02*
X3570670Y-15187511D01*
X3570670Y-15187511D02*
X3570670Y-15206559D01*
X3704003Y-15006559D02*
X3723051Y-15006559D01*
X3723051Y-15006559D02*
X3742099Y-15016082D01*
X3742099Y-15016082D02*
X3751622Y-15025606D01*
X3751622Y-15025606D02*
X3761146Y-15044654D01*
X3761146Y-15044654D02*
X3770670Y-15082749D01*
X3770670Y-15082749D02*
X3770670Y-15130368D01*
X3770670Y-15130368D02*
X3761146Y-15168463D01*
X3761146Y-15168463D02*
X3751622Y-15187511D01*
X3751622Y-15187511D02*
X3742099Y-15197035D01*
X3742099Y-15197035D02*
X3723051Y-15206559D01*
X3723051Y-15206559D02*
X3704003Y-15206559D01*
X3704003Y-15206559D02*
X3684956Y-15197035D01*
X3684956Y-15197035D02*
X3675432Y-15187511D01*
X3675432Y-15187511D02*
X3665908Y-15168463D01*
X3665908Y-15168463D02*
X3656384Y-15130368D01*
X3656384Y-15130368D02*
X3656384Y-15082749D01*
X3656384Y-15082749D02*
X3665908Y-15044654D01*
X3665908Y-15044654D02*
X3675432Y-15025606D01*
X3675432Y-15025606D02*
X3684956Y-15016082D01*
X3684956Y-15016082D02*
X3704003Y-15006559D01*
X3865908Y-15206559D02*
X3904003Y-15206559D01*
X3904003Y-15206559D02*
X3923051Y-15197035D01*
X3923051Y-15197035D02*
X3932575Y-15187511D01*
X3932575Y-15187511D02*
X3951622Y-15158940D01*
X3951622Y-15158940D02*
X3961146Y-15120844D01*
X3961146Y-15120844D02*
X3961146Y-15044654D01*
X3961146Y-15044654D02*
X3951622Y-15025606D01*
X3951622Y-15025606D02*
X3942099Y-15016082D01*
X3942099Y-15016082D02*
X3923051Y-15006559D01*
X3923051Y-15006559D02*
X3884956Y-15006559D01*
X3884956Y-15006559D02*
X3865908Y-15016082D01*
X3865908Y-15016082D02*
X3856384Y-15025606D01*
X3856384Y-15025606D02*
X3846861Y-15044654D01*
X3846861Y-15044654D02*
X3846861Y-15092273D01*
X3846861Y-15092273D02*
X3856384Y-15111321D01*
X3856384Y-15111321D02*
X3865908Y-15120844D01*
X3865908Y-15120844D02*
X3884956Y-15130368D01*
X3884956Y-15130368D02*
X3923051Y-15130368D01*
X3923051Y-15130368D02*
X3942099Y-15120844D01*
X3942099Y-15120844D02*
X3951622Y-15111321D01*
X3951622Y-15111321D02*
X3961146Y-15092273D01*
X4037337Y-15025606D02*
X4046861Y-15016082D01*
X4046861Y-15016082D02*
X4065908Y-15006559D01*
X4065908Y-15006559D02*
X4113527Y-15006559D01*
X4113527Y-15006559D02*
X4132575Y-15016082D01*
X4132575Y-15016082D02*
X4142099Y-15025606D01*
X4142099Y-15025606D02*
X4151622Y-15044654D01*
X4151622Y-15044654D02*
X4151622Y-15063701D01*
X4151622Y-15063701D02*
X4142099Y-15092273D01*
X4142099Y-15092273D02*
X4027813Y-15206559D01*
X4027813Y-15206559D02*
X4151622Y-15206559D01*
X4237337Y-15206559D02*
X4237337Y-15073225D01*
X4237337Y-15092273D02*
X4246861Y-15082749D01*
X4246861Y-15082749D02*
X4265908Y-15073225D01*
X4265908Y-15073225D02*
X4294480Y-15073225D01*
X4294480Y-15073225D02*
X4313527Y-15082749D01*
X4313527Y-15082749D02*
X4323051Y-15101797D01*
X4323051Y-15101797D02*
X4323051Y-15206559D01*
X4323051Y-15101797D02*
X4332575Y-15082749D01*
X4332575Y-15082749D02*
X4351623Y-15073225D01*
X4351623Y-15073225D02*
X4380194Y-15073225D01*
X4380194Y-15073225D02*
X4399242Y-15082749D01*
X4399242Y-15082749D02*
X4408765Y-15101797D01*
X4408765Y-15101797D02*
X4408765Y-15206559D01*
X4504004Y-15206559D02*
X4504004Y-15073225D01*
X4504004Y-15092273D02*
X4513527Y-15082749D01*
X4513527Y-15082749D02*
X4532575Y-15073225D01*
X4532575Y-15073225D02*
X4561146Y-15073225D01*
X4561146Y-15073225D02*
X4580194Y-15082749D01*
X4580194Y-15082749D02*
X4589718Y-15101797D01*
X4589718Y-15101797D02*
X4589718Y-15206559D01*
X4589718Y-15101797D02*
X4599242Y-15082749D01*
X4599242Y-15082749D02*
X4618289Y-15073225D01*
X4618289Y-15073225D02*
X4646861Y-15073225D01*
X4646861Y-15073225D02*
X4665908Y-15082749D01*
X4665908Y-15082749D02*
X4675432Y-15101797D01*
X4675432Y-15101797D02*
X4675432Y-15206559D01*
X5065908Y-14997035D02*
X4894480Y-15254178D01*
X5323051Y-15006559D02*
X5342099Y-15006559D01*
X5342099Y-15006559D02*
X5361147Y-15016082D01*
X5361147Y-15016082D02*
X5370670Y-15025606D01*
X5370670Y-15025606D02*
X5380194Y-15044654D01*
X5380194Y-15044654D02*
X5389718Y-15082749D01*
X5389718Y-15082749D02*
X5389718Y-15130368D01*
X5389718Y-15130368D02*
X5380194Y-15168463D01*
X5380194Y-15168463D02*
X5370670Y-15187511D01*
X5370670Y-15187511D02*
X5361147Y-15197035D01*
X5361147Y-15197035D02*
X5342099Y-15206559D01*
X5342099Y-15206559D02*
X5323051Y-15206559D01*
X5323051Y-15206559D02*
X5304004Y-15197035D01*
X5304004Y-15197035D02*
X5294480Y-15187511D01*
X5294480Y-15187511D02*
X5284956Y-15168463D01*
X5284956Y-15168463D02*
X5275432Y-15130368D01*
X5275432Y-15130368D02*
X5275432Y-15082749D01*
X5275432Y-15082749D02*
X5284956Y-15044654D01*
X5284956Y-15044654D02*
X5294480Y-15025606D01*
X5294480Y-15025606D02*
X5304004Y-15016082D01*
X5304004Y-15016082D02*
X5323051Y-15006559D01*
X5475432Y-15187511D02*
X5484956Y-15197035D01*
X5484956Y-15197035D02*
X5475432Y-15206559D01*
X5475432Y-15206559D02*
X5465908Y-15197035D01*
X5465908Y-15197035D02*
X5475432Y-15187511D01*
X5475432Y-15187511D02*
X5475432Y-15206559D01*
X5608765Y-15006559D02*
X5627813Y-15006559D01*
X5627813Y-15006559D02*
X5646861Y-15016082D01*
X5646861Y-15016082D02*
X5656385Y-15025606D01*
X5656385Y-15025606D02*
X5665908Y-15044654D01*
X5665908Y-15044654D02*
X5675432Y-15082749D01*
X5675432Y-15082749D02*
X5675432Y-15130368D01*
X5675432Y-15130368D02*
X5665908Y-15168463D01*
X5665908Y-15168463D02*
X5656385Y-15187511D01*
X5656385Y-15187511D02*
X5646861Y-15197035D01*
X5646861Y-15197035D02*
X5627813Y-15206559D01*
X5627813Y-15206559D02*
X5608765Y-15206559D01*
X5608765Y-15206559D02*
X5589718Y-15197035D01*
X5589718Y-15197035D02*
X5580194Y-15187511D01*
X5580194Y-15187511D02*
X5570670Y-15168463D01*
X5570670Y-15168463D02*
X5561147Y-15130368D01*
X5561147Y-15130368D02*
X5561147Y-15082749D01*
X5561147Y-15082749D02*
X5570670Y-15044654D01*
X5570670Y-15044654D02*
X5580194Y-15025606D01*
X5580194Y-15025606D02*
X5589718Y-15016082D01*
X5589718Y-15016082D02*
X5608765Y-15006559D01*
X5846861Y-15073225D02*
X5846861Y-15206559D01*
X5799242Y-14997035D02*
X5751623Y-15139892D01*
X5751623Y-15139892D02*
X5875432Y-15139892D01*
X5932575Y-15006559D02*
X6056385Y-15006559D01*
X6056385Y-15006559D02*
X5989718Y-15082749D01*
X5989718Y-15082749D02*
X6018289Y-15082749D01*
X6018289Y-15082749D02*
X6037337Y-15092273D01*
X6037337Y-15092273D02*
X6046861Y-15101797D01*
X6046861Y-15101797D02*
X6056385Y-15120844D01*
X6056385Y-15120844D02*
X6056385Y-15168463D01*
X6056385Y-15168463D02*
X6046861Y-15187511D01*
X6046861Y-15187511D02*
X6037337Y-15197035D01*
X6037337Y-15197035D02*
X6018289Y-15206559D01*
X6018289Y-15206559D02*
X5961146Y-15206559D01*
X5961146Y-15206559D02*
X5942099Y-15197035D01*
X5942099Y-15197035D02*
X5932575Y-15187511D01*
X6180194Y-15006559D02*
X6199242Y-15006559D01*
X6199242Y-15006559D02*
X6218289Y-15016082D01*
X6218289Y-15016082D02*
X6227813Y-15025606D01*
X6227813Y-15025606D02*
X6237337Y-15044654D01*
X6237337Y-15044654D02*
X6246861Y-15082749D01*
X6246861Y-15082749D02*
X6246861Y-15130368D01*
X6246861Y-15130368D02*
X6237337Y-15168463D01*
X6237337Y-15168463D02*
X6227813Y-15187511D01*
X6227813Y-15187511D02*
X6218289Y-15197035D01*
X6218289Y-15197035D02*
X6199242Y-15206559D01*
X6199242Y-15206559D02*
X6180194Y-15206559D01*
X6180194Y-15206559D02*
X6161146Y-15197035D01*
X6161146Y-15197035D02*
X6151623Y-15187511D01*
X6151623Y-15187511D02*
X6142099Y-15168463D01*
X6142099Y-15168463D02*
X6132575Y-15130368D01*
X6132575Y-15130368D02*
X6132575Y-15082749D01*
X6132575Y-15082749D02*
X6142099Y-15044654D01*
X6142099Y-15044654D02*
X6151623Y-15025606D01*
X6151623Y-15025606D02*
X6161146Y-15016082D01*
X6161146Y-15016082D02*
X6180194Y-15006559D01*
X6323051Y-15006559D02*
X6323051Y-15044654D01*
X6399242Y-15006559D02*
X6399242Y-15044654D01*
X6694480Y-15282749D02*
X6684956Y-15273225D01*
X6684956Y-15273225D02*
X6665908Y-15244654D01*
X6665908Y-15244654D02*
X6656385Y-15225606D01*
X6656385Y-15225606D02*
X6646861Y-15197035D01*
X6646861Y-15197035D02*
X6637337Y-15149416D01*
X6637337Y-15149416D02*
X6637337Y-15111321D01*
X6637337Y-15111321D02*
X6646861Y-15063701D01*
X6646861Y-15063701D02*
X6656385Y-15035130D01*
X6656385Y-15035130D02*
X6665908Y-15016082D01*
X6665908Y-15016082D02*
X6684956Y-14987511D01*
X6684956Y-14987511D02*
X6694480Y-14977987D01*
X6856385Y-15006559D02*
X6818289Y-15006559D01*
X6818289Y-15006559D02*
X6799242Y-15016082D01*
X6799242Y-15016082D02*
X6789718Y-15025606D01*
X6789718Y-15025606D02*
X6770670Y-15054178D01*
X6770670Y-15054178D02*
X6761147Y-15092273D01*
X6761147Y-15092273D02*
X6761147Y-15168463D01*
X6761147Y-15168463D02*
X6770670Y-15187511D01*
X6770670Y-15187511D02*
X6780194Y-15197035D01*
X6780194Y-15197035D02*
X6799242Y-15206559D01*
X6799242Y-15206559D02*
X6837337Y-15206559D01*
X6837337Y-15206559D02*
X6856385Y-15197035D01*
X6856385Y-15197035D02*
X6865908Y-15187511D01*
X6865908Y-15187511D02*
X6875432Y-15168463D01*
X6875432Y-15168463D02*
X6875432Y-15120844D01*
X6875432Y-15120844D02*
X6865908Y-15101797D01*
X6865908Y-15101797D02*
X6856385Y-15092273D01*
X6856385Y-15092273D02*
X6837337Y-15082749D01*
X6837337Y-15082749D02*
X6799242Y-15082749D01*
X6799242Y-15082749D02*
X6780194Y-15092273D01*
X6780194Y-15092273D02*
X6770670Y-15101797D01*
X6770670Y-15101797D02*
X6761147Y-15120844D01*
X7046861Y-15006559D02*
X7008766Y-15006559D01*
X7008766Y-15006559D02*
X6989718Y-15016082D01*
X6989718Y-15016082D02*
X6980194Y-15025606D01*
X6980194Y-15025606D02*
X6961147Y-15054178D01*
X6961147Y-15054178D02*
X6951623Y-15092273D01*
X6951623Y-15092273D02*
X6951623Y-15168463D01*
X6951623Y-15168463D02*
X6961147Y-15187511D01*
X6961147Y-15187511D02*
X6970670Y-15197035D01*
X6970670Y-15197035D02*
X6989718Y-15206559D01*
X6989718Y-15206559D02*
X7027813Y-15206559D01*
X7027813Y-15206559D02*
X7046861Y-15197035D01*
X7046861Y-15197035D02*
X7056385Y-15187511D01*
X7056385Y-15187511D02*
X7065908Y-15168463D01*
X7065908Y-15168463D02*
X7065908Y-15120844D01*
X7065908Y-15120844D02*
X7056385Y-15101797D01*
X7056385Y-15101797D02*
X7046861Y-15092273D01*
X7046861Y-15092273D02*
X7027813Y-15082749D01*
X7027813Y-15082749D02*
X6989718Y-15082749D01*
X6989718Y-15082749D02*
X6970670Y-15092273D01*
X6970670Y-15092273D02*
X6961147Y-15101797D01*
X6961147Y-15101797D02*
X6951623Y-15120844D01*
X7304004Y-15206559D02*
X7304004Y-15006559D01*
X7389718Y-15206559D02*
X7389718Y-15101797D01*
X7389718Y-15101797D02*
X7380194Y-15082749D01*
X7380194Y-15082749D02*
X7361147Y-15073225D01*
X7361147Y-15073225D02*
X7332575Y-15073225D01*
X7332575Y-15073225D02*
X7313528Y-15082749D01*
X7313528Y-15082749D02*
X7304004Y-15092273D01*
X7513528Y-15206559D02*
X7494480Y-15197035D01*
X7494480Y-15197035D02*
X7484956Y-15187511D01*
X7484956Y-15187511D02*
X7475432Y-15168463D01*
X7475432Y-15168463D02*
X7475432Y-15111321D01*
X7475432Y-15111321D02*
X7484956Y-15092273D01*
X7484956Y-15092273D02*
X7494480Y-15082749D01*
X7494480Y-15082749D02*
X7513528Y-15073225D01*
X7513528Y-15073225D02*
X7542099Y-15073225D01*
X7542099Y-15073225D02*
X7561147Y-15082749D01*
X7561147Y-15082749D02*
X7570670Y-15092273D01*
X7570670Y-15092273D02*
X7580194Y-15111321D01*
X7580194Y-15111321D02*
X7580194Y-15168463D01*
X7580194Y-15168463D02*
X7570670Y-15187511D01*
X7570670Y-15187511D02*
X7561147Y-15197035D01*
X7561147Y-15197035D02*
X7542099Y-15206559D01*
X7542099Y-15206559D02*
X7513528Y-15206559D01*
X7694480Y-15206559D02*
X7675432Y-15197035D01*
X7675432Y-15197035D02*
X7665909Y-15177987D01*
X7665909Y-15177987D02*
X7665909Y-15006559D01*
X7846861Y-15197035D02*
X7827813Y-15206559D01*
X7827813Y-15206559D02*
X7789718Y-15206559D01*
X7789718Y-15206559D02*
X7770670Y-15197035D01*
X7770670Y-15197035D02*
X7761147Y-15177987D01*
X7761147Y-15177987D02*
X7761147Y-15101797D01*
X7761147Y-15101797D02*
X7770670Y-15082749D01*
X7770670Y-15082749D02*
X7789718Y-15073225D01*
X7789718Y-15073225D02*
X7827813Y-15073225D01*
X7827813Y-15073225D02*
X7846861Y-15082749D01*
X7846861Y-15082749D02*
X7856385Y-15101797D01*
X7856385Y-15101797D02*
X7856385Y-15120844D01*
X7856385Y-15120844D02*
X7761147Y-15139892D01*
X7932575Y-15197035D02*
X7951623Y-15206559D01*
X7951623Y-15206559D02*
X7989718Y-15206559D01*
X7989718Y-15206559D02*
X8008766Y-15197035D01*
X8008766Y-15197035D02*
X8018290Y-15177987D01*
X8018290Y-15177987D02*
X8018290Y-15168463D01*
X8018290Y-15168463D02*
X8008766Y-15149416D01*
X8008766Y-15149416D02*
X7989718Y-15139892D01*
X7989718Y-15139892D02*
X7961147Y-15139892D01*
X7961147Y-15139892D02*
X7942099Y-15130368D01*
X7942099Y-15130368D02*
X7932575Y-15111321D01*
X7932575Y-15111321D02*
X7932575Y-15101797D01*
X7932575Y-15101797D02*
X7942099Y-15082749D01*
X7942099Y-15082749D02*
X7961147Y-15073225D01*
X7961147Y-15073225D02*
X7989718Y-15073225D01*
X7989718Y-15073225D02*
X8008766Y-15082749D01*
X8084956Y-15282749D02*
X8094480Y-15273225D01*
X8094480Y-15273225D02*
X8113528Y-15244654D01*
X8113528Y-15244654D02*
X8123051Y-15225606D01*
X8123051Y-15225606D02*
X8132575Y-15197035D01*
X8132575Y-15197035D02*
X8142099Y-15149416D01*
X8142099Y-15149416D02*
X8142099Y-15111321D01*
X8142099Y-15111321D02*
X8132575Y-15063701D01*
X8132575Y-15063701D02*
X8123051Y-15035130D01*
X8123051Y-15035130D02*
X8113528Y-15016082D01*
X8113528Y-15016082D02*
X8094480Y-14987511D01*
X8094480Y-14987511D02*
X8084956Y-14977987D01*
D17*
X2992417Y-15315575D02*
X3119417Y-15442575D01*
X3119417Y-15315575D02*
X2992417Y-15442575D01*
X3055917Y-15315575D02*
X3055917Y-15442575D01*
X2992417Y-15379075D02*
X3119417Y-15379075D01*
D11*
X3484956Y-15470559D02*
X3370670Y-15470559D01*
X3427813Y-15470559D02*
X3427813Y-15270559D01*
X3427813Y-15270559D02*
X3408765Y-15299130D01*
X3408765Y-15299130D02*
X3389718Y-15318178D01*
X3389718Y-15318178D02*
X3370670Y-15327701D01*
X3570670Y-15451511D02*
X3580194Y-15461035D01*
X3580194Y-15461035D02*
X3570670Y-15470559D01*
X3570670Y-15470559D02*
X3561146Y-15461035D01*
X3561146Y-15461035D02*
X3570670Y-15451511D01*
X3570670Y-15451511D02*
X3570670Y-15470559D01*
X3656384Y-15289606D02*
X3665908Y-15280082D01*
X3665908Y-15280082D02*
X3684956Y-15270559D01*
X3684956Y-15270559D02*
X3732575Y-15270559D01*
X3732575Y-15270559D02*
X3751622Y-15280082D01*
X3751622Y-15280082D02*
X3761146Y-15289606D01*
X3761146Y-15289606D02*
X3770670Y-15308654D01*
X3770670Y-15308654D02*
X3770670Y-15327701D01*
X3770670Y-15327701D02*
X3761146Y-15356273D01*
X3761146Y-15356273D02*
X3646861Y-15470559D01*
X3646861Y-15470559D02*
X3770670Y-15470559D01*
X3837337Y-15270559D02*
X3970670Y-15270559D01*
X3970670Y-15270559D02*
X3884956Y-15470559D01*
X4084956Y-15270559D02*
X4104003Y-15270559D01*
X4104003Y-15270559D02*
X4123051Y-15280082D01*
X4123051Y-15280082D02*
X4132575Y-15289606D01*
X4132575Y-15289606D02*
X4142099Y-15308654D01*
X4142099Y-15308654D02*
X4151622Y-15346749D01*
X4151622Y-15346749D02*
X4151622Y-15394368D01*
X4151622Y-15394368D02*
X4142099Y-15432463D01*
X4142099Y-15432463D02*
X4132575Y-15451511D01*
X4132575Y-15451511D02*
X4123051Y-15461035D01*
X4123051Y-15461035D02*
X4104003Y-15470559D01*
X4104003Y-15470559D02*
X4084956Y-15470559D01*
X4084956Y-15470559D02*
X4065908Y-15461035D01*
X4065908Y-15461035D02*
X4056384Y-15451511D01*
X4056384Y-15451511D02*
X4046861Y-15432463D01*
X4046861Y-15432463D02*
X4037337Y-15394368D01*
X4037337Y-15394368D02*
X4037337Y-15346749D01*
X4037337Y-15346749D02*
X4046861Y-15308654D01*
X4046861Y-15308654D02*
X4056384Y-15289606D01*
X4056384Y-15289606D02*
X4065908Y-15280082D01*
X4065908Y-15280082D02*
X4084956Y-15270559D01*
X4237337Y-15470559D02*
X4237337Y-15337225D01*
X4237337Y-15356273D02*
X4246861Y-15346749D01*
X4246861Y-15346749D02*
X4265908Y-15337225D01*
X4265908Y-15337225D02*
X4294480Y-15337225D01*
X4294480Y-15337225D02*
X4313527Y-15346749D01*
X4313527Y-15346749D02*
X4323051Y-15365797D01*
X4323051Y-15365797D02*
X4323051Y-15470559D01*
X4323051Y-15365797D02*
X4332575Y-15346749D01*
X4332575Y-15346749D02*
X4351623Y-15337225D01*
X4351623Y-15337225D02*
X4380194Y-15337225D01*
X4380194Y-15337225D02*
X4399242Y-15346749D01*
X4399242Y-15346749D02*
X4408765Y-15365797D01*
X4408765Y-15365797D02*
X4408765Y-15470559D01*
X4504004Y-15470559D02*
X4504004Y-15337225D01*
X4504004Y-15356273D02*
X4513527Y-15346749D01*
X4513527Y-15346749D02*
X4532575Y-15337225D01*
X4532575Y-15337225D02*
X4561146Y-15337225D01*
X4561146Y-15337225D02*
X4580194Y-15346749D01*
X4580194Y-15346749D02*
X4589718Y-15365797D01*
X4589718Y-15365797D02*
X4589718Y-15470559D01*
X4589718Y-15365797D02*
X4599242Y-15346749D01*
X4599242Y-15346749D02*
X4618289Y-15337225D01*
X4618289Y-15337225D02*
X4646861Y-15337225D01*
X4646861Y-15337225D02*
X4665908Y-15346749D01*
X4665908Y-15346749D02*
X4675432Y-15365797D01*
X4675432Y-15365797D02*
X4675432Y-15470559D01*
X5065908Y-15261035D02*
X4894480Y-15518178D01*
X5323051Y-15270559D02*
X5342099Y-15270559D01*
X5342099Y-15270559D02*
X5361147Y-15280082D01*
X5361147Y-15280082D02*
X5370670Y-15289606D01*
X5370670Y-15289606D02*
X5380194Y-15308654D01*
X5380194Y-15308654D02*
X5389718Y-15346749D01*
X5389718Y-15346749D02*
X5389718Y-15394368D01*
X5389718Y-15394368D02*
X5380194Y-15432463D01*
X5380194Y-15432463D02*
X5370670Y-15451511D01*
X5370670Y-15451511D02*
X5361147Y-15461035D01*
X5361147Y-15461035D02*
X5342099Y-15470559D01*
X5342099Y-15470559D02*
X5323051Y-15470559D01*
X5323051Y-15470559D02*
X5304004Y-15461035D01*
X5304004Y-15461035D02*
X5294480Y-15451511D01*
X5294480Y-15451511D02*
X5284956Y-15432463D01*
X5284956Y-15432463D02*
X5275432Y-15394368D01*
X5275432Y-15394368D02*
X5275432Y-15346749D01*
X5275432Y-15346749D02*
X5284956Y-15308654D01*
X5284956Y-15308654D02*
X5294480Y-15289606D01*
X5294480Y-15289606D02*
X5304004Y-15280082D01*
X5304004Y-15280082D02*
X5323051Y-15270559D01*
X5475432Y-15451511D02*
X5484956Y-15461035D01*
X5484956Y-15461035D02*
X5475432Y-15470559D01*
X5475432Y-15470559D02*
X5465908Y-15461035D01*
X5465908Y-15461035D02*
X5475432Y-15451511D01*
X5475432Y-15451511D02*
X5475432Y-15470559D01*
X5608765Y-15270559D02*
X5627813Y-15270559D01*
X5627813Y-15270559D02*
X5646861Y-15280082D01*
X5646861Y-15280082D02*
X5656385Y-15289606D01*
X5656385Y-15289606D02*
X5665908Y-15308654D01*
X5665908Y-15308654D02*
X5675432Y-15346749D01*
X5675432Y-15346749D02*
X5675432Y-15394368D01*
X5675432Y-15394368D02*
X5665908Y-15432463D01*
X5665908Y-15432463D02*
X5656385Y-15451511D01*
X5656385Y-15451511D02*
X5646861Y-15461035D01*
X5646861Y-15461035D02*
X5627813Y-15470559D01*
X5627813Y-15470559D02*
X5608765Y-15470559D01*
X5608765Y-15470559D02*
X5589718Y-15461035D01*
X5589718Y-15461035D02*
X5580194Y-15451511D01*
X5580194Y-15451511D02*
X5570670Y-15432463D01*
X5570670Y-15432463D02*
X5561147Y-15394368D01*
X5561147Y-15394368D02*
X5561147Y-15346749D01*
X5561147Y-15346749D02*
X5570670Y-15308654D01*
X5570670Y-15308654D02*
X5580194Y-15289606D01*
X5580194Y-15289606D02*
X5589718Y-15280082D01*
X5589718Y-15280082D02*
X5608765Y-15270559D01*
X5856385Y-15270559D02*
X5761146Y-15270559D01*
X5761146Y-15270559D02*
X5751623Y-15365797D01*
X5751623Y-15365797D02*
X5761146Y-15356273D01*
X5761146Y-15356273D02*
X5780194Y-15346749D01*
X5780194Y-15346749D02*
X5827813Y-15346749D01*
X5827813Y-15346749D02*
X5846861Y-15356273D01*
X5846861Y-15356273D02*
X5856385Y-15365797D01*
X5856385Y-15365797D02*
X5865908Y-15384844D01*
X5865908Y-15384844D02*
X5865908Y-15432463D01*
X5865908Y-15432463D02*
X5856385Y-15451511D01*
X5856385Y-15451511D02*
X5846861Y-15461035D01*
X5846861Y-15461035D02*
X5827813Y-15470559D01*
X5827813Y-15470559D02*
X5780194Y-15470559D01*
X5780194Y-15470559D02*
X5761146Y-15461035D01*
X5761146Y-15461035D02*
X5751623Y-15451511D01*
X5989718Y-15270559D02*
X6008766Y-15270559D01*
X6008766Y-15270559D02*
X6027813Y-15280082D01*
X6027813Y-15280082D02*
X6037337Y-15289606D01*
X6037337Y-15289606D02*
X6046861Y-15308654D01*
X6046861Y-15308654D02*
X6056385Y-15346749D01*
X6056385Y-15346749D02*
X6056385Y-15394368D01*
X6056385Y-15394368D02*
X6046861Y-15432463D01*
X6046861Y-15432463D02*
X6037337Y-15451511D01*
X6037337Y-15451511D02*
X6027813Y-15461035D01*
X6027813Y-15461035D02*
X6008766Y-15470559D01*
X6008766Y-15470559D02*
X5989718Y-15470559D01*
X5989718Y-15470559D02*
X5970670Y-15461035D01*
X5970670Y-15461035D02*
X5961146Y-15451511D01*
X5961146Y-15451511D02*
X5951623Y-15432463D01*
X5951623Y-15432463D02*
X5942099Y-15394368D01*
X5942099Y-15394368D02*
X5942099Y-15346749D01*
X5942099Y-15346749D02*
X5951623Y-15308654D01*
X5951623Y-15308654D02*
X5961146Y-15289606D01*
X5961146Y-15289606D02*
X5970670Y-15280082D01*
X5970670Y-15280082D02*
X5989718Y-15270559D01*
X6180194Y-15270559D02*
X6199242Y-15270559D01*
X6199242Y-15270559D02*
X6218289Y-15280082D01*
X6218289Y-15280082D02*
X6227813Y-15289606D01*
X6227813Y-15289606D02*
X6237337Y-15308654D01*
X6237337Y-15308654D02*
X6246861Y-15346749D01*
X6246861Y-15346749D02*
X6246861Y-15394368D01*
X6246861Y-15394368D02*
X6237337Y-15432463D01*
X6237337Y-15432463D02*
X6227813Y-15451511D01*
X6227813Y-15451511D02*
X6218289Y-15461035D01*
X6218289Y-15461035D02*
X6199242Y-15470559D01*
X6199242Y-15470559D02*
X6180194Y-15470559D01*
X6180194Y-15470559D02*
X6161146Y-15461035D01*
X6161146Y-15461035D02*
X6151623Y-15451511D01*
X6151623Y-15451511D02*
X6142099Y-15432463D01*
X6142099Y-15432463D02*
X6132575Y-15394368D01*
X6132575Y-15394368D02*
X6132575Y-15346749D01*
X6132575Y-15346749D02*
X6142099Y-15308654D01*
X6142099Y-15308654D02*
X6151623Y-15289606D01*
X6151623Y-15289606D02*
X6161146Y-15280082D01*
X6161146Y-15280082D02*
X6180194Y-15270559D01*
X6323051Y-15270559D02*
X6323051Y-15308654D01*
X6399242Y-15270559D02*
X6399242Y-15308654D01*
X6694480Y-15546749D02*
X6684956Y-15537225D01*
X6684956Y-15537225D02*
X6665908Y-15508654D01*
X6665908Y-15508654D02*
X6656385Y-15489606D01*
X6656385Y-15489606D02*
X6646861Y-15461035D01*
X6646861Y-15461035D02*
X6637337Y-15413416D01*
X6637337Y-15413416D02*
X6637337Y-15375321D01*
X6637337Y-15375321D02*
X6646861Y-15327701D01*
X6646861Y-15327701D02*
X6656385Y-15299130D01*
X6656385Y-15299130D02*
X6665908Y-15280082D01*
X6665908Y-15280082D02*
X6684956Y-15251511D01*
X6684956Y-15251511D02*
X6694480Y-15241987D01*
X6751623Y-15270559D02*
X6884956Y-15270559D01*
X6884956Y-15270559D02*
X6799242Y-15470559D01*
X6951623Y-15289606D02*
X6961147Y-15280082D01*
X6961147Y-15280082D02*
X6980194Y-15270559D01*
X6980194Y-15270559D02*
X7027813Y-15270559D01*
X7027813Y-15270559D02*
X7046861Y-15280082D01*
X7046861Y-15280082D02*
X7056385Y-15289606D01*
X7056385Y-15289606D02*
X7065908Y-15308654D01*
X7065908Y-15308654D02*
X7065908Y-15327701D01*
X7065908Y-15327701D02*
X7056385Y-15356273D01*
X7056385Y-15356273D02*
X6942099Y-15470559D01*
X6942099Y-15470559D02*
X7065908Y-15470559D01*
X7304004Y-15470559D02*
X7304004Y-15270559D01*
X7389718Y-15470559D02*
X7389718Y-15365797D01*
X7389718Y-15365797D02*
X7380194Y-15346749D01*
X7380194Y-15346749D02*
X7361147Y-15337225D01*
X7361147Y-15337225D02*
X7332575Y-15337225D01*
X7332575Y-15337225D02*
X7313528Y-15346749D01*
X7313528Y-15346749D02*
X7304004Y-15356273D01*
X7513528Y-15470559D02*
X7494480Y-15461035D01*
X7494480Y-15461035D02*
X7484956Y-15451511D01*
X7484956Y-15451511D02*
X7475432Y-15432463D01*
X7475432Y-15432463D02*
X7475432Y-15375321D01*
X7475432Y-15375321D02*
X7484956Y-15356273D01*
X7484956Y-15356273D02*
X7494480Y-15346749D01*
X7494480Y-15346749D02*
X7513528Y-15337225D01*
X7513528Y-15337225D02*
X7542099Y-15337225D01*
X7542099Y-15337225D02*
X7561147Y-15346749D01*
X7561147Y-15346749D02*
X7570670Y-15356273D01*
X7570670Y-15356273D02*
X7580194Y-15375321D01*
X7580194Y-15375321D02*
X7580194Y-15432463D01*
X7580194Y-15432463D02*
X7570670Y-15451511D01*
X7570670Y-15451511D02*
X7561147Y-15461035D01*
X7561147Y-15461035D02*
X7542099Y-15470559D01*
X7542099Y-15470559D02*
X7513528Y-15470559D01*
X7694480Y-15470559D02*
X7675432Y-15461035D01*
X7675432Y-15461035D02*
X7665909Y-15441987D01*
X7665909Y-15441987D02*
X7665909Y-15270559D01*
X7846861Y-15461035D02*
X7827813Y-15470559D01*
X7827813Y-15470559D02*
X7789718Y-15470559D01*
X7789718Y-15470559D02*
X7770670Y-15461035D01*
X7770670Y-15461035D02*
X7761147Y-15441987D01*
X7761147Y-15441987D02*
X7761147Y-15365797D01*
X7761147Y-15365797D02*
X7770670Y-15346749D01*
X7770670Y-15346749D02*
X7789718Y-15337225D01*
X7789718Y-15337225D02*
X7827813Y-15337225D01*
X7827813Y-15337225D02*
X7846861Y-15346749D01*
X7846861Y-15346749D02*
X7856385Y-15365797D01*
X7856385Y-15365797D02*
X7856385Y-15384844D01*
X7856385Y-15384844D02*
X7761147Y-15403892D01*
X7932575Y-15461035D02*
X7951623Y-15470559D01*
X7951623Y-15470559D02*
X7989718Y-15470559D01*
X7989718Y-15470559D02*
X8008766Y-15461035D01*
X8008766Y-15461035D02*
X8018290Y-15441987D01*
X8018290Y-15441987D02*
X8018290Y-15432463D01*
X8018290Y-15432463D02*
X8008766Y-15413416D01*
X8008766Y-15413416D02*
X7989718Y-15403892D01*
X7989718Y-15403892D02*
X7961147Y-15403892D01*
X7961147Y-15403892D02*
X7942099Y-15394368D01*
X7942099Y-15394368D02*
X7932575Y-15375321D01*
X7932575Y-15375321D02*
X7932575Y-15365797D01*
X7932575Y-15365797D02*
X7942099Y-15346749D01*
X7942099Y-15346749D02*
X7961147Y-15337225D01*
X7961147Y-15337225D02*
X7989718Y-15337225D01*
X7989718Y-15337225D02*
X8008766Y-15346749D01*
X8084956Y-15546749D02*
X8094480Y-15537225D01*
X8094480Y-15537225D02*
X8113528Y-15508654D01*
X8113528Y-15508654D02*
X8123051Y-15489606D01*
X8123051Y-15489606D02*
X8132575Y-15461035D01*
X8132575Y-15461035D02*
X8142099Y-15413416D01*
X8142099Y-15413416D02*
X8142099Y-15375321D01*
X8142099Y-15375321D02*
X8132575Y-15327701D01*
X8132575Y-15327701D02*
X8123051Y-15299130D01*
X8123051Y-15299130D02*
X8113528Y-15280082D01*
X8113528Y-15280082D02*
X8094480Y-15251511D01*
X8094480Y-15251511D02*
X8084956Y-15241987D01*
D18*
X2989417Y-15578075D02*
X3119417Y-15708075D01*
X3119417Y-15578075D02*
X2989417Y-15708075D01*
X3100379Y-15689037D02*
X3100379Y-15597112D01*
X3008455Y-15597112D01*
X3008455Y-15689037D01*
X3100379Y-15689037D01*
D11*
X3484956Y-15734559D02*
X3370670Y-15734559D01*
X3427813Y-15734559D02*
X3427813Y-15534559D01*
X3427813Y-15534559D02*
X3408765Y-15563130D01*
X3408765Y-15563130D02*
X3389718Y-15582178D01*
X3389718Y-15582178D02*
X3370670Y-15591701D01*
X3570670Y-15715511D02*
X3580194Y-15725035D01*
X3580194Y-15725035D02*
X3570670Y-15734559D01*
X3570670Y-15734559D02*
X3561146Y-15725035D01*
X3561146Y-15725035D02*
X3570670Y-15715511D01*
X3570670Y-15715511D02*
X3570670Y-15734559D01*
X3646861Y-15534559D02*
X3770670Y-15534559D01*
X3770670Y-15534559D02*
X3704003Y-15610749D01*
X3704003Y-15610749D02*
X3732575Y-15610749D01*
X3732575Y-15610749D02*
X3751622Y-15620273D01*
X3751622Y-15620273D02*
X3761146Y-15629797D01*
X3761146Y-15629797D02*
X3770670Y-15648844D01*
X3770670Y-15648844D02*
X3770670Y-15696463D01*
X3770670Y-15696463D02*
X3761146Y-15715511D01*
X3761146Y-15715511D02*
X3751622Y-15725035D01*
X3751622Y-15725035D02*
X3732575Y-15734559D01*
X3732575Y-15734559D02*
X3675432Y-15734559D01*
X3675432Y-15734559D02*
X3656384Y-15725035D01*
X3656384Y-15725035D02*
X3646861Y-15715511D01*
X3894480Y-15534559D02*
X3913527Y-15534559D01*
X3913527Y-15534559D02*
X3932575Y-15544082D01*
X3932575Y-15544082D02*
X3942099Y-15553606D01*
X3942099Y-15553606D02*
X3951622Y-15572654D01*
X3951622Y-15572654D02*
X3961146Y-15610749D01*
X3961146Y-15610749D02*
X3961146Y-15658368D01*
X3961146Y-15658368D02*
X3951622Y-15696463D01*
X3951622Y-15696463D02*
X3942099Y-15715511D01*
X3942099Y-15715511D02*
X3932575Y-15725035D01*
X3932575Y-15725035D02*
X3913527Y-15734559D01*
X3913527Y-15734559D02*
X3894480Y-15734559D01*
X3894480Y-15734559D02*
X3875432Y-15725035D01*
X3875432Y-15725035D02*
X3865908Y-15715511D01*
X3865908Y-15715511D02*
X3856384Y-15696463D01*
X3856384Y-15696463D02*
X3846861Y-15658368D01*
X3846861Y-15658368D02*
X3846861Y-15610749D01*
X3846861Y-15610749D02*
X3856384Y-15572654D01*
X3856384Y-15572654D02*
X3865908Y-15553606D01*
X3865908Y-15553606D02*
X3875432Y-15544082D01*
X3875432Y-15544082D02*
X3894480Y-15534559D01*
X4084956Y-15534559D02*
X4104003Y-15534559D01*
X4104003Y-15534559D02*
X4123051Y-15544082D01*
X4123051Y-15544082D02*
X4132575Y-15553606D01*
X4132575Y-15553606D02*
X4142099Y-15572654D01*
X4142099Y-15572654D02*
X4151622Y-15610749D01*
X4151622Y-15610749D02*
X4151622Y-15658368D01*
X4151622Y-15658368D02*
X4142099Y-15696463D01*
X4142099Y-15696463D02*
X4132575Y-15715511D01*
X4132575Y-15715511D02*
X4123051Y-15725035D01*
X4123051Y-15725035D02*
X4104003Y-15734559D01*
X4104003Y-15734559D02*
X4084956Y-15734559D01*
X4084956Y-15734559D02*
X4065908Y-15725035D01*
X4065908Y-15725035D02*
X4056384Y-15715511D01*
X4056384Y-15715511D02*
X4046861Y-15696463D01*
X4046861Y-15696463D02*
X4037337Y-15658368D01*
X4037337Y-15658368D02*
X4037337Y-15610749D01*
X4037337Y-15610749D02*
X4046861Y-15572654D01*
X4046861Y-15572654D02*
X4056384Y-15553606D01*
X4056384Y-15553606D02*
X4065908Y-15544082D01*
X4065908Y-15544082D02*
X4084956Y-15534559D01*
X4237337Y-15734559D02*
X4237337Y-15601225D01*
X4237337Y-15620273D02*
X4246861Y-15610749D01*
X4246861Y-15610749D02*
X4265908Y-15601225D01*
X4265908Y-15601225D02*
X4294480Y-15601225D01*
X4294480Y-15601225D02*
X4313527Y-15610749D01*
X4313527Y-15610749D02*
X4323051Y-15629797D01*
X4323051Y-15629797D02*
X4323051Y-15734559D01*
X4323051Y-15629797D02*
X4332575Y-15610749D01*
X4332575Y-15610749D02*
X4351623Y-15601225D01*
X4351623Y-15601225D02*
X4380194Y-15601225D01*
X4380194Y-15601225D02*
X4399242Y-15610749D01*
X4399242Y-15610749D02*
X4408765Y-15629797D01*
X4408765Y-15629797D02*
X4408765Y-15734559D01*
X4504004Y-15734559D02*
X4504004Y-15601225D01*
X4504004Y-15620273D02*
X4513527Y-15610749D01*
X4513527Y-15610749D02*
X4532575Y-15601225D01*
X4532575Y-15601225D02*
X4561146Y-15601225D01*
X4561146Y-15601225D02*
X4580194Y-15610749D01*
X4580194Y-15610749D02*
X4589718Y-15629797D01*
X4589718Y-15629797D02*
X4589718Y-15734559D01*
X4589718Y-15629797D02*
X4599242Y-15610749D01*
X4599242Y-15610749D02*
X4618289Y-15601225D01*
X4618289Y-15601225D02*
X4646861Y-15601225D01*
X4646861Y-15601225D02*
X4665908Y-15610749D01*
X4665908Y-15610749D02*
X4675432Y-15629797D01*
X4675432Y-15629797D02*
X4675432Y-15734559D01*
X5065908Y-15525035D02*
X4894480Y-15782178D01*
X5323051Y-15534559D02*
X5342099Y-15534559D01*
X5342099Y-15534559D02*
X5361147Y-15544082D01*
X5361147Y-15544082D02*
X5370670Y-15553606D01*
X5370670Y-15553606D02*
X5380194Y-15572654D01*
X5380194Y-15572654D02*
X5389718Y-15610749D01*
X5389718Y-15610749D02*
X5389718Y-15658368D01*
X5389718Y-15658368D02*
X5380194Y-15696463D01*
X5380194Y-15696463D02*
X5370670Y-15715511D01*
X5370670Y-15715511D02*
X5361147Y-15725035D01*
X5361147Y-15725035D02*
X5342099Y-15734559D01*
X5342099Y-15734559D02*
X5323051Y-15734559D01*
X5323051Y-15734559D02*
X5304004Y-15725035D01*
X5304004Y-15725035D02*
X5294480Y-15715511D01*
X5294480Y-15715511D02*
X5284956Y-15696463D01*
X5284956Y-15696463D02*
X5275432Y-15658368D01*
X5275432Y-15658368D02*
X5275432Y-15610749D01*
X5275432Y-15610749D02*
X5284956Y-15572654D01*
X5284956Y-15572654D02*
X5294480Y-15553606D01*
X5294480Y-15553606D02*
X5304004Y-15544082D01*
X5304004Y-15544082D02*
X5323051Y-15534559D01*
X5475432Y-15715511D02*
X5484956Y-15725035D01*
X5484956Y-15725035D02*
X5475432Y-15734559D01*
X5475432Y-15734559D02*
X5465908Y-15725035D01*
X5465908Y-15725035D02*
X5475432Y-15715511D01*
X5475432Y-15715511D02*
X5475432Y-15734559D01*
X5608765Y-15534559D02*
X5627813Y-15534559D01*
X5627813Y-15534559D02*
X5646861Y-15544082D01*
X5646861Y-15544082D02*
X5656385Y-15553606D01*
X5656385Y-15553606D02*
X5665908Y-15572654D01*
X5665908Y-15572654D02*
X5675432Y-15610749D01*
X5675432Y-15610749D02*
X5675432Y-15658368D01*
X5675432Y-15658368D02*
X5665908Y-15696463D01*
X5665908Y-15696463D02*
X5656385Y-15715511D01*
X5656385Y-15715511D02*
X5646861Y-15725035D01*
X5646861Y-15725035D02*
X5627813Y-15734559D01*
X5627813Y-15734559D02*
X5608765Y-15734559D01*
X5608765Y-15734559D02*
X5589718Y-15725035D01*
X5589718Y-15725035D02*
X5580194Y-15715511D01*
X5580194Y-15715511D02*
X5570670Y-15696463D01*
X5570670Y-15696463D02*
X5561147Y-15658368D01*
X5561147Y-15658368D02*
X5561147Y-15610749D01*
X5561147Y-15610749D02*
X5570670Y-15572654D01*
X5570670Y-15572654D02*
X5580194Y-15553606D01*
X5580194Y-15553606D02*
X5589718Y-15544082D01*
X5589718Y-15544082D02*
X5608765Y-15534559D01*
X5856385Y-15534559D02*
X5761146Y-15534559D01*
X5761146Y-15534559D02*
X5751623Y-15629797D01*
X5751623Y-15629797D02*
X5761146Y-15620273D01*
X5761146Y-15620273D02*
X5780194Y-15610749D01*
X5780194Y-15610749D02*
X5827813Y-15610749D01*
X5827813Y-15610749D02*
X5846861Y-15620273D01*
X5846861Y-15620273D02*
X5856385Y-15629797D01*
X5856385Y-15629797D02*
X5865908Y-15648844D01*
X5865908Y-15648844D02*
X5865908Y-15696463D01*
X5865908Y-15696463D02*
X5856385Y-15715511D01*
X5856385Y-15715511D02*
X5846861Y-15725035D01*
X5846861Y-15725035D02*
X5827813Y-15734559D01*
X5827813Y-15734559D02*
X5780194Y-15734559D01*
X5780194Y-15734559D02*
X5761146Y-15725035D01*
X5761146Y-15725035D02*
X5751623Y-15715511D01*
X6056385Y-15734559D02*
X5942099Y-15734559D01*
X5999242Y-15734559D02*
X5999242Y-15534559D01*
X5999242Y-15534559D02*
X5980194Y-15563130D01*
X5980194Y-15563130D02*
X5961146Y-15582178D01*
X5961146Y-15582178D02*
X5942099Y-15591701D01*
X6132575Y-15553606D02*
X6142099Y-15544082D01*
X6142099Y-15544082D02*
X6161146Y-15534559D01*
X6161146Y-15534559D02*
X6208766Y-15534559D01*
X6208766Y-15534559D02*
X6227813Y-15544082D01*
X6227813Y-15544082D02*
X6237337Y-15553606D01*
X6237337Y-15553606D02*
X6246861Y-15572654D01*
X6246861Y-15572654D02*
X6246861Y-15591701D01*
X6246861Y-15591701D02*
X6237337Y-15620273D01*
X6237337Y-15620273D02*
X6123051Y-15734559D01*
X6123051Y-15734559D02*
X6246861Y-15734559D01*
X6323051Y-15534559D02*
X6323051Y-15572654D01*
X6399242Y-15534559D02*
X6399242Y-15572654D01*
X6694480Y-15810749D02*
X6684956Y-15801225D01*
X6684956Y-15801225D02*
X6665908Y-15772654D01*
X6665908Y-15772654D02*
X6656385Y-15753606D01*
X6656385Y-15753606D02*
X6646861Y-15725035D01*
X6646861Y-15725035D02*
X6637337Y-15677416D01*
X6637337Y-15677416D02*
X6637337Y-15639321D01*
X6637337Y-15639321D02*
X6646861Y-15591701D01*
X6646861Y-15591701D02*
X6656385Y-15563130D01*
X6656385Y-15563130D02*
X6665908Y-15544082D01*
X6665908Y-15544082D02*
X6684956Y-15515511D01*
X6684956Y-15515511D02*
X6694480Y-15505987D01*
X6856385Y-15601225D02*
X6856385Y-15734559D01*
X6808766Y-15525035D02*
X6761147Y-15667892D01*
X6761147Y-15667892D02*
X6884956Y-15667892D01*
X7113528Y-15734559D02*
X7113528Y-15534559D01*
X7199242Y-15734559D02*
X7199242Y-15629797D01*
X7199242Y-15629797D02*
X7189718Y-15610749D01*
X7189718Y-15610749D02*
X7170670Y-15601225D01*
X7170670Y-15601225D02*
X7142099Y-15601225D01*
X7142099Y-15601225D02*
X7123051Y-15610749D01*
X7123051Y-15610749D02*
X7113528Y-15620273D01*
X7323051Y-15734559D02*
X7304004Y-15725035D01*
X7304004Y-15725035D02*
X7294480Y-15715511D01*
X7294480Y-15715511D02*
X7284956Y-15696463D01*
X7284956Y-15696463D02*
X7284956Y-15639321D01*
X7284956Y-15639321D02*
X7294480Y-15620273D01*
X7294480Y-15620273D02*
X7304004Y-15610749D01*
X7304004Y-15610749D02*
X7323051Y-15601225D01*
X7323051Y-15601225D02*
X7351623Y-15601225D01*
X7351623Y-15601225D02*
X7370670Y-15610749D01*
X7370670Y-15610749D02*
X7380194Y-15620273D01*
X7380194Y-15620273D02*
X7389718Y-15639321D01*
X7389718Y-15639321D02*
X7389718Y-15696463D01*
X7389718Y-15696463D02*
X7380194Y-15715511D01*
X7380194Y-15715511D02*
X7370670Y-15725035D01*
X7370670Y-15725035D02*
X7351623Y-15734559D01*
X7351623Y-15734559D02*
X7323051Y-15734559D01*
X7504004Y-15734559D02*
X7484956Y-15725035D01*
X7484956Y-15725035D02*
X7475432Y-15705987D01*
X7475432Y-15705987D02*
X7475432Y-15534559D01*
X7656385Y-15725035D02*
X7637337Y-15734559D01*
X7637337Y-15734559D02*
X7599242Y-15734559D01*
X7599242Y-15734559D02*
X7580194Y-15725035D01*
X7580194Y-15725035D02*
X7570670Y-15705987D01*
X7570670Y-15705987D02*
X7570670Y-15629797D01*
X7570670Y-15629797D02*
X7580194Y-15610749D01*
X7580194Y-15610749D02*
X7599242Y-15601225D01*
X7599242Y-15601225D02*
X7637337Y-15601225D01*
X7637337Y-15601225D02*
X7656385Y-15610749D01*
X7656385Y-15610749D02*
X7665909Y-15629797D01*
X7665909Y-15629797D02*
X7665909Y-15648844D01*
X7665909Y-15648844D02*
X7570670Y-15667892D01*
X7742099Y-15725035D02*
X7761147Y-15734559D01*
X7761147Y-15734559D02*
X7799242Y-15734559D01*
X7799242Y-15734559D02*
X7818290Y-15725035D01*
X7818290Y-15725035D02*
X7827813Y-15705987D01*
X7827813Y-15705987D02*
X7827813Y-15696463D01*
X7827813Y-15696463D02*
X7818290Y-15677416D01*
X7818290Y-15677416D02*
X7799242Y-15667892D01*
X7799242Y-15667892D02*
X7770670Y-15667892D01*
X7770670Y-15667892D02*
X7751623Y-15658368D01*
X7751623Y-15658368D02*
X7742099Y-15639321D01*
X7742099Y-15639321D02*
X7742099Y-15629797D01*
X7742099Y-15629797D02*
X7751623Y-15610749D01*
X7751623Y-15610749D02*
X7770670Y-15601225D01*
X7770670Y-15601225D02*
X7799242Y-15601225D01*
X7799242Y-15601225D02*
X7818290Y-15610749D01*
X7894480Y-15810749D02*
X7904004Y-15801225D01*
X7904004Y-15801225D02*
X7923051Y-15772654D01*
X7923051Y-15772654D02*
X7932575Y-15753606D01*
X7932575Y-15753606D02*
X7942099Y-15725035D01*
X7942099Y-15725035D02*
X7951623Y-15677416D01*
X7951623Y-15677416D02*
X7951623Y-15639321D01*
X7951623Y-15639321D02*
X7942099Y-15591701D01*
X7942099Y-15591701D02*
X7932575Y-15563130D01*
X7932575Y-15563130D02*
X7923051Y-15544082D01*
X7923051Y-15544082D02*
X7904004Y-15515511D01*
X7904004Y-15515511D02*
X7894480Y-15505987D01*
X2919417Y-15807075D02*
X3119417Y-16007075D01*
X3119417Y-15807075D02*
X2919417Y-16007075D01*
X3019417Y-16007075D02*
X3119417Y-15907075D01*
X3019417Y-15807075D01*
X2919417Y-15907075D01*
X3019417Y-16007075D01*
X3370670Y-15817606D02*
X3380194Y-15808082D01*
X3380194Y-15808082D02*
X3399241Y-15798559D01*
X3399241Y-15798559D02*
X3446861Y-15798559D01*
X3446861Y-15798559D02*
X3465908Y-15808082D01*
X3465908Y-15808082D02*
X3475432Y-15817606D01*
X3475432Y-15817606D02*
X3484956Y-15836654D01*
X3484956Y-15836654D02*
X3484956Y-15855701D01*
X3484956Y-15855701D02*
X3475432Y-15884273D01*
X3475432Y-15884273D02*
X3361146Y-15998559D01*
X3361146Y-15998559D02*
X3484956Y-15998559D01*
X3570670Y-15979511D02*
X3580194Y-15989035D01*
X3580194Y-15989035D02*
X3570670Y-15998559D01*
X3570670Y-15998559D02*
X3561146Y-15989035D01*
X3561146Y-15989035D02*
X3570670Y-15979511D01*
X3570670Y-15979511D02*
X3570670Y-15998559D01*
X3656384Y-15817606D02*
X3665908Y-15808082D01*
X3665908Y-15808082D02*
X3684956Y-15798559D01*
X3684956Y-15798559D02*
X3732575Y-15798559D01*
X3732575Y-15798559D02*
X3751622Y-15808082D01*
X3751622Y-15808082D02*
X3761146Y-15817606D01*
X3761146Y-15817606D02*
X3770670Y-15836654D01*
X3770670Y-15836654D02*
X3770670Y-15855701D01*
X3770670Y-15855701D02*
X3761146Y-15884273D01*
X3761146Y-15884273D02*
X3646861Y-15998559D01*
X3646861Y-15998559D02*
X3770670Y-15998559D01*
X3894480Y-15798559D02*
X3913527Y-15798559D01*
X3913527Y-15798559D02*
X3932575Y-15808082D01*
X3932575Y-15808082D02*
X3942099Y-15817606D01*
X3942099Y-15817606D02*
X3951622Y-15836654D01*
X3951622Y-15836654D02*
X3961146Y-15874749D01*
X3961146Y-15874749D02*
X3961146Y-15922368D01*
X3961146Y-15922368D02*
X3951622Y-15960463D01*
X3951622Y-15960463D02*
X3942099Y-15979511D01*
X3942099Y-15979511D02*
X3932575Y-15989035D01*
X3932575Y-15989035D02*
X3913527Y-15998559D01*
X3913527Y-15998559D02*
X3894480Y-15998559D01*
X3894480Y-15998559D02*
X3875432Y-15989035D01*
X3875432Y-15989035D02*
X3865908Y-15979511D01*
X3865908Y-15979511D02*
X3856384Y-15960463D01*
X3856384Y-15960463D02*
X3846861Y-15922368D01*
X3846861Y-15922368D02*
X3846861Y-15874749D01*
X3846861Y-15874749D02*
X3856384Y-15836654D01*
X3856384Y-15836654D02*
X3865908Y-15817606D01*
X3865908Y-15817606D02*
X3875432Y-15808082D01*
X3875432Y-15808082D02*
X3894480Y-15798559D01*
X4084956Y-15798559D02*
X4104003Y-15798559D01*
X4104003Y-15798559D02*
X4123051Y-15808082D01*
X4123051Y-15808082D02*
X4132575Y-15817606D01*
X4132575Y-15817606D02*
X4142099Y-15836654D01*
X4142099Y-15836654D02*
X4151622Y-15874749D01*
X4151622Y-15874749D02*
X4151622Y-15922368D01*
X4151622Y-15922368D02*
X4142099Y-15960463D01*
X4142099Y-15960463D02*
X4132575Y-15979511D01*
X4132575Y-15979511D02*
X4123051Y-15989035D01*
X4123051Y-15989035D02*
X4104003Y-15998559D01*
X4104003Y-15998559D02*
X4084956Y-15998559D01*
X4084956Y-15998559D02*
X4065908Y-15989035D01*
X4065908Y-15989035D02*
X4056384Y-15979511D01*
X4056384Y-15979511D02*
X4046861Y-15960463D01*
X4046861Y-15960463D02*
X4037337Y-15922368D01*
X4037337Y-15922368D02*
X4037337Y-15874749D01*
X4037337Y-15874749D02*
X4046861Y-15836654D01*
X4046861Y-15836654D02*
X4056384Y-15817606D01*
X4056384Y-15817606D02*
X4065908Y-15808082D01*
X4065908Y-15808082D02*
X4084956Y-15798559D01*
X4237337Y-15998559D02*
X4237337Y-15865225D01*
X4237337Y-15884273D02*
X4246861Y-15874749D01*
X4246861Y-15874749D02*
X4265908Y-15865225D01*
X4265908Y-15865225D02*
X4294480Y-15865225D01*
X4294480Y-15865225D02*
X4313527Y-15874749D01*
X4313527Y-15874749D02*
X4323051Y-15893797D01*
X4323051Y-15893797D02*
X4323051Y-15998559D01*
X4323051Y-15893797D02*
X4332575Y-15874749D01*
X4332575Y-15874749D02*
X4351623Y-15865225D01*
X4351623Y-15865225D02*
X4380194Y-15865225D01*
X4380194Y-15865225D02*
X4399242Y-15874749D01*
X4399242Y-15874749D02*
X4408765Y-15893797D01*
X4408765Y-15893797D02*
X4408765Y-15998559D01*
X4504004Y-15998559D02*
X4504004Y-15865225D01*
X4504004Y-15884273D02*
X4513527Y-15874749D01*
X4513527Y-15874749D02*
X4532575Y-15865225D01*
X4532575Y-15865225D02*
X4561146Y-15865225D01*
X4561146Y-15865225D02*
X4580194Y-15874749D01*
X4580194Y-15874749D02*
X4589718Y-15893797D01*
X4589718Y-15893797D02*
X4589718Y-15998559D01*
X4589718Y-15893797D02*
X4599242Y-15874749D01*
X4599242Y-15874749D02*
X4618289Y-15865225D01*
X4618289Y-15865225D02*
X4646861Y-15865225D01*
X4646861Y-15865225D02*
X4665908Y-15874749D01*
X4665908Y-15874749D02*
X4675432Y-15893797D01*
X4675432Y-15893797D02*
X4675432Y-15998559D01*
X5065908Y-15789035D02*
X4894480Y-16046178D01*
X5323051Y-15798559D02*
X5342099Y-15798559D01*
X5342099Y-15798559D02*
X5361147Y-15808082D01*
X5361147Y-15808082D02*
X5370670Y-15817606D01*
X5370670Y-15817606D02*
X5380194Y-15836654D01*
X5380194Y-15836654D02*
X5389718Y-15874749D01*
X5389718Y-15874749D02*
X5389718Y-15922368D01*
X5389718Y-15922368D02*
X5380194Y-15960463D01*
X5380194Y-15960463D02*
X5370670Y-15979511D01*
X5370670Y-15979511D02*
X5361147Y-15989035D01*
X5361147Y-15989035D02*
X5342099Y-15998559D01*
X5342099Y-15998559D02*
X5323051Y-15998559D01*
X5323051Y-15998559D02*
X5304004Y-15989035D01*
X5304004Y-15989035D02*
X5294480Y-15979511D01*
X5294480Y-15979511D02*
X5284956Y-15960463D01*
X5284956Y-15960463D02*
X5275432Y-15922368D01*
X5275432Y-15922368D02*
X5275432Y-15874749D01*
X5275432Y-15874749D02*
X5284956Y-15836654D01*
X5284956Y-15836654D02*
X5294480Y-15817606D01*
X5294480Y-15817606D02*
X5304004Y-15808082D01*
X5304004Y-15808082D02*
X5323051Y-15798559D01*
X5475432Y-15979511D02*
X5484956Y-15989035D01*
X5484956Y-15989035D02*
X5475432Y-15998559D01*
X5475432Y-15998559D02*
X5465908Y-15989035D01*
X5465908Y-15989035D02*
X5475432Y-15979511D01*
X5475432Y-15979511D02*
X5475432Y-15998559D01*
X5608765Y-15798559D02*
X5627813Y-15798559D01*
X5627813Y-15798559D02*
X5646861Y-15808082D01*
X5646861Y-15808082D02*
X5656385Y-15817606D01*
X5656385Y-15817606D02*
X5665908Y-15836654D01*
X5665908Y-15836654D02*
X5675432Y-15874749D01*
X5675432Y-15874749D02*
X5675432Y-15922368D01*
X5675432Y-15922368D02*
X5665908Y-15960463D01*
X5665908Y-15960463D02*
X5656385Y-15979511D01*
X5656385Y-15979511D02*
X5646861Y-15989035D01*
X5646861Y-15989035D02*
X5627813Y-15998559D01*
X5627813Y-15998559D02*
X5608765Y-15998559D01*
X5608765Y-15998559D02*
X5589718Y-15989035D01*
X5589718Y-15989035D02*
X5580194Y-15979511D01*
X5580194Y-15979511D02*
X5570670Y-15960463D01*
X5570670Y-15960463D02*
X5561147Y-15922368D01*
X5561147Y-15922368D02*
X5561147Y-15874749D01*
X5561147Y-15874749D02*
X5570670Y-15836654D01*
X5570670Y-15836654D02*
X5580194Y-15817606D01*
X5580194Y-15817606D02*
X5589718Y-15808082D01*
X5589718Y-15808082D02*
X5608765Y-15798559D01*
X5789718Y-15884273D02*
X5770670Y-15874749D01*
X5770670Y-15874749D02*
X5761146Y-15865225D01*
X5761146Y-15865225D02*
X5751623Y-15846178D01*
X5751623Y-15846178D02*
X5751623Y-15836654D01*
X5751623Y-15836654D02*
X5761146Y-15817606D01*
X5761146Y-15817606D02*
X5770670Y-15808082D01*
X5770670Y-15808082D02*
X5789718Y-15798559D01*
X5789718Y-15798559D02*
X5827813Y-15798559D01*
X5827813Y-15798559D02*
X5846861Y-15808082D01*
X5846861Y-15808082D02*
X5856385Y-15817606D01*
X5856385Y-15817606D02*
X5865908Y-15836654D01*
X5865908Y-15836654D02*
X5865908Y-15846178D01*
X5865908Y-15846178D02*
X5856385Y-15865225D01*
X5856385Y-15865225D02*
X5846861Y-15874749D01*
X5846861Y-15874749D02*
X5827813Y-15884273D01*
X5827813Y-15884273D02*
X5789718Y-15884273D01*
X5789718Y-15884273D02*
X5770670Y-15893797D01*
X5770670Y-15893797D02*
X5761146Y-15903321D01*
X5761146Y-15903321D02*
X5751623Y-15922368D01*
X5751623Y-15922368D02*
X5751623Y-15960463D01*
X5751623Y-15960463D02*
X5761146Y-15979511D01*
X5761146Y-15979511D02*
X5770670Y-15989035D01*
X5770670Y-15989035D02*
X5789718Y-15998559D01*
X5789718Y-15998559D02*
X5827813Y-15998559D01*
X5827813Y-15998559D02*
X5846861Y-15989035D01*
X5846861Y-15989035D02*
X5856385Y-15979511D01*
X5856385Y-15979511D02*
X5865908Y-15960463D01*
X5865908Y-15960463D02*
X5865908Y-15922368D01*
X5865908Y-15922368D02*
X5856385Y-15903321D01*
X5856385Y-15903321D02*
X5846861Y-15893797D01*
X5846861Y-15893797D02*
X5827813Y-15884273D01*
X6037337Y-15798559D02*
X5999242Y-15798559D01*
X5999242Y-15798559D02*
X5980194Y-15808082D01*
X5980194Y-15808082D02*
X5970670Y-15817606D01*
X5970670Y-15817606D02*
X5951623Y-15846178D01*
X5951623Y-15846178D02*
X5942099Y-15884273D01*
X5942099Y-15884273D02*
X5942099Y-15960463D01*
X5942099Y-15960463D02*
X5951623Y-15979511D01*
X5951623Y-15979511D02*
X5961146Y-15989035D01*
X5961146Y-15989035D02*
X5980194Y-15998559D01*
X5980194Y-15998559D02*
X6018289Y-15998559D01*
X6018289Y-15998559D02*
X6037337Y-15989035D01*
X6037337Y-15989035D02*
X6046861Y-15979511D01*
X6046861Y-15979511D02*
X6056385Y-15960463D01*
X6056385Y-15960463D02*
X6056385Y-15912844D01*
X6056385Y-15912844D02*
X6046861Y-15893797D01*
X6046861Y-15893797D02*
X6037337Y-15884273D01*
X6037337Y-15884273D02*
X6018289Y-15874749D01*
X6018289Y-15874749D02*
X5980194Y-15874749D01*
X5980194Y-15874749D02*
X5961146Y-15884273D01*
X5961146Y-15884273D02*
X5951623Y-15893797D01*
X5951623Y-15893797D02*
X5942099Y-15912844D01*
X6227813Y-15798559D02*
X6189718Y-15798559D01*
X6189718Y-15798559D02*
X6170670Y-15808082D01*
X6170670Y-15808082D02*
X6161146Y-15817606D01*
X6161146Y-15817606D02*
X6142099Y-15846178D01*
X6142099Y-15846178D02*
X6132575Y-15884273D01*
X6132575Y-15884273D02*
X6132575Y-15960463D01*
X6132575Y-15960463D02*
X6142099Y-15979511D01*
X6142099Y-15979511D02*
X6151623Y-15989035D01*
X6151623Y-15989035D02*
X6170670Y-15998559D01*
X6170670Y-15998559D02*
X6208766Y-15998559D01*
X6208766Y-15998559D02*
X6227813Y-15989035D01*
X6227813Y-15989035D02*
X6237337Y-15979511D01*
X6237337Y-15979511D02*
X6246861Y-15960463D01*
X6246861Y-15960463D02*
X6246861Y-15912844D01*
X6246861Y-15912844D02*
X6237337Y-15893797D01*
X6237337Y-15893797D02*
X6227813Y-15884273D01*
X6227813Y-15884273D02*
X6208766Y-15874749D01*
X6208766Y-15874749D02*
X6170670Y-15874749D01*
X6170670Y-15874749D02*
X6151623Y-15884273D01*
X6151623Y-15884273D02*
X6142099Y-15893797D01*
X6142099Y-15893797D02*
X6132575Y-15912844D01*
X6323051Y-15798559D02*
X6323051Y-15836654D01*
X6399242Y-15798559D02*
X6399242Y-15836654D01*
X6694480Y-16074749D02*
X6684956Y-16065225D01*
X6684956Y-16065225D02*
X6665908Y-16036654D01*
X6665908Y-16036654D02*
X6656385Y-16017606D01*
X6656385Y-16017606D02*
X6646861Y-15989035D01*
X6646861Y-15989035D02*
X6637337Y-15941416D01*
X6637337Y-15941416D02*
X6637337Y-15903321D01*
X6637337Y-15903321D02*
X6646861Y-15855701D01*
X6646861Y-15855701D02*
X6656385Y-15827130D01*
X6656385Y-15827130D02*
X6665908Y-15808082D01*
X6665908Y-15808082D02*
X6684956Y-15779511D01*
X6684956Y-15779511D02*
X6694480Y-15769987D01*
X6799242Y-15884273D02*
X6780194Y-15874749D01*
X6780194Y-15874749D02*
X6770670Y-15865225D01*
X6770670Y-15865225D02*
X6761147Y-15846178D01*
X6761147Y-15846178D02*
X6761147Y-15836654D01*
X6761147Y-15836654D02*
X6770670Y-15817606D01*
X6770670Y-15817606D02*
X6780194Y-15808082D01*
X6780194Y-15808082D02*
X6799242Y-15798559D01*
X6799242Y-15798559D02*
X6837337Y-15798559D01*
X6837337Y-15798559D02*
X6856385Y-15808082D01*
X6856385Y-15808082D02*
X6865908Y-15817606D01*
X6865908Y-15817606D02*
X6875432Y-15836654D01*
X6875432Y-15836654D02*
X6875432Y-15846178D01*
X6875432Y-15846178D02*
X6865908Y-15865225D01*
X6865908Y-15865225D02*
X6856385Y-15874749D01*
X6856385Y-15874749D02*
X6837337Y-15884273D01*
X6837337Y-15884273D02*
X6799242Y-15884273D01*
X6799242Y-15884273D02*
X6780194Y-15893797D01*
X6780194Y-15893797D02*
X6770670Y-15903321D01*
X6770670Y-15903321D02*
X6761147Y-15922368D01*
X6761147Y-15922368D02*
X6761147Y-15960463D01*
X6761147Y-15960463D02*
X6770670Y-15979511D01*
X6770670Y-15979511D02*
X6780194Y-15989035D01*
X6780194Y-15989035D02*
X6799242Y-15998559D01*
X6799242Y-15998559D02*
X6837337Y-15998559D01*
X6837337Y-15998559D02*
X6856385Y-15989035D01*
X6856385Y-15989035D02*
X6865908Y-15979511D01*
X6865908Y-15979511D02*
X6875432Y-15960463D01*
X6875432Y-15960463D02*
X6875432Y-15922368D01*
X6875432Y-15922368D02*
X6865908Y-15903321D01*
X6865908Y-15903321D02*
X6856385Y-15893797D01*
X6856385Y-15893797D02*
X6837337Y-15884273D01*
X7113528Y-15998559D02*
X7113528Y-15798559D01*
X7199242Y-15998559D02*
X7199242Y-15893797D01*
X7199242Y-15893797D02*
X7189718Y-15874749D01*
X7189718Y-15874749D02*
X7170670Y-15865225D01*
X7170670Y-15865225D02*
X7142099Y-15865225D01*
X7142099Y-15865225D02*
X7123051Y-15874749D01*
X7123051Y-15874749D02*
X7113528Y-15884273D01*
X7323051Y-15998559D02*
X7304004Y-15989035D01*
X7304004Y-15989035D02*
X7294480Y-15979511D01*
X7294480Y-15979511D02*
X7284956Y-15960463D01*
X7284956Y-15960463D02*
X7284956Y-15903321D01*
X7284956Y-15903321D02*
X7294480Y-15884273D01*
X7294480Y-15884273D02*
X7304004Y-15874749D01*
X7304004Y-15874749D02*
X7323051Y-15865225D01*
X7323051Y-15865225D02*
X7351623Y-15865225D01*
X7351623Y-15865225D02*
X7370670Y-15874749D01*
X7370670Y-15874749D02*
X7380194Y-15884273D01*
X7380194Y-15884273D02*
X7389718Y-15903321D01*
X7389718Y-15903321D02*
X7389718Y-15960463D01*
X7389718Y-15960463D02*
X7380194Y-15979511D01*
X7380194Y-15979511D02*
X7370670Y-15989035D01*
X7370670Y-15989035D02*
X7351623Y-15998559D01*
X7351623Y-15998559D02*
X7323051Y-15998559D01*
X7504004Y-15998559D02*
X7484956Y-15989035D01*
X7484956Y-15989035D02*
X7475432Y-15969987D01*
X7475432Y-15969987D02*
X7475432Y-15798559D01*
X7656385Y-15989035D02*
X7637337Y-15998559D01*
X7637337Y-15998559D02*
X7599242Y-15998559D01*
X7599242Y-15998559D02*
X7580194Y-15989035D01*
X7580194Y-15989035D02*
X7570670Y-15969987D01*
X7570670Y-15969987D02*
X7570670Y-15893797D01*
X7570670Y-15893797D02*
X7580194Y-15874749D01*
X7580194Y-15874749D02*
X7599242Y-15865225D01*
X7599242Y-15865225D02*
X7637337Y-15865225D01*
X7637337Y-15865225D02*
X7656385Y-15874749D01*
X7656385Y-15874749D02*
X7665909Y-15893797D01*
X7665909Y-15893797D02*
X7665909Y-15912844D01*
X7665909Y-15912844D02*
X7570670Y-15931892D01*
X7742099Y-15989035D02*
X7761147Y-15998559D01*
X7761147Y-15998559D02*
X7799242Y-15998559D01*
X7799242Y-15998559D02*
X7818290Y-15989035D01*
X7818290Y-15989035D02*
X7827813Y-15969987D01*
X7827813Y-15969987D02*
X7827813Y-15960463D01*
X7827813Y-15960463D02*
X7818290Y-15941416D01*
X7818290Y-15941416D02*
X7799242Y-15931892D01*
X7799242Y-15931892D02*
X7770670Y-15931892D01*
X7770670Y-15931892D02*
X7751623Y-15922368D01*
X7751623Y-15922368D02*
X7742099Y-15903321D01*
X7742099Y-15903321D02*
X7742099Y-15893797D01*
X7742099Y-15893797D02*
X7751623Y-15874749D01*
X7751623Y-15874749D02*
X7770670Y-15865225D01*
X7770670Y-15865225D02*
X7799242Y-15865225D01*
X7799242Y-15865225D02*
X7818290Y-15874749D01*
X7894480Y-16074749D02*
X7904004Y-16065225D01*
X7904004Y-16065225D02*
X7923051Y-16036654D01*
X7923051Y-16036654D02*
X7932575Y-16017606D01*
X7932575Y-16017606D02*
X7942099Y-15989035D01*
X7942099Y-15989035D02*
X7951623Y-15941416D01*
X7951623Y-15941416D02*
X7951623Y-15903321D01*
X7951623Y-15903321D02*
X7942099Y-15855701D01*
X7942099Y-15855701D02*
X7932575Y-15827130D01*
X7932575Y-15827130D02*
X7923051Y-15808082D01*
X7923051Y-15808082D02*
X7904004Y-15779511D01*
X7904004Y-15779511D02*
X7894480Y-15769987D01*
M02*
