M48
; DRILL file {KiCad 7.0.6} date Mon Oct 23 01:01:32 2023
; FORMAT={-:-/ absolute / metric / decimal}
; #@! TF.CreationDate,2023-10-23T01:01:32+01:00
; #@! TF.GenerationSoftware,Kicad,Pcbnew,7.0.6
; #@! TF.FileFunction,Plated,1,2,PTH
FMAT,2
METRIC
; #@! TA.AperFunction,Plated,PTH,ViaDrill
T1C0.300
; #@! TA.AperFunction,Plated,PTH,ViaDrill
T2C0.500
; #@! TA.AperFunction,Plated,PTH,ComponentDrill
T3C0.800
; #@! TA.AperFunction,Plated,PTH,ComponentDrill
T4C0.900
; #@! TA.AperFunction,Plated,PTH,ComponentDrill
T5C1.000
; #@! TA.AperFunction,Plated,PTH,ComponentDrill
T6C1.092
; #@! TA.AperFunction,Plated,PTH,ComponentDrill
T7C1.270
; #@! TA.AperFunction,Plated,PTH,ComponentDrill
T8C1.300
; #@! TA.AperFunction,Plated,PTH,ComponentDrill
T9C2.200
%
G90
G05
T1
X137.64Y-49.7
X139.075Y-52.245
X141.51Y-54.96
X144.09Y-54.83
X170.815Y-49.682
X171.374Y-52.222
T2
X84.684Y-81.788
X96.317Y-88.697
X138.354Y-38.71
X139.192Y-36.322
X142.748Y-45.974
X166.522Y-38.735
X167.259Y-36.322
X210.16Y-83.058
X210.16Y-87.681
T3
X133.807Y-36.957
X144.475Y-36.957
X161.9Y-36.957
X172.568Y-36.957
T5
X135.16Y-72.22
X137.7Y-72.22
X140.24Y-72.22
X142.78Y-72.22
X163.35Y-72.2
X165.89Y-72.2
X168.43Y-72.2
X170.97Y-72.2
T6
X131.35Y-39.54
X131.35Y-42.08
X131.35Y-44.62
X131.35Y-47.16
X131.35Y-49.7
X131.35Y-52.24
X131.35Y-54.78
X131.35Y-57.32
X131.35Y-59.86
X131.35Y-62.4
X131.35Y-64.94
X131.35Y-67.48
X138.966Y-62.4
X138.966Y-64.94
X138.97Y-67.48
X141.51Y-62.4
X141.51Y-64.94
X141.51Y-67.48
X144.05Y-62.4
X144.05Y-64.94
X144.05Y-67.48
X146.59Y-39.54
X146.59Y-42.08
X146.59Y-44.62
X146.59Y-47.16
X146.59Y-49.7
X146.59Y-52.24
X146.59Y-54.78
X146.59Y-57.32
X146.59Y-59.86
X146.59Y-62.4
X146.59Y-64.94
X146.59Y-67.48
X159.52Y-39.517
X159.52Y-42.057
X159.52Y-44.597
X159.52Y-47.137
X159.52Y-49.677
X159.52Y-52.217
X159.52Y-54.757
X159.52Y-57.297
X159.52Y-59.837
X159.52Y-62.377
X159.52Y-64.917
X159.52Y-67.457
X167.14Y-62.377
X167.14Y-64.917
X167.14Y-67.457
X169.68Y-62.377
X169.68Y-64.917
X169.68Y-67.457
X172.22Y-62.377
X172.22Y-64.917
X172.22Y-67.457
X174.76Y-39.517
X174.76Y-42.057
X174.76Y-44.597
X174.76Y-47.137
X174.76Y-49.677
X174.76Y-52.217
X174.76Y-54.757
X174.76Y-57.297
X174.76Y-59.837
X174.76Y-62.377
X174.76Y-64.917
X174.76Y-67.457
T7
X38.149Y-60.85
X41.089Y-77.61
X43.438Y-62.05
X44.044Y-94.351
X46.378Y-78.81
X49.333Y-95.551
X57.82Y-46.011
X59.3Y-62.921
X60.786Y-79.853
X62.984Y-47.668
X64.464Y-64.578
X65.95Y-81.509
X79.305Y-73.92
X79.325Y-39.88
X79.325Y-56.88
X84.305Y-76.02
X84.325Y-41.98
X84.325Y-58.98
X96.39Y-100.44
X97.315Y-62.9
X97.32Y-79.91
X97.34Y-45.87
X100.676Y-103.763
X102.315Y-65.0
X102.32Y-82.01
X102.34Y-47.97
X114.75Y-106.64
X115.32Y-47.89
X115.325Y-64.9
X115.325Y-81.88
X118.03Y-110.959
X120.32Y-49.99
X120.325Y-67.0
X120.325Y-83.98
X130.88Y-117.38
X132.931Y-122.4
X167.96Y-124.421
X172.98Y-122.37
X180.575Y-47.87
X180.575Y-81.87
X180.585Y-64.86
X182.5Y-111.64
X185.575Y-49.97
X185.575Y-83.97
X185.585Y-66.96
X187.88Y-110.959
X198.575Y-79.85
X198.585Y-45.85
X198.585Y-62.85
X199.837Y-103.036
X203.575Y-81.95
X203.585Y-47.95
X203.585Y-64.95
X205.21Y-103.77
X216.575Y-39.85
X216.575Y-73.86
X216.585Y-56.86
X221.575Y-41.95
X221.575Y-75.96
X221.585Y-58.96
X235.162Y-78.983
X236.642Y-62.043
X238.122Y-45.093
X239.96Y-81.51
X241.44Y-64.57
X242.92Y-47.62
X252.016Y-92.57
X254.976Y-75.82
X256.575Y-95.506
X257.908Y-59.092
X259.535Y-78.756
X262.468Y-62.029
T8
X135.68Y-76.15
X142.18Y-76.15
X164.02Y-76.16
X170.52Y-76.16
T9
X73.24Y-63.6
X92.29Y-44.55
X92.29Y-82.65
X111.34Y-63.6
X194.71Y-63.6
X213.76Y-44.55
X213.76Y-82.65
X232.81Y-63.6
T4
X137.35Y-80.25G85X136.95Y-80.25
G05
X138.45Y-84.85G85X138.05Y-84.85
G05
X142.45Y-84.85G85X142.05Y-84.85
G05
X145.45Y-84.85G85X145.05Y-84.85
G05
X160.51Y-80.25G85X160.91Y-80.25
G05
X163.51Y-80.25G85X163.91Y-80.25
G05
X167.51Y-80.25G85X167.91Y-80.25
G05
X168.61Y-84.85G85X169.01Y-84.85
G05
T0
M30
