M48
; DRILL file {KiCad 7.0.6} date Mon Oct 23 01:01:32 2023
; FORMAT={-:-/ absolute / metric / decimal}
; #@! TF.CreationDate,2023-10-23T01:01:32+01:00
; #@! TF.GenerationSoftware,Kicad,Pcbnew,7.0.6
; #@! TF.FileFunction,NonPlated,1,2,NPTH
FMAT,2
METRIC
; #@! TA.AperFunction,NonPlated,NPTH,ComponentDrill
T1C0.787
; #@! TA.AperFunction,NonPlated,NPTH,ComponentDrill
T2C0.800
; #@! TA.AperFunction,NonPlated,NPTH,ComponentDrill
T3C0.900
; #@! TA.AperFunction,NonPlated,NPTH,ComponentDrill
T4C1.702
; #@! TA.AperFunction,NonPlated,NPTH,ComponentDrill
T5C2.700
; #@! TA.AperFunction,NonPlated,NPTH,ComponentDrill
T6C3.000
; #@! TA.AperFunction,NonPlated,NPTH,ComponentDrill
T7C3.429
%
G90
G05
T1
X149.758Y-80.01
X149.758Y-81.28
X149.758Y-82.55
X149.758Y-83.82
X149.758Y-85.09
X149.775Y-42.94
X149.775Y-44.21
X149.775Y-45.48
X149.775Y-46.75
X149.775Y-48.02
X156.284Y-42.93
X156.284Y-44.2
X156.284Y-45.47
X156.284Y-46.74
X156.284Y-48.01
X156.307Y-80.01
X156.307Y-81.28
X156.307Y-82.55
X156.307Y-83.82
X156.307Y-85.09
T2
X139.85Y-82.55
X146.85Y-82.55
X159.11Y-82.55
X166.11Y-82.55
T3
X137.614Y-36.975
X140.614Y-36.975
X165.76Y-36.957
X168.76Y-36.957
T4
X36.997Y-57.195
X39.937Y-73.955
X42.892Y-90.696
X47.83Y-55.285
X50.77Y-72.045
X53.725Y-88.786
X56.991Y-42.269
X58.471Y-59.179
X59.957Y-76.111
X67.949Y-41.311
X69.429Y-58.221
X70.915Y-75.152
X78.805Y-70.12
X78.825Y-36.08
X78.825Y-53.08
X89.805Y-70.12
X89.825Y-36.08
X89.825Y-53.08
X96.815Y-59.1
X96.82Y-76.11
X96.84Y-42.07
X96.891Y-96.64
X107.516Y-99.487
X107.815Y-59.1
X107.82Y-76.11
X107.84Y-42.07
X114.82Y-44.09
X114.825Y-61.1
X114.825Y-78.08
X116.217Y-103.099
X125.743Y-108.599
X125.82Y-44.09
X125.825Y-61.1
X125.825Y-78.08
X133.213Y-114.339
X140.992Y-122.118
X164.919Y-122.087
X172.697Y-114.309
X180.075Y-44.07
X180.075Y-78.07
X180.085Y-61.06
X180.167Y-108.599
X189.693Y-103.099
X191.075Y-44.07
X191.075Y-78.07
X191.085Y-61.06
X198.075Y-76.05
X198.085Y-42.05
X198.085Y-59.05
X198.37Y-99.495
X208.996Y-96.648
X209.075Y-76.05
X209.085Y-42.05
X209.085Y-59.05
X216.075Y-36.05
X216.075Y-70.06
X216.085Y-53.06
X227.075Y-36.05
X227.075Y-70.06
X227.085Y-53.06
X234.995Y-75.153
X236.475Y-58.213
X237.955Y-41.263
X245.953Y-76.112
X247.433Y-59.172
X248.913Y-42.222
X252.183Y-88.741
X255.143Y-71.991
X258.076Y-55.263
X263.016Y-90.651
X265.976Y-73.901
X268.908Y-57.173
T5
X153.02Y-40.36
T6
X41.38Y-50.38
X44.32Y-67.14
X46.686Y-51.678
X47.275Y-83.881
X49.626Y-68.438
X52.581Y-85.18
X61.951Y-35.863
X63.431Y-52.773
X64.917Y-69.704
X67.124Y-37.618
X68.604Y-54.528
X70.09Y-71.46
X84.305Y-64.17
X84.325Y-30.13
X84.325Y-47.13
X89.305Y-66.37
X89.325Y-32.33
X89.325Y-49.33
X102.315Y-53.15
X102.32Y-70.16
X102.34Y-36.12
X103.743Y-92.316
X107.315Y-55.35
X107.32Y-72.36
X107.34Y-38.32
X108.003Y-95.735
X120.32Y-38.14
X120.325Y-55.15
X120.325Y-72.13
X123.955Y-100.696
X125.32Y-40.34
X125.325Y-57.35
X125.325Y-74.33
X127.185Y-105.102
X141.31Y-114.021
X143.29Y-119.112
X164.601Y-113.991
X169.692Y-112.011
X181.955Y-100.696
X185.575Y-38.12
X185.575Y-72.12
X185.585Y-55.11
X187.385Y-100.102
X190.575Y-40.32
X190.575Y-74.32
X190.585Y-57.31
X202.143Y-92.324
X203.575Y-70.1
X203.585Y-36.1
X203.585Y-53.1
X207.542Y-93.155
X208.575Y-72.3
X208.585Y-38.3
X208.585Y-55.3
X221.575Y-30.1
X221.575Y-64.11
X221.585Y-47.11
X226.575Y-32.3
X226.575Y-66.31
X226.585Y-49.31
X240.993Y-69.705
X242.473Y-52.765
X243.953Y-35.815
X245.782Y-72.333
X247.262Y-55.393
X248.742Y-38.443
X258.633Y-83.836
X261.593Y-67.086
X263.175Y-86.871
X264.525Y-50.359
X266.135Y-70.121
X269.067Y-53.394
T7
X42.413Y-56.24
X45.353Y-73.0
X48.308Y-89.741
X62.47Y-41.79
X63.95Y-58.7
X65.436Y-75.632
X84.305Y-70.12
X84.325Y-36.08
X84.325Y-53.08
X102.203Y-98.064
X102.315Y-59.1
X102.32Y-76.11
X102.34Y-42.07
X120.32Y-44.09
X120.325Y-61.1
X120.325Y-78.08
X120.98Y-105.849
X137.103Y-118.229
X168.808Y-118.198
X184.93Y-105.849
X185.575Y-44.07
X185.575Y-78.07
X185.585Y-61.06
X203.575Y-76.05
X203.585Y-42.05
X203.585Y-59.05
X203.683Y-98.071
X221.575Y-36.05
X221.575Y-70.06
X221.585Y-53.06
X240.474Y-75.633
X241.954Y-58.693
X243.434Y-41.743
X257.6Y-89.696
X260.56Y-72.946
X263.492Y-56.218
T0
M30
