G04 #@! TF.GenerationSoftware,KiCad,Pcbnew,7.0.6*
G04 #@! TF.CreationDate,2023-10-23T01:01:23+01:00*
G04 #@! TF.ProjectId,dasbob,64617362-6f62-42e6-9b69-6361645f7063,rev?*
G04 #@! TF.SameCoordinates,Original*
G04 #@! TF.FileFunction,Legend,Bot*
G04 #@! TF.FilePolarity,Positive*
%FSLAX46Y46*%
G04 Gerber Fmt 4.6, Leading zero omitted, Abs format (unit mm)*
G04 Created by KiCad (PCBNEW 7.0.6) date 2023-10-23 01:01:23*
%MOMM*%
%LPD*%
G01*
G04 APERTURE LIST*
G04 Aperture macros list*
%AMRoundRect*
0 Rectangle with rounded corners*
0 $1 Rounding radius*
0 $2 $3 $4 $5 $6 $7 $8 $9 X,Y pos of 4 corners*
0 Add a 4 corners polygon primitive as box body*
4,1,4,$2,$3,$4,$5,$6,$7,$8,$9,$2,$3,0*
0 Add four circle primitives for the rounded corners*
1,1,$1+$1,$2,$3*
1,1,$1+$1,$4,$5*
1,1,$1+$1,$6,$7*
1,1,$1+$1,$8,$9*
0 Add four rect primitives between the rounded corners*
20,1,$1+$1,$2,$3,$4,$5,0*
20,1,$1+$1,$4,$5,$6,$7,0*
20,1,$1+$1,$6,$7,$8,$9,0*
20,1,$1+$1,$8,$9,$2,$3,0*%
%AMRotRect*
0 Rectangle, with rotation*
0 The origin of the aperture is its center*
0 $1 length*
0 $2 width*
0 $3 Rotation angle, in degrees counterclockwise*
0 Add horizontal line*
21,1,$1,$2,0,0,$3*%
G04 Aperture macros list end*
%ADD10C,0.200000*%
%ADD11C,0.250000*%
%ADD12C,0.100000*%
%ADD13C,0.150000*%
%ADD14C,0.120000*%
%ADD15C,1.752600*%
%ADD16R,1.752600X1.752600*%
%ADD17C,1.701800*%
%ADD18C,3.000000*%
%ADD19C,3.429000*%
%ADD20RotRect,2.600000X2.600000X5.000000*%
%ADD21C,2.032000*%
%ADD22RotRect,2.600000X2.600000X315.000000*%
%ADD23RoundRect,0.381000X-0.381000X0.762000X-0.381000X-0.762000X0.381000X-0.762000X0.381000X0.762000X0*%
%ADD24R,2.600000X2.600000*%
%ADD25C,0.900000*%
%ADD26RotRect,2.600000X2.600000X350.000000*%
%ADD27RotRect,2.600000X2.600000X330.000000*%
%ADD28C,1.700000*%
%ADD29O,1.700000X1.700000*%
%ADD30RotRect,2.600000X2.600000X345.000000*%
%ADD31RotRect,2.600000X2.600000X355.000000*%
%ADD32C,0.800000*%
%ADD33O,2.000000X1.600000*%
%ADD34RotRect,2.600000X2.600000X30.000000*%
%ADD35R,1.700000X1.700000*%
%ADD36C,0.787400*%
%ADD37C,2.000000*%
%ADD38RotRect,2.600000X2.600000X45.000000*%
%ADD39RotRect,2.600000X2.600000X10.000000*%
%ADD40RotRect,2.600000X2.600000X15.000000*%
%ADD41C,2.700000*%
G04 APERTURE END LIST*
D10*
X154061219Y-60853387D02*
X154775504Y-60853387D01*
X154775504Y-60853387D02*
X154918361Y-60805768D01*
X154918361Y-60805768D02*
X155013600Y-60710530D01*
X155013600Y-60710530D02*
X155061219Y-60567673D01*
X155061219Y-60567673D02*
X155061219Y-60472435D01*
X155061219Y-61805768D02*
X155061219Y-61329578D01*
X155061219Y-61329578D02*
X154061219Y-61329578D01*
X154965980Y-62710530D02*
X155013600Y-62662911D01*
X155013600Y-62662911D02*
X155061219Y-62520054D01*
X155061219Y-62520054D02*
X155061219Y-62424816D01*
X155061219Y-62424816D02*
X155013600Y-62281959D01*
X155013600Y-62281959D02*
X154918361Y-62186721D01*
X154918361Y-62186721D02*
X154823123Y-62139102D01*
X154823123Y-62139102D02*
X154632647Y-62091483D01*
X154632647Y-62091483D02*
X154489790Y-62091483D01*
X154489790Y-62091483D02*
X154299314Y-62139102D01*
X154299314Y-62139102D02*
X154204076Y-62186721D01*
X154204076Y-62186721D02*
X154108838Y-62281959D01*
X154108838Y-62281959D02*
X154061219Y-62424816D01*
X154061219Y-62424816D02*
X154061219Y-62520054D01*
X154061219Y-62520054D02*
X154108838Y-62662911D01*
X154108838Y-62662911D02*
X154156457Y-62710530D01*
X154061219Y-63424816D02*
X154775504Y-63424816D01*
X154775504Y-63424816D02*
X154918361Y-63377197D01*
X154918361Y-63377197D02*
X155013600Y-63281959D01*
X155013600Y-63281959D02*
X155061219Y-63139102D01*
X155061219Y-63139102D02*
X155061219Y-63043864D01*
X155061219Y-64377197D02*
X155061219Y-63901007D01*
X155061219Y-63901007D02*
X154061219Y-63901007D01*
X154965980Y-65281959D02*
X155013600Y-65234340D01*
X155013600Y-65234340D02*
X155061219Y-65091483D01*
X155061219Y-65091483D02*
X155061219Y-64996245D01*
X155061219Y-64996245D02*
X155013600Y-64853388D01*
X155013600Y-64853388D02*
X154918361Y-64758150D01*
X154918361Y-64758150D02*
X154823123Y-64710531D01*
X154823123Y-64710531D02*
X154632647Y-64662912D01*
X154632647Y-64662912D02*
X154489790Y-64662912D01*
X154489790Y-64662912D02*
X154299314Y-64710531D01*
X154299314Y-64710531D02*
X154204076Y-64758150D01*
X154204076Y-64758150D02*
X154108838Y-64853388D01*
X154108838Y-64853388D02*
X154061219Y-64996245D01*
X154061219Y-64996245D02*
X154061219Y-65091483D01*
X154061219Y-65091483D02*
X154108838Y-65234340D01*
X154108838Y-65234340D02*
X154156457Y-65281959D01*
X154061219Y-65996245D02*
X154775504Y-65996245D01*
X154775504Y-65996245D02*
X154918361Y-65948626D01*
X154918361Y-65948626D02*
X155013600Y-65853388D01*
X155013600Y-65853388D02*
X155061219Y-65710531D01*
X155061219Y-65710531D02*
X155061219Y-65615293D01*
X155061219Y-66948626D02*
X155061219Y-66472436D01*
X155061219Y-66472436D02*
X154061219Y-66472436D01*
X154965980Y-67853388D02*
X155013600Y-67805769D01*
X155013600Y-67805769D02*
X155061219Y-67662912D01*
X155061219Y-67662912D02*
X155061219Y-67567674D01*
X155061219Y-67567674D02*
X155013600Y-67424817D01*
X155013600Y-67424817D02*
X154918361Y-67329579D01*
X154918361Y-67329579D02*
X154823123Y-67281960D01*
X154823123Y-67281960D02*
X154632647Y-67234341D01*
X154632647Y-67234341D02*
X154489790Y-67234341D01*
X154489790Y-67234341D02*
X154299314Y-67281960D01*
X154299314Y-67281960D02*
X154204076Y-67329579D01*
X154204076Y-67329579D02*
X154108838Y-67424817D01*
X154108838Y-67424817D02*
X154061219Y-67567674D01*
X154061219Y-67567674D02*
X154061219Y-67662912D01*
X154061219Y-67662912D02*
X154108838Y-67805769D01*
X154108838Y-67805769D02*
X154156457Y-67853388D01*
X154061219Y-68567674D02*
X154775504Y-68567674D01*
X154775504Y-68567674D02*
X154918361Y-68520055D01*
X154918361Y-68520055D02*
X155013600Y-68424817D01*
X155013600Y-68424817D02*
X155061219Y-68281960D01*
X155061219Y-68281960D02*
X155061219Y-68186722D01*
X155061219Y-69520055D02*
X155061219Y-69043865D01*
X155061219Y-69043865D02*
X154061219Y-69043865D01*
X154965980Y-70424817D02*
X155013600Y-70377198D01*
X155013600Y-70377198D02*
X155061219Y-70234341D01*
X155061219Y-70234341D02*
X155061219Y-70139103D01*
X155061219Y-70139103D02*
X155013600Y-69996246D01*
X155013600Y-69996246D02*
X154918361Y-69901008D01*
X154918361Y-69901008D02*
X154823123Y-69853389D01*
X154823123Y-69853389D02*
X154632647Y-69805770D01*
X154632647Y-69805770D02*
X154489790Y-69805770D01*
X154489790Y-69805770D02*
X154299314Y-69853389D01*
X154299314Y-69853389D02*
X154204076Y-69901008D01*
X154204076Y-69901008D02*
X154108838Y-69996246D01*
X154108838Y-69996246D02*
X154061219Y-70139103D01*
X154061219Y-70139103D02*
X154061219Y-70234341D01*
X154061219Y-70234341D02*
X154108838Y-70377198D01*
X154108838Y-70377198D02*
X154156457Y-70424817D01*
D11*
X152331380Y-71404999D02*
X153331380Y-71404999D01*
X152331380Y-70833571D02*
X152902809Y-71262142D01*
X153331380Y-70833571D02*
X152759952Y-71404999D01*
X152855190Y-70404999D02*
X152855190Y-70071666D01*
X152331380Y-69928809D02*
X152331380Y-70404999D01*
X152331380Y-70404999D02*
X153331380Y-70404999D01*
X153331380Y-70404999D02*
X153331380Y-69928809D01*
X152807571Y-69309761D02*
X152331380Y-69309761D01*
X153331380Y-69643094D02*
X152807571Y-69309761D01*
X152807571Y-69309761D02*
X153331380Y-68976428D01*
X152855190Y-68309761D02*
X152807571Y-68166904D01*
X152807571Y-68166904D02*
X152759952Y-68119285D01*
X152759952Y-68119285D02*
X152664714Y-68071666D01*
X152664714Y-68071666D02*
X152521857Y-68071666D01*
X152521857Y-68071666D02*
X152426619Y-68119285D01*
X152426619Y-68119285D02*
X152379000Y-68166904D01*
X152379000Y-68166904D02*
X152331380Y-68262142D01*
X152331380Y-68262142D02*
X152331380Y-68643094D01*
X152331380Y-68643094D02*
X153331380Y-68643094D01*
X153331380Y-68643094D02*
X153331380Y-68309761D01*
X153331380Y-68309761D02*
X153283761Y-68214523D01*
X153283761Y-68214523D02*
X153236142Y-68166904D01*
X153236142Y-68166904D02*
X153140904Y-68119285D01*
X153140904Y-68119285D02*
X153045666Y-68119285D01*
X153045666Y-68119285D02*
X152950428Y-68166904D01*
X152950428Y-68166904D02*
X152902809Y-68214523D01*
X152902809Y-68214523D02*
X152855190Y-68309761D01*
X152855190Y-68309761D02*
X152855190Y-68643094D01*
X153331380Y-67452618D02*
X153331380Y-67262142D01*
X153331380Y-67262142D02*
X153283761Y-67166904D01*
X153283761Y-67166904D02*
X153188523Y-67071666D01*
X153188523Y-67071666D02*
X152998047Y-67024047D01*
X152998047Y-67024047D02*
X152664714Y-67024047D01*
X152664714Y-67024047D02*
X152474238Y-67071666D01*
X152474238Y-67071666D02*
X152379000Y-67166904D01*
X152379000Y-67166904D02*
X152331380Y-67262142D01*
X152331380Y-67262142D02*
X152331380Y-67452618D01*
X152331380Y-67452618D02*
X152379000Y-67547856D01*
X152379000Y-67547856D02*
X152474238Y-67643094D01*
X152474238Y-67643094D02*
X152664714Y-67690713D01*
X152664714Y-67690713D02*
X152998047Y-67690713D01*
X152998047Y-67690713D02*
X153188523Y-67643094D01*
X153188523Y-67643094D02*
X153283761Y-67547856D01*
X153283761Y-67547856D02*
X153331380Y-67452618D01*
X152855190Y-66262142D02*
X152807571Y-66119285D01*
X152807571Y-66119285D02*
X152759952Y-66071666D01*
X152759952Y-66071666D02*
X152664714Y-66024047D01*
X152664714Y-66024047D02*
X152521857Y-66024047D01*
X152521857Y-66024047D02*
X152426619Y-66071666D01*
X152426619Y-66071666D02*
X152379000Y-66119285D01*
X152379000Y-66119285D02*
X152331380Y-66214523D01*
X152331380Y-66214523D02*
X152331380Y-66595475D01*
X152331380Y-66595475D02*
X153331380Y-66595475D01*
X153331380Y-66595475D02*
X153331380Y-66262142D01*
X153331380Y-66262142D02*
X153283761Y-66166904D01*
X153283761Y-66166904D02*
X153236142Y-66119285D01*
X153236142Y-66119285D02*
X153140904Y-66071666D01*
X153140904Y-66071666D02*
X153045666Y-66071666D01*
X153045666Y-66071666D02*
X152950428Y-66119285D01*
X152950428Y-66119285D02*
X152902809Y-66166904D01*
X152902809Y-66166904D02*
X152855190Y-66262142D01*
X152855190Y-66262142D02*
X152855190Y-66595475D01*
X152331380Y-64262142D02*
X152807571Y-64595475D01*
X152331380Y-64833570D02*
X153331380Y-64833570D01*
X153331380Y-64833570D02*
X153331380Y-64452618D01*
X153331380Y-64452618D02*
X153283761Y-64357380D01*
X153283761Y-64357380D02*
X153236142Y-64309761D01*
X153236142Y-64309761D02*
X153140904Y-64262142D01*
X153140904Y-64262142D02*
X152998047Y-64262142D01*
X152998047Y-64262142D02*
X152902809Y-64309761D01*
X152902809Y-64309761D02*
X152855190Y-64357380D01*
X152855190Y-64357380D02*
X152807571Y-64452618D01*
X152807571Y-64452618D02*
X152807571Y-64833570D01*
X152855190Y-63833570D02*
X152855190Y-63500237D01*
X152331380Y-63357380D02*
X152331380Y-63833570D01*
X152331380Y-63833570D02*
X153331380Y-63833570D01*
X153331380Y-63833570D02*
X153331380Y-63357380D01*
X153331380Y-63071665D02*
X152331380Y-62738332D01*
X152331380Y-62738332D02*
X153331380Y-62404999D01*
X152331380Y-60785951D02*
X152331380Y-61357379D01*
X152331380Y-61071665D02*
X153331380Y-61071665D01*
X153331380Y-61071665D02*
X153188523Y-61166903D01*
X153188523Y-61166903D02*
X153093285Y-61262141D01*
X153093285Y-61262141D02*
X153045666Y-61357379D01*
X152426619Y-60357379D02*
X152379000Y-60309760D01*
X152379000Y-60309760D02*
X152331380Y-60357379D01*
X152331380Y-60357379D02*
X152379000Y-60404998D01*
X152379000Y-60404998D02*
X152426619Y-60357379D01*
X152426619Y-60357379D02*
X152331380Y-60357379D01*
X153331380Y-59690713D02*
X153331380Y-59595475D01*
X153331380Y-59595475D02*
X153283761Y-59500237D01*
X153283761Y-59500237D02*
X153236142Y-59452618D01*
X153236142Y-59452618D02*
X153140904Y-59404999D01*
X153140904Y-59404999D02*
X152950428Y-59357380D01*
X152950428Y-59357380D02*
X152712333Y-59357380D01*
X152712333Y-59357380D02*
X152521857Y-59404999D01*
X152521857Y-59404999D02*
X152426619Y-59452618D01*
X152426619Y-59452618D02*
X152379000Y-59500237D01*
X152379000Y-59500237D02*
X152331380Y-59595475D01*
X152331380Y-59595475D02*
X152331380Y-59690713D01*
X152331380Y-59690713D02*
X152379000Y-59785951D01*
X152379000Y-59785951D02*
X152426619Y-59833570D01*
X152426619Y-59833570D02*
X152521857Y-59881189D01*
X152521857Y-59881189D02*
X152712333Y-59928808D01*
X152712333Y-59928808D02*
X152950428Y-59928808D01*
X152950428Y-59928808D02*
X153140904Y-59881189D01*
X153140904Y-59881189D02*
X153236142Y-59833570D01*
X153236142Y-59833570D02*
X153283761Y-59785951D01*
X153283761Y-59785951D02*
X153331380Y-59690713D01*
D12*
X225270382Y-85785609D02*
X225127525Y-85833228D01*
X225127525Y-85833228D02*
X225079906Y-85880847D01*
X225079906Y-85880847D02*
X225032287Y-85976085D01*
X225032287Y-85976085D02*
X225032287Y-86118942D01*
X225032287Y-86118942D02*
X225079906Y-86214180D01*
X225079906Y-86214180D02*
X225127525Y-86261800D01*
X225127525Y-86261800D02*
X225222763Y-86309419D01*
X225222763Y-86309419D02*
X225603715Y-86309419D01*
X225603715Y-86309419D02*
X225603715Y-85309419D01*
X225603715Y-85309419D02*
X225270382Y-85309419D01*
X225270382Y-85309419D02*
X225175144Y-85357038D01*
X225175144Y-85357038D02*
X225127525Y-85404657D01*
X225127525Y-85404657D02*
X225079906Y-85499895D01*
X225079906Y-85499895D02*
X225079906Y-85595133D01*
X225079906Y-85595133D02*
X225127525Y-85690371D01*
X225127525Y-85690371D02*
X225175144Y-85737990D01*
X225175144Y-85737990D02*
X225270382Y-85785609D01*
X225270382Y-85785609D02*
X225603715Y-85785609D01*
X224603715Y-85928466D02*
X223841811Y-85928466D01*
X218666382Y-85785609D02*
X218523525Y-85833228D01*
X218523525Y-85833228D02*
X218475906Y-85880847D01*
X218475906Y-85880847D02*
X218428287Y-85976085D01*
X218428287Y-85976085D02*
X218428287Y-86118942D01*
X218428287Y-86118942D02*
X218475906Y-86214180D01*
X218475906Y-86214180D02*
X218523525Y-86261800D01*
X218523525Y-86261800D02*
X218618763Y-86309419D01*
X218618763Y-86309419D02*
X218999715Y-86309419D01*
X218999715Y-86309419D02*
X218999715Y-85309419D01*
X218999715Y-85309419D02*
X218666382Y-85309419D01*
X218666382Y-85309419D02*
X218571144Y-85357038D01*
X218571144Y-85357038D02*
X218523525Y-85404657D01*
X218523525Y-85404657D02*
X218475906Y-85499895D01*
X218475906Y-85499895D02*
X218475906Y-85595133D01*
X218475906Y-85595133D02*
X218523525Y-85690371D01*
X218523525Y-85690371D02*
X218571144Y-85737990D01*
X218571144Y-85737990D02*
X218666382Y-85785609D01*
X218666382Y-85785609D02*
X218999715Y-85785609D01*
X217999715Y-85928466D02*
X217237811Y-85928466D01*
X217618763Y-86309419D02*
X217618763Y-85547514D01*
X91890252Y-68132500D02*
X92890252Y-68132500D01*
X91937871Y-68132500D02*
X91890252Y-68227738D01*
X91890252Y-68227738D02*
X91890252Y-68418214D01*
X91890252Y-68418214D02*
X91937871Y-68513452D01*
X91937871Y-68513452D02*
X91985490Y-68561071D01*
X91985490Y-68561071D02*
X92080728Y-68608690D01*
X92080728Y-68608690D02*
X92366442Y-68608690D01*
X92366442Y-68608690D02*
X92461680Y-68561071D01*
X92461680Y-68561071D02*
X92509300Y-68513452D01*
X92509300Y-68513452D02*
X92556919Y-68418214D01*
X92556919Y-68418214D02*
X92556919Y-68227738D01*
X92556919Y-68227738D02*
X92509300Y-68132500D01*
X91890252Y-69465833D02*
X92556919Y-69465833D01*
X91890252Y-69037262D02*
X92414061Y-69037262D01*
X92414061Y-69037262D02*
X92509300Y-69084881D01*
X92509300Y-69084881D02*
X92556919Y-69180119D01*
X92556919Y-69180119D02*
X92556919Y-69322976D01*
X92556919Y-69322976D02*
X92509300Y-69418214D01*
X92509300Y-69418214D02*
X92461680Y-69465833D01*
X92509300Y-70370595D02*
X92556919Y-70275357D01*
X92556919Y-70275357D02*
X92556919Y-70084881D01*
X92556919Y-70084881D02*
X92509300Y-69989643D01*
X92509300Y-69989643D02*
X92461680Y-69942024D01*
X92461680Y-69942024D02*
X92366442Y-69894405D01*
X92366442Y-69894405D02*
X92080728Y-69894405D01*
X92080728Y-69894405D02*
X91985490Y-69942024D01*
X91985490Y-69942024D02*
X91937871Y-69989643D01*
X91937871Y-69989643D02*
X91890252Y-70084881D01*
X91890252Y-70084881D02*
X91890252Y-70275357D01*
X91890252Y-70275357D02*
X91937871Y-70370595D01*
X92556919Y-70799167D02*
X91556919Y-70799167D01*
X92175966Y-70894405D02*
X92556919Y-71180119D01*
X91890252Y-71180119D02*
X92271204Y-70799167D01*
X91826752Y-54178500D02*
X91826752Y-54559452D01*
X91493419Y-54321357D02*
X92350561Y-54321357D01*
X92350561Y-54321357D02*
X92445800Y-54368976D01*
X92445800Y-54368976D02*
X92493419Y-54464214D01*
X92493419Y-54464214D02*
X92493419Y-54559452D01*
X92445800Y-55273738D02*
X92493419Y-55178500D01*
X92493419Y-55178500D02*
X92493419Y-54988024D01*
X92493419Y-54988024D02*
X92445800Y-54892786D01*
X92445800Y-54892786D02*
X92350561Y-54845167D01*
X92350561Y-54845167D02*
X91969609Y-54845167D01*
X91969609Y-54845167D02*
X91874371Y-54892786D01*
X91874371Y-54892786D02*
X91826752Y-54988024D01*
X91826752Y-54988024D02*
X91826752Y-55178500D01*
X91826752Y-55178500D02*
X91874371Y-55273738D01*
X91874371Y-55273738D02*
X91969609Y-55321357D01*
X91969609Y-55321357D02*
X92064847Y-55321357D01*
X92064847Y-55321357D02*
X92160085Y-54845167D01*
X91826752Y-55749929D02*
X92493419Y-55749929D01*
X91921990Y-55749929D02*
X91874371Y-55797548D01*
X91874371Y-55797548D02*
X91826752Y-55892786D01*
X91826752Y-55892786D02*
X91826752Y-56035643D01*
X91826752Y-56035643D02*
X91874371Y-56130881D01*
X91874371Y-56130881D02*
X91969609Y-56178500D01*
X91969609Y-56178500D02*
X92493419Y-56178500D01*
X91826752Y-56511834D02*
X91826752Y-56892786D01*
X91493419Y-56654691D02*
X92350561Y-56654691D01*
X92350561Y-56654691D02*
X92445800Y-56702310D01*
X92445800Y-56702310D02*
X92493419Y-56797548D01*
X92493419Y-56797548D02*
X92493419Y-56892786D01*
X92493419Y-57226120D02*
X91826752Y-57226120D01*
X91493419Y-57226120D02*
X91541038Y-57178501D01*
X91541038Y-57178501D02*
X91588657Y-57226120D01*
X91588657Y-57226120D02*
X91541038Y-57273739D01*
X91541038Y-57273739D02*
X91493419Y-57226120D01*
X91493419Y-57226120D02*
X91588657Y-57226120D01*
X91826752Y-57702310D02*
X92493419Y-57702310D01*
X91921990Y-57702310D02*
X91874371Y-57749929D01*
X91874371Y-57749929D02*
X91826752Y-57845167D01*
X91826752Y-57845167D02*
X91826752Y-57988024D01*
X91826752Y-57988024D02*
X91874371Y-58083262D01*
X91874371Y-58083262D02*
X91969609Y-58130881D01*
X91969609Y-58130881D02*
X92493419Y-58130881D01*
X91826752Y-59035643D02*
X92636276Y-59035643D01*
X92636276Y-59035643D02*
X92731514Y-58988024D01*
X92731514Y-58988024D02*
X92779133Y-58940405D01*
X92779133Y-58940405D02*
X92826752Y-58845167D01*
X92826752Y-58845167D02*
X92826752Y-58702310D01*
X92826752Y-58702310D02*
X92779133Y-58607072D01*
X92445800Y-59035643D02*
X92493419Y-58940405D01*
X92493419Y-58940405D02*
X92493419Y-58749929D01*
X92493419Y-58749929D02*
X92445800Y-58654691D01*
X92445800Y-58654691D02*
X92398180Y-58607072D01*
X92398180Y-58607072D02*
X92302942Y-58559453D01*
X92302942Y-58559453D02*
X92017228Y-58559453D01*
X92017228Y-58559453D02*
X91921990Y-58607072D01*
X91921990Y-58607072D02*
X91874371Y-58654691D01*
X91874371Y-58654691D02*
X91826752Y-58749929D01*
X91826752Y-58749929D02*
X91826752Y-58940405D01*
X91826752Y-58940405D02*
X91874371Y-59035643D01*
X213360252Y-68132500D02*
X214360252Y-68132500D01*
X213407871Y-68132500D02*
X213360252Y-68227738D01*
X213360252Y-68227738D02*
X213360252Y-68418214D01*
X213360252Y-68418214D02*
X213407871Y-68513452D01*
X213407871Y-68513452D02*
X213455490Y-68561071D01*
X213455490Y-68561071D02*
X213550728Y-68608690D01*
X213550728Y-68608690D02*
X213836442Y-68608690D01*
X213836442Y-68608690D02*
X213931680Y-68561071D01*
X213931680Y-68561071D02*
X213979300Y-68513452D01*
X213979300Y-68513452D02*
X214026919Y-68418214D01*
X214026919Y-68418214D02*
X214026919Y-68227738D01*
X214026919Y-68227738D02*
X213979300Y-68132500D01*
X213360252Y-69465833D02*
X214026919Y-69465833D01*
X213360252Y-69037262D02*
X213884061Y-69037262D01*
X213884061Y-69037262D02*
X213979300Y-69084881D01*
X213979300Y-69084881D02*
X214026919Y-69180119D01*
X214026919Y-69180119D02*
X214026919Y-69322976D01*
X214026919Y-69322976D02*
X213979300Y-69418214D01*
X213979300Y-69418214D02*
X213931680Y-69465833D01*
X213979300Y-70370595D02*
X214026919Y-70275357D01*
X214026919Y-70275357D02*
X214026919Y-70084881D01*
X214026919Y-70084881D02*
X213979300Y-69989643D01*
X213979300Y-69989643D02*
X213931680Y-69942024D01*
X213931680Y-69942024D02*
X213836442Y-69894405D01*
X213836442Y-69894405D02*
X213550728Y-69894405D01*
X213550728Y-69894405D02*
X213455490Y-69942024D01*
X213455490Y-69942024D02*
X213407871Y-69989643D01*
X213407871Y-69989643D02*
X213360252Y-70084881D01*
X213360252Y-70084881D02*
X213360252Y-70275357D01*
X213360252Y-70275357D02*
X213407871Y-70370595D01*
X214026919Y-70799167D02*
X213026919Y-70799167D01*
X213645966Y-70894405D02*
X214026919Y-71180119D01*
X213360252Y-71180119D02*
X213741204Y-70799167D01*
X213296752Y-54178500D02*
X213296752Y-54559452D01*
X212963419Y-54321357D02*
X213820561Y-54321357D01*
X213820561Y-54321357D02*
X213915800Y-54368976D01*
X213915800Y-54368976D02*
X213963419Y-54464214D01*
X213963419Y-54464214D02*
X213963419Y-54559452D01*
X213915800Y-55273738D02*
X213963419Y-55178500D01*
X213963419Y-55178500D02*
X213963419Y-54988024D01*
X213963419Y-54988024D02*
X213915800Y-54892786D01*
X213915800Y-54892786D02*
X213820561Y-54845167D01*
X213820561Y-54845167D02*
X213439609Y-54845167D01*
X213439609Y-54845167D02*
X213344371Y-54892786D01*
X213344371Y-54892786D02*
X213296752Y-54988024D01*
X213296752Y-54988024D02*
X213296752Y-55178500D01*
X213296752Y-55178500D02*
X213344371Y-55273738D01*
X213344371Y-55273738D02*
X213439609Y-55321357D01*
X213439609Y-55321357D02*
X213534847Y-55321357D01*
X213534847Y-55321357D02*
X213630085Y-54845167D01*
X213296752Y-55749929D02*
X213963419Y-55749929D01*
X213391990Y-55749929D02*
X213344371Y-55797548D01*
X213344371Y-55797548D02*
X213296752Y-55892786D01*
X213296752Y-55892786D02*
X213296752Y-56035643D01*
X213296752Y-56035643D02*
X213344371Y-56130881D01*
X213344371Y-56130881D02*
X213439609Y-56178500D01*
X213439609Y-56178500D02*
X213963419Y-56178500D01*
X213296752Y-56511834D02*
X213296752Y-56892786D01*
X212963419Y-56654691D02*
X213820561Y-56654691D01*
X213820561Y-56654691D02*
X213915800Y-56702310D01*
X213915800Y-56702310D02*
X213963419Y-56797548D01*
X213963419Y-56797548D02*
X213963419Y-56892786D01*
X213963419Y-57226120D02*
X213296752Y-57226120D01*
X212963419Y-57226120D02*
X213011038Y-57178501D01*
X213011038Y-57178501D02*
X213058657Y-57226120D01*
X213058657Y-57226120D02*
X213011038Y-57273739D01*
X213011038Y-57273739D02*
X212963419Y-57226120D01*
X212963419Y-57226120D02*
X213058657Y-57226120D01*
X213296752Y-57702310D02*
X213963419Y-57702310D01*
X213391990Y-57702310D02*
X213344371Y-57749929D01*
X213344371Y-57749929D02*
X213296752Y-57845167D01*
X213296752Y-57845167D02*
X213296752Y-57988024D01*
X213296752Y-57988024D02*
X213344371Y-58083262D01*
X213344371Y-58083262D02*
X213439609Y-58130881D01*
X213439609Y-58130881D02*
X213963419Y-58130881D01*
X213296752Y-59035643D02*
X214106276Y-59035643D01*
X214106276Y-59035643D02*
X214201514Y-58988024D01*
X214201514Y-58988024D02*
X214249133Y-58940405D01*
X214249133Y-58940405D02*
X214296752Y-58845167D01*
X214296752Y-58845167D02*
X214296752Y-58702310D01*
X214296752Y-58702310D02*
X214249133Y-58607072D01*
X213915800Y-59035643D02*
X213963419Y-58940405D01*
X213963419Y-58940405D02*
X213963419Y-58749929D01*
X213963419Y-58749929D02*
X213915800Y-58654691D01*
X213915800Y-58654691D02*
X213868180Y-58607072D01*
X213868180Y-58607072D02*
X213772942Y-58559453D01*
X213772942Y-58559453D02*
X213487228Y-58559453D01*
X213487228Y-58559453D02*
X213391990Y-58607072D01*
X213391990Y-58607072D02*
X213344371Y-58654691D01*
X213344371Y-58654691D02*
X213296752Y-58749929D01*
X213296752Y-58749929D02*
X213296752Y-58940405D01*
X213296752Y-58940405D02*
X213344371Y-59035643D01*
D13*
X146869095Y-36900247D02*
X146754809Y-36938342D01*
X146754809Y-36938342D02*
X146716714Y-36976438D01*
X146716714Y-36976438D02*
X146678618Y-37052628D01*
X146678618Y-37052628D02*
X146678618Y-37166914D01*
X146678618Y-37166914D02*
X146716714Y-37243104D01*
X146716714Y-37243104D02*
X146754809Y-37281200D01*
X146754809Y-37281200D02*
X146830999Y-37319295D01*
X146830999Y-37319295D02*
X147135761Y-37319295D01*
X147135761Y-37319295D02*
X147135761Y-36519295D01*
X147135761Y-36519295D02*
X146869095Y-36519295D01*
X146869095Y-36519295D02*
X146792904Y-36557390D01*
X146792904Y-36557390D02*
X146754809Y-36595485D01*
X146754809Y-36595485D02*
X146716714Y-36671676D01*
X146716714Y-36671676D02*
X146716714Y-36747866D01*
X146716714Y-36747866D02*
X146754809Y-36824057D01*
X146754809Y-36824057D02*
X146792904Y-36862152D01*
X146792904Y-36862152D02*
X146869095Y-36900247D01*
X146869095Y-36900247D02*
X147135761Y-36900247D01*
X146335761Y-37014533D02*
X145726238Y-37014533D01*
X146030999Y-37319295D02*
X146030999Y-36709771D01*
X132340295Y-36900247D02*
X132226009Y-36938342D01*
X132226009Y-36938342D02*
X132187914Y-36976438D01*
X132187914Y-36976438D02*
X132149818Y-37052628D01*
X132149818Y-37052628D02*
X132149818Y-37166914D01*
X132149818Y-37166914D02*
X132187914Y-37243104D01*
X132187914Y-37243104D02*
X132226009Y-37281200D01*
X132226009Y-37281200D02*
X132302199Y-37319295D01*
X132302199Y-37319295D02*
X132606961Y-37319295D01*
X132606961Y-37319295D02*
X132606961Y-36519295D01*
X132606961Y-36519295D02*
X132340295Y-36519295D01*
X132340295Y-36519295D02*
X132264104Y-36557390D01*
X132264104Y-36557390D02*
X132226009Y-36595485D01*
X132226009Y-36595485D02*
X132187914Y-36671676D01*
X132187914Y-36671676D02*
X132187914Y-36747866D01*
X132187914Y-36747866D02*
X132226009Y-36824057D01*
X132226009Y-36824057D02*
X132264104Y-36862152D01*
X132264104Y-36862152D02*
X132340295Y-36900247D01*
X132340295Y-36900247D02*
X132606961Y-36900247D01*
X131806961Y-37014533D02*
X131197438Y-37014533D01*
X174910695Y-36900247D02*
X174796409Y-36938342D01*
X174796409Y-36938342D02*
X174758314Y-36976438D01*
X174758314Y-36976438D02*
X174720218Y-37052628D01*
X174720218Y-37052628D02*
X174720218Y-37166914D01*
X174720218Y-37166914D02*
X174758314Y-37243104D01*
X174758314Y-37243104D02*
X174796409Y-37281200D01*
X174796409Y-37281200D02*
X174872599Y-37319295D01*
X174872599Y-37319295D02*
X175177361Y-37319295D01*
X175177361Y-37319295D02*
X175177361Y-36519295D01*
X175177361Y-36519295D02*
X174910695Y-36519295D01*
X174910695Y-36519295D02*
X174834504Y-36557390D01*
X174834504Y-36557390D02*
X174796409Y-36595485D01*
X174796409Y-36595485D02*
X174758314Y-36671676D01*
X174758314Y-36671676D02*
X174758314Y-36747866D01*
X174758314Y-36747866D02*
X174796409Y-36824057D01*
X174796409Y-36824057D02*
X174834504Y-36862152D01*
X174834504Y-36862152D02*
X174910695Y-36900247D01*
X174910695Y-36900247D02*
X175177361Y-36900247D01*
X174377361Y-37014533D02*
X173767838Y-37014533D01*
X160381895Y-36900247D02*
X160267609Y-36938342D01*
X160267609Y-36938342D02*
X160229514Y-36976438D01*
X160229514Y-36976438D02*
X160191418Y-37052628D01*
X160191418Y-37052628D02*
X160191418Y-37166914D01*
X160191418Y-37166914D02*
X160229514Y-37243104D01*
X160229514Y-37243104D02*
X160267609Y-37281200D01*
X160267609Y-37281200D02*
X160343799Y-37319295D01*
X160343799Y-37319295D02*
X160648561Y-37319295D01*
X160648561Y-37319295D02*
X160648561Y-36519295D01*
X160648561Y-36519295D02*
X160381895Y-36519295D01*
X160381895Y-36519295D02*
X160305704Y-36557390D01*
X160305704Y-36557390D02*
X160267609Y-36595485D01*
X160267609Y-36595485D02*
X160229514Y-36671676D01*
X160229514Y-36671676D02*
X160229514Y-36747866D01*
X160229514Y-36747866D02*
X160267609Y-36824057D01*
X160267609Y-36824057D02*
X160305704Y-36862152D01*
X160305704Y-36862152D02*
X160381895Y-36900247D01*
X160381895Y-36900247D02*
X160648561Y-36900247D01*
X159848561Y-37014533D02*
X159239038Y-37014533D01*
X159543799Y-37319295D02*
X159543799Y-36709771D01*
D12*
X88008782Y-85785609D02*
X87865925Y-85833228D01*
X87865925Y-85833228D02*
X87818306Y-85880847D01*
X87818306Y-85880847D02*
X87770687Y-85976085D01*
X87770687Y-85976085D02*
X87770687Y-86118942D01*
X87770687Y-86118942D02*
X87818306Y-86214180D01*
X87818306Y-86214180D02*
X87865925Y-86261800D01*
X87865925Y-86261800D02*
X87961163Y-86309419D01*
X87961163Y-86309419D02*
X88342115Y-86309419D01*
X88342115Y-86309419D02*
X88342115Y-85309419D01*
X88342115Y-85309419D02*
X88008782Y-85309419D01*
X88008782Y-85309419D02*
X87913544Y-85357038D01*
X87913544Y-85357038D02*
X87865925Y-85404657D01*
X87865925Y-85404657D02*
X87818306Y-85499895D01*
X87818306Y-85499895D02*
X87818306Y-85595133D01*
X87818306Y-85595133D02*
X87865925Y-85690371D01*
X87865925Y-85690371D02*
X87913544Y-85737990D01*
X87913544Y-85737990D02*
X88008782Y-85785609D01*
X88008782Y-85785609D02*
X88342115Y-85785609D01*
X87342115Y-85928466D02*
X86580211Y-85928466D01*
X86961163Y-86309419D02*
X86961163Y-85547514D01*
X81404782Y-85785609D02*
X81261925Y-85833228D01*
X81261925Y-85833228D02*
X81214306Y-85880847D01*
X81214306Y-85880847D02*
X81166687Y-85976085D01*
X81166687Y-85976085D02*
X81166687Y-86118942D01*
X81166687Y-86118942D02*
X81214306Y-86214180D01*
X81214306Y-86214180D02*
X81261925Y-86261800D01*
X81261925Y-86261800D02*
X81357163Y-86309419D01*
X81357163Y-86309419D02*
X81738115Y-86309419D01*
X81738115Y-86309419D02*
X81738115Y-85309419D01*
X81738115Y-85309419D02*
X81404782Y-85309419D01*
X81404782Y-85309419D02*
X81309544Y-85357038D01*
X81309544Y-85357038D02*
X81261925Y-85404657D01*
X81261925Y-85404657D02*
X81214306Y-85499895D01*
X81214306Y-85499895D02*
X81214306Y-85595133D01*
X81214306Y-85595133D02*
X81261925Y-85690371D01*
X81261925Y-85690371D02*
X81309544Y-85737990D01*
X81309544Y-85737990D02*
X81404782Y-85785609D01*
X81404782Y-85785609D02*
X81738115Y-85785609D01*
X80738115Y-85928466D02*
X79976211Y-85928466D01*
D13*
X145021475Y-50062295D02*
X145021475Y-49262295D01*
X145021475Y-49262295D02*
X144830999Y-49262295D01*
X144830999Y-49262295D02*
X144716713Y-49300390D01*
X144716713Y-49300390D02*
X144640523Y-49376580D01*
X144640523Y-49376580D02*
X144602428Y-49452771D01*
X144602428Y-49452771D02*
X144564332Y-49605152D01*
X144564332Y-49605152D02*
X144564332Y-49719438D01*
X144564332Y-49719438D02*
X144602428Y-49871819D01*
X144602428Y-49871819D02*
X144640523Y-49948009D01*
X144640523Y-49948009D02*
X144716713Y-50024200D01*
X144716713Y-50024200D02*
X144830999Y-50062295D01*
X144830999Y-50062295D02*
X145021475Y-50062295D01*
X143802428Y-50062295D02*
X144259571Y-50062295D01*
X144030999Y-50062295D02*
X144030999Y-49262295D01*
X144030999Y-49262295D02*
X144107190Y-49376580D01*
X144107190Y-49376580D02*
X144183380Y-49452771D01*
X144183380Y-49452771D02*
X144259571Y-49490866D01*
X133832809Y-64883247D02*
X133718523Y-64921342D01*
X133718523Y-64921342D02*
X133680428Y-64959438D01*
X133680428Y-64959438D02*
X133642332Y-65035628D01*
X133642332Y-65035628D02*
X133642332Y-65149914D01*
X133642332Y-65149914D02*
X133680428Y-65226104D01*
X133680428Y-65226104D02*
X133718523Y-65264200D01*
X133718523Y-65264200D02*
X133794713Y-65302295D01*
X133794713Y-65302295D02*
X134099475Y-65302295D01*
X134099475Y-65302295D02*
X134099475Y-64502295D01*
X134099475Y-64502295D02*
X133832809Y-64502295D01*
X133832809Y-64502295D02*
X133756618Y-64540390D01*
X133756618Y-64540390D02*
X133718523Y-64578485D01*
X133718523Y-64578485D02*
X133680428Y-64654676D01*
X133680428Y-64654676D02*
X133680428Y-64730866D01*
X133680428Y-64730866D02*
X133718523Y-64807057D01*
X133718523Y-64807057D02*
X133756618Y-64845152D01*
X133756618Y-64845152D02*
X133832809Y-64883247D01*
X133832809Y-64883247D02*
X134099475Y-64883247D01*
X133337571Y-64578485D02*
X133299475Y-64540390D01*
X133299475Y-64540390D02*
X133223285Y-64502295D01*
X133223285Y-64502295D02*
X133032809Y-64502295D01*
X133032809Y-64502295D02*
X132956618Y-64540390D01*
X132956618Y-64540390D02*
X132918523Y-64578485D01*
X132918523Y-64578485D02*
X132880428Y-64654676D01*
X132880428Y-64654676D02*
X132880428Y-64730866D01*
X132880428Y-64730866D02*
X132918523Y-64845152D01*
X132918523Y-64845152D02*
X133375666Y-65302295D01*
X133375666Y-65302295D02*
X132880428Y-65302295D01*
X145040523Y-46760390D02*
X145116713Y-46722295D01*
X145116713Y-46722295D02*
X145230999Y-46722295D01*
X145230999Y-46722295D02*
X145345285Y-46760390D01*
X145345285Y-46760390D02*
X145421475Y-46836580D01*
X145421475Y-46836580D02*
X145459570Y-46912771D01*
X145459570Y-46912771D02*
X145497666Y-47065152D01*
X145497666Y-47065152D02*
X145497666Y-47179438D01*
X145497666Y-47179438D02*
X145459570Y-47331819D01*
X145459570Y-47331819D02*
X145421475Y-47408009D01*
X145421475Y-47408009D02*
X145345285Y-47484200D01*
X145345285Y-47484200D02*
X145230999Y-47522295D01*
X145230999Y-47522295D02*
X145154808Y-47522295D01*
X145154808Y-47522295D02*
X145040523Y-47484200D01*
X145040523Y-47484200D02*
X145002427Y-47446104D01*
X145002427Y-47446104D02*
X145002427Y-47179438D01*
X145002427Y-47179438D02*
X145154808Y-47179438D01*
X144659570Y-47522295D02*
X144659570Y-46722295D01*
X144659570Y-46722295D02*
X144202427Y-47522295D01*
X144202427Y-47522295D02*
X144202427Y-46722295D01*
X143821475Y-47522295D02*
X143821475Y-46722295D01*
X143821475Y-46722295D02*
X143630999Y-46722295D01*
X143630999Y-46722295D02*
X143516713Y-46760390D01*
X143516713Y-46760390D02*
X143440523Y-46836580D01*
X143440523Y-46836580D02*
X143402428Y-46912771D01*
X143402428Y-46912771D02*
X143364332Y-47065152D01*
X143364332Y-47065152D02*
X143364332Y-47179438D01*
X143364332Y-47179438D02*
X143402428Y-47331819D01*
X143402428Y-47331819D02*
X143440523Y-47408009D01*
X143440523Y-47408009D02*
X143516713Y-47484200D01*
X143516713Y-47484200D02*
X143630999Y-47522295D01*
X143630999Y-47522295D02*
X143821475Y-47522295D01*
X145021475Y-55142295D02*
X145021475Y-54342295D01*
X145021475Y-54342295D02*
X144830999Y-54342295D01*
X144830999Y-54342295D02*
X144716713Y-54380390D01*
X144716713Y-54380390D02*
X144640523Y-54456580D01*
X144640523Y-54456580D02*
X144602428Y-54532771D01*
X144602428Y-54532771D02*
X144564332Y-54685152D01*
X144564332Y-54685152D02*
X144564332Y-54799438D01*
X144564332Y-54799438D02*
X144602428Y-54951819D01*
X144602428Y-54951819D02*
X144640523Y-55028009D01*
X144640523Y-55028009D02*
X144716713Y-55104200D01*
X144716713Y-55104200D02*
X144830999Y-55142295D01*
X144830999Y-55142295D02*
X145021475Y-55142295D01*
X143878618Y-54608961D02*
X143878618Y-55142295D01*
X144069094Y-54304200D02*
X144259571Y-54875628D01*
X144259571Y-54875628D02*
X143764332Y-54875628D01*
X133775666Y-52183247D02*
X134042332Y-52183247D01*
X134042332Y-52602295D02*
X134042332Y-51802295D01*
X134042332Y-51802295D02*
X133661380Y-51802295D01*
X132975666Y-51802295D02*
X133356618Y-51802295D01*
X133356618Y-51802295D02*
X133394714Y-52183247D01*
X133394714Y-52183247D02*
X133356618Y-52145152D01*
X133356618Y-52145152D02*
X133280428Y-52107057D01*
X133280428Y-52107057D02*
X133089952Y-52107057D01*
X133089952Y-52107057D02*
X133013761Y-52145152D01*
X133013761Y-52145152D02*
X132975666Y-52183247D01*
X132975666Y-52183247D02*
X132937571Y-52259438D01*
X132937571Y-52259438D02*
X132937571Y-52449914D01*
X132937571Y-52449914D02*
X132975666Y-52526104D01*
X132975666Y-52526104D02*
X133013761Y-52564200D01*
X133013761Y-52564200D02*
X133089952Y-52602295D01*
X133089952Y-52602295D02*
X133280428Y-52602295D01*
X133280428Y-52602295D02*
X133356618Y-52564200D01*
X133356618Y-52564200D02*
X133394714Y-52526104D01*
X145021475Y-42442295D02*
X145021475Y-41642295D01*
X145021475Y-41642295D02*
X144830999Y-41642295D01*
X144830999Y-41642295D02*
X144716713Y-41680390D01*
X144716713Y-41680390D02*
X144640523Y-41756580D01*
X144640523Y-41756580D02*
X144602428Y-41832771D01*
X144602428Y-41832771D02*
X144564332Y-41985152D01*
X144564332Y-41985152D02*
X144564332Y-42099438D01*
X144564332Y-42099438D02*
X144602428Y-42251819D01*
X144602428Y-42251819D02*
X144640523Y-42328009D01*
X144640523Y-42328009D02*
X144716713Y-42404200D01*
X144716713Y-42404200D02*
X144830999Y-42442295D01*
X144830999Y-42442295D02*
X145021475Y-42442295D01*
X144259571Y-41718485D02*
X144221475Y-41680390D01*
X144221475Y-41680390D02*
X144145285Y-41642295D01*
X144145285Y-41642295D02*
X143954809Y-41642295D01*
X143954809Y-41642295D02*
X143878618Y-41680390D01*
X143878618Y-41680390D02*
X143840523Y-41718485D01*
X143840523Y-41718485D02*
X143802428Y-41794676D01*
X143802428Y-41794676D02*
X143802428Y-41870866D01*
X143802428Y-41870866D02*
X143840523Y-41985152D01*
X143840523Y-41985152D02*
X144297666Y-42442295D01*
X144297666Y-42442295D02*
X143802428Y-42442295D01*
X145534543Y-65973850D02*
X145487403Y-66068131D01*
X145487403Y-66068131D02*
X145487403Y-66115271D01*
X145487403Y-66115271D02*
X145510973Y-66185982D01*
X145510973Y-66185982D02*
X145581683Y-66256692D01*
X145581683Y-66256692D02*
X145652394Y-66280263D01*
X145652394Y-66280263D02*
X145699535Y-66280263D01*
X145699535Y-66280263D02*
X145770245Y-66256692D01*
X145770245Y-66256692D02*
X145958807Y-66068131D01*
X145958807Y-66068131D02*
X145463832Y-65573156D01*
X145463832Y-65573156D02*
X145298841Y-65738147D01*
X145298841Y-65738147D02*
X145275271Y-65808858D01*
X145275271Y-65808858D02*
X145275271Y-65855999D01*
X145275271Y-65855999D02*
X145298841Y-65926709D01*
X145298841Y-65926709D02*
X145345981Y-65973850D01*
X145345981Y-65973850D02*
X145416692Y-65997420D01*
X145416692Y-65997420D02*
X145463832Y-65997420D01*
X145463832Y-65997420D02*
X145534543Y-65973850D01*
X145534543Y-65973850D02*
X145699535Y-65808858D01*
X144733155Y-66303833D02*
X144968858Y-66068131D01*
X144968858Y-66068131D02*
X145228130Y-66280263D01*
X145228130Y-66280263D02*
X145180990Y-66280263D01*
X145180990Y-66280263D02*
X145110279Y-66303833D01*
X145110279Y-66303833D02*
X144992428Y-66421684D01*
X144992428Y-66421684D02*
X144968858Y-66492395D01*
X144968858Y-66492395D02*
X144968858Y-66539535D01*
X144968858Y-66539535D02*
X144992428Y-66610246D01*
X144992428Y-66610246D02*
X145110279Y-66728097D01*
X145110279Y-66728097D02*
X145180990Y-66751667D01*
X145180990Y-66751667D02*
X145228130Y-66751667D01*
X145228130Y-66751667D02*
X145298841Y-66728097D01*
X145298841Y-66728097D02*
X145416692Y-66610246D01*
X145416692Y-66610246D02*
X145440262Y-66539535D01*
X145440262Y-66539535D02*
X145440262Y-66492395D01*
X145008476Y-39186295D02*
X144551333Y-39186295D01*
X144779905Y-39986295D02*
X144779905Y-39186295D01*
X144360857Y-39186295D02*
X143827523Y-39986295D01*
X143827523Y-39186295D02*
X144360857Y-39986295D01*
X143370380Y-39186295D02*
X143294190Y-39186295D01*
X143294190Y-39186295D02*
X143217999Y-39224390D01*
X143217999Y-39224390D02*
X143179904Y-39262485D01*
X143179904Y-39262485D02*
X143141809Y-39338676D01*
X143141809Y-39338676D02*
X143103714Y-39491057D01*
X143103714Y-39491057D02*
X143103714Y-39681533D01*
X143103714Y-39681533D02*
X143141809Y-39833914D01*
X143141809Y-39833914D02*
X143179904Y-39910104D01*
X143179904Y-39910104D02*
X143217999Y-39948200D01*
X143217999Y-39948200D02*
X143294190Y-39986295D01*
X143294190Y-39986295D02*
X143370380Y-39986295D01*
X143370380Y-39986295D02*
X143446571Y-39948200D01*
X143446571Y-39948200D02*
X143484666Y-39910104D01*
X143484666Y-39910104D02*
X143522761Y-39833914D01*
X143522761Y-39833914D02*
X143560857Y-39681533D01*
X143560857Y-39681533D02*
X143560857Y-39491057D01*
X143560857Y-39491057D02*
X143522761Y-39338676D01*
X143522761Y-39338676D02*
X143484666Y-39262485D01*
X143484666Y-39262485D02*
X143446571Y-39224390D01*
X143446571Y-39224390D02*
X143370380Y-39186295D01*
X145790862Y-60808677D02*
X145602300Y-60997239D01*
X145817799Y-61374363D02*
X146087173Y-61104989D01*
X146087173Y-61104989D02*
X145521488Y-60539303D01*
X145521488Y-60539303D02*
X145252114Y-60808677D01*
X144767240Y-61293551D02*
X144874990Y-61185801D01*
X144874990Y-61185801D02*
X144955802Y-61158864D01*
X144955802Y-61158864D02*
X145009677Y-61158864D01*
X145009677Y-61158864D02*
X145144364Y-61185801D01*
X145144364Y-61185801D02*
X145279051Y-61266613D01*
X145279051Y-61266613D02*
X145494550Y-61482113D01*
X145494550Y-61482113D02*
X145521487Y-61562925D01*
X145521487Y-61562925D02*
X145521487Y-61616800D01*
X145521487Y-61616800D02*
X145494550Y-61697612D01*
X145494550Y-61697612D02*
X145386800Y-61805361D01*
X145386800Y-61805361D02*
X145305988Y-61832299D01*
X145305988Y-61832299D02*
X145252113Y-61832299D01*
X145252113Y-61832299D02*
X145171301Y-61805361D01*
X145171301Y-61805361D02*
X145036614Y-61670674D01*
X145036614Y-61670674D02*
X145009677Y-61589862D01*
X145009677Y-61589862D02*
X145009677Y-61535987D01*
X145009677Y-61535987D02*
X145036614Y-61455175D01*
X145036614Y-61455175D02*
X145144364Y-61347426D01*
X145144364Y-61347426D02*
X145225176Y-61320488D01*
X145225176Y-61320488D02*
X145279051Y-61320488D01*
X145279051Y-61320488D02*
X145359863Y-61347426D01*
X142678075Y-69526495D02*
X142678075Y-68726495D01*
X142678075Y-68726495D02*
X142487599Y-68726495D01*
X142487599Y-68726495D02*
X142373313Y-68764590D01*
X142373313Y-68764590D02*
X142297123Y-68840780D01*
X142297123Y-68840780D02*
X142259028Y-68916971D01*
X142259028Y-68916971D02*
X142220932Y-69069352D01*
X142220932Y-69069352D02*
X142220932Y-69183638D01*
X142220932Y-69183638D02*
X142259028Y-69336019D01*
X142259028Y-69336019D02*
X142297123Y-69412209D01*
X142297123Y-69412209D02*
X142373313Y-69488400D01*
X142373313Y-69488400D02*
X142487599Y-69526495D01*
X142487599Y-69526495D02*
X142678075Y-69526495D01*
X141497123Y-68726495D02*
X141878075Y-68726495D01*
X141878075Y-68726495D02*
X141916171Y-69107447D01*
X141916171Y-69107447D02*
X141878075Y-69069352D01*
X141878075Y-69069352D02*
X141801885Y-69031257D01*
X141801885Y-69031257D02*
X141611409Y-69031257D01*
X141611409Y-69031257D02*
X141535218Y-69069352D01*
X141535218Y-69069352D02*
X141497123Y-69107447D01*
X141497123Y-69107447D02*
X141459028Y-69183638D01*
X141459028Y-69183638D02*
X141459028Y-69374114D01*
X141459028Y-69374114D02*
X141497123Y-69450304D01*
X141497123Y-69450304D02*
X141535218Y-69488400D01*
X141535218Y-69488400D02*
X141611409Y-69526495D01*
X141611409Y-69526495D02*
X141801885Y-69526495D01*
X141801885Y-69526495D02*
X141878075Y-69488400D01*
X141878075Y-69488400D02*
X141916171Y-69450304D01*
X133832809Y-62343247D02*
X133718523Y-62381342D01*
X133718523Y-62381342D02*
X133680428Y-62419438D01*
X133680428Y-62419438D02*
X133642332Y-62495628D01*
X133642332Y-62495628D02*
X133642332Y-62609914D01*
X133642332Y-62609914D02*
X133680428Y-62686104D01*
X133680428Y-62686104D02*
X133718523Y-62724200D01*
X133718523Y-62724200D02*
X133794713Y-62762295D01*
X133794713Y-62762295D02*
X134099475Y-62762295D01*
X134099475Y-62762295D02*
X134099475Y-61962295D01*
X134099475Y-61962295D02*
X133832809Y-61962295D01*
X133832809Y-61962295D02*
X133756618Y-62000390D01*
X133756618Y-62000390D02*
X133718523Y-62038485D01*
X133718523Y-62038485D02*
X133680428Y-62114676D01*
X133680428Y-62114676D02*
X133680428Y-62190866D01*
X133680428Y-62190866D02*
X133718523Y-62267057D01*
X133718523Y-62267057D02*
X133756618Y-62305152D01*
X133756618Y-62305152D02*
X133832809Y-62343247D01*
X133832809Y-62343247D02*
X134099475Y-62343247D01*
X133375666Y-61962295D02*
X132880428Y-61962295D01*
X132880428Y-61962295D02*
X133147094Y-62267057D01*
X133147094Y-62267057D02*
X133032809Y-62267057D01*
X133032809Y-62267057D02*
X132956618Y-62305152D01*
X132956618Y-62305152D02*
X132918523Y-62343247D01*
X132918523Y-62343247D02*
X132880428Y-62419438D01*
X132880428Y-62419438D02*
X132880428Y-62609914D01*
X132880428Y-62609914D02*
X132918523Y-62686104D01*
X132918523Y-62686104D02*
X132956618Y-62724200D01*
X132956618Y-62724200D02*
X133032809Y-62762295D01*
X133032809Y-62762295D02*
X133261380Y-62762295D01*
X133261380Y-62762295D02*
X133337571Y-62724200D01*
X133337571Y-62724200D02*
X133375666Y-62686104D01*
X137242532Y-67748504D02*
X137280628Y-67786600D01*
X137280628Y-67786600D02*
X137394913Y-67824695D01*
X137394913Y-67824695D02*
X137471104Y-67824695D01*
X137471104Y-67824695D02*
X137585390Y-67786600D01*
X137585390Y-67786600D02*
X137661580Y-67710409D01*
X137661580Y-67710409D02*
X137699675Y-67634219D01*
X137699675Y-67634219D02*
X137737771Y-67481838D01*
X137737771Y-67481838D02*
X137737771Y-67367552D01*
X137737771Y-67367552D02*
X137699675Y-67215171D01*
X137699675Y-67215171D02*
X137661580Y-67138980D01*
X137661580Y-67138980D02*
X137585390Y-67062790D01*
X137585390Y-67062790D02*
X137471104Y-67024695D01*
X137471104Y-67024695D02*
X137394913Y-67024695D01*
X137394913Y-67024695D02*
X137280628Y-67062790D01*
X137280628Y-67062790D02*
X137242532Y-67100885D01*
X136975866Y-67024695D02*
X136442532Y-67024695D01*
X136442532Y-67024695D02*
X136785390Y-67824695D01*
X134118523Y-41680390D02*
X134194713Y-41642295D01*
X134194713Y-41642295D02*
X134308999Y-41642295D01*
X134308999Y-41642295D02*
X134423285Y-41680390D01*
X134423285Y-41680390D02*
X134499475Y-41756580D01*
X134499475Y-41756580D02*
X134537570Y-41832771D01*
X134537570Y-41832771D02*
X134575666Y-41985152D01*
X134575666Y-41985152D02*
X134575666Y-42099438D01*
X134575666Y-42099438D02*
X134537570Y-42251819D01*
X134537570Y-42251819D02*
X134499475Y-42328009D01*
X134499475Y-42328009D02*
X134423285Y-42404200D01*
X134423285Y-42404200D02*
X134308999Y-42442295D01*
X134308999Y-42442295D02*
X134232808Y-42442295D01*
X134232808Y-42442295D02*
X134118523Y-42404200D01*
X134118523Y-42404200D02*
X134080427Y-42366104D01*
X134080427Y-42366104D02*
X134080427Y-42099438D01*
X134080427Y-42099438D02*
X134232808Y-42099438D01*
X133737570Y-42442295D02*
X133737570Y-41642295D01*
X133737570Y-41642295D02*
X133280427Y-42442295D01*
X133280427Y-42442295D02*
X133280427Y-41642295D01*
X132899475Y-42442295D02*
X132899475Y-41642295D01*
X132899475Y-41642295D02*
X132708999Y-41642295D01*
X132708999Y-41642295D02*
X132594713Y-41680390D01*
X132594713Y-41680390D02*
X132518523Y-41756580D01*
X132518523Y-41756580D02*
X132480428Y-41832771D01*
X132480428Y-41832771D02*
X132442332Y-41985152D01*
X132442332Y-41985152D02*
X132442332Y-42099438D01*
X132442332Y-42099438D02*
X132480428Y-42251819D01*
X132480428Y-42251819D02*
X132518523Y-42328009D01*
X132518523Y-42328009D02*
X132594713Y-42404200D01*
X132594713Y-42404200D02*
X132708999Y-42442295D01*
X132708999Y-42442295D02*
X132899475Y-42442295D01*
X145021475Y-60222295D02*
X145021475Y-59422295D01*
X145021475Y-59422295D02*
X144830999Y-59422295D01*
X144830999Y-59422295D02*
X144716713Y-59460390D01*
X144716713Y-59460390D02*
X144640523Y-59536580D01*
X144640523Y-59536580D02*
X144602428Y-59612771D01*
X144602428Y-59612771D02*
X144564332Y-59765152D01*
X144564332Y-59765152D02*
X144564332Y-59879438D01*
X144564332Y-59879438D02*
X144602428Y-60031819D01*
X144602428Y-60031819D02*
X144640523Y-60108009D01*
X144640523Y-60108009D02*
X144716713Y-60184200D01*
X144716713Y-60184200D02*
X144830999Y-60222295D01*
X144830999Y-60222295D02*
X145021475Y-60222295D01*
X144297666Y-59422295D02*
X143764332Y-59422295D01*
X143764332Y-59422295D02*
X144107190Y-60222295D01*
X145680037Y-63535702D02*
X145626162Y-63643451D01*
X145626162Y-63643451D02*
X145626162Y-63697326D01*
X145626162Y-63697326D02*
X145653100Y-63778138D01*
X145653100Y-63778138D02*
X145733912Y-63858951D01*
X145733912Y-63858951D02*
X145814724Y-63885888D01*
X145814724Y-63885888D02*
X145868599Y-63885888D01*
X145868599Y-63885888D02*
X145949411Y-63858951D01*
X145949411Y-63858951D02*
X146164910Y-63643451D01*
X146164910Y-63643451D02*
X145599225Y-63077766D01*
X145599225Y-63077766D02*
X145410663Y-63266328D01*
X145410663Y-63266328D02*
X145383726Y-63347140D01*
X145383726Y-63347140D02*
X145383726Y-63401015D01*
X145383726Y-63401015D02*
X145410663Y-63481827D01*
X145410663Y-63481827D02*
X145464538Y-63535702D01*
X145464538Y-63535702D02*
X145545350Y-63562639D01*
X145545350Y-63562639D02*
X145599225Y-63562639D01*
X145599225Y-63562639D02*
X145680037Y-63535702D01*
X145680037Y-63535702D02*
X145868599Y-63347140D01*
X144979665Y-64074450D02*
X145356788Y-64451574D01*
X144898853Y-63724264D02*
X145437601Y-63993638D01*
X145437601Y-63993638D02*
X145087414Y-64343824D01*
X133832809Y-39483247D02*
X133718523Y-39521342D01*
X133718523Y-39521342D02*
X133680428Y-39559438D01*
X133680428Y-39559438D02*
X133642332Y-39635628D01*
X133642332Y-39635628D02*
X133642332Y-39749914D01*
X133642332Y-39749914D02*
X133680428Y-39826104D01*
X133680428Y-39826104D02*
X133718523Y-39864200D01*
X133718523Y-39864200D02*
X133794713Y-39902295D01*
X133794713Y-39902295D02*
X134099475Y-39902295D01*
X134099475Y-39902295D02*
X134099475Y-39102295D01*
X134099475Y-39102295D02*
X133832809Y-39102295D01*
X133832809Y-39102295D02*
X133756618Y-39140390D01*
X133756618Y-39140390D02*
X133718523Y-39178485D01*
X133718523Y-39178485D02*
X133680428Y-39254676D01*
X133680428Y-39254676D02*
X133680428Y-39330866D01*
X133680428Y-39330866D02*
X133718523Y-39407057D01*
X133718523Y-39407057D02*
X133756618Y-39445152D01*
X133756618Y-39445152D02*
X133832809Y-39483247D01*
X133832809Y-39483247D02*
X134099475Y-39483247D01*
X133147094Y-39102295D02*
X133070904Y-39102295D01*
X133070904Y-39102295D02*
X132994713Y-39140390D01*
X132994713Y-39140390D02*
X132956618Y-39178485D01*
X132956618Y-39178485D02*
X132918523Y-39254676D01*
X132918523Y-39254676D02*
X132880428Y-39407057D01*
X132880428Y-39407057D02*
X132880428Y-39597533D01*
X132880428Y-39597533D02*
X132918523Y-39749914D01*
X132918523Y-39749914D02*
X132956618Y-39826104D01*
X132956618Y-39826104D02*
X132994713Y-39864200D01*
X132994713Y-39864200D02*
X133070904Y-39902295D01*
X133070904Y-39902295D02*
X133147094Y-39902295D01*
X133147094Y-39902295D02*
X133223285Y-39864200D01*
X133223285Y-39864200D02*
X133261380Y-39826104D01*
X133261380Y-39826104D02*
X133299475Y-39749914D01*
X133299475Y-39749914D02*
X133337571Y-39597533D01*
X133337571Y-39597533D02*
X133337571Y-39407057D01*
X133337571Y-39407057D02*
X133299475Y-39254676D01*
X133299475Y-39254676D02*
X133261380Y-39178485D01*
X133261380Y-39178485D02*
X133223285Y-39140390D01*
X133223285Y-39140390D02*
X133147094Y-39102295D01*
X133770213Y-44914200D02*
X133655927Y-44952295D01*
X133655927Y-44952295D02*
X133465451Y-44952295D01*
X133465451Y-44952295D02*
X133389260Y-44914200D01*
X133389260Y-44914200D02*
X133351165Y-44876104D01*
X133351165Y-44876104D02*
X133313070Y-44799914D01*
X133313070Y-44799914D02*
X133313070Y-44723723D01*
X133313070Y-44723723D02*
X133351165Y-44647533D01*
X133351165Y-44647533D02*
X133389260Y-44609438D01*
X133389260Y-44609438D02*
X133465451Y-44571342D01*
X133465451Y-44571342D02*
X133617832Y-44533247D01*
X133617832Y-44533247D02*
X133694022Y-44495152D01*
X133694022Y-44495152D02*
X133732117Y-44457057D01*
X133732117Y-44457057D02*
X133770213Y-44380866D01*
X133770213Y-44380866D02*
X133770213Y-44304676D01*
X133770213Y-44304676D02*
X133732117Y-44228485D01*
X133732117Y-44228485D02*
X133694022Y-44190390D01*
X133694022Y-44190390D02*
X133617832Y-44152295D01*
X133617832Y-44152295D02*
X133427355Y-44152295D01*
X133427355Y-44152295D02*
X133313070Y-44190390D01*
X133084498Y-44152295D02*
X132627355Y-44152295D01*
X132855927Y-44952295D02*
X132855927Y-44152295D01*
X134575666Y-46722295D02*
X134308999Y-47522295D01*
X134308999Y-47522295D02*
X134042333Y-46722295D01*
X133318523Y-47446104D02*
X133356619Y-47484200D01*
X133356619Y-47484200D02*
X133470904Y-47522295D01*
X133470904Y-47522295D02*
X133547095Y-47522295D01*
X133547095Y-47522295D02*
X133661381Y-47484200D01*
X133661381Y-47484200D02*
X133737571Y-47408009D01*
X133737571Y-47408009D02*
X133775666Y-47331819D01*
X133775666Y-47331819D02*
X133813762Y-47179438D01*
X133813762Y-47179438D02*
X133813762Y-47065152D01*
X133813762Y-47065152D02*
X133775666Y-46912771D01*
X133775666Y-46912771D02*
X133737571Y-46836580D01*
X133737571Y-46836580D02*
X133661381Y-46760390D01*
X133661381Y-46760390D02*
X133547095Y-46722295D01*
X133547095Y-46722295D02*
X133470904Y-46722295D01*
X133470904Y-46722295D02*
X133356619Y-46760390D01*
X133356619Y-46760390D02*
X133318523Y-46798485D01*
X132518523Y-47446104D02*
X132556619Y-47484200D01*
X132556619Y-47484200D02*
X132670904Y-47522295D01*
X132670904Y-47522295D02*
X132747095Y-47522295D01*
X132747095Y-47522295D02*
X132861381Y-47484200D01*
X132861381Y-47484200D02*
X132937571Y-47408009D01*
X132937571Y-47408009D02*
X132975666Y-47331819D01*
X132975666Y-47331819D02*
X133013762Y-47179438D01*
X133013762Y-47179438D02*
X133013762Y-47065152D01*
X133013762Y-47065152D02*
X132975666Y-46912771D01*
X132975666Y-46912771D02*
X132937571Y-46836580D01*
X132937571Y-46836580D02*
X132861381Y-46760390D01*
X132861381Y-46760390D02*
X132747095Y-46722295D01*
X132747095Y-46722295D02*
X132670904Y-46722295D01*
X132670904Y-46722295D02*
X132556619Y-46760390D01*
X132556619Y-46760390D02*
X132518523Y-46798485D01*
X144564332Y-57606104D02*
X144602428Y-57644200D01*
X144602428Y-57644200D02*
X144716713Y-57682295D01*
X144716713Y-57682295D02*
X144792904Y-57682295D01*
X144792904Y-57682295D02*
X144907190Y-57644200D01*
X144907190Y-57644200D02*
X144983380Y-57568009D01*
X144983380Y-57568009D02*
X145021475Y-57491819D01*
X145021475Y-57491819D02*
X145059571Y-57339438D01*
X145059571Y-57339438D02*
X145059571Y-57225152D01*
X145059571Y-57225152D02*
X145021475Y-57072771D01*
X145021475Y-57072771D02*
X144983380Y-56996580D01*
X144983380Y-56996580D02*
X144907190Y-56920390D01*
X144907190Y-56920390D02*
X144792904Y-56882295D01*
X144792904Y-56882295D02*
X144716713Y-56882295D01*
X144716713Y-56882295D02*
X144602428Y-56920390D01*
X144602428Y-56920390D02*
X144564332Y-56958485D01*
X143878618Y-56882295D02*
X144030999Y-56882295D01*
X144030999Y-56882295D02*
X144107190Y-56920390D01*
X144107190Y-56920390D02*
X144145285Y-56958485D01*
X144145285Y-56958485D02*
X144221475Y-57072771D01*
X144221475Y-57072771D02*
X144259571Y-57225152D01*
X144259571Y-57225152D02*
X144259571Y-57529914D01*
X144259571Y-57529914D02*
X144221475Y-57606104D01*
X144221475Y-57606104D02*
X144183380Y-57644200D01*
X144183380Y-57644200D02*
X144107190Y-57682295D01*
X144107190Y-57682295D02*
X143954809Y-57682295D01*
X143954809Y-57682295D02*
X143878618Y-57644200D01*
X143878618Y-57644200D02*
X143840523Y-57606104D01*
X143840523Y-57606104D02*
X143802428Y-57529914D01*
X143802428Y-57529914D02*
X143802428Y-57339438D01*
X143802428Y-57339438D02*
X143840523Y-57263247D01*
X143840523Y-57263247D02*
X143878618Y-57225152D01*
X143878618Y-57225152D02*
X143954809Y-57187057D01*
X143954809Y-57187057D02*
X144107190Y-57187057D01*
X144107190Y-57187057D02*
X144183380Y-57225152D01*
X144183380Y-57225152D02*
X144221475Y-57263247D01*
X144221475Y-57263247D02*
X144259571Y-57339438D01*
X145040523Y-44220390D02*
X145116713Y-44182295D01*
X145116713Y-44182295D02*
X145230999Y-44182295D01*
X145230999Y-44182295D02*
X145345285Y-44220390D01*
X145345285Y-44220390D02*
X145421475Y-44296580D01*
X145421475Y-44296580D02*
X145459570Y-44372771D01*
X145459570Y-44372771D02*
X145497666Y-44525152D01*
X145497666Y-44525152D02*
X145497666Y-44639438D01*
X145497666Y-44639438D02*
X145459570Y-44791819D01*
X145459570Y-44791819D02*
X145421475Y-44868009D01*
X145421475Y-44868009D02*
X145345285Y-44944200D01*
X145345285Y-44944200D02*
X145230999Y-44982295D01*
X145230999Y-44982295D02*
X145154808Y-44982295D01*
X145154808Y-44982295D02*
X145040523Y-44944200D01*
X145040523Y-44944200D02*
X145002427Y-44906104D01*
X145002427Y-44906104D02*
X145002427Y-44639438D01*
X145002427Y-44639438D02*
X145154808Y-44639438D01*
X144659570Y-44982295D02*
X144659570Y-44182295D01*
X144659570Y-44182295D02*
X144202427Y-44982295D01*
X144202427Y-44982295D02*
X144202427Y-44182295D01*
X143821475Y-44982295D02*
X143821475Y-44182295D01*
X143821475Y-44182295D02*
X143630999Y-44182295D01*
X143630999Y-44182295D02*
X143516713Y-44220390D01*
X143516713Y-44220390D02*
X143440523Y-44296580D01*
X143440523Y-44296580D02*
X143402428Y-44372771D01*
X143402428Y-44372771D02*
X143364332Y-44525152D01*
X143364332Y-44525152D02*
X143364332Y-44639438D01*
X143364332Y-44639438D02*
X143402428Y-44791819D01*
X143402428Y-44791819D02*
X143440523Y-44868009D01*
X143440523Y-44868009D02*
X143516713Y-44944200D01*
X143516713Y-44944200D02*
X143630999Y-44982295D01*
X143630999Y-44982295D02*
X143821475Y-44982295D01*
X132806149Y-66374543D02*
X132711868Y-66327403D01*
X132711868Y-66327403D02*
X132664728Y-66327403D01*
X132664728Y-66327403D02*
X132594017Y-66350973D01*
X132594017Y-66350973D02*
X132523307Y-66421683D01*
X132523307Y-66421683D02*
X132499736Y-66492394D01*
X132499736Y-66492394D02*
X132499736Y-66539535D01*
X132499736Y-66539535D02*
X132523307Y-66610245D01*
X132523307Y-66610245D02*
X132711868Y-66798807D01*
X132711868Y-66798807D02*
X133206843Y-66303832D01*
X133206843Y-66303832D02*
X133041852Y-66138841D01*
X133041852Y-66138841D02*
X132971141Y-66115271D01*
X132971141Y-66115271D02*
X132924000Y-66115271D01*
X132924000Y-66115271D02*
X132853290Y-66138841D01*
X132853290Y-66138841D02*
X132806149Y-66185981D01*
X132806149Y-66185981D02*
X132782579Y-66256692D01*
X132782579Y-66256692D02*
X132782579Y-66303832D01*
X132782579Y-66303832D02*
X132806149Y-66374543D01*
X132806149Y-66374543D02*
X132971141Y-66539535D01*
X132499736Y-65596726D02*
X132594017Y-65691006D01*
X132594017Y-65691006D02*
X132617588Y-65761717D01*
X132617588Y-65761717D02*
X132617588Y-65808858D01*
X132617588Y-65808858D02*
X132594017Y-65926709D01*
X132594017Y-65926709D02*
X132523307Y-66044560D01*
X132523307Y-66044560D02*
X132334745Y-66233122D01*
X132334745Y-66233122D02*
X132264034Y-66256692D01*
X132264034Y-66256692D02*
X132216894Y-66256692D01*
X132216894Y-66256692D02*
X132146183Y-66233122D01*
X132146183Y-66233122D02*
X132051902Y-66138841D01*
X132051902Y-66138841D02*
X132028332Y-66068130D01*
X132028332Y-66068130D02*
X132028332Y-66020990D01*
X132028332Y-66020990D02*
X132051902Y-65950279D01*
X132051902Y-65950279D02*
X132169753Y-65832428D01*
X132169753Y-65832428D02*
X132240464Y-65808858D01*
X132240464Y-65808858D02*
X132287604Y-65808858D01*
X132287604Y-65808858D02*
X132358315Y-65832428D01*
X132358315Y-65832428D02*
X132452596Y-65926709D01*
X132452596Y-65926709D02*
X132476166Y-65997419D01*
X132476166Y-65997419D02*
X132476166Y-66044560D01*
X132476166Y-66044560D02*
X132452596Y-66115271D01*
X133775666Y-57263247D02*
X134042332Y-57263247D01*
X134042332Y-57682295D02*
X134042332Y-56882295D01*
X134042332Y-56882295D02*
X133661380Y-56882295D01*
X133432809Y-56882295D02*
X132899475Y-56882295D01*
X132899475Y-56882295D02*
X133242333Y-57682295D01*
X144359333Y-69037366D02*
X144259333Y-69070700D01*
X144259333Y-69070700D02*
X144225999Y-69104033D01*
X144225999Y-69104033D02*
X144192666Y-69170700D01*
X144192666Y-69170700D02*
X144192666Y-69270700D01*
X144192666Y-69270700D02*
X144225999Y-69337366D01*
X144225999Y-69337366D02*
X144259333Y-69370700D01*
X144259333Y-69370700D02*
X144325999Y-69404033D01*
X144325999Y-69404033D02*
X144592666Y-69404033D01*
X144592666Y-69404033D02*
X144592666Y-68704033D01*
X144592666Y-68704033D02*
X144359333Y-68704033D01*
X144359333Y-68704033D02*
X144292666Y-68737366D01*
X144292666Y-68737366D02*
X144259333Y-68770700D01*
X144259333Y-68770700D02*
X144225999Y-68837366D01*
X144225999Y-68837366D02*
X144225999Y-68904033D01*
X144225999Y-68904033D02*
X144259333Y-68970700D01*
X144259333Y-68970700D02*
X144292666Y-69004033D01*
X144292666Y-69004033D02*
X144359333Y-69037366D01*
X144359333Y-69037366D02*
X144592666Y-69037366D01*
X143959333Y-68704033D02*
X143492666Y-68704033D01*
X143492666Y-68704033D02*
X143792666Y-69404033D01*
X145021475Y-52602295D02*
X145021475Y-51802295D01*
X145021475Y-51802295D02*
X144830999Y-51802295D01*
X144830999Y-51802295D02*
X144716713Y-51840390D01*
X144716713Y-51840390D02*
X144640523Y-51916580D01*
X144640523Y-51916580D02*
X144602428Y-51992771D01*
X144602428Y-51992771D02*
X144564332Y-52145152D01*
X144564332Y-52145152D02*
X144564332Y-52259438D01*
X144564332Y-52259438D02*
X144602428Y-52411819D01*
X144602428Y-52411819D02*
X144640523Y-52488009D01*
X144640523Y-52488009D02*
X144716713Y-52564200D01*
X144716713Y-52564200D02*
X144830999Y-52602295D01*
X144830999Y-52602295D02*
X145021475Y-52602295D01*
X144069094Y-51802295D02*
X143992904Y-51802295D01*
X143992904Y-51802295D02*
X143916713Y-51840390D01*
X143916713Y-51840390D02*
X143878618Y-51878485D01*
X143878618Y-51878485D02*
X143840523Y-51954676D01*
X143840523Y-51954676D02*
X143802428Y-52107057D01*
X143802428Y-52107057D02*
X143802428Y-52297533D01*
X143802428Y-52297533D02*
X143840523Y-52449914D01*
X143840523Y-52449914D02*
X143878618Y-52526104D01*
X143878618Y-52526104D02*
X143916713Y-52564200D01*
X143916713Y-52564200D02*
X143992904Y-52602295D01*
X143992904Y-52602295D02*
X144069094Y-52602295D01*
X144069094Y-52602295D02*
X144145285Y-52564200D01*
X144145285Y-52564200D02*
X144183380Y-52526104D01*
X144183380Y-52526104D02*
X144221475Y-52449914D01*
X144221475Y-52449914D02*
X144259571Y-52297533D01*
X144259571Y-52297533D02*
X144259571Y-52107057D01*
X144259571Y-52107057D02*
X144221475Y-51954676D01*
X144221475Y-51954676D02*
X144183380Y-51878485D01*
X144183380Y-51878485D02*
X144145285Y-51840390D01*
X144145285Y-51840390D02*
X144069094Y-51802295D01*
X133832809Y-59803247D02*
X133718523Y-59841342D01*
X133718523Y-59841342D02*
X133680428Y-59879438D01*
X133680428Y-59879438D02*
X133642332Y-59955628D01*
X133642332Y-59955628D02*
X133642332Y-60069914D01*
X133642332Y-60069914D02*
X133680428Y-60146104D01*
X133680428Y-60146104D02*
X133718523Y-60184200D01*
X133718523Y-60184200D02*
X133794713Y-60222295D01*
X133794713Y-60222295D02*
X134099475Y-60222295D01*
X134099475Y-60222295D02*
X134099475Y-59422295D01*
X134099475Y-59422295D02*
X133832809Y-59422295D01*
X133832809Y-59422295D02*
X133756618Y-59460390D01*
X133756618Y-59460390D02*
X133718523Y-59498485D01*
X133718523Y-59498485D02*
X133680428Y-59574676D01*
X133680428Y-59574676D02*
X133680428Y-59650866D01*
X133680428Y-59650866D02*
X133718523Y-59727057D01*
X133718523Y-59727057D02*
X133756618Y-59765152D01*
X133756618Y-59765152D02*
X133832809Y-59803247D01*
X133832809Y-59803247D02*
X134099475Y-59803247D01*
X132880428Y-60222295D02*
X133337571Y-60222295D01*
X133108999Y-60222295D02*
X133108999Y-59422295D01*
X133108999Y-59422295D02*
X133185190Y-59536580D01*
X133185190Y-59536580D02*
X133261380Y-59612771D01*
X133261380Y-59612771D02*
X133337571Y-59650866D01*
X133775666Y-49643247D02*
X134042332Y-49643247D01*
X134042332Y-50062295D02*
X134042332Y-49262295D01*
X134042332Y-49262295D02*
X133661380Y-49262295D01*
X133013761Y-49528961D02*
X133013761Y-50062295D01*
X133204237Y-49224200D02*
X133394714Y-49795628D01*
X133394714Y-49795628D02*
X132899475Y-49795628D01*
X133775666Y-54723247D02*
X134042332Y-54723247D01*
X134042332Y-55142295D02*
X134042332Y-54342295D01*
X134042332Y-54342295D02*
X133661380Y-54342295D01*
X133013761Y-54342295D02*
X133166142Y-54342295D01*
X133166142Y-54342295D02*
X133242333Y-54380390D01*
X133242333Y-54380390D02*
X133280428Y-54418485D01*
X133280428Y-54418485D02*
X133356618Y-54532771D01*
X133356618Y-54532771D02*
X133394714Y-54685152D01*
X133394714Y-54685152D02*
X133394714Y-54989914D01*
X133394714Y-54989914D02*
X133356618Y-55066104D01*
X133356618Y-55066104D02*
X133318523Y-55104200D01*
X133318523Y-55104200D02*
X133242333Y-55142295D01*
X133242333Y-55142295D02*
X133089952Y-55142295D01*
X133089952Y-55142295D02*
X133013761Y-55104200D01*
X133013761Y-55104200D02*
X132975666Y-55066104D01*
X132975666Y-55066104D02*
X132937571Y-54989914D01*
X132937571Y-54989914D02*
X132937571Y-54799438D01*
X132937571Y-54799438D02*
X132975666Y-54723247D01*
X132975666Y-54723247D02*
X133013761Y-54685152D01*
X133013761Y-54685152D02*
X133089952Y-54647057D01*
X133089952Y-54647057D02*
X133242333Y-54647057D01*
X133242333Y-54647057D02*
X133318523Y-54685152D01*
X133318523Y-54685152D02*
X133356618Y-54723247D01*
X133356618Y-54723247D02*
X133394714Y-54799438D01*
X173191475Y-50039045D02*
X173191475Y-49239045D01*
X173191475Y-49239045D02*
X173000999Y-49239045D01*
X173000999Y-49239045D02*
X172886713Y-49277140D01*
X172886713Y-49277140D02*
X172810523Y-49353330D01*
X172810523Y-49353330D02*
X172772428Y-49429521D01*
X172772428Y-49429521D02*
X172734332Y-49581902D01*
X172734332Y-49581902D02*
X172734332Y-49696188D01*
X172734332Y-49696188D02*
X172772428Y-49848569D01*
X172772428Y-49848569D02*
X172810523Y-49924759D01*
X172810523Y-49924759D02*
X172886713Y-50000950D01*
X172886713Y-50000950D02*
X173000999Y-50039045D01*
X173000999Y-50039045D02*
X173191475Y-50039045D01*
X171972428Y-50039045D02*
X172429571Y-50039045D01*
X172200999Y-50039045D02*
X172200999Y-49239045D01*
X172200999Y-49239045D02*
X172277190Y-49353330D01*
X172277190Y-49353330D02*
X172353380Y-49429521D01*
X172353380Y-49429521D02*
X172429571Y-49467616D01*
X161945666Y-57239997D02*
X162212332Y-57239997D01*
X162212332Y-57659045D02*
X162212332Y-56859045D01*
X162212332Y-56859045D02*
X161831380Y-56859045D01*
X161602809Y-56859045D02*
X161069475Y-56859045D01*
X161069475Y-56859045D02*
X161412333Y-57659045D01*
X162002809Y-64859997D02*
X161888523Y-64898092D01*
X161888523Y-64898092D02*
X161850428Y-64936188D01*
X161850428Y-64936188D02*
X161812332Y-65012378D01*
X161812332Y-65012378D02*
X161812332Y-65126664D01*
X161812332Y-65126664D02*
X161850428Y-65202854D01*
X161850428Y-65202854D02*
X161888523Y-65240950D01*
X161888523Y-65240950D02*
X161964713Y-65279045D01*
X161964713Y-65279045D02*
X162269475Y-65279045D01*
X162269475Y-65279045D02*
X162269475Y-64479045D01*
X162269475Y-64479045D02*
X162002809Y-64479045D01*
X162002809Y-64479045D02*
X161926618Y-64517140D01*
X161926618Y-64517140D02*
X161888523Y-64555235D01*
X161888523Y-64555235D02*
X161850428Y-64631426D01*
X161850428Y-64631426D02*
X161850428Y-64707616D01*
X161850428Y-64707616D02*
X161888523Y-64783807D01*
X161888523Y-64783807D02*
X161926618Y-64821902D01*
X161926618Y-64821902D02*
X162002809Y-64859997D01*
X162002809Y-64859997D02*
X162269475Y-64859997D01*
X161507571Y-64555235D02*
X161469475Y-64517140D01*
X161469475Y-64517140D02*
X161393285Y-64479045D01*
X161393285Y-64479045D02*
X161202809Y-64479045D01*
X161202809Y-64479045D02*
X161126618Y-64517140D01*
X161126618Y-64517140D02*
X161088523Y-64555235D01*
X161088523Y-64555235D02*
X161050428Y-64631426D01*
X161050428Y-64631426D02*
X161050428Y-64707616D01*
X161050428Y-64707616D02*
X161088523Y-64821902D01*
X161088523Y-64821902D02*
X161545666Y-65279045D01*
X161545666Y-65279045D02*
X161050428Y-65279045D01*
X173191475Y-42419045D02*
X173191475Y-41619045D01*
X173191475Y-41619045D02*
X173000999Y-41619045D01*
X173000999Y-41619045D02*
X172886713Y-41657140D01*
X172886713Y-41657140D02*
X172810523Y-41733330D01*
X172810523Y-41733330D02*
X172772428Y-41809521D01*
X172772428Y-41809521D02*
X172734332Y-41961902D01*
X172734332Y-41961902D02*
X172734332Y-42076188D01*
X172734332Y-42076188D02*
X172772428Y-42228569D01*
X172772428Y-42228569D02*
X172810523Y-42304759D01*
X172810523Y-42304759D02*
X172886713Y-42380950D01*
X172886713Y-42380950D02*
X173000999Y-42419045D01*
X173000999Y-42419045D02*
X173191475Y-42419045D01*
X172429571Y-41695235D02*
X172391475Y-41657140D01*
X172391475Y-41657140D02*
X172315285Y-41619045D01*
X172315285Y-41619045D02*
X172124809Y-41619045D01*
X172124809Y-41619045D02*
X172048618Y-41657140D01*
X172048618Y-41657140D02*
X172010523Y-41695235D01*
X172010523Y-41695235D02*
X171972428Y-41771426D01*
X171972428Y-41771426D02*
X171972428Y-41847616D01*
X171972428Y-41847616D02*
X172010523Y-41961902D01*
X172010523Y-41961902D02*
X172467666Y-42419045D01*
X172467666Y-42419045D02*
X171972428Y-42419045D01*
X174010262Y-60808677D02*
X173821700Y-60997239D01*
X174037199Y-61374363D02*
X174306573Y-61104989D01*
X174306573Y-61104989D02*
X173740888Y-60539303D01*
X173740888Y-60539303D02*
X173471514Y-60808677D01*
X172986640Y-61293551D02*
X173094390Y-61185801D01*
X173094390Y-61185801D02*
X173175202Y-61158864D01*
X173175202Y-61158864D02*
X173229077Y-61158864D01*
X173229077Y-61158864D02*
X173363764Y-61185801D01*
X173363764Y-61185801D02*
X173498451Y-61266613D01*
X173498451Y-61266613D02*
X173713950Y-61482113D01*
X173713950Y-61482113D02*
X173740887Y-61562925D01*
X173740887Y-61562925D02*
X173740887Y-61616800D01*
X173740887Y-61616800D02*
X173713950Y-61697612D01*
X173713950Y-61697612D02*
X173606200Y-61805361D01*
X173606200Y-61805361D02*
X173525388Y-61832299D01*
X173525388Y-61832299D02*
X173471513Y-61832299D01*
X173471513Y-61832299D02*
X173390701Y-61805361D01*
X173390701Y-61805361D02*
X173256014Y-61670674D01*
X173256014Y-61670674D02*
X173229077Y-61589862D01*
X173229077Y-61589862D02*
X173229077Y-61535987D01*
X173229077Y-61535987D02*
X173256014Y-61455175D01*
X173256014Y-61455175D02*
X173363764Y-61347426D01*
X173363764Y-61347426D02*
X173444576Y-61320488D01*
X173444576Y-61320488D02*
X173498451Y-61320488D01*
X173498451Y-61320488D02*
X173579263Y-61347426D01*
X161945666Y-52159997D02*
X162212332Y-52159997D01*
X162212332Y-52579045D02*
X162212332Y-51779045D01*
X162212332Y-51779045D02*
X161831380Y-51779045D01*
X161145666Y-51779045D02*
X161526618Y-51779045D01*
X161526618Y-51779045D02*
X161564714Y-52159997D01*
X161564714Y-52159997D02*
X161526618Y-52121902D01*
X161526618Y-52121902D02*
X161450428Y-52083807D01*
X161450428Y-52083807D02*
X161259952Y-52083807D01*
X161259952Y-52083807D02*
X161183761Y-52121902D01*
X161183761Y-52121902D02*
X161145666Y-52159997D01*
X161145666Y-52159997D02*
X161107571Y-52236188D01*
X161107571Y-52236188D02*
X161107571Y-52426664D01*
X161107571Y-52426664D02*
X161145666Y-52502854D01*
X161145666Y-52502854D02*
X161183761Y-52540950D01*
X161183761Y-52540950D02*
X161259952Y-52579045D01*
X161259952Y-52579045D02*
X161450428Y-52579045D01*
X161450428Y-52579045D02*
X161526618Y-52540950D01*
X161526618Y-52540950D02*
X161564714Y-52502854D01*
X161945666Y-49619997D02*
X162212332Y-49619997D01*
X162212332Y-50039045D02*
X162212332Y-49239045D01*
X162212332Y-49239045D02*
X161831380Y-49239045D01*
X161183761Y-49505711D02*
X161183761Y-50039045D01*
X161374237Y-49200950D02*
X161564714Y-49772378D01*
X161564714Y-49772378D02*
X161069475Y-49772378D01*
X173210523Y-46737140D02*
X173286713Y-46699045D01*
X173286713Y-46699045D02*
X173400999Y-46699045D01*
X173400999Y-46699045D02*
X173515285Y-46737140D01*
X173515285Y-46737140D02*
X173591475Y-46813330D01*
X173591475Y-46813330D02*
X173629570Y-46889521D01*
X173629570Y-46889521D02*
X173667666Y-47041902D01*
X173667666Y-47041902D02*
X173667666Y-47156188D01*
X173667666Y-47156188D02*
X173629570Y-47308569D01*
X173629570Y-47308569D02*
X173591475Y-47384759D01*
X173591475Y-47384759D02*
X173515285Y-47460950D01*
X173515285Y-47460950D02*
X173400999Y-47499045D01*
X173400999Y-47499045D02*
X173324808Y-47499045D01*
X173324808Y-47499045D02*
X173210523Y-47460950D01*
X173210523Y-47460950D02*
X173172427Y-47422854D01*
X173172427Y-47422854D02*
X173172427Y-47156188D01*
X173172427Y-47156188D02*
X173324808Y-47156188D01*
X172829570Y-47499045D02*
X172829570Y-46699045D01*
X172829570Y-46699045D02*
X172372427Y-47499045D01*
X172372427Y-47499045D02*
X172372427Y-46699045D01*
X171991475Y-47499045D02*
X171991475Y-46699045D01*
X171991475Y-46699045D02*
X171800999Y-46699045D01*
X171800999Y-46699045D02*
X171686713Y-46737140D01*
X171686713Y-46737140D02*
X171610523Y-46813330D01*
X171610523Y-46813330D02*
X171572428Y-46889521D01*
X171572428Y-46889521D02*
X171534332Y-47041902D01*
X171534332Y-47041902D02*
X171534332Y-47156188D01*
X171534332Y-47156188D02*
X171572428Y-47308569D01*
X171572428Y-47308569D02*
X171610523Y-47384759D01*
X171610523Y-47384759D02*
X171686713Y-47460950D01*
X171686713Y-47460950D02*
X171800999Y-47499045D01*
X171800999Y-47499045D02*
X171991475Y-47499045D01*
X173191475Y-52579045D02*
X173191475Y-51779045D01*
X173191475Y-51779045D02*
X173000999Y-51779045D01*
X173000999Y-51779045D02*
X172886713Y-51817140D01*
X172886713Y-51817140D02*
X172810523Y-51893330D01*
X172810523Y-51893330D02*
X172772428Y-51969521D01*
X172772428Y-51969521D02*
X172734332Y-52121902D01*
X172734332Y-52121902D02*
X172734332Y-52236188D01*
X172734332Y-52236188D02*
X172772428Y-52388569D01*
X172772428Y-52388569D02*
X172810523Y-52464759D01*
X172810523Y-52464759D02*
X172886713Y-52540950D01*
X172886713Y-52540950D02*
X173000999Y-52579045D01*
X173000999Y-52579045D02*
X173191475Y-52579045D01*
X172239094Y-51779045D02*
X172162904Y-51779045D01*
X172162904Y-51779045D02*
X172086713Y-51817140D01*
X172086713Y-51817140D02*
X172048618Y-51855235D01*
X172048618Y-51855235D02*
X172010523Y-51931426D01*
X172010523Y-51931426D02*
X171972428Y-52083807D01*
X171972428Y-52083807D02*
X171972428Y-52274283D01*
X171972428Y-52274283D02*
X172010523Y-52426664D01*
X172010523Y-52426664D02*
X172048618Y-52502854D01*
X172048618Y-52502854D02*
X172086713Y-52540950D01*
X172086713Y-52540950D02*
X172162904Y-52579045D01*
X172162904Y-52579045D02*
X172239094Y-52579045D01*
X172239094Y-52579045D02*
X172315285Y-52540950D01*
X172315285Y-52540950D02*
X172353380Y-52502854D01*
X172353380Y-52502854D02*
X172391475Y-52426664D01*
X172391475Y-52426664D02*
X172429571Y-52274283D01*
X172429571Y-52274283D02*
X172429571Y-52083807D01*
X172429571Y-52083807D02*
X172391475Y-51931426D01*
X172391475Y-51931426D02*
X172353380Y-51855235D01*
X172353380Y-51855235D02*
X172315285Y-51817140D01*
X172315285Y-51817140D02*
X172239094Y-51779045D01*
X162002809Y-39459997D02*
X161888523Y-39498092D01*
X161888523Y-39498092D02*
X161850428Y-39536188D01*
X161850428Y-39536188D02*
X161812332Y-39612378D01*
X161812332Y-39612378D02*
X161812332Y-39726664D01*
X161812332Y-39726664D02*
X161850428Y-39802854D01*
X161850428Y-39802854D02*
X161888523Y-39840950D01*
X161888523Y-39840950D02*
X161964713Y-39879045D01*
X161964713Y-39879045D02*
X162269475Y-39879045D01*
X162269475Y-39879045D02*
X162269475Y-39079045D01*
X162269475Y-39079045D02*
X162002809Y-39079045D01*
X162002809Y-39079045D02*
X161926618Y-39117140D01*
X161926618Y-39117140D02*
X161888523Y-39155235D01*
X161888523Y-39155235D02*
X161850428Y-39231426D01*
X161850428Y-39231426D02*
X161850428Y-39307616D01*
X161850428Y-39307616D02*
X161888523Y-39383807D01*
X161888523Y-39383807D02*
X161926618Y-39421902D01*
X161926618Y-39421902D02*
X162002809Y-39459997D01*
X162002809Y-39459997D02*
X162269475Y-39459997D01*
X161317094Y-39079045D02*
X161240904Y-39079045D01*
X161240904Y-39079045D02*
X161164713Y-39117140D01*
X161164713Y-39117140D02*
X161126618Y-39155235D01*
X161126618Y-39155235D02*
X161088523Y-39231426D01*
X161088523Y-39231426D02*
X161050428Y-39383807D01*
X161050428Y-39383807D02*
X161050428Y-39574283D01*
X161050428Y-39574283D02*
X161088523Y-39726664D01*
X161088523Y-39726664D02*
X161126618Y-39802854D01*
X161126618Y-39802854D02*
X161164713Y-39840950D01*
X161164713Y-39840950D02*
X161240904Y-39879045D01*
X161240904Y-39879045D02*
X161317094Y-39879045D01*
X161317094Y-39879045D02*
X161393285Y-39840950D01*
X161393285Y-39840950D02*
X161431380Y-39802854D01*
X161431380Y-39802854D02*
X161469475Y-39726664D01*
X161469475Y-39726664D02*
X161507571Y-39574283D01*
X161507571Y-39574283D02*
X161507571Y-39383807D01*
X161507571Y-39383807D02*
X161469475Y-39231426D01*
X161469475Y-39231426D02*
X161431380Y-39155235D01*
X161431380Y-39155235D02*
X161393285Y-39117140D01*
X161393285Y-39117140D02*
X161317094Y-39079045D01*
X160976149Y-66351293D02*
X160881868Y-66304153D01*
X160881868Y-66304153D02*
X160834728Y-66304153D01*
X160834728Y-66304153D02*
X160764017Y-66327723D01*
X160764017Y-66327723D02*
X160693307Y-66398433D01*
X160693307Y-66398433D02*
X160669736Y-66469144D01*
X160669736Y-66469144D02*
X160669736Y-66516285D01*
X160669736Y-66516285D02*
X160693307Y-66586995D01*
X160693307Y-66586995D02*
X160881868Y-66775557D01*
X160881868Y-66775557D02*
X161376843Y-66280582D01*
X161376843Y-66280582D02*
X161211852Y-66115591D01*
X161211852Y-66115591D02*
X161141141Y-66092021D01*
X161141141Y-66092021D02*
X161094000Y-66092021D01*
X161094000Y-66092021D02*
X161023290Y-66115591D01*
X161023290Y-66115591D02*
X160976149Y-66162731D01*
X160976149Y-66162731D02*
X160952579Y-66233442D01*
X160952579Y-66233442D02*
X160952579Y-66280582D01*
X160952579Y-66280582D02*
X160976149Y-66351293D01*
X160976149Y-66351293D02*
X161141141Y-66516285D01*
X160669736Y-65573476D02*
X160764017Y-65667756D01*
X160764017Y-65667756D02*
X160787588Y-65738467D01*
X160787588Y-65738467D02*
X160787588Y-65785608D01*
X160787588Y-65785608D02*
X160764017Y-65903459D01*
X160764017Y-65903459D02*
X160693307Y-66021310D01*
X160693307Y-66021310D02*
X160504745Y-66209872D01*
X160504745Y-66209872D02*
X160434034Y-66233442D01*
X160434034Y-66233442D02*
X160386894Y-66233442D01*
X160386894Y-66233442D02*
X160316183Y-66209872D01*
X160316183Y-66209872D02*
X160221902Y-66115591D01*
X160221902Y-66115591D02*
X160198332Y-66044880D01*
X160198332Y-66044880D02*
X160198332Y-65997740D01*
X160198332Y-65997740D02*
X160221902Y-65927029D01*
X160221902Y-65927029D02*
X160339753Y-65809178D01*
X160339753Y-65809178D02*
X160410464Y-65785608D01*
X160410464Y-65785608D02*
X160457604Y-65785608D01*
X160457604Y-65785608D02*
X160528315Y-65809178D01*
X160528315Y-65809178D02*
X160622596Y-65903459D01*
X160622596Y-65903459D02*
X160646166Y-65974169D01*
X160646166Y-65974169D02*
X160646166Y-66021310D01*
X160646166Y-66021310D02*
X160622596Y-66092021D01*
X173210523Y-44197140D02*
X173286713Y-44159045D01*
X173286713Y-44159045D02*
X173400999Y-44159045D01*
X173400999Y-44159045D02*
X173515285Y-44197140D01*
X173515285Y-44197140D02*
X173591475Y-44273330D01*
X173591475Y-44273330D02*
X173629570Y-44349521D01*
X173629570Y-44349521D02*
X173667666Y-44501902D01*
X173667666Y-44501902D02*
X173667666Y-44616188D01*
X173667666Y-44616188D02*
X173629570Y-44768569D01*
X173629570Y-44768569D02*
X173591475Y-44844759D01*
X173591475Y-44844759D02*
X173515285Y-44920950D01*
X173515285Y-44920950D02*
X173400999Y-44959045D01*
X173400999Y-44959045D02*
X173324808Y-44959045D01*
X173324808Y-44959045D02*
X173210523Y-44920950D01*
X173210523Y-44920950D02*
X173172427Y-44882854D01*
X173172427Y-44882854D02*
X173172427Y-44616188D01*
X173172427Y-44616188D02*
X173324808Y-44616188D01*
X172829570Y-44959045D02*
X172829570Y-44159045D01*
X172829570Y-44159045D02*
X172372427Y-44959045D01*
X172372427Y-44959045D02*
X172372427Y-44159045D01*
X171991475Y-44959045D02*
X171991475Y-44159045D01*
X171991475Y-44159045D02*
X171800999Y-44159045D01*
X171800999Y-44159045D02*
X171686713Y-44197140D01*
X171686713Y-44197140D02*
X171610523Y-44273330D01*
X171610523Y-44273330D02*
X171572428Y-44349521D01*
X171572428Y-44349521D02*
X171534332Y-44501902D01*
X171534332Y-44501902D02*
X171534332Y-44616188D01*
X171534332Y-44616188D02*
X171572428Y-44768569D01*
X171572428Y-44768569D02*
X171610523Y-44844759D01*
X171610523Y-44844759D02*
X171686713Y-44920950D01*
X171686713Y-44920950D02*
X171800999Y-44959045D01*
X171800999Y-44959045D02*
X171991475Y-44959045D01*
X162288523Y-41657140D02*
X162364713Y-41619045D01*
X162364713Y-41619045D02*
X162478999Y-41619045D01*
X162478999Y-41619045D02*
X162593285Y-41657140D01*
X162593285Y-41657140D02*
X162669475Y-41733330D01*
X162669475Y-41733330D02*
X162707570Y-41809521D01*
X162707570Y-41809521D02*
X162745666Y-41961902D01*
X162745666Y-41961902D02*
X162745666Y-42076188D01*
X162745666Y-42076188D02*
X162707570Y-42228569D01*
X162707570Y-42228569D02*
X162669475Y-42304759D01*
X162669475Y-42304759D02*
X162593285Y-42380950D01*
X162593285Y-42380950D02*
X162478999Y-42419045D01*
X162478999Y-42419045D02*
X162402808Y-42419045D01*
X162402808Y-42419045D02*
X162288523Y-42380950D01*
X162288523Y-42380950D02*
X162250427Y-42342854D01*
X162250427Y-42342854D02*
X162250427Y-42076188D01*
X162250427Y-42076188D02*
X162402808Y-42076188D01*
X161907570Y-42419045D02*
X161907570Y-41619045D01*
X161907570Y-41619045D02*
X161450427Y-42419045D01*
X161450427Y-42419045D02*
X161450427Y-41619045D01*
X161069475Y-42419045D02*
X161069475Y-41619045D01*
X161069475Y-41619045D02*
X160878999Y-41619045D01*
X160878999Y-41619045D02*
X160764713Y-41657140D01*
X160764713Y-41657140D02*
X160688523Y-41733330D01*
X160688523Y-41733330D02*
X160650428Y-41809521D01*
X160650428Y-41809521D02*
X160612332Y-41961902D01*
X160612332Y-41961902D02*
X160612332Y-42076188D01*
X160612332Y-42076188D02*
X160650428Y-42228569D01*
X160650428Y-42228569D02*
X160688523Y-42304759D01*
X160688523Y-42304759D02*
X160764713Y-42380950D01*
X160764713Y-42380950D02*
X160878999Y-42419045D01*
X160878999Y-42419045D02*
X161069475Y-42419045D01*
X173848637Y-63561102D02*
X173794762Y-63668851D01*
X173794762Y-63668851D02*
X173794762Y-63722726D01*
X173794762Y-63722726D02*
X173821700Y-63803538D01*
X173821700Y-63803538D02*
X173902512Y-63884351D01*
X173902512Y-63884351D02*
X173983324Y-63911288D01*
X173983324Y-63911288D02*
X174037199Y-63911288D01*
X174037199Y-63911288D02*
X174118011Y-63884351D01*
X174118011Y-63884351D02*
X174333510Y-63668851D01*
X174333510Y-63668851D02*
X173767825Y-63103166D01*
X173767825Y-63103166D02*
X173579263Y-63291728D01*
X173579263Y-63291728D02*
X173552326Y-63372540D01*
X173552326Y-63372540D02*
X173552326Y-63426415D01*
X173552326Y-63426415D02*
X173579263Y-63507227D01*
X173579263Y-63507227D02*
X173633138Y-63561102D01*
X173633138Y-63561102D02*
X173713950Y-63588039D01*
X173713950Y-63588039D02*
X173767825Y-63588039D01*
X173767825Y-63588039D02*
X173848637Y-63561102D01*
X173848637Y-63561102D02*
X174037199Y-63372540D01*
X173148265Y-64099850D02*
X173525388Y-64476974D01*
X173067453Y-63749664D02*
X173606201Y-64019038D01*
X173606201Y-64019038D02*
X173256014Y-64369224D01*
X173191475Y-55119045D02*
X173191475Y-54319045D01*
X173191475Y-54319045D02*
X173000999Y-54319045D01*
X173000999Y-54319045D02*
X172886713Y-54357140D01*
X172886713Y-54357140D02*
X172810523Y-54433330D01*
X172810523Y-54433330D02*
X172772428Y-54509521D01*
X172772428Y-54509521D02*
X172734332Y-54661902D01*
X172734332Y-54661902D02*
X172734332Y-54776188D01*
X172734332Y-54776188D02*
X172772428Y-54928569D01*
X172772428Y-54928569D02*
X172810523Y-55004759D01*
X172810523Y-55004759D02*
X172886713Y-55080950D01*
X172886713Y-55080950D02*
X173000999Y-55119045D01*
X173000999Y-55119045D02*
X173191475Y-55119045D01*
X172048618Y-54585711D02*
X172048618Y-55119045D01*
X172239094Y-54280950D02*
X172429571Y-54852378D01*
X172429571Y-54852378D02*
X171934332Y-54852378D01*
X165385732Y-67748504D02*
X165423828Y-67786600D01*
X165423828Y-67786600D02*
X165538113Y-67824695D01*
X165538113Y-67824695D02*
X165614304Y-67824695D01*
X165614304Y-67824695D02*
X165728590Y-67786600D01*
X165728590Y-67786600D02*
X165804780Y-67710409D01*
X165804780Y-67710409D02*
X165842875Y-67634219D01*
X165842875Y-67634219D02*
X165880971Y-67481838D01*
X165880971Y-67481838D02*
X165880971Y-67367552D01*
X165880971Y-67367552D02*
X165842875Y-67215171D01*
X165842875Y-67215171D02*
X165804780Y-67138980D01*
X165804780Y-67138980D02*
X165728590Y-67062790D01*
X165728590Y-67062790D02*
X165614304Y-67024695D01*
X165614304Y-67024695D02*
X165538113Y-67024695D01*
X165538113Y-67024695D02*
X165423828Y-67062790D01*
X165423828Y-67062790D02*
X165385732Y-67100885D01*
X165119066Y-67024695D02*
X164585732Y-67024695D01*
X164585732Y-67024695D02*
X164928590Y-67824695D01*
X172596933Y-69011966D02*
X172496933Y-69045300D01*
X172496933Y-69045300D02*
X172463599Y-69078633D01*
X172463599Y-69078633D02*
X172430266Y-69145300D01*
X172430266Y-69145300D02*
X172430266Y-69245300D01*
X172430266Y-69245300D02*
X172463599Y-69311966D01*
X172463599Y-69311966D02*
X172496933Y-69345300D01*
X172496933Y-69345300D02*
X172563599Y-69378633D01*
X172563599Y-69378633D02*
X172830266Y-69378633D01*
X172830266Y-69378633D02*
X172830266Y-68678633D01*
X172830266Y-68678633D02*
X172596933Y-68678633D01*
X172596933Y-68678633D02*
X172530266Y-68711966D01*
X172530266Y-68711966D02*
X172496933Y-68745300D01*
X172496933Y-68745300D02*
X172463599Y-68811966D01*
X172463599Y-68811966D02*
X172463599Y-68878633D01*
X172463599Y-68878633D02*
X172496933Y-68945300D01*
X172496933Y-68945300D02*
X172530266Y-68978633D01*
X172530266Y-68978633D02*
X172596933Y-69011966D01*
X172596933Y-69011966D02*
X172830266Y-69011966D01*
X172196933Y-68678633D02*
X171730266Y-68678633D01*
X171730266Y-68678633D02*
X172030266Y-69378633D01*
X162002809Y-62319997D02*
X161888523Y-62358092D01*
X161888523Y-62358092D02*
X161850428Y-62396188D01*
X161850428Y-62396188D02*
X161812332Y-62472378D01*
X161812332Y-62472378D02*
X161812332Y-62586664D01*
X161812332Y-62586664D02*
X161850428Y-62662854D01*
X161850428Y-62662854D02*
X161888523Y-62700950D01*
X161888523Y-62700950D02*
X161964713Y-62739045D01*
X161964713Y-62739045D02*
X162269475Y-62739045D01*
X162269475Y-62739045D02*
X162269475Y-61939045D01*
X162269475Y-61939045D02*
X162002809Y-61939045D01*
X162002809Y-61939045D02*
X161926618Y-61977140D01*
X161926618Y-61977140D02*
X161888523Y-62015235D01*
X161888523Y-62015235D02*
X161850428Y-62091426D01*
X161850428Y-62091426D02*
X161850428Y-62167616D01*
X161850428Y-62167616D02*
X161888523Y-62243807D01*
X161888523Y-62243807D02*
X161926618Y-62281902D01*
X161926618Y-62281902D02*
X162002809Y-62319997D01*
X162002809Y-62319997D02*
X162269475Y-62319997D01*
X161545666Y-61939045D02*
X161050428Y-61939045D01*
X161050428Y-61939045D02*
X161317094Y-62243807D01*
X161317094Y-62243807D02*
X161202809Y-62243807D01*
X161202809Y-62243807D02*
X161126618Y-62281902D01*
X161126618Y-62281902D02*
X161088523Y-62319997D01*
X161088523Y-62319997D02*
X161050428Y-62396188D01*
X161050428Y-62396188D02*
X161050428Y-62586664D01*
X161050428Y-62586664D02*
X161088523Y-62662854D01*
X161088523Y-62662854D02*
X161126618Y-62700950D01*
X161126618Y-62700950D02*
X161202809Y-62739045D01*
X161202809Y-62739045D02*
X161431380Y-62739045D01*
X161431380Y-62739045D02*
X161507571Y-62700950D01*
X161507571Y-62700950D02*
X161545666Y-62662854D01*
X170948275Y-69450295D02*
X170948275Y-68650295D01*
X170948275Y-68650295D02*
X170757799Y-68650295D01*
X170757799Y-68650295D02*
X170643513Y-68688390D01*
X170643513Y-68688390D02*
X170567323Y-68764580D01*
X170567323Y-68764580D02*
X170529228Y-68840771D01*
X170529228Y-68840771D02*
X170491132Y-68993152D01*
X170491132Y-68993152D02*
X170491132Y-69107438D01*
X170491132Y-69107438D02*
X170529228Y-69259819D01*
X170529228Y-69259819D02*
X170567323Y-69336009D01*
X170567323Y-69336009D02*
X170643513Y-69412200D01*
X170643513Y-69412200D02*
X170757799Y-69450295D01*
X170757799Y-69450295D02*
X170948275Y-69450295D01*
X169767323Y-68650295D02*
X170148275Y-68650295D01*
X170148275Y-68650295D02*
X170186371Y-69031247D01*
X170186371Y-69031247D02*
X170148275Y-68993152D01*
X170148275Y-68993152D02*
X170072085Y-68955057D01*
X170072085Y-68955057D02*
X169881609Y-68955057D01*
X169881609Y-68955057D02*
X169805418Y-68993152D01*
X169805418Y-68993152D02*
X169767323Y-69031247D01*
X169767323Y-69031247D02*
X169729228Y-69107438D01*
X169729228Y-69107438D02*
X169729228Y-69297914D01*
X169729228Y-69297914D02*
X169767323Y-69374104D01*
X169767323Y-69374104D02*
X169805418Y-69412200D01*
X169805418Y-69412200D02*
X169881609Y-69450295D01*
X169881609Y-69450295D02*
X170072085Y-69450295D01*
X170072085Y-69450295D02*
X170148275Y-69412200D01*
X170148275Y-69412200D02*
X170186371Y-69374104D01*
X161945666Y-54699997D02*
X162212332Y-54699997D01*
X162212332Y-55119045D02*
X162212332Y-54319045D01*
X162212332Y-54319045D02*
X161831380Y-54319045D01*
X161183761Y-54319045D02*
X161336142Y-54319045D01*
X161336142Y-54319045D02*
X161412333Y-54357140D01*
X161412333Y-54357140D02*
X161450428Y-54395235D01*
X161450428Y-54395235D02*
X161526618Y-54509521D01*
X161526618Y-54509521D02*
X161564714Y-54661902D01*
X161564714Y-54661902D02*
X161564714Y-54966664D01*
X161564714Y-54966664D02*
X161526618Y-55042854D01*
X161526618Y-55042854D02*
X161488523Y-55080950D01*
X161488523Y-55080950D02*
X161412333Y-55119045D01*
X161412333Y-55119045D02*
X161259952Y-55119045D01*
X161259952Y-55119045D02*
X161183761Y-55080950D01*
X161183761Y-55080950D02*
X161145666Y-55042854D01*
X161145666Y-55042854D02*
X161107571Y-54966664D01*
X161107571Y-54966664D02*
X161107571Y-54776188D01*
X161107571Y-54776188D02*
X161145666Y-54699997D01*
X161145666Y-54699997D02*
X161183761Y-54661902D01*
X161183761Y-54661902D02*
X161259952Y-54623807D01*
X161259952Y-54623807D02*
X161412333Y-54623807D01*
X161412333Y-54623807D02*
X161488523Y-54661902D01*
X161488523Y-54661902D02*
X161526618Y-54699997D01*
X161526618Y-54699997D02*
X161564714Y-54776188D01*
X172734332Y-57582854D02*
X172772428Y-57620950D01*
X172772428Y-57620950D02*
X172886713Y-57659045D01*
X172886713Y-57659045D02*
X172962904Y-57659045D01*
X172962904Y-57659045D02*
X173077190Y-57620950D01*
X173077190Y-57620950D02*
X173153380Y-57544759D01*
X173153380Y-57544759D02*
X173191475Y-57468569D01*
X173191475Y-57468569D02*
X173229571Y-57316188D01*
X173229571Y-57316188D02*
X173229571Y-57201902D01*
X173229571Y-57201902D02*
X173191475Y-57049521D01*
X173191475Y-57049521D02*
X173153380Y-56973330D01*
X173153380Y-56973330D02*
X173077190Y-56897140D01*
X173077190Y-56897140D02*
X172962904Y-56859045D01*
X172962904Y-56859045D02*
X172886713Y-56859045D01*
X172886713Y-56859045D02*
X172772428Y-56897140D01*
X172772428Y-56897140D02*
X172734332Y-56935235D01*
X172048618Y-56859045D02*
X172200999Y-56859045D01*
X172200999Y-56859045D02*
X172277190Y-56897140D01*
X172277190Y-56897140D02*
X172315285Y-56935235D01*
X172315285Y-56935235D02*
X172391475Y-57049521D01*
X172391475Y-57049521D02*
X172429571Y-57201902D01*
X172429571Y-57201902D02*
X172429571Y-57506664D01*
X172429571Y-57506664D02*
X172391475Y-57582854D01*
X172391475Y-57582854D02*
X172353380Y-57620950D01*
X172353380Y-57620950D02*
X172277190Y-57659045D01*
X172277190Y-57659045D02*
X172124809Y-57659045D01*
X172124809Y-57659045D02*
X172048618Y-57620950D01*
X172048618Y-57620950D02*
X172010523Y-57582854D01*
X172010523Y-57582854D02*
X171972428Y-57506664D01*
X171972428Y-57506664D02*
X171972428Y-57316188D01*
X171972428Y-57316188D02*
X172010523Y-57239997D01*
X172010523Y-57239997D02*
X172048618Y-57201902D01*
X172048618Y-57201902D02*
X172124809Y-57163807D01*
X172124809Y-57163807D02*
X172277190Y-57163807D01*
X172277190Y-57163807D02*
X172353380Y-57201902D01*
X172353380Y-57201902D02*
X172391475Y-57239997D01*
X172391475Y-57239997D02*
X172429571Y-57316188D01*
X173202476Y-39186295D02*
X172745333Y-39186295D01*
X172973905Y-39986295D02*
X172973905Y-39186295D01*
X172554857Y-39186295D02*
X172021523Y-39986295D01*
X172021523Y-39186295D02*
X172554857Y-39986295D01*
X171564380Y-39186295D02*
X171488190Y-39186295D01*
X171488190Y-39186295D02*
X171411999Y-39224390D01*
X171411999Y-39224390D02*
X171373904Y-39262485D01*
X171373904Y-39262485D02*
X171335809Y-39338676D01*
X171335809Y-39338676D02*
X171297714Y-39491057D01*
X171297714Y-39491057D02*
X171297714Y-39681533D01*
X171297714Y-39681533D02*
X171335809Y-39833914D01*
X171335809Y-39833914D02*
X171373904Y-39910104D01*
X171373904Y-39910104D02*
X171411999Y-39948200D01*
X171411999Y-39948200D02*
X171488190Y-39986295D01*
X171488190Y-39986295D02*
X171564380Y-39986295D01*
X171564380Y-39986295D02*
X171640571Y-39948200D01*
X171640571Y-39948200D02*
X171678666Y-39910104D01*
X171678666Y-39910104D02*
X171716761Y-39833914D01*
X171716761Y-39833914D02*
X171754857Y-39681533D01*
X171754857Y-39681533D02*
X171754857Y-39491057D01*
X171754857Y-39491057D02*
X171716761Y-39338676D01*
X171716761Y-39338676D02*
X171678666Y-39262485D01*
X171678666Y-39262485D02*
X171640571Y-39224390D01*
X171640571Y-39224390D02*
X171564380Y-39186295D01*
X173704543Y-65950600D02*
X173657403Y-66044881D01*
X173657403Y-66044881D02*
X173657403Y-66092021D01*
X173657403Y-66092021D02*
X173680973Y-66162732D01*
X173680973Y-66162732D02*
X173751683Y-66233442D01*
X173751683Y-66233442D02*
X173822394Y-66257013D01*
X173822394Y-66257013D02*
X173869535Y-66257013D01*
X173869535Y-66257013D02*
X173940245Y-66233442D01*
X173940245Y-66233442D02*
X174128807Y-66044881D01*
X174128807Y-66044881D02*
X173633832Y-65549906D01*
X173633832Y-65549906D02*
X173468841Y-65714897D01*
X173468841Y-65714897D02*
X173445271Y-65785608D01*
X173445271Y-65785608D02*
X173445271Y-65832749D01*
X173445271Y-65832749D02*
X173468841Y-65903459D01*
X173468841Y-65903459D02*
X173515981Y-65950600D01*
X173515981Y-65950600D02*
X173586692Y-65974170D01*
X173586692Y-65974170D02*
X173633832Y-65974170D01*
X173633832Y-65974170D02*
X173704543Y-65950600D01*
X173704543Y-65950600D02*
X173869535Y-65785608D01*
X172903155Y-66280583D02*
X173138858Y-66044881D01*
X173138858Y-66044881D02*
X173398130Y-66257013D01*
X173398130Y-66257013D02*
X173350990Y-66257013D01*
X173350990Y-66257013D02*
X173280279Y-66280583D01*
X173280279Y-66280583D02*
X173162428Y-66398434D01*
X173162428Y-66398434D02*
X173138858Y-66469145D01*
X173138858Y-66469145D02*
X173138858Y-66516285D01*
X173138858Y-66516285D02*
X173162428Y-66586996D01*
X173162428Y-66586996D02*
X173280279Y-66704847D01*
X173280279Y-66704847D02*
X173350990Y-66728417D01*
X173350990Y-66728417D02*
X173398130Y-66728417D01*
X173398130Y-66728417D02*
X173468841Y-66704847D01*
X173468841Y-66704847D02*
X173586692Y-66586996D01*
X173586692Y-66586996D02*
X173610262Y-66516285D01*
X173610262Y-66516285D02*
X173610262Y-66469145D01*
X161940213Y-44890950D02*
X161825927Y-44929045D01*
X161825927Y-44929045D02*
X161635451Y-44929045D01*
X161635451Y-44929045D02*
X161559260Y-44890950D01*
X161559260Y-44890950D02*
X161521165Y-44852854D01*
X161521165Y-44852854D02*
X161483070Y-44776664D01*
X161483070Y-44776664D02*
X161483070Y-44700473D01*
X161483070Y-44700473D02*
X161521165Y-44624283D01*
X161521165Y-44624283D02*
X161559260Y-44586188D01*
X161559260Y-44586188D02*
X161635451Y-44548092D01*
X161635451Y-44548092D02*
X161787832Y-44509997D01*
X161787832Y-44509997D02*
X161864022Y-44471902D01*
X161864022Y-44471902D02*
X161902117Y-44433807D01*
X161902117Y-44433807D02*
X161940213Y-44357616D01*
X161940213Y-44357616D02*
X161940213Y-44281426D01*
X161940213Y-44281426D02*
X161902117Y-44205235D01*
X161902117Y-44205235D02*
X161864022Y-44167140D01*
X161864022Y-44167140D02*
X161787832Y-44129045D01*
X161787832Y-44129045D02*
X161597355Y-44129045D01*
X161597355Y-44129045D02*
X161483070Y-44167140D01*
X161254498Y-44129045D02*
X160797355Y-44129045D01*
X161025927Y-44929045D02*
X161025927Y-44129045D01*
X173191475Y-60199045D02*
X173191475Y-59399045D01*
X173191475Y-59399045D02*
X173000999Y-59399045D01*
X173000999Y-59399045D02*
X172886713Y-59437140D01*
X172886713Y-59437140D02*
X172810523Y-59513330D01*
X172810523Y-59513330D02*
X172772428Y-59589521D01*
X172772428Y-59589521D02*
X172734332Y-59741902D01*
X172734332Y-59741902D02*
X172734332Y-59856188D01*
X172734332Y-59856188D02*
X172772428Y-60008569D01*
X172772428Y-60008569D02*
X172810523Y-60084759D01*
X172810523Y-60084759D02*
X172886713Y-60160950D01*
X172886713Y-60160950D02*
X173000999Y-60199045D01*
X173000999Y-60199045D02*
X173191475Y-60199045D01*
X172467666Y-59399045D02*
X171934332Y-59399045D01*
X171934332Y-59399045D02*
X172277190Y-60199045D01*
X162002809Y-59779997D02*
X161888523Y-59818092D01*
X161888523Y-59818092D02*
X161850428Y-59856188D01*
X161850428Y-59856188D02*
X161812332Y-59932378D01*
X161812332Y-59932378D02*
X161812332Y-60046664D01*
X161812332Y-60046664D02*
X161850428Y-60122854D01*
X161850428Y-60122854D02*
X161888523Y-60160950D01*
X161888523Y-60160950D02*
X161964713Y-60199045D01*
X161964713Y-60199045D02*
X162269475Y-60199045D01*
X162269475Y-60199045D02*
X162269475Y-59399045D01*
X162269475Y-59399045D02*
X162002809Y-59399045D01*
X162002809Y-59399045D02*
X161926618Y-59437140D01*
X161926618Y-59437140D02*
X161888523Y-59475235D01*
X161888523Y-59475235D02*
X161850428Y-59551426D01*
X161850428Y-59551426D02*
X161850428Y-59627616D01*
X161850428Y-59627616D02*
X161888523Y-59703807D01*
X161888523Y-59703807D02*
X161926618Y-59741902D01*
X161926618Y-59741902D02*
X162002809Y-59779997D01*
X162002809Y-59779997D02*
X162269475Y-59779997D01*
X161050428Y-60199045D02*
X161507571Y-60199045D01*
X161278999Y-60199045D02*
X161278999Y-59399045D01*
X161278999Y-59399045D02*
X161355190Y-59513330D01*
X161355190Y-59513330D02*
X161431380Y-59589521D01*
X161431380Y-59589521D02*
X161507571Y-59627616D01*
X162745666Y-46699045D02*
X162478999Y-47499045D01*
X162478999Y-47499045D02*
X162212333Y-46699045D01*
X161488523Y-47422854D02*
X161526619Y-47460950D01*
X161526619Y-47460950D02*
X161640904Y-47499045D01*
X161640904Y-47499045D02*
X161717095Y-47499045D01*
X161717095Y-47499045D02*
X161831381Y-47460950D01*
X161831381Y-47460950D02*
X161907571Y-47384759D01*
X161907571Y-47384759D02*
X161945666Y-47308569D01*
X161945666Y-47308569D02*
X161983762Y-47156188D01*
X161983762Y-47156188D02*
X161983762Y-47041902D01*
X161983762Y-47041902D02*
X161945666Y-46889521D01*
X161945666Y-46889521D02*
X161907571Y-46813330D01*
X161907571Y-46813330D02*
X161831381Y-46737140D01*
X161831381Y-46737140D02*
X161717095Y-46699045D01*
X161717095Y-46699045D02*
X161640904Y-46699045D01*
X161640904Y-46699045D02*
X161526619Y-46737140D01*
X161526619Y-46737140D02*
X161488523Y-46775235D01*
X160688523Y-47422854D02*
X160726619Y-47460950D01*
X160726619Y-47460950D02*
X160840904Y-47499045D01*
X160840904Y-47499045D02*
X160917095Y-47499045D01*
X160917095Y-47499045D02*
X161031381Y-47460950D01*
X161031381Y-47460950D02*
X161107571Y-47384759D01*
X161107571Y-47384759D02*
X161145666Y-47308569D01*
X161145666Y-47308569D02*
X161183762Y-47156188D01*
X161183762Y-47156188D02*
X161183762Y-47041902D01*
X161183762Y-47041902D02*
X161145666Y-46889521D01*
X161145666Y-46889521D02*
X161107571Y-46813330D01*
X161107571Y-46813330D02*
X161031381Y-46737140D01*
X161031381Y-46737140D02*
X160917095Y-46699045D01*
X160917095Y-46699045D02*
X160840904Y-46699045D01*
X160840904Y-46699045D02*
X160726619Y-46737140D01*
X160726619Y-46737140D02*
X160688523Y-46775235D01*
X62772372Y-68135121D02*
X63226892Y-67593446D01*
X63077417Y-71621803D02*
X63619093Y-72076322D01*
X63226892Y-67593446D02*
X66215476Y-67331979D01*
X63619093Y-72076322D02*
X66109579Y-71858433D01*
X66215476Y-67331979D02*
X66757151Y-67786498D01*
X66844307Y-68782693D02*
X66757151Y-67786498D01*
X67734605Y-73221991D02*
X67795614Y-73919328D01*
X67795614Y-73919328D02*
X72278490Y-73527127D01*
X71868858Y-68845012D02*
X67385982Y-69237213D01*
X71921152Y-69442728D02*
X71868858Y-68845012D01*
X72278490Y-73527127D02*
X72234912Y-73029029D01*
X67734604Y-73221991D02*
G75*
G03*
X66109579Y-71858434I-1494291J-130734D01*
G01*
X66844307Y-68782693D02*
G75*
G03*
X67385982Y-69237212I498097J43578D01*
G01*
X141133049Y-111369592D02*
X141840155Y-111369592D01*
X138658175Y-113844466D02*
X138658175Y-114551573D01*
X141840155Y-111369592D02*
X143961476Y-113490913D01*
X138658175Y-114551573D02*
X140425942Y-116319340D01*
X143961476Y-113490913D02*
X143961476Y-114198019D01*
X143254369Y-114905126D02*
X143961476Y-114198019D01*
X140425942Y-118440660D02*
X139930967Y-118935635D01*
X139930967Y-118935635D02*
X143112948Y-122117615D01*
X146436350Y-118794213D02*
X143254369Y-115612233D01*
X146012085Y-119218477D02*
X146436350Y-118794213D01*
X143112948Y-122117615D02*
X143466501Y-121764062D01*
X140425941Y-118440659D02*
G75*
G03*
X140425941Y-116319341I-1060659J1060659D01*
G01*
X143254370Y-114905127D02*
G75*
G03*
X143254369Y-115612233I353552J-353553D01*
G01*
X183575000Y-36370000D02*
X184075000Y-35870000D01*
X183575000Y-39870000D02*
X184075000Y-40370000D01*
X184075000Y-35870000D02*
X187075000Y-35870000D01*
X184075000Y-40370000D02*
X186575000Y-40370000D01*
X187075000Y-35870000D02*
X187575000Y-36370000D01*
X187575000Y-37370000D02*
X187575000Y-36370000D01*
X188075000Y-41870000D02*
X188075000Y-42570000D01*
X188075000Y-42570000D02*
X192575000Y-42570000D01*
X192575000Y-37870000D02*
X188075000Y-37870000D01*
X192575000Y-38470000D02*
X192575000Y-37870000D01*
X192575000Y-42570000D02*
X192575000Y-42070000D01*
X188075000Y-41870000D02*
G75*
G03*
X186575000Y-40370000I-1500000J0D01*
G01*
X187575000Y-37370000D02*
G75*
G03*
X188075000Y-37870000I500000J0D01*
G01*
X118325000Y-70380000D02*
X118825000Y-69880000D01*
X118325000Y-73880000D02*
X118825000Y-74380000D01*
X118825000Y-69880000D02*
X121825000Y-69880000D01*
X118825000Y-74380000D02*
X121325000Y-74380000D01*
X121825000Y-69880000D02*
X122325000Y-70380000D01*
X122325000Y-71380000D02*
X122325000Y-70380000D01*
X122825000Y-75880000D02*
X122825000Y-76580000D01*
X122825000Y-76580000D02*
X127325000Y-76580000D01*
X127325000Y-71880000D02*
X122825000Y-71880000D01*
X127325000Y-72480000D02*
X127325000Y-71880000D01*
X127325000Y-76580000D02*
X127325000Y-76080000D01*
X122825000Y-75880000D02*
G75*
G03*
X121325000Y-74380000I-1500000J0D01*
G01*
X122325000Y-71380000D02*
G75*
G03*
X122825000Y-71880000I500000J0D01*
G01*
X262859514Y-48287988D02*
X263438742Y-47882408D01*
X262251746Y-51734815D02*
X262657326Y-52314043D01*
X263438742Y-47882408D02*
X266393166Y-48403353D01*
X262657326Y-52314043D02*
X265119345Y-52748163D01*
X266393166Y-48403353D02*
X266798745Y-48982581D01*
X266625097Y-49967388D02*
X266798745Y-48982581D01*
X266336084Y-54485847D02*
X266214531Y-55175213D01*
X266214531Y-55175213D02*
X270646166Y-55956630D01*
X271462312Y-51328033D02*
X267030677Y-50546616D01*
X271358123Y-51918918D02*
X271462312Y-51328033D01*
X270646166Y-55956630D02*
X270732990Y-55464226D01*
X266336085Y-54485847D02*
G75*
G03*
X265119345Y-52748163I-1477212J260472D01*
G01*
X266625097Y-49967388D02*
G75*
G03*
X267030677Y-50546616I492404J-86824D01*
G01*
X259927010Y-65015774D02*
X260506238Y-64610194D01*
X259319242Y-68462601D02*
X259724822Y-69041829D01*
X260506238Y-64610194D02*
X263460662Y-65131139D01*
X259724822Y-69041829D02*
X262186841Y-69475949D01*
X263460662Y-65131139D02*
X263866241Y-65710367D01*
X263692593Y-66695174D02*
X263866241Y-65710367D01*
X263403580Y-71213633D02*
X263282027Y-71902999D01*
X263282027Y-71902999D02*
X267713662Y-72684416D01*
X268529808Y-68055819D02*
X264098173Y-67274402D01*
X268425619Y-68646704D02*
X268529808Y-68055819D01*
X267713662Y-72684416D02*
X267800486Y-72192012D01*
X263403581Y-71213633D02*
G75*
G03*
X262186841Y-69475949I-1477212J260472D01*
G01*
X263692593Y-66695174D02*
G75*
G03*
X264098173Y-67274402I492404J-86824D01*
G01*
X100340000Y-34370000D02*
X100840000Y-33870000D01*
X100340000Y-37870000D02*
X100840000Y-38370000D01*
X100840000Y-33870000D02*
X103840000Y-33870000D01*
X100840000Y-38370000D02*
X103340000Y-38370000D01*
X103840000Y-33870000D02*
X104340000Y-34370000D01*
X104340000Y-35370000D02*
X104340000Y-34370000D01*
X104840000Y-39870000D02*
X104840000Y-40570000D01*
X104840000Y-40570000D02*
X109340000Y-40570000D01*
X109340000Y-35870000D02*
X104840000Y-35870000D01*
X109340000Y-36470000D02*
X109340000Y-35870000D01*
X109340000Y-40570000D02*
X109340000Y-40070000D01*
X104840000Y-39870000D02*
G75*
G03*
X103340000Y-38370000I-1500000J0D01*
G01*
X104340000Y-35370000D02*
G75*
G03*
X104840000Y-35870000I500000J0D01*
G01*
X123098076Y-98180707D02*
X123781089Y-97997695D01*
X121348076Y-101211796D02*
X121531089Y-101894809D01*
X123781089Y-97997695D02*
X126379165Y-99497695D01*
X121531089Y-101894809D02*
X123696152Y-103144809D01*
X126379165Y-99497695D02*
X126562178Y-100180707D01*
X126062178Y-101046733D02*
X126562178Y-100180707D01*
X124245191Y-105193847D02*
X123895191Y-105800065D01*
X123895191Y-105800065D02*
X127792305Y-108050065D01*
X130142305Y-103979745D02*
X126245191Y-101729745D01*
X129842305Y-104499361D02*
X130142305Y-103979745D01*
X127792305Y-108050065D02*
X128042305Y-107617052D01*
X124245189Y-105193846D02*
G75*
G03*
X123696152Y-103144810I-1299037J749999D01*
G01*
X126062179Y-101046734D02*
G75*
G03*
X126245191Y-101729745I433012J-249999D01*
G01*
X102264197Y-90108310D02*
X102876569Y-89754757D01*
X101358330Y-93489050D02*
X101711884Y-94101423D01*
X102876569Y-89754757D02*
X105774347Y-90531214D01*
X101711884Y-94101423D02*
X104126698Y-94748470D01*
X105774347Y-90531214D02*
X106127900Y-91143586D01*
X105869081Y-92109512D02*
X106127900Y-91143586D01*
X105187358Y-96585588D02*
X105006185Y-97261736D01*
X105006185Y-97261736D02*
X109352851Y-98426422D01*
X110569301Y-93886570D02*
X106222635Y-92721884D01*
X110414009Y-94466126D02*
X110569301Y-93886570D01*
X109352851Y-98426422D02*
X109482261Y-97943459D01*
X105187359Y-96585588D02*
G75*
G03*
X104126698Y-94748470I-1448889J388229D01*
G01*
X105869083Y-92109513D02*
G75*
G03*
X106222635Y-92721883I482961J-129409D01*
G01*
X239152671Y-67787783D02*
X239694346Y-67333264D01*
X238847626Y-71274465D02*
X239302145Y-71816140D01*
X239694346Y-67333264D02*
X242682930Y-67594731D01*
X239302145Y-71816140D02*
X241792632Y-72034029D01*
X242682930Y-67594731D02*
X243137450Y-68136406D01*
X243050294Y-69132601D02*
X243137450Y-68136406D01*
X243156190Y-73659055D02*
X243095181Y-74356391D01*
X243095181Y-74356391D02*
X247578058Y-74748592D01*
X247987689Y-70066477D02*
X243504813Y-69674276D01*
X247935396Y-70664194D02*
X247987689Y-70066477D01*
X247578058Y-74748592D02*
X247621635Y-74250495D01*
X243156189Y-73659055D02*
G75*
G03*
X241792632Y-72034030I-1494291J130734D01*
G01*
X243050295Y-69132601D02*
G75*
G03*
X243504813Y-69674275I498096J-43578D01*
G01*
X183585000Y-53360000D02*
X184085000Y-52860000D01*
X183585000Y-56860000D02*
X184085000Y-57360000D01*
X184085000Y-52860000D02*
X187085000Y-52860000D01*
X184085000Y-57360000D02*
X186585000Y-57360000D01*
X187085000Y-52860000D02*
X187585000Y-53360000D01*
X187585000Y-54360000D02*
X187585000Y-53360000D01*
X188085000Y-58860000D02*
X188085000Y-59560000D01*
X188085000Y-59560000D02*
X192585000Y-59560000D01*
X192585000Y-54860000D02*
X188085000Y-54860000D01*
X192585000Y-55460000D02*
X192585000Y-54860000D01*
X192585000Y-59560000D02*
X192585000Y-59060000D01*
X188085000Y-58860000D02*
G75*
G03*
X186585000Y-57360000I-1500000J0D01*
G01*
X187585000Y-54360000D02*
G75*
G03*
X188085000Y-54860000I500000J0D01*
G01*
X179348076Y-100180707D02*
X179531089Y-99497695D01*
X181098076Y-103211796D02*
X181781089Y-103394809D01*
X179531089Y-99497695D02*
X182129165Y-97997695D01*
X181781089Y-103394809D02*
X183946152Y-102144809D01*
X182129165Y-97997695D02*
X182812178Y-98180707D01*
X183312178Y-99046733D02*
X182812178Y-98180707D01*
X185995191Y-102693847D02*
X186345191Y-103300065D01*
X186345191Y-103300065D02*
X190242305Y-101050065D01*
X187892305Y-96979745D02*
X183995191Y-99229745D01*
X188192305Y-97499361D02*
X187892305Y-96979745D01*
X190242305Y-101050065D02*
X189992305Y-100617052D01*
X185995189Y-102693848D02*
G75*
G03*
X183946152Y-102144810I-1299037J-749999D01*
G01*
X183312179Y-99046732D02*
G75*
G03*
X183995191Y-99229745I433012J249999D01*
G01*
D10*
X73003865Y-56591956D02*
G75*
G03*
X71970000Y-60742500I19286255J-7008074D01*
G01*
X71970000Y-66457500D02*
G75*
G03*
X73003865Y-70608046I20320000J2857500D01*
G01*
X89432500Y-43280000D02*
G75*
G03*
X85281954Y-44313865I2857500J-20320000D01*
G01*
X85281955Y-82886135D02*
G75*
G03*
X89432500Y-83920000I7008045J19286135D01*
G01*
X92290000Y-52805001D02*
G75*
G03*
X91161615Y-52864137I-6J-10794920D01*
G01*
X93418385Y-52864137D02*
G75*
G03*
X92290000Y-52805000I-1128385J-10735763D01*
G01*
X91161615Y-74335864D02*
G75*
G03*
X92290000Y-74395000I1128379J10735785D01*
G01*
X92290000Y-74395000D02*
G75*
G03*
X93418385Y-74335863I0J10794900D01*
G01*
X99298049Y-44313867D02*
G75*
G03*
X95147500Y-43280000I-7008049J-19286133D01*
G01*
X95147500Y-83920000D02*
G75*
G03*
X99298045Y-82886135I-2857506J20320019D01*
G01*
X112610000Y-60742500D02*
G75*
G03*
X111576134Y-56591952I-20320000J-2857500D01*
G01*
X111576134Y-70608048D02*
G75*
G03*
X112610000Y-66457500I-19286134J7008048D01*
G01*
X194473865Y-56591956D02*
G75*
G03*
X193440000Y-60742500I19286255J-7008074D01*
G01*
X193440000Y-66457500D02*
G75*
G03*
X194473865Y-70608046I20320000J2857500D01*
G01*
X210902500Y-43280000D02*
G75*
G03*
X206751954Y-44313865I2857500J-20320000D01*
G01*
X206751955Y-82886135D02*
G75*
G03*
X210902500Y-83920000I7008045J19286135D01*
G01*
X213760000Y-52805001D02*
G75*
G03*
X212631615Y-52864137I-6J-10794920D01*
G01*
X214888385Y-52864137D02*
G75*
G03*
X213760000Y-52805000I-1128385J-10735763D01*
G01*
X212631615Y-74335864D02*
G75*
G03*
X213760000Y-74395000I1128379J10735785D01*
G01*
X213760000Y-74395000D02*
G75*
G03*
X214888385Y-74335863I0J10794900D01*
G01*
X220768049Y-44313867D02*
G75*
G03*
X216617500Y-43280000I-7008049J-19286133D01*
G01*
X216617500Y-83920000D02*
G75*
G03*
X220768045Y-82886135I-2857506J20320019D01*
G01*
X234080000Y-60742500D02*
G75*
G03*
X233046134Y-56591952I-20320000J-2857500D01*
G01*
X233046134Y-70608048D02*
G75*
G03*
X234080000Y-66457500I-19286134J7008048D01*
G01*
D13*
X82325000Y-28380000D02*
X82825000Y-27880000D01*
X82325000Y-31880000D02*
X82825000Y-32380000D01*
X82825000Y-27880000D02*
X85825000Y-27880000D01*
X82825000Y-32380000D02*
X85325000Y-32380000D01*
X85825000Y-27880000D02*
X86325000Y-28380000D01*
X86325000Y-29380000D02*
X86325000Y-28380000D01*
X86825000Y-33880000D02*
X86825000Y-34580000D01*
X86825000Y-34580000D02*
X91325000Y-34580000D01*
X91325000Y-29880000D02*
X86825000Y-29880000D01*
X91325000Y-30480000D02*
X91325000Y-29880000D01*
X91325000Y-34580000D02*
X91325000Y-34080000D01*
X86825000Y-33880000D02*
G75*
G03*
X85325000Y-32380000I-1500000J0D01*
G01*
X86325000Y-29380000D02*
G75*
G03*
X86825000Y-29880000I500000J0D01*
G01*
X141930000Y-77650000D02*
X141930000Y-77900000D01*
X141930000Y-74400000D02*
X141930000Y-74650000D01*
X135930000Y-77900000D02*
X135930000Y-77650000D01*
X135930000Y-74650000D02*
X135930000Y-74400000D01*
X242112671Y-33897783D02*
X242654346Y-33443264D01*
X241807626Y-37384465D02*
X242262145Y-37926140D01*
X242654346Y-33443264D02*
X245642930Y-33704731D01*
X242262145Y-37926140D02*
X244752632Y-38144029D01*
X245642930Y-33704731D02*
X246097450Y-34246406D01*
X246010294Y-35242601D02*
X246097450Y-34246406D01*
X246116190Y-39769055D02*
X246055181Y-40466391D01*
X246055181Y-40466391D02*
X250538058Y-40858592D01*
X250947689Y-36176477D02*
X246464813Y-35784276D01*
X250895396Y-36774194D02*
X250947689Y-36176477D01*
X250538058Y-40858592D02*
X250581635Y-40360495D01*
X246116189Y-39769055D02*
G75*
G03*
X244752632Y-38144030I-1494291J130734D01*
G01*
X246010295Y-35242601D02*
G75*
G03*
X246464813Y-35784275I498096J-43578D01*
G01*
X161949134Y-114167561D02*
X161949134Y-113460455D01*
X164424008Y-116642435D02*
X165131115Y-116642435D01*
X161949134Y-113460455D02*
X164070455Y-111339134D01*
X165131115Y-116642435D02*
X166898882Y-114874668D01*
X164070455Y-111339134D02*
X164777561Y-111339134D01*
X165484668Y-112046241D02*
X164777561Y-111339134D01*
X169020202Y-114874668D02*
X169515177Y-115369643D01*
X169515177Y-115369643D02*
X172697157Y-112187662D01*
X169373755Y-108864260D02*
X166191775Y-112046241D01*
X169798019Y-109288525D02*
X169373755Y-108864260D01*
X172697157Y-112187662D02*
X172343604Y-111834109D01*
X169020201Y-114874669D02*
G75*
G03*
X166898883Y-114874669I-1060659J-1060659D01*
G01*
X165484669Y-112046240D02*
G75*
G03*
X166191775Y-112046241I353553J353552D01*
G01*
X201585000Y-34350000D02*
X202085000Y-33850000D01*
X201585000Y-37850000D02*
X202085000Y-38350000D01*
X202085000Y-33850000D02*
X205085000Y-33850000D01*
X202085000Y-38350000D02*
X204585000Y-38350000D01*
X205085000Y-33850000D02*
X205585000Y-34350000D01*
X205585000Y-35350000D02*
X205585000Y-34350000D01*
X206085000Y-39850000D02*
X206085000Y-40550000D01*
X206085000Y-40550000D02*
X210585000Y-40550000D01*
X210585000Y-35850000D02*
X206085000Y-35850000D01*
X210585000Y-36450000D02*
X210585000Y-35850000D01*
X210585000Y-40550000D02*
X210585000Y-40050000D01*
X206085000Y-39850000D02*
G75*
G03*
X204585000Y-38350000I-1500000J0D01*
G01*
X205585000Y-35350000D02*
G75*
G03*
X206085000Y-35850000I500000J0D01*
G01*
X201575000Y-68350000D02*
X202075000Y-67850000D01*
X201575000Y-71850000D02*
X202075000Y-72350000D01*
X202075000Y-67850000D02*
X205075000Y-67850000D01*
X202075000Y-72350000D02*
X204575000Y-72350000D01*
X205075000Y-67850000D02*
X205575000Y-68350000D01*
X205575000Y-69350000D02*
X205575000Y-68350000D01*
X206075000Y-73850000D02*
X206075000Y-74550000D01*
X206075000Y-74550000D02*
X210575000Y-74550000D01*
X210575000Y-69850000D02*
X206075000Y-69850000D01*
X210575000Y-70450000D02*
X210575000Y-69850000D01*
X210575000Y-74550000D02*
X210575000Y-74050000D01*
X206075000Y-73850000D02*
G75*
G03*
X204575000Y-72350000I-1500000J0D01*
G01*
X205575000Y-69350000D02*
G75*
G03*
X206075000Y-69850000I500000J0D01*
G01*
X42046501Y-65763883D02*
X42452080Y-65184655D01*
X42654269Y-69210710D02*
X43233497Y-69616290D01*
X42452080Y-65184655D02*
X45406504Y-64663710D01*
X43233497Y-69616290D02*
X45695516Y-69182169D01*
X45406504Y-64663710D02*
X45985732Y-65069290D01*
X46159380Y-66054098D02*
X45985732Y-65069290D01*
X47433200Y-70398908D02*
X47554754Y-71088274D01*
X47554754Y-71088274D02*
X51986389Y-70306857D01*
X51170243Y-65678261D02*
X46738608Y-66459677D01*
X51274431Y-66269145D02*
X51170243Y-65678261D01*
X51986389Y-70306857D02*
X51899565Y-69814453D01*
X47433200Y-70398908D02*
G75*
G03*
X45695516Y-69182169I-1477211J-260473D01*
G01*
X46159381Y-66054098D02*
G75*
G03*
X46738608Y-66459677I492403J86824D01*
G01*
X118325000Y-53400000D02*
X118825000Y-52900000D01*
X118325000Y-56900000D02*
X118825000Y-57400000D01*
X118825000Y-52900000D02*
X121825000Y-52900000D01*
X118825000Y-57400000D02*
X121325000Y-57400000D01*
X121825000Y-52900000D02*
X122325000Y-53400000D01*
X122325000Y-54400000D02*
X122325000Y-53400000D01*
X122825000Y-58900000D02*
X122825000Y-59600000D01*
X122825000Y-59600000D02*
X127325000Y-59600000D01*
X127325000Y-54900000D02*
X122825000Y-54900000D01*
X127325000Y-55500000D02*
X127325000Y-54900000D01*
X127325000Y-59600000D02*
X127325000Y-59100000D01*
X122825000Y-58900000D02*
G75*
G03*
X121325000Y-57400000I-1500000J0D01*
G01*
X122325000Y-54400000D02*
G75*
G03*
X122825000Y-54900000I500000J0D01*
G01*
X61286511Y-51203612D02*
X61741031Y-50661937D01*
X61591556Y-54690294D02*
X62133232Y-55144813D01*
X61741031Y-50661937D02*
X64729615Y-50400470D01*
X62133232Y-55144813D02*
X64623718Y-54926924D01*
X64729615Y-50400470D02*
X65271290Y-50854989D01*
X65358446Y-51851184D02*
X65271290Y-50854989D01*
X66248744Y-56290482D02*
X66309753Y-56987819D01*
X66309753Y-56987819D02*
X70792629Y-56595618D01*
X70382997Y-51913503D02*
X65900121Y-52305704D01*
X70435291Y-52511219D02*
X70382997Y-51913503D01*
X70792629Y-56595618D02*
X70749051Y-56097520D01*
X66248743Y-56290482D02*
G75*
G03*
X64623718Y-54926925I-1494291J-130734D01*
G01*
X65358446Y-51851184D02*
G75*
G03*
X65900121Y-52305703I498097J43578D01*
G01*
X240632671Y-50847783D02*
X241174346Y-50393264D01*
X240327626Y-54334465D02*
X240782145Y-54876140D01*
X241174346Y-50393264D02*
X244162930Y-50654731D01*
X240782145Y-54876140D02*
X243272632Y-55094029D01*
X244162930Y-50654731D02*
X244617450Y-51196406D01*
X244530294Y-52192601D02*
X244617450Y-51196406D01*
X244636190Y-56719055D02*
X244575181Y-57416391D01*
X244575181Y-57416391D02*
X249058058Y-57808592D01*
X249467689Y-53126477D02*
X244984813Y-52734276D01*
X249415396Y-53724194D02*
X249467689Y-53126477D01*
X249058058Y-57808592D02*
X249101635Y-57310495D01*
X244636189Y-56719055D02*
G75*
G03*
X243272632Y-55094030I-1494291J130734D01*
G01*
X244530295Y-52192601D02*
G75*
G03*
X244984813Y-52734275I498096J-43578D01*
G01*
X201585000Y-51350000D02*
X202085000Y-50850000D01*
X201585000Y-54850000D02*
X202085000Y-55350000D01*
X202085000Y-50850000D02*
X205085000Y-50850000D01*
X202085000Y-55350000D02*
X204585000Y-55350000D01*
X205085000Y-50850000D02*
X205585000Y-51350000D01*
X205585000Y-52350000D02*
X205585000Y-51350000D01*
X206085000Y-56850000D02*
X206085000Y-57550000D01*
X206085000Y-57550000D02*
X210585000Y-57550000D01*
X210585000Y-52850000D02*
X206085000Y-52850000D01*
X210585000Y-53450000D02*
X210585000Y-52850000D01*
X210585000Y-57550000D02*
X210585000Y-57050000D01*
X206085000Y-56850000D02*
G75*
G03*
X204585000Y-55350000I-1500000J0D01*
G01*
X205585000Y-52350000D02*
G75*
G03*
X206085000Y-52850000I500000J0D01*
G01*
X82305000Y-62420000D02*
X82805000Y-61920000D01*
X82305000Y-65920000D02*
X82805000Y-66420000D01*
X82805000Y-61920000D02*
X85805000Y-61920000D01*
X82805000Y-66420000D02*
X85305000Y-66420000D01*
X85805000Y-61920000D02*
X86305000Y-62420000D01*
X86305000Y-63420000D02*
X86305000Y-62420000D01*
X86805000Y-67920000D02*
X86805000Y-68620000D01*
X86805000Y-68620000D02*
X91305000Y-68620000D01*
X91305000Y-63920000D02*
X86805000Y-63920000D01*
X91305000Y-64520000D02*
X91305000Y-63920000D01*
X91305000Y-68620000D02*
X91305000Y-68120000D01*
X86805000Y-67920000D02*
G75*
G03*
X85305000Y-66420000I-1500000J0D01*
G01*
X86305000Y-63420000D02*
G75*
G03*
X86805000Y-63920000I500000J0D01*
G01*
X183575000Y-70370000D02*
X184075000Y-69870000D01*
X183575000Y-73870000D02*
X184075000Y-74370000D01*
X184075000Y-69870000D02*
X187075000Y-69870000D01*
X184075000Y-74370000D02*
X186575000Y-74370000D01*
X187075000Y-69870000D02*
X187575000Y-70370000D01*
X187575000Y-71370000D02*
X187575000Y-70370000D01*
X188075000Y-75870000D02*
X188075000Y-76570000D01*
X188075000Y-76570000D02*
X192575000Y-76570000D01*
X192575000Y-71870000D02*
X188075000Y-71870000D01*
X192575000Y-72470000D02*
X192575000Y-71870000D01*
X192575000Y-76570000D02*
X192575000Y-76070000D01*
X188075000Y-75870000D02*
G75*
G03*
X186575000Y-74370000I-1500000J0D01*
G01*
X187575000Y-71370000D02*
G75*
G03*
X188075000Y-71870000I500000J0D01*
G01*
X170270000Y-77660000D02*
X170270000Y-77910000D01*
X170270000Y-74410000D02*
X170270000Y-74660000D01*
X164270000Y-77910000D02*
X164270000Y-77660000D01*
X164270000Y-74660000D02*
X164270000Y-74410000D01*
X45001746Y-82505185D02*
X45407325Y-81925957D01*
X45609514Y-85952012D02*
X46188742Y-86357592D01*
X45407325Y-81925957D02*
X48361749Y-81405012D01*
X46188742Y-86357592D02*
X48650761Y-85923471D01*
X48361749Y-81405012D02*
X48940977Y-81810592D01*
X49114625Y-82795400D02*
X48940977Y-81810592D01*
X50388445Y-87140210D02*
X50509999Y-87829576D01*
X50509999Y-87829576D02*
X54941634Y-87048159D01*
X54125488Y-82419563D02*
X49693853Y-83200979D01*
X54229676Y-83010447D02*
X54125488Y-82419563D01*
X54941634Y-87048159D02*
X54854810Y-86555755D01*
X50388445Y-87140210D02*
G75*
G03*
X48650761Y-85923471I-1477211J-260473D01*
G01*
X49114626Y-82795400D02*
G75*
G03*
X49693853Y-83200979I492403J86824D01*
G01*
X39106501Y-49003883D02*
X39512080Y-48424655D01*
X39714269Y-52450710D02*
X40293497Y-52856290D01*
X39512080Y-48424655D02*
X42466504Y-47903710D01*
X40293497Y-52856290D02*
X42755516Y-52422169D01*
X42466504Y-47903710D02*
X43045732Y-48309290D01*
X43219380Y-49294098D02*
X43045732Y-48309290D01*
X44493200Y-53638908D02*
X44614754Y-54328274D01*
X44614754Y-54328274D02*
X49046389Y-53546857D01*
X48230243Y-48918261D02*
X43798608Y-49699677D01*
X48334431Y-49509145D02*
X48230243Y-48918261D01*
X49046389Y-53546857D02*
X48959565Y-53054453D01*
X44493200Y-53638908D02*
G75*
G03*
X42755516Y-52422169I-1477211J-260473D01*
G01*
X43219381Y-49294098D02*
G75*
G03*
X43798608Y-49699677I492403J86824D01*
G01*
X59806511Y-34293612D02*
X60261031Y-33751937D01*
X60111556Y-37780294D02*
X60653232Y-38234813D01*
X60261031Y-33751937D02*
X63249615Y-33490470D01*
X60653232Y-38234813D02*
X63143718Y-38016924D01*
X63249615Y-33490470D02*
X63791290Y-33944989D01*
X63878446Y-34941184D02*
X63791290Y-33944989D01*
X64768744Y-39380482D02*
X64829753Y-40077819D01*
X64829753Y-40077819D02*
X69312629Y-39685618D01*
X68902997Y-35003503D02*
X64420121Y-35395704D01*
X68955291Y-35601219D02*
X68902997Y-35003503D01*
X69312629Y-39685618D02*
X69269051Y-39187520D01*
X64768743Y-39380482D02*
G75*
G03*
X63143718Y-38016925I-1494291J-130734D01*
G01*
X63878446Y-34941184D02*
G75*
G03*
X64420121Y-35395703I498097J43578D01*
G01*
X100315000Y-51400000D02*
X100815000Y-50900000D01*
X100315000Y-54900000D02*
X100815000Y-55400000D01*
X100815000Y-50900000D02*
X103815000Y-50900000D01*
X100815000Y-55400000D02*
X103315000Y-55400000D01*
X103815000Y-50900000D02*
X104315000Y-51400000D01*
X104315000Y-52400000D02*
X104315000Y-51400000D01*
X104815000Y-56900000D02*
X104815000Y-57600000D01*
X104815000Y-57600000D02*
X109315000Y-57600000D01*
X109315000Y-52900000D02*
X104815000Y-52900000D01*
X109315000Y-53500000D02*
X109315000Y-52900000D01*
X109315000Y-57600000D02*
X109315000Y-57100000D01*
X104815000Y-56900000D02*
G75*
G03*
X103315000Y-55400000I-1500000J0D01*
G01*
X104315000Y-52400000D02*
G75*
G03*
X104815000Y-52900000I500000J0D01*
G01*
X199758210Y-91151047D02*
X200111763Y-90538675D01*
X200664076Y-94531788D02*
X201276449Y-94885341D01*
X200111763Y-90538675D02*
X203009541Y-89762218D01*
X201276449Y-94885341D02*
X203691263Y-94238293D01*
X203009541Y-89762218D02*
X203621913Y-90115771D01*
X203880732Y-91081697D02*
X203621913Y-90115771D01*
X205528381Y-95298954D02*
X205709554Y-95975102D01*
X205709554Y-95975102D02*
X210056220Y-94810416D01*
X208839771Y-90270565D02*
X204493104Y-91435250D01*
X208995062Y-90850120D02*
X208839771Y-90270565D01*
X210056220Y-94810416D02*
X209926811Y-94327453D01*
X205528381Y-95298954D02*
G75*
G03*
X203691263Y-94238293I-1448889J-388228D01*
G01*
X203880733Y-91081697D02*
G75*
G03*
X204493104Y-91435249I482962J129410D01*
G01*
X118320000Y-36390000D02*
X118820000Y-35890000D01*
X118320000Y-39890000D02*
X118820000Y-40390000D01*
X118820000Y-35890000D02*
X121820000Y-35890000D01*
X118820000Y-40390000D02*
X121320000Y-40390000D01*
X121820000Y-35890000D02*
X122320000Y-36390000D01*
X122320000Y-37390000D02*
X122320000Y-36390000D01*
X122820000Y-41890000D02*
X122820000Y-42590000D01*
X122820000Y-42590000D02*
X127320000Y-42590000D01*
X127320000Y-37890000D02*
X122820000Y-37890000D01*
X127320000Y-38490000D02*
X127320000Y-37890000D01*
X127320000Y-42590000D02*
X127320000Y-42090000D01*
X122820000Y-41890000D02*
G75*
G03*
X121320000Y-40390000I-1500000J0D01*
G01*
X122320000Y-37390000D02*
G75*
G03*
X122820000Y-37890000I500000J0D01*
G01*
X256967010Y-81765774D02*
X257546238Y-81360194D01*
X256359242Y-85212601D02*
X256764822Y-85791829D01*
X257546238Y-81360194D02*
X260500662Y-81881139D01*
X256764822Y-85791829D02*
X259226841Y-86225949D01*
X260500662Y-81881139D02*
X260906241Y-82460367D01*
X260732593Y-83445174D02*
X260906241Y-82460367D01*
X260443580Y-87963633D02*
X260322027Y-88652999D01*
X260322027Y-88652999D02*
X264753662Y-89434416D01*
X265569808Y-84805819D02*
X261138173Y-84024402D01*
X265465619Y-85396704D02*
X265569808Y-84805819D01*
X264753662Y-89434416D02*
X264840486Y-88942012D01*
X260443581Y-87963633D02*
G75*
G03*
X259226841Y-86225949I-1477212J260472D01*
G01*
X260732593Y-83445174D02*
G75*
G03*
X261138173Y-84024402I492404J-86824D01*
G01*
X100320000Y-68410000D02*
X100820000Y-67910000D01*
X100320000Y-71910000D02*
X100820000Y-72410000D01*
X100820000Y-67910000D02*
X103820000Y-67910000D01*
X100820000Y-72410000D02*
X103320000Y-72410000D01*
X103820000Y-67910000D02*
X104320000Y-68410000D01*
X104320000Y-69410000D02*
X104320000Y-68410000D01*
X104820000Y-73910000D02*
X104820000Y-74610000D01*
X104820000Y-74610000D02*
X109320000Y-74610000D01*
X109320000Y-69910000D02*
X104820000Y-69910000D01*
X109320000Y-70510000D02*
X109320000Y-69910000D01*
X109320000Y-74610000D02*
X109320000Y-74110000D01*
X104820000Y-73910000D02*
G75*
G03*
X103320000Y-72410000I-1500000J0D01*
G01*
X104320000Y-69410000D02*
G75*
G03*
X104820000Y-69910000I500000J0D01*
G01*
X219575000Y-62360000D02*
X220075000Y-61860000D01*
X219575000Y-65860000D02*
X220075000Y-66360000D01*
X220075000Y-61860000D02*
X223075000Y-61860000D01*
X220075000Y-66360000D02*
X222575000Y-66360000D01*
X223075000Y-61860000D02*
X223575000Y-62360000D01*
X223575000Y-63360000D02*
X223575000Y-62360000D01*
X224075000Y-67860000D02*
X224075000Y-68560000D01*
X224075000Y-68560000D02*
X228575000Y-68560000D01*
X228575000Y-63860000D02*
X224075000Y-63860000D01*
X228575000Y-64460000D02*
X228575000Y-63860000D01*
X228575000Y-68560000D02*
X228575000Y-68060000D01*
X224075000Y-67860000D02*
G75*
G03*
X222575000Y-66360000I-1500000J0D01*
G01*
X223575000Y-63360000D02*
G75*
G03*
X224075000Y-63860000I500000J0D01*
G01*
X82325000Y-45380000D02*
X82825000Y-44880000D01*
X82325000Y-48880000D02*
X82825000Y-49380000D01*
X82825000Y-44880000D02*
X85825000Y-44880000D01*
X82825000Y-49380000D02*
X85325000Y-49380000D01*
X85825000Y-44880000D02*
X86325000Y-45380000D01*
X86325000Y-46380000D02*
X86325000Y-45380000D01*
X86825000Y-50880000D02*
X86825000Y-51580000D01*
X86825000Y-51580000D02*
X91325000Y-51580000D01*
X91325000Y-46880000D02*
X86825000Y-46880000D01*
X91325000Y-47480000D02*
X91325000Y-46880000D01*
X91325000Y-51580000D02*
X91325000Y-51080000D01*
X86825000Y-50880000D02*
G75*
G03*
X85325000Y-49380000I-1500000J0D01*
G01*
X86325000Y-46380000D02*
G75*
G03*
X86825000Y-46880000I500000J0D01*
G01*
X219585000Y-45360000D02*
X220085000Y-44860000D01*
X219585000Y-48860000D02*
X220085000Y-49360000D01*
X220085000Y-44860000D02*
X223085000Y-44860000D01*
X220085000Y-49360000D02*
X222585000Y-49360000D01*
X223085000Y-44860000D02*
X223585000Y-45360000D01*
X223585000Y-46360000D02*
X223585000Y-45360000D01*
X224085000Y-50860000D02*
X224085000Y-51560000D01*
X224085000Y-51560000D02*
X228585000Y-51560000D01*
X228585000Y-46860000D02*
X224085000Y-46860000D01*
X228585000Y-47460000D02*
X228585000Y-46860000D01*
X228585000Y-51560000D02*
X228585000Y-51060000D01*
X224085000Y-50860000D02*
G75*
G03*
X222585000Y-49360000I-1500000J0D01*
G01*
X223585000Y-46360000D02*
G75*
G03*
X224085000Y-46860000I500000J0D01*
G01*
X219575000Y-28350000D02*
X220075000Y-27850000D01*
X219575000Y-31850000D02*
X220075000Y-32350000D01*
X220075000Y-27850000D02*
X223075000Y-27850000D01*
X220075000Y-32350000D02*
X222575000Y-32350000D01*
X223075000Y-27850000D02*
X223575000Y-28350000D01*
X223575000Y-29350000D02*
X223575000Y-28350000D01*
X224075000Y-33850000D02*
X224075000Y-34550000D01*
X224075000Y-34550000D02*
X228575000Y-34550000D01*
X228575000Y-29850000D02*
X224075000Y-29850000D01*
X228575000Y-30450000D02*
X228575000Y-29850000D01*
X228575000Y-34550000D02*
X228575000Y-34050000D01*
X224075000Y-33850000D02*
G75*
G03*
X222575000Y-32350000I-1500000J0D01*
G01*
X223575000Y-29350000D02*
G75*
G03*
X224075000Y-29850000I500000J0D01*
G01*
D14*
X147770000Y-35710000D02*
X144270000Y-35710000D01*
X147770000Y-35710000D02*
X147770000Y-39210000D01*
X130070000Y-35710000D02*
X133570000Y-35710000D01*
X130070000Y-35710000D02*
X130070000Y-39210000D01*
X130070000Y-65310000D02*
X130070000Y-68810000D01*
X147770000Y-68810000D02*
X147770000Y-65310000D01*
X147770000Y-68810000D02*
X144270000Y-68810000D01*
X130070000Y-68810000D02*
X130070000Y-65310000D01*
X130070000Y-68810000D02*
X133570000Y-68810000D01*
D13*
X134538432Y-44949360D02*
X134438432Y-44949360D01*
X134438432Y-44149360D01*
X134538432Y-44149360D01*
X134538432Y-44949360D01*
G36*
X134538432Y-44949360D02*
G01*
X134438432Y-44949360D01*
X134438432Y-44149360D01*
X134538432Y-44149360D01*
X134538432Y-44949360D01*
G37*
X134538432Y-44249360D02*
X134038432Y-44249360D01*
X134038432Y-44149360D01*
X134538432Y-44149360D01*
X134538432Y-44249360D01*
G36*
X134538432Y-44249360D02*
G01*
X134038432Y-44249360D01*
X134038432Y-44149360D01*
X134538432Y-44149360D01*
X134538432Y-44249360D01*
G37*
X134138432Y-44449360D02*
X134038432Y-44449360D01*
X134038432Y-44149360D01*
X134138432Y-44149360D01*
X134138432Y-44449360D01*
G36*
X134138432Y-44449360D02*
G01*
X134038432Y-44449360D01*
X134038432Y-44149360D01*
X134138432Y-44149360D01*
X134138432Y-44449360D01*
G37*
X134338432Y-44649360D02*
X134238432Y-44649360D01*
X134238432Y-44549360D01*
X134338432Y-44549360D01*
X134338432Y-44649360D01*
G36*
X134338432Y-44649360D02*
G01*
X134238432Y-44649360D01*
X134238432Y-44549360D01*
X134338432Y-44549360D01*
X134338432Y-44649360D01*
G37*
X134138432Y-44949360D02*
X134038432Y-44949360D01*
X134038432Y-44749360D01*
X134138432Y-44749360D01*
X134138432Y-44949360D01*
G36*
X134138432Y-44949360D02*
G01*
X134038432Y-44949360D01*
X134038432Y-44749360D01*
X134138432Y-44749360D01*
X134138432Y-44949360D01*
G37*
D14*
X175940000Y-35686750D02*
X172440000Y-35686750D01*
X175940000Y-35686750D02*
X175940000Y-39186750D01*
X158240000Y-35686750D02*
X161740000Y-35686750D01*
X158240000Y-35686750D02*
X158240000Y-39186750D01*
X158240000Y-65286750D02*
X158240000Y-68786750D01*
X175940000Y-68786750D02*
X175940000Y-65286750D01*
X175940000Y-68786750D02*
X172440000Y-68786750D01*
X158240000Y-68786750D02*
X158240000Y-65286750D01*
X158240000Y-68786750D02*
X161740000Y-68786750D01*
D13*
X162708432Y-44926110D02*
X162608432Y-44926110D01*
X162608432Y-44126110D01*
X162708432Y-44126110D01*
X162708432Y-44926110D01*
G36*
X162708432Y-44926110D02*
G01*
X162608432Y-44926110D01*
X162608432Y-44126110D01*
X162708432Y-44126110D01*
X162708432Y-44926110D01*
G37*
X162708432Y-44226110D02*
X162208432Y-44226110D01*
X162208432Y-44126110D01*
X162708432Y-44126110D01*
X162708432Y-44226110D01*
G36*
X162708432Y-44226110D02*
G01*
X162208432Y-44226110D01*
X162208432Y-44126110D01*
X162708432Y-44126110D01*
X162708432Y-44226110D01*
G37*
X162308432Y-44426110D02*
X162208432Y-44426110D01*
X162208432Y-44126110D01*
X162308432Y-44126110D01*
X162308432Y-44426110D01*
G36*
X162308432Y-44426110D02*
G01*
X162208432Y-44426110D01*
X162208432Y-44126110D01*
X162308432Y-44126110D01*
X162308432Y-44426110D01*
G37*
X162508432Y-44626110D02*
X162408432Y-44626110D01*
X162408432Y-44526110D01*
X162508432Y-44526110D01*
X162508432Y-44626110D01*
G36*
X162508432Y-44626110D02*
G01*
X162408432Y-44626110D01*
X162408432Y-44526110D01*
X162508432Y-44526110D01*
X162508432Y-44626110D01*
G37*
X162308432Y-44926110D02*
X162208432Y-44926110D01*
X162208432Y-44726110D01*
X162308432Y-44726110D01*
X162308432Y-44926110D01*
G36*
X162308432Y-44926110D02*
G01*
X162208432Y-44926110D01*
X162208432Y-44726110D01*
X162308432Y-44726110D01*
X162308432Y-44926110D01*
G37*
D15*
X141510000Y-64940000D03*
X169680000Y-64916750D03*
X141510000Y-62400000D03*
X172220000Y-64916750D03*
X144050000Y-64940000D03*
X138966000Y-62400000D03*
X138966000Y-64940000D03*
X167140000Y-62376750D03*
X144050000Y-62400000D03*
X172220000Y-62376750D03*
X167140000Y-64916750D03*
X169680000Y-62376750D03*
D16*
X146590000Y-39540000D03*
D15*
X146590000Y-42080000D03*
X146590000Y-44620000D03*
X146590000Y-47160000D03*
X146590000Y-49700000D03*
X146590000Y-52240000D03*
X146590000Y-54780000D03*
X146590000Y-57320000D03*
X146590000Y-59860000D03*
X146590000Y-62400000D03*
X146590000Y-64940000D03*
X146590000Y-67480000D03*
X131350000Y-67480000D03*
X131350000Y-64940000D03*
X131350000Y-62400000D03*
X131350000Y-59860000D03*
X131350000Y-57320000D03*
X131350000Y-54780000D03*
X131350000Y-52240000D03*
X131350000Y-49700000D03*
X131350000Y-47160000D03*
X131350000Y-44620000D03*
X131350000Y-42080000D03*
X131350000Y-39540000D03*
X144050000Y-67480000D03*
X141510000Y-67480000D03*
X138970000Y-67480000D03*
D16*
X174760000Y-39516750D03*
D15*
X174760000Y-42056750D03*
X174760000Y-44596750D03*
X174760000Y-47136750D03*
X174760000Y-49676750D03*
X174760000Y-52216750D03*
X174760000Y-54756750D03*
X174760000Y-57296750D03*
X174760000Y-59836750D03*
X174760000Y-62376750D03*
X174760000Y-64916750D03*
X174760000Y-67456750D03*
X159520000Y-67456750D03*
X159520000Y-64916750D03*
X159520000Y-62376750D03*
X159520000Y-59836750D03*
X159520000Y-57296750D03*
X159520000Y-54756750D03*
X159520000Y-52216750D03*
X159520000Y-49676750D03*
X159520000Y-47136750D03*
X159520000Y-44596750D03*
X159520000Y-42056750D03*
X159520000Y-39516750D03*
X172220000Y-67456750D03*
X169680000Y-67456750D03*
X167140000Y-67456750D03*
%LPC*%
D17*
X59956790Y-76110866D03*
D18*
X64917284Y-69704151D03*
D19*
X65435861Y-75631509D03*
D18*
X70090000Y-71460000D03*
D17*
X70914932Y-75152152D03*
D20*
X61654747Y-69989586D03*
D21*
X65950080Y-81509058D03*
X60786079Y-79852828D03*
D20*
X73352538Y-71174565D03*
D15*
X141510000Y-64940000D03*
D17*
X133213453Y-114339441D03*
D18*
X141309825Y-114021243D03*
D19*
X137102540Y-118228528D03*
D18*
X143289724Y-119112411D03*
D17*
X140991627Y-122117615D03*
D22*
X138994051Y-111705468D03*
D21*
X132930610Y-122400458D03*
X130880000Y-117380000D03*
D22*
X145605499Y-121428186D03*
D23*
X220319600Y-85852000D03*
X222859600Y-85852000D03*
D15*
X169680000Y-64916750D03*
D17*
X180075000Y-44070000D03*
D18*
X185575000Y-38120000D03*
D19*
X185575000Y-44070000D03*
D18*
X190575000Y-40320000D03*
D17*
X191075000Y-44070000D03*
D24*
X182300000Y-38120000D03*
D21*
X185575000Y-49970000D03*
X180575000Y-47870000D03*
D24*
X193850000Y-40320000D03*
D17*
X114825000Y-78080000D03*
D18*
X120325000Y-72130000D03*
D19*
X120325000Y-78080000D03*
D18*
X125325000Y-74330000D03*
D17*
X125825000Y-78080000D03*
D24*
X117050000Y-72130000D03*
D21*
X120325000Y-83980000D03*
X115325000Y-81880000D03*
D24*
X128600000Y-74330000D03*
D25*
X168760400Y-36957200D03*
X165760400Y-36957200D03*
D17*
X258075596Y-55263239D03*
D18*
X264525246Y-50358698D03*
D19*
X263492039Y-56218304D03*
D18*
X269067258Y-53393516D03*
D17*
X268908482Y-57173369D03*
D26*
X261300000Y-49790000D03*
D21*
X262467515Y-62028670D03*
X257908137Y-59092333D03*
D26*
X272292504Y-53962214D03*
D17*
X255143092Y-71991025D03*
D18*
X261592742Y-67086484D03*
D19*
X260559535Y-72946090D03*
D18*
X266134754Y-70121302D03*
D17*
X265975978Y-73901155D03*
D26*
X258367496Y-66517786D03*
D21*
X259535011Y-78756456D03*
X254975633Y-75820119D03*
D26*
X269360000Y-70690000D03*
D17*
X96840000Y-42070000D03*
D18*
X102340000Y-36120000D03*
D19*
X102340000Y-42070000D03*
D18*
X107340000Y-38320000D03*
D17*
X107840000Y-42070000D03*
D24*
X99065000Y-36120000D03*
D21*
X102340000Y-47970000D03*
X97340000Y-45870000D03*
D24*
X110615000Y-38320000D03*
D17*
X116216987Y-103099103D03*
D18*
X123955127Y-100696252D03*
D19*
X120980127Y-105849103D03*
D18*
X127185254Y-105101508D03*
D17*
X125743267Y-108599103D03*
D27*
X121118894Y-99058752D03*
D21*
X118030127Y-110958653D03*
X114750000Y-106640000D03*
D27*
X130021487Y-106739008D03*
D28*
X142780000Y-72220000D03*
D29*
X140240000Y-72220000D03*
X137700000Y-72220000D03*
X135160000Y-72220000D03*
D28*
X170970000Y-72200000D03*
D29*
X168430000Y-72200000D03*
X165890000Y-72200000D03*
X163350000Y-72200000D03*
D17*
X96890550Y-96640072D03*
D18*
X103743115Y-92316318D03*
D19*
X102203142Y-98063577D03*
D18*
X108003343Y-95735450D03*
D17*
X107515734Y-99487082D03*
D30*
X100579708Y-91468686D03*
D21*
X100676110Y-103762539D03*
X96390000Y-100440000D03*
D30*
X111166750Y-96583083D03*
D15*
X141510000Y-62400000D03*
X172220000Y-64916750D03*
D17*
X234994890Y-75153437D03*
D18*
X240992538Y-69705436D03*
D19*
X240473961Y-75632794D03*
D18*
X245781769Y-72332843D03*
D17*
X245953032Y-76112151D03*
D31*
X237730000Y-69420000D03*
D21*
X239959742Y-81510343D03*
X235161796Y-78982555D03*
D31*
X249044306Y-72618278D03*
D32*
X159110000Y-82550000D03*
X166110000Y-82550000D03*
D33*
X168810000Y-84850000D03*
X167710000Y-80250000D03*
X163710000Y-80250000D03*
X160710000Y-80250000D03*
D17*
X180085000Y-61060000D03*
D18*
X185585000Y-55110000D03*
D19*
X185585000Y-61060000D03*
D18*
X190585000Y-57310000D03*
D17*
X191085000Y-61060000D03*
D24*
X182310000Y-55110000D03*
D21*
X185585000Y-66960000D03*
X180585000Y-64860000D03*
D24*
X193860000Y-57310000D03*
D17*
X180166987Y-108599103D03*
D18*
X181955127Y-100696252D03*
D19*
X184930127Y-105849103D03*
D18*
X187385254Y-100101508D03*
D17*
X189693267Y-103099103D03*
D34*
X179118894Y-102333752D03*
D21*
X187880127Y-110958653D03*
X182500000Y-111640000D03*
D34*
X190221487Y-98464008D03*
D18*
X73240000Y-63600000D03*
X92290000Y-44550000D03*
X92290000Y-82650000D03*
X111340000Y-63600000D03*
X194710000Y-63600000D03*
X213760000Y-44550000D03*
X213760000Y-82650000D03*
X232810000Y-63600000D03*
D17*
X78825000Y-36080000D03*
D18*
X84325000Y-30130000D03*
D19*
X84325000Y-36080000D03*
D18*
X89325000Y-32330000D03*
D17*
X89825000Y-36080000D03*
D24*
X81050000Y-30130000D03*
D21*
X84325000Y-41980000D03*
X79325000Y-39880000D03*
D24*
X92600000Y-32330000D03*
D15*
X144050000Y-64940000D03*
D35*
X144475200Y-36957000D03*
D15*
X133807200Y-36957000D03*
D36*
X156307250Y-85090000D03*
X156307250Y-83820000D03*
X156307250Y-82550000D03*
X156307250Y-81280000D03*
X156307250Y-80010000D03*
D37*
X135680000Y-76150000D03*
X142180000Y-76150000D03*
D17*
X237954890Y-41263437D03*
D18*
X243952538Y-35815436D03*
D19*
X243433961Y-41742794D03*
D18*
X248741769Y-38442843D03*
D17*
X248913032Y-42222151D03*
D31*
X240690000Y-35530000D03*
D21*
X242919742Y-47620343D03*
X238121796Y-45092555D03*
D31*
X252004306Y-38728278D03*
D15*
X138966000Y-62400000D03*
D35*
X161899600Y-36957000D03*
D15*
X172567600Y-36957000D03*
D25*
X140614400Y-36975000D03*
X137614400Y-36975000D03*
D17*
X164918983Y-122087157D03*
D18*
X164600785Y-113990785D03*
D19*
X168808070Y-118198070D03*
D18*
X169691953Y-112010886D03*
D17*
X172697157Y-114308983D03*
D38*
X162285010Y-116306559D03*
D21*
X172980000Y-122370000D03*
X167959542Y-124420610D03*
D38*
X172007728Y-109695111D03*
D17*
X198085000Y-42050000D03*
D18*
X203585000Y-36100000D03*
D19*
X203585000Y-42050000D03*
D18*
X208585000Y-38300000D03*
D17*
X209085000Y-42050000D03*
D24*
X200310000Y-36100000D03*
D21*
X203585000Y-47950000D03*
X198585000Y-45850000D03*
D24*
X211860000Y-38300000D03*
D17*
X198075000Y-76050000D03*
D18*
X203575000Y-70100000D03*
D19*
X203575000Y-76050000D03*
D18*
X208575000Y-72300000D03*
D17*
X209075000Y-76050000D03*
D24*
X200300000Y-70100000D03*
D21*
X203575000Y-81950000D03*
X198575000Y-79850000D03*
D24*
X211850000Y-72300000D03*
D15*
X138966000Y-64940000D03*
D23*
X83058000Y-85852000D03*
X85598000Y-85852000D03*
D17*
X39936764Y-73954671D03*
D18*
X44320000Y-67140000D03*
D19*
X45353207Y-72999606D03*
D18*
X49626065Y-68438336D03*
D17*
X50769650Y-72044541D03*
D39*
X41094755Y-67708698D03*
D21*
X46377731Y-78809972D03*
X41089031Y-77610116D03*
D39*
X52851310Y-67869638D03*
D17*
X114825000Y-61100000D03*
D18*
X120325000Y-55150000D03*
D19*
X120325000Y-61100000D03*
D18*
X125325000Y-57350000D03*
D17*
X125825000Y-61100000D03*
D24*
X117050000Y-55150000D03*
D21*
X120325000Y-67000000D03*
X115325000Y-64900000D03*
D24*
X128600000Y-57350000D03*
D17*
X58470929Y-59179357D03*
D18*
X63431423Y-52772642D03*
D19*
X63950000Y-58700000D03*
D18*
X68604139Y-54528491D03*
D17*
X69429071Y-58220643D03*
D20*
X60168886Y-53058077D03*
D21*
X64464219Y-64577549D03*
X59300218Y-62921319D03*
D20*
X71866677Y-54243056D03*
D17*
X236474890Y-58213437D03*
D18*
X242472538Y-52765436D03*
D19*
X241953961Y-58692794D03*
D18*
X247261769Y-55392843D03*
D17*
X247433032Y-59172151D03*
D31*
X239210000Y-52480000D03*
D21*
X241439742Y-64570343D03*
X236641796Y-62042555D03*
D31*
X250524306Y-55678278D03*
D17*
X198085000Y-59050000D03*
D18*
X203585000Y-53100000D03*
D19*
X203585000Y-59050000D03*
D18*
X208585000Y-55300000D03*
D17*
X209085000Y-59050000D03*
D24*
X200310000Y-53100000D03*
D21*
X203585000Y-64950000D03*
X198585000Y-62850000D03*
D24*
X211860000Y-55300000D03*
D17*
X78805000Y-70120000D03*
D18*
X84305000Y-64170000D03*
D19*
X84305000Y-70120000D03*
D18*
X89305000Y-66370000D03*
D17*
X89805000Y-70120000D03*
D24*
X81030000Y-64170000D03*
D21*
X84305000Y-76020000D03*
X79305000Y-73920000D03*
D24*
X92580000Y-66370000D03*
D17*
X180075000Y-78070000D03*
D18*
X185575000Y-72120000D03*
D19*
X185575000Y-78070000D03*
D18*
X190575000Y-74320000D03*
D17*
X191075000Y-78070000D03*
D24*
X182300000Y-72120000D03*
D21*
X185575000Y-83970000D03*
X180575000Y-81870000D03*
D24*
X193850000Y-74320000D03*
D37*
X164020000Y-76160000D03*
X170520000Y-76160000D03*
D15*
X167140000Y-62376750D03*
D17*
X42892009Y-90695973D03*
D18*
X47275245Y-83881302D03*
D19*
X48308452Y-89740908D03*
D18*
X52581310Y-85179638D03*
D17*
X53724895Y-88785843D03*
D39*
X44050000Y-84450000D03*
D21*
X49332976Y-95551274D03*
X44044276Y-94351418D03*
D39*
X55806555Y-84610940D03*
D17*
X36996764Y-57194671D03*
D18*
X41380000Y-50380000D03*
D19*
X42413207Y-56239606D03*
D18*
X46686065Y-51678336D03*
D17*
X47829650Y-55284541D03*
D39*
X38154755Y-50948698D03*
D21*
X43437731Y-62049972D03*
X38149031Y-60850116D03*
D39*
X49911310Y-51109638D03*
D17*
X56990929Y-42269357D03*
D18*
X61951423Y-35862642D03*
D19*
X62470000Y-41790000D03*
D18*
X67124139Y-37618491D03*
D17*
X67949071Y-41310643D03*
D20*
X58688886Y-36148077D03*
D21*
X62984219Y-47667549D03*
X57820218Y-46011319D03*
D20*
X70386677Y-37333056D03*
D15*
X144050000Y-62400000D03*
D36*
X149775150Y-42940000D03*
X149775150Y-44210000D03*
X149775150Y-45480000D03*
X149775150Y-46750000D03*
X149775150Y-48020000D03*
D17*
X96815000Y-59100000D03*
D18*
X102315000Y-53150000D03*
D19*
X102315000Y-59100000D03*
D18*
X107315000Y-55350000D03*
D17*
X107815000Y-59100000D03*
D24*
X99040000Y-53150000D03*
D21*
X102315000Y-65000000D03*
X97315000Y-62900000D03*
D24*
X110590000Y-55350000D03*
D32*
X146850000Y-82550000D03*
X139850000Y-82550000D03*
D33*
X137150000Y-80250000D03*
X138250000Y-84850000D03*
X142250000Y-84850000D03*
X145250000Y-84850000D03*
D36*
X156284000Y-42930000D03*
X156284000Y-44200000D03*
X156284000Y-45470000D03*
X156284000Y-46740000D03*
X156284000Y-48010000D03*
D17*
X198370376Y-99494543D03*
D18*
X202142995Y-92323779D03*
D19*
X203682968Y-98071038D03*
D18*
X207542026Y-93154721D03*
D17*
X208995560Y-96647533D03*
D40*
X198979588Y-93171412D03*
D21*
X205210000Y-103770000D03*
X199836851Y-103035651D03*
D40*
X210705433Y-92307089D03*
D36*
X149758400Y-80010000D03*
X149758400Y-81280000D03*
X149758400Y-82550000D03*
X149758400Y-83820000D03*
X149758400Y-85090000D03*
D15*
X172220000Y-62376750D03*
D17*
X114820000Y-44090000D03*
D18*
X120320000Y-38140000D03*
D19*
X120320000Y-44090000D03*
D18*
X125320000Y-40340000D03*
D17*
X125820000Y-44090000D03*
D24*
X117045000Y-38140000D03*
D21*
X120320000Y-49990000D03*
X115320000Y-47890000D03*
D24*
X128595000Y-40340000D03*
D17*
X252183092Y-88741025D03*
D18*
X258632742Y-83836484D03*
D19*
X257599535Y-89696090D03*
D18*
X263174754Y-86871302D03*
D17*
X263015978Y-90651155D03*
D26*
X255407496Y-83267786D03*
D21*
X256575011Y-95506456D03*
X252015633Y-92570119D03*
D26*
X266400000Y-87440000D03*
D17*
X96820000Y-76110000D03*
D18*
X102320000Y-70160000D03*
D19*
X102320000Y-76110000D03*
D18*
X107320000Y-72360000D03*
D17*
X107820000Y-76110000D03*
D24*
X99045000Y-70160000D03*
D21*
X102320000Y-82010000D03*
X97320000Y-79910000D03*
D24*
X110595000Y-72360000D03*
D17*
X216075000Y-70060000D03*
D18*
X221575000Y-64110000D03*
D19*
X221575000Y-70060000D03*
D18*
X226575000Y-66310000D03*
D17*
X227075000Y-70060000D03*
D24*
X218300000Y-64110000D03*
D21*
X221575000Y-75960000D03*
X216575000Y-73860000D03*
D24*
X229850000Y-66310000D03*
D15*
X167140000Y-64916750D03*
D41*
X153020000Y-40360000D03*
D17*
X78825000Y-53080000D03*
D18*
X84325000Y-47130000D03*
D19*
X84325000Y-53080000D03*
D18*
X89325000Y-49330000D03*
D17*
X89825000Y-53080000D03*
D24*
X81050000Y-47130000D03*
D21*
X84325000Y-58980000D03*
X79325000Y-56880000D03*
D24*
X92600000Y-49330000D03*
D17*
X216085000Y-53060000D03*
D18*
X221585000Y-47110000D03*
D19*
X221585000Y-53060000D03*
D18*
X226585000Y-49310000D03*
D17*
X227085000Y-53060000D03*
D24*
X218310000Y-47110000D03*
D21*
X221585000Y-58960000D03*
X216585000Y-56860000D03*
D24*
X229860000Y-49310000D03*
D15*
X169680000Y-62376750D03*
D17*
X216075000Y-36050000D03*
D18*
X221575000Y-30100000D03*
D19*
X221575000Y-36050000D03*
D18*
X226575000Y-32300000D03*
D17*
X227075000Y-36050000D03*
D24*
X218300000Y-30100000D03*
D21*
X221575000Y-41950000D03*
X216575000Y-39850000D03*
D24*
X229850000Y-32300000D03*
D16*
X146590000Y-39540000D03*
D15*
X146590000Y-42080000D03*
X146590000Y-44620000D03*
X146590000Y-47160000D03*
X146590000Y-49700000D03*
X146590000Y-52240000D03*
X146590000Y-54780000D03*
X146590000Y-57320000D03*
X146590000Y-59860000D03*
X146590000Y-62400000D03*
X146590000Y-64940000D03*
X146590000Y-67480000D03*
X131350000Y-67480000D03*
X131350000Y-64940000D03*
X131350000Y-62400000D03*
X131350000Y-59860000D03*
X131350000Y-57320000D03*
X131350000Y-54780000D03*
X131350000Y-52240000D03*
X131350000Y-49700000D03*
X131350000Y-47160000D03*
X131350000Y-44620000D03*
X131350000Y-42080000D03*
X131350000Y-39540000D03*
X144050000Y-67480000D03*
X141510000Y-67480000D03*
X138970000Y-67480000D03*
D16*
X174760000Y-39516750D03*
D15*
X174760000Y-42056750D03*
X174760000Y-44596750D03*
X174760000Y-47136750D03*
X174760000Y-49676750D03*
X174760000Y-52216750D03*
X174760000Y-54756750D03*
X174760000Y-57296750D03*
X174760000Y-59836750D03*
X174760000Y-62376750D03*
X174760000Y-64916750D03*
X174760000Y-67456750D03*
X159520000Y-67456750D03*
X159520000Y-64916750D03*
X159520000Y-62376750D03*
X159520000Y-59836750D03*
X159520000Y-57296750D03*
X159520000Y-54756750D03*
X159520000Y-52216750D03*
X159520000Y-49676750D03*
X159520000Y-47136750D03*
X159520000Y-44596750D03*
X159520000Y-42056750D03*
X159520000Y-39516750D03*
X172220000Y-67456750D03*
X169680000Y-67456750D03*
X167140000Y-67456750D03*
%LPD*%
M02*
