%TF.GenerationSoftware,KiCad,Pcbnew,7.0.6*%
%TF.CreationDate,2023-10-23T01:01:32+01:00*%
%TF.ProjectId,dasbob,64617362-6f62-42e6-9b69-6361645f7063,rev?*%
%TF.SameCoordinates,Original*%
%TF.FileFunction,Drillmap*%
%TF.FilePolarity,Positive*%
%FSLAX45Y45*%
G04 Gerber Fmt 4.5, Leading zero omitted, Abs format (unit mm)*
G04 Created by KiCad (PCBNEW 7.0.6) date 2023-10-23 01:01:32*
%MOMM*%
%LPD*%
G01*
G04 APERTURE LIST*
%ADD10C,0.090000*%
%ADD11C,0.200000*%
%ADD12C,0.078740*%
%ADD13C,0.080000*%
%ADD14C,0.170180*%
%ADD15C,0.270000*%
%ADD16C,0.300000*%
%ADD17C,0.342900*%
G04 APERTURE END LIST*
D10*
X15592848Y-9199639D02*
X15592848Y-8590000D01*
X19500744Y-3273501D02*
X19488065Y-3274141D01*
X19475753Y-3276020D01*
X19463870Y-3279076D01*
X19452477Y-3283246D01*
X19441637Y-3288467D01*
X19431414Y-3294678D01*
X19421868Y-3301817D01*
X19413062Y-3309820D01*
X19405059Y-3318626D01*
X19397920Y-3328172D01*
X19391709Y-3338396D01*
X19386487Y-3349235D01*
X19382318Y-3360628D01*
X19379262Y-3372511D01*
X19377383Y-3384824D01*
X19376743Y-3397502D01*
X9428761Y-2797427D02*
X9428120Y-2784748D01*
X9426241Y-2772436D01*
X9423186Y-2760553D01*
X9419016Y-2749160D01*
X9413794Y-2738320D01*
X9407583Y-2728097D01*
X9400445Y-2718551D01*
X9392441Y-2709745D01*
X9383636Y-2701742D01*
X9374090Y-2694603D01*
X9363866Y-2688392D01*
X9353026Y-2683170D01*
X9341634Y-2679001D01*
X9329750Y-2675945D01*
X9317438Y-2674066D01*
X9304760Y-2673426D01*
X15653943Y-11590500D02*
X15517000Y-11727115D01*
X20910973Y-10638090D02*
X21025979Y-10607752D01*
X14976720Y-7955526D02*
X14967771Y-7954399D01*
X14958153Y-7950342D01*
X14950215Y-7943795D01*
X14944444Y-7935243D01*
X14941326Y-7925173D01*
X14940913Y-7919720D01*
X15664461Y-11565151D02*
X15663153Y-11574739D01*
X15659366Y-11583560D01*
X15653943Y-11590500D01*
X21162963Y-8747556D02*
X24760496Y-8747556D01*
X15012528Y-9199639D02*
X15012986Y-9208711D01*
X15015321Y-9221813D01*
X15019500Y-9234174D01*
X15025373Y-9245645D01*
X15032788Y-9256075D01*
X15041596Y-9265314D01*
X15051645Y-9273210D01*
X15062786Y-9279613D01*
X15074868Y-9284373D01*
X15087739Y-9287340D01*
X15101251Y-9288362D01*
X14940913Y-11564798D02*
X14940913Y-8590000D01*
X3142613Y-4896279D02*
X3136812Y-4905642D01*
X3132310Y-4915477D01*
X3129117Y-4925686D01*
X3127239Y-4936173D01*
X3126685Y-4946841D01*
X3127464Y-4957593D01*
X3128150Y-4961895D01*
X7452501Y-3101693D02*
X7451069Y-3111741D01*
X7447035Y-3120713D01*
X7440789Y-3128181D01*
X7432723Y-3133719D01*
X7423227Y-3136901D01*
X7419812Y-3137364D01*
X19746030Y-10952376D02*
X19756053Y-10949330D01*
X19769186Y-10945481D01*
X19785286Y-10940866D01*
X19804214Y-10935520D01*
X19825829Y-10929481D01*
X19849990Y-10922786D01*
X19876556Y-10915470D01*
X19905387Y-10907570D01*
X19936342Y-10899123D01*
X19969280Y-10890166D01*
X20004061Y-10880736D01*
X20040545Y-10870868D01*
X20078589Y-10860600D01*
X20118054Y-10849967D01*
X20158799Y-10839008D01*
X20200683Y-10827757D01*
X20243566Y-10816253D01*
X20287306Y-10804531D01*
X20331764Y-10792628D01*
X20376799Y-10780581D01*
X20422269Y-10768426D01*
X20468034Y-10756201D01*
X20513954Y-10743940D01*
X20559888Y-10731682D01*
X20605695Y-10719463D01*
X20651234Y-10707319D01*
X20696365Y-10695288D01*
X20740947Y-10683405D01*
X20784840Y-10671707D01*
X20827902Y-10660231D01*
X20869993Y-10649013D01*
X20910973Y-10638090D01*
X15628654Y-4847596D02*
X15628654Y-4847596D01*
X17342272Y-12696901D02*
X17359558Y-12679615D01*
X15504125Y-9288362D02*
X15513196Y-9287904D01*
X15526298Y-9285569D01*
X15538660Y-9281390D01*
X15550131Y-9275518D01*
X15560561Y-9268102D01*
X15569799Y-9259295D01*
X15577695Y-9249245D01*
X15584099Y-9238104D01*
X15588859Y-9226023D01*
X15591826Y-9213151D01*
X15592848Y-9199639D01*
X19376743Y-3397502D02*
X19376743Y-3437721D01*
X9442769Y-8747556D02*
X9453272Y-8749108D01*
X9462452Y-8753430D01*
X9469922Y-8760020D01*
X9475299Y-8768377D01*
X9478196Y-8777997D01*
X9478229Y-8788380D01*
X9477354Y-8792634D01*
X14976720Y-4847596D02*
X14976722Y-4847596D01*
X15628654Y-4247520D02*
X15619706Y-4246393D01*
X15610087Y-4242336D01*
X15602150Y-4235789D01*
X15596379Y-4227237D01*
X15593261Y-4217167D01*
X15592848Y-4211714D01*
X16906592Y-13131877D02*
X16914287Y-13125008D01*
X16920861Y-13118771D01*
X16929721Y-13110197D01*
X16941219Y-13098934D01*
X16948066Y-13092184D01*
X16955705Y-13084630D01*
X16964179Y-13076227D01*
X16973532Y-13066933D01*
X16983808Y-13056702D01*
X16995051Y-13045490D01*
X17007305Y-13033255D01*
X17020613Y-13019951D01*
X17035020Y-13005535D01*
X17050570Y-12989963D01*
X17067306Y-12973190D01*
X17085272Y-12955174D01*
X17104513Y-12935869D01*
X17125072Y-12915232D01*
X17146993Y-12893219D01*
X17170320Y-12869786D01*
X17195098Y-12844889D01*
X17221369Y-12818483D01*
X17249178Y-12790526D01*
X17278569Y-12760972D01*
X17309586Y-12729779D01*
X17342272Y-12696901D01*
X3128150Y-4961895D02*
X4031260Y-10083525D01*
X9304760Y-2673426D02*
X7576502Y-2673426D01*
X9477354Y-8792634D02*
X9053053Y-10375271D01*
X5845228Y-8747556D02*
X9442769Y-8747556D01*
X25389134Y-3356052D02*
X25381436Y-3347979D01*
X25372965Y-3340996D01*
X25363825Y-3335160D01*
X25354122Y-3330527D01*
X25343959Y-3327153D01*
X25333443Y-3325096D01*
X25329162Y-3324654D01*
X5276919Y-3324654D02*
X5266150Y-3326169D01*
X5255737Y-3329023D01*
X5245776Y-3333159D01*
X5236364Y-3338521D01*
X5227598Y-3345052D01*
X5219575Y-3352696D01*
X5216595Y-3356052D01*
X9428761Y-3237695D02*
X9428761Y-2797427D01*
X15628654Y-7955526D02*
X15619706Y-7954399D01*
X15610087Y-7950342D01*
X15602150Y-7943795D01*
X15596379Y-7935243D01*
X15593261Y-7925173D01*
X15592848Y-7919720D01*
X15628654Y-4247520D02*
X15628654Y-4247520D01*
X21141160Y-3273501D02*
X19500744Y-3273501D01*
X21025979Y-10607752D02*
X21050285Y-10601281D01*
X21073734Y-10595038D01*
X21096342Y-10589020D01*
X21118125Y-10583220D01*
X21139097Y-10577636D01*
X21159276Y-10572263D01*
X21178676Y-10567097D01*
X21197313Y-10562134D01*
X21215203Y-10557368D01*
X21232362Y-10552797D01*
X21248805Y-10548416D01*
X21264549Y-10544220D01*
X21279608Y-10540205D01*
X21293998Y-10536368D01*
X21307735Y-10532703D01*
X21320836Y-10529207D01*
X21333315Y-10525875D01*
X21345188Y-10522703D01*
X21356471Y-10519687D01*
X21367179Y-10516823D01*
X21377329Y-10514106D01*
X21386936Y-10511531D01*
X21396016Y-10509096D01*
X21412656Y-10504625D01*
X21427376Y-10500657D01*
X21440301Y-10497160D01*
X21451555Y-10494099D01*
X21456596Y-10492721D01*
X15592848Y-7919720D02*
X15592848Y-4883402D01*
X23185788Y-3137361D02*
X23175916Y-3135059D01*
X23167359Y-3130260D01*
X23160498Y-3123391D01*
X23155715Y-3114877D01*
X23153391Y-3105143D01*
X23153228Y-3101701D01*
X7452501Y-2797427D02*
X7452501Y-3101693D01*
X15517000Y-11727115D02*
X15510985Y-11733835D01*
X15503466Y-11744709D01*
X15497752Y-11756351D01*
X15493842Y-11768551D01*
X15491737Y-11781100D01*
X15491436Y-11793789D01*
X15492940Y-11806408D01*
X15496248Y-11818747D01*
X15501361Y-11830599D01*
X15508278Y-11841753D01*
X15517000Y-11852000D01*
X21128379Y-8792636D02*
X21127157Y-8782088D01*
X21128955Y-8772102D01*
X21133386Y-8763180D01*
X21140065Y-8755823D01*
X21148607Y-8750533D01*
X21158627Y-8747812D01*
X21162963Y-8747556D01*
X17359558Y-12679615D02*
X17388729Y-12650279D01*
X17418694Y-12620147D01*
X17449353Y-12589321D01*
X17480606Y-12557903D01*
X17512353Y-12525992D01*
X17544496Y-12493691D01*
X17576935Y-12461102D01*
X17609569Y-12428325D01*
X17642300Y-12395462D01*
X17675028Y-12362614D01*
X17707653Y-12329883D01*
X17740075Y-12297370D01*
X17772196Y-12265176D01*
X17803916Y-12233403D01*
X17835134Y-12202152D01*
X17865752Y-12171525D01*
X17895670Y-12141622D01*
X17924789Y-12112546D01*
X17953008Y-12084397D01*
X17980228Y-12057277D01*
X18006349Y-12031288D01*
X18031273Y-12006530D01*
X18054900Y-11983105D01*
X18077129Y-11961115D01*
X18097861Y-11940660D01*
X18116998Y-11921843D01*
X18134438Y-11904764D01*
X18150083Y-11889525D01*
X18163833Y-11876227D01*
X18175589Y-11864972D01*
X18185251Y-11855860D01*
X18192719Y-11848995D01*
X5196487Y-3420258D02*
X5287460Y-4458601D01*
X16852265Y-13150575D02*
X16861441Y-13150111D01*
X16870422Y-13148725D01*
X16879167Y-13146425D01*
X16887635Y-13143218D01*
X16895787Y-13139115D01*
X16903583Y-13134121D01*
X16906592Y-13131877D01*
X15012528Y-4883402D02*
X15012528Y-4869158D01*
X15012527Y-4894357D01*
X15012527Y-4931554D01*
X15012527Y-4983653D01*
X15012527Y-5049530D01*
X15012527Y-5128063D01*
X15012527Y-5218128D01*
X15012526Y-5318602D01*
X15012526Y-5428363D01*
X15012526Y-5546288D01*
X15012526Y-5671253D01*
X15012526Y-5802135D01*
X15012526Y-5937813D01*
X15012525Y-6077162D01*
X15012525Y-6219060D01*
X15012525Y-6362383D01*
X15012525Y-6506010D01*
X15012525Y-6648816D01*
X15012525Y-6789679D01*
X15012525Y-6927476D01*
X15012525Y-7061085D01*
X15012525Y-7189381D01*
X15012525Y-7311242D01*
X15012525Y-7425545D01*
X15012525Y-7531168D01*
X15012525Y-7626987D01*
X15012525Y-7711879D01*
X15012525Y-7784721D01*
X15012526Y-7844391D01*
X15012526Y-7889765D01*
X15012526Y-7919720D01*
X16789823Y-13124821D02*
X16798110Y-13132044D01*
X16807047Y-13138141D01*
X16816563Y-13143073D01*
X16826585Y-13146798D01*
X16837040Y-13149276D01*
X16847855Y-13150468D01*
X16852265Y-13150575D01*
X5258008Y-4496989D02*
X3199412Y-4859944D01*
X26473220Y-10155138D02*
X26483976Y-10156150D01*
X26494670Y-10155894D01*
X26505190Y-10154395D01*
X26515422Y-10151676D01*
X26525254Y-10147762D01*
X26534573Y-10142678D01*
X26538132Y-10140322D01*
X25318267Y-4458616D02*
X25409243Y-3420611D01*
X13698784Y-13131523D02*
X13706191Y-13136894D01*
X13714138Y-13141414D01*
X13722543Y-13145058D01*
X13731326Y-13147803D01*
X13740406Y-13149624D01*
X13749703Y-13150497D01*
X13753464Y-13150575D01*
X5963072Y-9805889D02*
X5968756Y-9796525D01*
X5973220Y-9786690D01*
X5976430Y-9776481D01*
X5978355Y-9765993D01*
X5978962Y-9755325D01*
X5978219Y-9744573D01*
X5977537Y-9740271D01*
X14976722Y-4247520D02*
X14976720Y-4247520D01*
X12413394Y-11850088D02*
X12422600Y-11858660D01*
X12434675Y-11870157D01*
X12449451Y-11884409D01*
X12466761Y-11901246D01*
X12486436Y-11920496D01*
X12508307Y-11941991D01*
X12532208Y-11965559D01*
X12557969Y-11991031D01*
X12585423Y-12018236D01*
X12614401Y-12047004D01*
X12644736Y-12077164D01*
X12676258Y-12108548D01*
X12708801Y-12140983D01*
X12742196Y-12174301D01*
X12776275Y-12208330D01*
X12810869Y-12242901D01*
X12845811Y-12277843D01*
X12880932Y-12312986D01*
X12916065Y-12348160D01*
X12951041Y-12383194D01*
X12985692Y-12417919D01*
X13019849Y-12452164D01*
X13053346Y-12485759D01*
X13086013Y-12518534D01*
X13117683Y-12550318D01*
X13148188Y-12580941D01*
X13177359Y-12610233D01*
X13205028Y-12638024D01*
X13231027Y-12664143D01*
X13255187Y-12688420D01*
X13277342Y-12710685D01*
X13297323Y-12730768D01*
X15592848Y-4883402D02*
X15593975Y-4874453D01*
X15598032Y-4864835D01*
X15604579Y-4856897D01*
X15613131Y-4851126D01*
X15623201Y-4848008D01*
X15628654Y-4847596D01*
X15012528Y-3876928D02*
X15012528Y-4211714D01*
X14976720Y-4247520D02*
X14967771Y-4246393D01*
X14958153Y-4242336D01*
X14950215Y-4235789D01*
X14944444Y-4227237D01*
X14941326Y-4217167D01*
X14940913Y-4211714D01*
X9053053Y-10375271D02*
X9050713Y-10388383D01*
X9050371Y-10401406D01*
X9051922Y-10414156D01*
X9055261Y-10426449D01*
X9060283Y-10438103D01*
X9066885Y-10448934D01*
X9074961Y-10458759D01*
X9084407Y-10467395D01*
X9095118Y-10474660D01*
X9106989Y-10480369D01*
X9115496Y-10483221D01*
X14940913Y-7919720D02*
X14941011Y-7894278D01*
X14941044Y-7857779D01*
X14941069Y-7806858D01*
X14941085Y-7742590D01*
X14941094Y-7666048D01*
X14941096Y-7578303D01*
X14941091Y-7480431D01*
X14941081Y-7373504D01*
X14941066Y-7258594D01*
X14941047Y-7136777D01*
X14941025Y-7009123D01*
X14940999Y-6876708D01*
X14940972Y-6740604D01*
X14940943Y-6601884D01*
X14940913Y-6461622D01*
X14940884Y-6320891D01*
X14940855Y-6180763D01*
X14940827Y-6042313D01*
X14940802Y-5906613D01*
X14940779Y-5774737D01*
X14940760Y-5647758D01*
X14940745Y-5526749D01*
X14940735Y-5412783D01*
X14940731Y-5306933D01*
X14940732Y-5210274D01*
X14940741Y-5123877D01*
X14940757Y-5048817D01*
X14940782Y-4986166D01*
X14940816Y-4936998D01*
X14940859Y-4902385D01*
X14940913Y-4883402D01*
X4067598Y-10140322D02*
X4076681Y-10145866D01*
X4086340Y-10150242D01*
X4096477Y-10153416D01*
X4106995Y-10155356D01*
X4117798Y-10156030D01*
X4128787Y-10155405D01*
X4133214Y-10154784D01*
X24756251Y-3274561D02*
X24705904Y-3270171D01*
X24654548Y-3265693D01*
X24602294Y-3261135D01*
X24549249Y-3256508D01*
X24495523Y-3251821D01*
X24441225Y-3247083D01*
X24386463Y-3242304D01*
X24331348Y-3237493D01*
X24275987Y-3232661D01*
X24220491Y-3227816D01*
X24164967Y-3222968D01*
X24109525Y-3218126D01*
X24054275Y-3213301D01*
X23999324Y-3208501D01*
X23944782Y-3203737D01*
X23890758Y-3199017D01*
X23837361Y-3194352D01*
X23784701Y-3189750D01*
X23732885Y-3185222D01*
X23682024Y-3180776D01*
X23632225Y-3176423D01*
X23583599Y-3172172D01*
X23536254Y-3168032D01*
X23490299Y-3164013D01*
X23445843Y-3160125D01*
X23402996Y-3156376D01*
X23361865Y-3152778D01*
X23322561Y-3149338D01*
X23285193Y-3146067D01*
X23249868Y-3142974D01*
X23216697Y-3140069D01*
X23185788Y-3137361D01*
X18198555Y-11844821D02*
X19739138Y-10955457D01*
X3199412Y-4859944D02*
X3188743Y-4862424D01*
X3178621Y-4866183D01*
X3169125Y-4871156D01*
X3160336Y-4877279D01*
X3152336Y-4884487D01*
X3145204Y-4892716D01*
X3142613Y-4896279D01*
X14940913Y-4883402D02*
X14942040Y-4874271D01*
X14946097Y-4864593D01*
X14952644Y-4856707D01*
X14961196Y-4851033D01*
X14971267Y-4847995D01*
X14976720Y-4847596D01*
X14951431Y-11590147D02*
X14945566Y-11582449D01*
X14941996Y-11573539D01*
X14940913Y-11564798D01*
X24699805Y-9842224D02*
X26473220Y-10155138D01*
X15664461Y-8590000D02*
X15664461Y-11565151D01*
X15592848Y-4211714D02*
X15592848Y-3876928D01*
X15504125Y-3788205D02*
X15101251Y-3788205D01*
X26574467Y-10083172D02*
X26580319Y-10049932D01*
X26586298Y-10015975D01*
X26592401Y-9981319D01*
X26598625Y-9945982D01*
X26604966Y-9909982D01*
X26611421Y-9873337D01*
X26617987Y-9836066D01*
X26624660Y-9798188D01*
X26631438Y-9759720D01*
X26638317Y-9720680D01*
X26645294Y-9681087D01*
X26652366Y-9640960D01*
X26659529Y-9600316D01*
X26666780Y-9559174D01*
X26674117Y-9517551D01*
X26681535Y-9475468D01*
X26689031Y-9432940D01*
X26696604Y-9389988D01*
X26704248Y-9346629D01*
X26711961Y-9302881D01*
X26719739Y-9258763D01*
X26727580Y-9214293D01*
X26735480Y-9169490D01*
X26743436Y-9124371D01*
X26751445Y-9078954D01*
X26759504Y-9033259D01*
X26767608Y-8987304D01*
X26775756Y-8941106D01*
X26783943Y-8894684D01*
X26792167Y-8848056D01*
X26800424Y-8801241D01*
X26808712Y-8754256D01*
X15664461Y-3597528D02*
X15664461Y-4211714D01*
X13815907Y-13124821D02*
X15088727Y-11852000D01*
X11264440Y-3473528D02*
X11255491Y-3472400D01*
X11245873Y-3468344D01*
X11237935Y-3461797D01*
X11232164Y-3453245D01*
X11229046Y-3443174D01*
X11228633Y-3437721D01*
X7576502Y-2673426D02*
X7563823Y-2674066D01*
X7551511Y-2675945D01*
X7539627Y-2679001D01*
X7528235Y-2683170D01*
X7517395Y-2688392D01*
X7507171Y-2694603D01*
X7497625Y-2701742D01*
X7488820Y-2709745D01*
X7480816Y-2718551D01*
X7473678Y-2728097D01*
X7467467Y-2738320D01*
X7462245Y-2749160D01*
X7458076Y-2760553D01*
X7455020Y-2772436D01*
X7453141Y-2784748D01*
X7452501Y-2797427D01*
X10843942Y-10946135D02*
X10850747Y-10948701D01*
X13297323Y-12730768D02*
X13330913Y-12764518D01*
X13362537Y-12796289D01*
X13392255Y-12826141D01*
X13420127Y-12854136D01*
X13446216Y-12880335D01*
X13470581Y-12904798D01*
X13493284Y-12927587D01*
X13514386Y-12948763D01*
X13533947Y-12968387D01*
X13552029Y-12986519D01*
X13568692Y-13003220D01*
X13583997Y-13018553D01*
X13598005Y-13032576D01*
X13610778Y-13045353D01*
X13622375Y-13056943D01*
X13632859Y-13067407D01*
X13642289Y-13076807D01*
X13650727Y-13085203D01*
X13658233Y-13092657D01*
X13664870Y-13099229D01*
X13675774Y-13109972D01*
X13683929Y-13117920D01*
X13692068Y-13125670D01*
X13698784Y-13131523D01*
X21300968Y-2673426D02*
X21288289Y-2674066D01*
X21275977Y-2675945D01*
X21264093Y-2679001D01*
X21252701Y-2683170D01*
X21241861Y-2688392D01*
X21231637Y-2694603D01*
X21222091Y-2701742D01*
X21213286Y-2709745D01*
X21205282Y-2718551D01*
X21198144Y-2728097D01*
X21191933Y-2738320D01*
X21186711Y-2749160D01*
X21182542Y-2760553D01*
X21179486Y-2772436D01*
X21177607Y-2784748D01*
X21176967Y-2797427D01*
X11228633Y-3397502D02*
X11227993Y-3384824D01*
X11226114Y-3372511D01*
X11223058Y-3360628D01*
X11218889Y-3349235D01*
X11213667Y-3338396D01*
X11207456Y-3328172D01*
X11200318Y-3318626D01*
X11192314Y-3309820D01*
X11183509Y-3301817D01*
X11173963Y-3294678D01*
X11163739Y-3288467D01*
X11152899Y-3283246D01*
X11141507Y-3279076D01*
X11129623Y-3276020D01*
X11117311Y-3274141D01*
X11104633Y-3273501D01*
X5809965Y-8789577D02*
X5809614Y-8779504D01*
X5811948Y-8770116D01*
X5816616Y-8761833D01*
X5823269Y-8755071D01*
X5831554Y-8750249D01*
X5841121Y-8747787D01*
X5845228Y-8747556D01*
X4031260Y-10083525D02*
X4033741Y-10094193D01*
X4037501Y-10104315D01*
X4042474Y-10113810D01*
X4048597Y-10122598D01*
X4055806Y-10130599D01*
X4064035Y-10137730D01*
X4067598Y-10140322D01*
X27477226Y-4961895D02*
X27478518Y-4951137D01*
X27478447Y-4940424D01*
X27477045Y-4929853D01*
X27474345Y-4919521D01*
X27470379Y-4909525D01*
X27465179Y-4899961D01*
X27462761Y-4896279D01*
X15088727Y-11852000D02*
X15094742Y-11845280D01*
X15102262Y-11834405D01*
X15107976Y-11822763D01*
X15111886Y-11810562D01*
X15113992Y-11798013D01*
X15114292Y-11785325D01*
X15112788Y-11772706D01*
X15109480Y-11760366D01*
X15104367Y-11748515D01*
X15097449Y-11737362D01*
X15088727Y-11727115D01*
X21176967Y-3237695D02*
X21175839Y-3246643D01*
X21171783Y-3256262D01*
X21165236Y-3264199D01*
X21156684Y-3269970D01*
X21146613Y-3273089D01*
X21141160Y-3273501D01*
X5216595Y-3356052D02*
X5210201Y-3364874D01*
X5204940Y-3374368D01*
X5200861Y-3384383D01*
X5198012Y-3394765D01*
X5196443Y-3405359D01*
X5196201Y-3416014D01*
X5196487Y-3420258D01*
X14940913Y-8590000D02*
X14942040Y-8581051D01*
X14946097Y-8571433D01*
X14952644Y-8563496D01*
X14961196Y-8557725D01*
X14971267Y-8554606D01*
X14976720Y-8554194D01*
X19376743Y-3437721D02*
X19375616Y-3446670D01*
X19371559Y-3456288D01*
X19365012Y-3464226D01*
X19356460Y-3469997D01*
X19346389Y-3473115D01*
X19340937Y-3473528D01*
X15664461Y-4211714D02*
X15663333Y-4220662D01*
X15659277Y-4230281D01*
X15652730Y-4238218D01*
X15644178Y-4243989D01*
X15634107Y-4247108D01*
X15628654Y-4247520D01*
X5906275Y-9842224D02*
X5916943Y-9839744D01*
X5927065Y-9835985D01*
X5936560Y-9831012D01*
X5945349Y-9824889D01*
X5953349Y-9817681D01*
X5960481Y-9809452D01*
X5963072Y-9805889D01*
X15628654Y-8829047D02*
X15628654Y-8829047D01*
X21176967Y-2797427D02*
X21176967Y-3237695D01*
X15517000Y-11852000D02*
X16789823Y-13124821D01*
X24642655Y-9805889D02*
X24649418Y-9814508D01*
X24657090Y-9822132D01*
X24665598Y-9828697D01*
X24674870Y-9834138D01*
X24684834Y-9838390D01*
X24695415Y-9841389D01*
X24699805Y-9842224D01*
X27405611Y-4859944D02*
X27378391Y-4855131D01*
X27345101Y-4849250D01*
X27306109Y-4842365D01*
X27261783Y-4834542D01*
X27212490Y-4825845D01*
X27158597Y-4816339D01*
X27100474Y-4806089D01*
X27038486Y-4795158D01*
X26973003Y-4783612D01*
X26904390Y-4771516D01*
X26833017Y-4758934D01*
X26759251Y-4745930D01*
X26683459Y-4732570D01*
X26606009Y-4718918D01*
X26527269Y-4705039D01*
X26447606Y-4690996D01*
X26367388Y-4676856D01*
X26286983Y-4662683D01*
X26206758Y-4648541D01*
X26127081Y-4634495D01*
X26048320Y-4620610D01*
X25970842Y-4606950D01*
X25895014Y-4593580D01*
X25821205Y-4580565D01*
X25749783Y-4567969D01*
X25681114Y-4555857D01*
X25615566Y-4544293D01*
X25553508Y-4533343D01*
X25495306Y-4523071D01*
X25441329Y-4513542D01*
X25391944Y-4504819D01*
X25347518Y-4496969D01*
X9115496Y-10483221D02*
X10843942Y-10946135D01*
X5287460Y-4458601D02*
X5286911Y-4468736D01*
X5283675Y-4478025D01*
X5278104Y-4486010D01*
X5270552Y-4492232D01*
X5261370Y-4496229D01*
X5258008Y-4496989D01*
X15101251Y-3788205D02*
X15092180Y-3788663D01*
X15079078Y-3790998D01*
X15066716Y-3795177D01*
X15055245Y-3801050D01*
X15044815Y-3808465D01*
X15035577Y-3817272D01*
X15027681Y-3827322D01*
X15021277Y-3838463D01*
X15016517Y-3850544D01*
X15013550Y-3863416D01*
X15012528Y-3876928D01*
X21456596Y-10492721D02*
X21468625Y-10488767D01*
X21479974Y-10483721D01*
X21490602Y-10477658D01*
X21500465Y-10470655D01*
X21509519Y-10462787D01*
X21517723Y-10454130D01*
X21525034Y-10444759D01*
X21531408Y-10434751D01*
X21536802Y-10424182D01*
X21541174Y-10413126D01*
X21544481Y-10401660D01*
X21546679Y-10389859D01*
X21547727Y-10377800D01*
X21547580Y-10365557D01*
X21546197Y-10353208D01*
X21543533Y-10340826D01*
X9464567Y-3273501D02*
X9455618Y-3272374D01*
X9446000Y-3268317D01*
X9438062Y-3261770D01*
X9432291Y-3253218D01*
X9429173Y-3243148D01*
X9428761Y-3237695D01*
X15012528Y-4211714D02*
X15011401Y-4220662D01*
X15007344Y-4230281D01*
X15000797Y-4238218D01*
X14992245Y-4243989D01*
X14982175Y-4247108D01*
X14976722Y-4247520D01*
X26538132Y-10140322D02*
X26546751Y-10133559D01*
X26554375Y-10125887D01*
X26560940Y-10117378D01*
X26566381Y-10108106D01*
X26570633Y-10098143D01*
X26573632Y-10087561D01*
X26574467Y-10083172D01*
X11867162Y-11533087D02*
X11913727Y-11559899D01*
X15628654Y-8228972D02*
X15628654Y-8228972D01*
X10850747Y-10948701D02*
X10859604Y-10953358D01*
X10871162Y-10959613D01*
X10885298Y-10967392D01*
X10901891Y-10976625D01*
X10920818Y-10987239D01*
X10941957Y-10999163D01*
X10965185Y-11012324D01*
X10990381Y-11026650D01*
X11017421Y-11042070D01*
X11046184Y-11058511D01*
X11076546Y-11075902D01*
X11108387Y-11094171D01*
X11141583Y-11113246D01*
X11176013Y-11133054D01*
X11211553Y-11153524D01*
X11248082Y-11174585D01*
X11285477Y-11196163D01*
X11323615Y-11218187D01*
X11362376Y-11240586D01*
X11401635Y-11263287D01*
X11441272Y-11286218D01*
X11481163Y-11309308D01*
X11521186Y-11332484D01*
X11561219Y-11355674D01*
X11601140Y-11378807D01*
X11640826Y-11401811D01*
X11680155Y-11424613D01*
X11719005Y-11447142D01*
X11757252Y-11469326D01*
X11794776Y-11491093D01*
X11831454Y-11512371D01*
X11867162Y-11533087D01*
X25347518Y-4496969D02*
X25337892Y-4493815D01*
X25329803Y-4488290D01*
X25323587Y-4480851D01*
X25319583Y-4471955D01*
X25318127Y-4462058D01*
X25318267Y-4458616D01*
X12406895Y-11845464D02*
X12413394Y-11850088D01*
X24628192Y-9739917D02*
X24626900Y-9750817D01*
X24626971Y-9761628D01*
X24628372Y-9772261D01*
X24631072Y-9782627D01*
X24635037Y-9792638D01*
X24640237Y-9802206D01*
X24642655Y-9805889D01*
X15664461Y-7919720D02*
X15663333Y-7928668D01*
X15659277Y-7938287D01*
X15652730Y-7946224D01*
X15644178Y-7951995D01*
X15634107Y-7955114D01*
X15628654Y-7955526D01*
X27181951Y-6636179D02*
X27477226Y-4961895D01*
X14976722Y-4847596D02*
X14985670Y-4848723D01*
X14995289Y-4852779D01*
X15003226Y-4859326D01*
X15008997Y-4867878D01*
X15012116Y-4877949D01*
X15012528Y-4883402D01*
X24795759Y-8789579D02*
X24628192Y-9739917D01*
X15012526Y-7919720D02*
X15011399Y-7928668D01*
X15007342Y-7938287D01*
X15000795Y-7946224D01*
X14992243Y-7951995D01*
X14982172Y-7955114D01*
X14976720Y-7955526D01*
X11228633Y-3437721D02*
X11228633Y-3397502D01*
X7419812Y-3137364D02*
X5276919Y-3324654D01*
X24760496Y-8747556D02*
X24770478Y-8748958D01*
X24779318Y-8752886D01*
X24786666Y-8758923D01*
X24792170Y-8766648D01*
X24795480Y-8775645D01*
X24796244Y-8785494D01*
X24795759Y-8789579D01*
X21543533Y-10340826D02*
X21128379Y-8792636D01*
X14940913Y-3597528D02*
X14940273Y-3584850D01*
X14938394Y-3572538D01*
X14935338Y-3560654D01*
X14931169Y-3549262D01*
X14925947Y-3538422D01*
X14919736Y-3528198D01*
X14912597Y-3518652D01*
X14904594Y-3509847D01*
X14895788Y-3501843D01*
X14886242Y-3494705D01*
X14876019Y-3488494D01*
X14865179Y-3483272D01*
X14853786Y-3479102D01*
X14841903Y-3476047D01*
X14829591Y-3474168D01*
X14816912Y-3473528D01*
X11913727Y-11559899D02*
X11944299Y-11577700D01*
X11973646Y-11594785D01*
X12001793Y-11611169D01*
X12028764Y-11626866D01*
X12054585Y-11641891D01*
X12079280Y-11656257D01*
X12102873Y-11669979D01*
X12125390Y-11683071D01*
X12146854Y-11695548D01*
X12167291Y-11707423D01*
X12186726Y-11718711D01*
X12205182Y-11729427D01*
X12222685Y-11739584D01*
X12239259Y-11749197D01*
X12254929Y-11758281D01*
X12269719Y-11766848D01*
X12283655Y-11774915D01*
X12296761Y-11782494D01*
X12309061Y-11789601D01*
X12320580Y-11796249D01*
X12331344Y-11802453D01*
X12341376Y-11808227D01*
X12350701Y-11813585D01*
X12359344Y-11818542D01*
X12367330Y-11823112D01*
X12381428Y-11831148D01*
X12393192Y-11837808D01*
X12402820Y-11843204D01*
X12406895Y-11845464D01*
X15628654Y-4847596D02*
X15637603Y-4848723D01*
X15647221Y-4852779D01*
X15655159Y-4859326D01*
X15660930Y-4867878D01*
X15664048Y-4877949D01*
X15664461Y-4883402D01*
X11104633Y-3273501D02*
X9464567Y-3273501D01*
X23153228Y-3101701D02*
X23153228Y-2797427D01*
X25329162Y-3324654D02*
X24756251Y-3274561D01*
X13753464Y-13150575D02*
X13764402Y-13149910D01*
X13775009Y-13147941D01*
X13785212Y-13144710D01*
X13794939Y-13140256D01*
X13804117Y-13134620D01*
X13812674Y-13127842D01*
X13815907Y-13124821D01*
X18192719Y-11848995D02*
X18198555Y-11844821D01*
X15788462Y-3473528D02*
X15775783Y-3474168D01*
X15763471Y-3476047D01*
X15751587Y-3479102D01*
X15740195Y-3483272D01*
X15729355Y-3488494D01*
X15719131Y-3494705D01*
X15709585Y-3501843D01*
X15700780Y-3509847D01*
X15692776Y-3518652D01*
X15685638Y-3528198D01*
X15679427Y-3538422D01*
X15674205Y-3549262D01*
X15670036Y-3560654D01*
X15666980Y-3572538D01*
X15665101Y-3584850D01*
X15664461Y-3597528D01*
X14976722Y-8228972D02*
X14976720Y-8228972D01*
X14816912Y-3473528D02*
X11264440Y-3473528D01*
X23153228Y-2797427D02*
X23152588Y-2784748D01*
X23150709Y-2772436D01*
X23147654Y-2760553D01*
X23143484Y-2749160D01*
X23138262Y-2738320D01*
X23132051Y-2728097D01*
X23124913Y-2718551D01*
X23116909Y-2709745D01*
X23108104Y-2701742D01*
X23098558Y-2694603D01*
X23088334Y-2688392D01*
X23077494Y-2683170D01*
X23066102Y-2679001D01*
X23054218Y-2675945D01*
X23041906Y-2674066D01*
X23029228Y-2673426D01*
X14940913Y-4211714D02*
X14940913Y-3597528D01*
X19739138Y-10955457D02*
X19746030Y-10952376D01*
X5977537Y-9740271D02*
X5809965Y-8789577D01*
X26808712Y-8754256D02*
X26821374Y-8682588D01*
X26834084Y-8610632D01*
X26846832Y-8538452D01*
X26859606Y-8466114D01*
X26872395Y-8393681D01*
X26885187Y-8321216D01*
X26897971Y-8248785D01*
X26910736Y-8176451D01*
X26923471Y-8104278D01*
X26936163Y-8032330D01*
X26948803Y-7960672D01*
X26961378Y-7889367D01*
X26973878Y-7818480D01*
X26986290Y-7748074D01*
X26998605Y-7678214D01*
X27010809Y-7608964D01*
X27022893Y-7540388D01*
X27034844Y-7472549D01*
X27046652Y-7405513D01*
X27058305Y-7339343D01*
X27069792Y-7274103D01*
X27081102Y-7209857D01*
X27092223Y-7146669D01*
X27103143Y-7084604D01*
X27113853Y-7023726D01*
X27124340Y-6964098D01*
X27134592Y-6905784D01*
X27144600Y-6848849D01*
X27154351Y-6793357D01*
X27163834Y-6739372D01*
X27173038Y-6686958D01*
X27181951Y-6636179D01*
X15592848Y-8590000D02*
X15593975Y-8581051D01*
X15598032Y-8571433D01*
X15604579Y-8563496D01*
X15613131Y-8557725D01*
X15623201Y-8554606D01*
X15628654Y-8554194D01*
X15592848Y-3876928D02*
X15592390Y-3867856D01*
X15590055Y-3854755D01*
X15585876Y-3842393D01*
X15580003Y-3830922D01*
X15572588Y-3820492D01*
X15563780Y-3811253D01*
X15553731Y-3803357D01*
X15542590Y-3796954D01*
X15530508Y-3792194D01*
X15517637Y-3789227D01*
X15504125Y-3788205D01*
X27462761Y-4896279D02*
X27455998Y-4887660D01*
X27448326Y-4880036D01*
X27439818Y-4873471D01*
X27430546Y-4868030D01*
X27420582Y-4863777D01*
X27410001Y-4860778D01*
X27405611Y-4859944D01*
X15088727Y-11727115D02*
X14951431Y-11590147D01*
X23029228Y-2673426D02*
X21300968Y-2673426D01*
X25409243Y-3420611D02*
X25409567Y-3409437D01*
X25408572Y-3398489D01*
X25406282Y-3387886D01*
X25402721Y-3377749D01*
X25397913Y-3368201D01*
X25391883Y-3359362D01*
X25389134Y-3356052D01*
X4133214Y-10154784D02*
X5906275Y-9842224D01*
X15101251Y-9288362D02*
X15504125Y-9288362D01*
X15628654Y-8554194D02*
X15637603Y-8555321D01*
X15647221Y-8559377D01*
X15655159Y-8565925D01*
X15660930Y-8574476D01*
X15664048Y-8584547D01*
X15664461Y-8590000D01*
X15664461Y-4883402D02*
X15664461Y-7919720D01*
X15012528Y-8590000D02*
X15012528Y-9199639D01*
X14976720Y-8554194D02*
X14985668Y-8555321D01*
X14995286Y-8559377D01*
X15003224Y-8565925D01*
X15008995Y-8574476D01*
X15012113Y-8584547D01*
X15012526Y-8590000D01*
X19340937Y-3473528D02*
X15788462Y-3473528D01*
D11*
D12*
X14936470Y-7961630D02*
X15015210Y-8040370D01*
X15015210Y-7961630D02*
X14936470Y-8040370D01*
X14936470Y-8088630D02*
X15015210Y-8167370D01*
X15015210Y-8088630D02*
X14936470Y-8167370D01*
X14936470Y-8215630D02*
X15015210Y-8294370D01*
X15015210Y-8215630D02*
X14936470Y-8294370D01*
X14936470Y-8342630D02*
X15015210Y-8421370D01*
X15015210Y-8342630D02*
X14936470Y-8421370D01*
X14936470Y-8469630D02*
X15015210Y-8548370D01*
X15015210Y-8469630D02*
X14936470Y-8548370D01*
X14938145Y-4254630D02*
X15016885Y-4333370D01*
X15016885Y-4254630D02*
X14938145Y-4333370D01*
X14938145Y-4381630D02*
X15016885Y-4460370D01*
X15016885Y-4381630D02*
X14938145Y-4460370D01*
X14938145Y-4508630D02*
X15016885Y-4587370D01*
X15016885Y-4508630D02*
X14938145Y-4587370D01*
X14938145Y-4635630D02*
X15016885Y-4714370D01*
X15016885Y-4635630D02*
X14938145Y-4714370D01*
X14938145Y-4762630D02*
X15016885Y-4841370D01*
X15016885Y-4762630D02*
X14938145Y-4841370D01*
X15589030Y-4253630D02*
X15667770Y-4332370D01*
X15667770Y-4253630D02*
X15589030Y-4332370D01*
X15589030Y-4380630D02*
X15667770Y-4459370D01*
X15667770Y-4380630D02*
X15589030Y-4459370D01*
X15589030Y-4507630D02*
X15667770Y-4586370D01*
X15667770Y-4507630D02*
X15589030Y-4586370D01*
X15589030Y-4634630D02*
X15667770Y-4713370D01*
X15667770Y-4634630D02*
X15589030Y-4713370D01*
X15589030Y-4761630D02*
X15667770Y-4840370D01*
X15667770Y-4761630D02*
X15589030Y-4840370D01*
X15591355Y-7961630D02*
X15670095Y-8040370D01*
X15670095Y-7961630D02*
X15591355Y-8040370D01*
X15591355Y-8088630D02*
X15670095Y-8167370D01*
X15670095Y-8088630D02*
X15591355Y-8167370D01*
X15591355Y-8215630D02*
X15670095Y-8294370D01*
X15670095Y-8215630D02*
X15591355Y-8294370D01*
X15591355Y-8342630D02*
X15670095Y-8421370D01*
X15670095Y-8342630D02*
X15591355Y-8421370D01*
X15591355Y-8469630D02*
X15670095Y-8548370D01*
X15670095Y-8469630D02*
X15591355Y-8548370D01*
D13*
X14025000Y-8255000D02*
G75*
G03*
X14025000Y-8255000I-40000J0D01*
G01*
X14725000Y-8255000D02*
G75*
G03*
X14725000Y-8255000I-40000J0D01*
G01*
X15951000Y-8255000D02*
G75*
G03*
X15951000Y-8255000I-40000J0D01*
G01*
X16651000Y-8255000D02*
G75*
G03*
X16651000Y-8255000I-40000J0D01*
G01*
D10*
X13761440Y-3652500D02*
X13761440Y-3742500D01*
X13716440Y-3697500D02*
X13806440Y-3697500D01*
X14061440Y-3652500D02*
X14061440Y-3742500D01*
X14016440Y-3697500D02*
X14106440Y-3697500D01*
X16576040Y-3650720D02*
X16576040Y-3740720D01*
X16531040Y-3695720D02*
X16621040Y-3695720D01*
X16876040Y-3650720D02*
X16876040Y-3740720D01*
X16831040Y-3695720D02*
X16921040Y-3695720D01*
D14*
X3759845Y-5779635D02*
X3759845Y-5659299D01*
X3639508Y-5659299D01*
X3639508Y-5779635D01*
X3759845Y-5779635D01*
X4053845Y-7455635D02*
X4053845Y-7335299D01*
X3933508Y-7335299D01*
X3933508Y-7455635D01*
X4053845Y-7455635D01*
X4349369Y-9129766D02*
X4349369Y-9009429D01*
X4229033Y-9009429D01*
X4229033Y-9129766D01*
X4349369Y-9129766D01*
X4843133Y-5588622D02*
X4843133Y-5468286D01*
X4722797Y-5468286D01*
X4722797Y-5588622D01*
X4843133Y-5588622D01*
X5137133Y-7264622D02*
X5137133Y-7144286D01*
X5016797Y-7144286D01*
X5016797Y-7264622D01*
X5137133Y-7264622D01*
X5432658Y-8938753D02*
X5432658Y-8818416D01*
X5312321Y-8818416D01*
X5312321Y-8938753D01*
X5432658Y-8938753D01*
X5759261Y-4287104D02*
X5759261Y-4166767D01*
X5638925Y-4166767D01*
X5638925Y-4287104D01*
X5759261Y-4287104D01*
X5907261Y-5978104D02*
X5907261Y-5857767D01*
X5786925Y-5857767D01*
X5786925Y-5978104D01*
X5907261Y-5978104D01*
X6055847Y-7671255D02*
X6055847Y-7550918D01*
X5935511Y-7550918D01*
X5935511Y-7671255D01*
X6055847Y-7671255D01*
X6855075Y-4191233D02*
X6855075Y-4070896D01*
X6734739Y-4070896D01*
X6734739Y-4191233D01*
X6855075Y-4191233D01*
X7003075Y-5882233D02*
X7003075Y-5761896D01*
X6882739Y-5761896D01*
X6882739Y-5882233D01*
X7003075Y-5882233D01*
X7151661Y-7575383D02*
X7151661Y-7455047D01*
X7031325Y-7455047D01*
X7031325Y-7575383D01*
X7151661Y-7575383D01*
X7940668Y-7072168D02*
X7940668Y-6951832D01*
X7820332Y-6951832D01*
X7820332Y-7072168D01*
X7940668Y-7072168D01*
X7942668Y-3668168D02*
X7942668Y-3547832D01*
X7822332Y-3547832D01*
X7822332Y-3668168D01*
X7942668Y-3668168D01*
X7942668Y-5368168D02*
X7942668Y-5247832D01*
X7822332Y-5247832D01*
X7822332Y-5368168D01*
X7942668Y-5368168D01*
X9040668Y-7072168D02*
X9040668Y-6951832D01*
X8920332Y-6951832D01*
X8920332Y-7072168D01*
X9040668Y-7072168D01*
X9042668Y-3668168D02*
X9042668Y-3547832D01*
X8922332Y-3547832D01*
X8922332Y-3668168D01*
X9042668Y-3668168D01*
X9042668Y-5368168D02*
X9042668Y-5247832D01*
X8922332Y-5247832D01*
X8922332Y-5368168D01*
X9042668Y-5368168D01*
X9741668Y-5970168D02*
X9741668Y-5849832D01*
X9621332Y-5849832D01*
X9621332Y-5970168D01*
X9741668Y-5970168D01*
X9742168Y-7671168D02*
X9742168Y-7550832D01*
X9621832Y-7550832D01*
X9621832Y-7671168D01*
X9742168Y-7671168D01*
X9744168Y-4267168D02*
X9744168Y-4146832D01*
X9623832Y-4146832D01*
X9623832Y-4267168D01*
X9744168Y-4267168D01*
X9749223Y-9724176D02*
X9749223Y-9603839D01*
X9628887Y-9603839D01*
X9628887Y-9724176D01*
X9749223Y-9724176D01*
X10811742Y-10008877D02*
X10811742Y-9888540D01*
X10691405Y-9888540D01*
X10691405Y-10008877D01*
X10811742Y-10008877D01*
X10841668Y-5970168D02*
X10841668Y-5849832D01*
X10721332Y-5849832D01*
X10721332Y-5970168D01*
X10841668Y-5970168D01*
X10842168Y-7671168D02*
X10842168Y-7550832D01*
X10721832Y-7550832D01*
X10721832Y-7671168D01*
X10842168Y-7671168D01*
X10844168Y-4267168D02*
X10844168Y-4146832D01*
X10723832Y-4146832D01*
X10723832Y-4267168D01*
X10844168Y-4267168D01*
X11542168Y-4469168D02*
X11542168Y-4348832D01*
X11421832Y-4348832D01*
X11421832Y-4469168D01*
X11542168Y-4469168D01*
X11542668Y-6170168D02*
X11542668Y-6049832D01*
X11422332Y-6049832D01*
X11422332Y-6170168D01*
X11542668Y-6170168D01*
X11542668Y-7868168D02*
X11542668Y-7747832D01*
X11422332Y-7747832D01*
X11422332Y-7868168D01*
X11542668Y-7868168D01*
X11681867Y-10370079D02*
X11681867Y-10249742D01*
X11561530Y-10249742D01*
X11561530Y-10370079D01*
X11681867Y-10370079D01*
X12634495Y-10920079D02*
X12634495Y-10799742D01*
X12514158Y-10799742D01*
X12514158Y-10920079D01*
X12634495Y-10920079D01*
X12642168Y-4469168D02*
X12642168Y-4348832D01*
X12521832Y-4348832D01*
X12521832Y-4469168D01*
X12642168Y-4469168D01*
X12642668Y-6170168D02*
X12642668Y-6049832D01*
X12522332Y-6049832D01*
X12522332Y-6170168D01*
X12642668Y-6170168D01*
X12642668Y-7868168D02*
X12642668Y-7747832D01*
X12522332Y-7747832D01*
X12522332Y-7868168D01*
X12642668Y-7868168D01*
X13381514Y-11494112D02*
X13381514Y-11373776D01*
X13261177Y-11373776D01*
X13261177Y-11494112D01*
X13381514Y-11494112D01*
X14159331Y-12271930D02*
X14159331Y-12151593D01*
X14038994Y-12151593D01*
X14038994Y-12271930D01*
X14159331Y-12271930D01*
X16552067Y-12268884D02*
X16552067Y-12148547D01*
X16431730Y-12148547D01*
X16431730Y-12268884D01*
X16552067Y-12268884D01*
X17329884Y-11491067D02*
X17329884Y-11370730D01*
X17209547Y-11370730D01*
X17209547Y-11491067D01*
X17329884Y-11491067D01*
X18067668Y-4467168D02*
X18067668Y-4346832D01*
X17947332Y-4346832D01*
X17947332Y-4467168D01*
X18067668Y-4467168D01*
X18067668Y-7867168D02*
X18067668Y-7746832D01*
X17947332Y-7746832D01*
X17947332Y-7867168D01*
X18067668Y-7867168D01*
X18068668Y-6166168D02*
X18068668Y-6045832D01*
X17948332Y-6045832D01*
X17948332Y-6166168D01*
X18068668Y-6166168D01*
X18076867Y-10920079D02*
X18076867Y-10799742D01*
X17956530Y-10799742D01*
X17956530Y-10920079D01*
X18076867Y-10920079D01*
X19029495Y-10370079D02*
X19029495Y-10249742D01*
X18909158Y-10249742D01*
X18909158Y-10370079D01*
X19029495Y-10370079D01*
X19167668Y-4467168D02*
X19167668Y-4346832D01*
X19047332Y-4346832D01*
X19047332Y-4467168D01*
X19167668Y-4467168D01*
X19167668Y-7867168D02*
X19167668Y-7746832D01*
X19047332Y-7746832D01*
X19047332Y-7867168D01*
X19167668Y-7867168D01*
X19168668Y-6166168D02*
X19168668Y-6045832D01*
X19048332Y-6045832D01*
X19048332Y-6166168D01*
X19168668Y-6166168D01*
X19867668Y-7665168D02*
X19867668Y-7544832D01*
X19747332Y-7544832D01*
X19747332Y-7665168D01*
X19867668Y-7665168D01*
X19868668Y-4265168D02*
X19868668Y-4144832D01*
X19748332Y-4144832D01*
X19748332Y-4265168D01*
X19868668Y-4265168D01*
X19868668Y-5965168D02*
X19868668Y-5844832D01*
X19748332Y-5844832D01*
X19748332Y-5965168D01*
X19868668Y-5965168D01*
X19897206Y-10009623D02*
X19897206Y-9889286D01*
X19776869Y-9889286D01*
X19776869Y-10009623D01*
X19897206Y-10009623D01*
X20959724Y-9724922D02*
X20959724Y-9604585D01*
X20839388Y-9604585D01*
X20839388Y-9724922D01*
X20959724Y-9724922D01*
X20967668Y-7665168D02*
X20967668Y-7544832D01*
X20847332Y-7544832D01*
X20847332Y-7665168D01*
X20967668Y-7665168D01*
X20968668Y-4265168D02*
X20968668Y-4144832D01*
X20848332Y-4144832D01*
X20848332Y-4265168D01*
X20968668Y-4265168D01*
X20968668Y-5965168D02*
X20968668Y-5844832D01*
X20848332Y-5844832D01*
X20848332Y-5965168D01*
X20968668Y-5965168D01*
X21667668Y-3665168D02*
X21667668Y-3544832D01*
X21547332Y-3544832D01*
X21547332Y-3665168D01*
X21667668Y-3665168D01*
X21667668Y-7066168D02*
X21667668Y-6945832D01*
X21547332Y-6945832D01*
X21547332Y-7066168D01*
X21667668Y-7066168D01*
X21668668Y-5366168D02*
X21668668Y-5245832D01*
X21548332Y-5245832D01*
X21548332Y-5366168D01*
X21668668Y-5366168D01*
X22767668Y-3665168D02*
X22767668Y-3544832D01*
X22647332Y-3544832D01*
X22647332Y-3665168D01*
X22767668Y-3665168D01*
X22767668Y-7066168D02*
X22767668Y-6945832D01*
X22647332Y-6945832D01*
X22647332Y-7066168D01*
X22767668Y-7066168D01*
X22768668Y-5366168D02*
X22768668Y-5245832D01*
X22648332Y-5245832D01*
X22648332Y-5366168D01*
X22768668Y-5366168D01*
X23559657Y-7575512D02*
X23559657Y-7455175D01*
X23439321Y-7455175D01*
X23439321Y-7575512D01*
X23559657Y-7575512D01*
X23707657Y-5881512D02*
X23707657Y-5761175D01*
X23587321Y-5761175D01*
X23587321Y-5881512D01*
X23707657Y-5881512D01*
X23855657Y-4186512D02*
X23855657Y-4066175D01*
X23735321Y-4066175D01*
X23735321Y-4186512D01*
X23855657Y-4186512D01*
X24655471Y-7671383D02*
X24655471Y-7551047D01*
X24535135Y-7551047D01*
X24535135Y-7671383D01*
X24655471Y-7671383D01*
X24803471Y-5977383D02*
X24803471Y-5857047D01*
X24683135Y-5857047D01*
X24683135Y-5977383D01*
X24803471Y-5977383D01*
X24951471Y-4282383D02*
X24951471Y-4162047D01*
X24831135Y-4162047D01*
X24831135Y-4282383D01*
X24951471Y-4282383D01*
X25278477Y-8934271D02*
X25278477Y-8813934D01*
X25158141Y-8813934D01*
X25158141Y-8934271D01*
X25278477Y-8934271D01*
X25574477Y-7259271D02*
X25574477Y-7138934D01*
X25454141Y-7138934D01*
X25454141Y-7259271D01*
X25574477Y-7259271D01*
X25867728Y-5586492D02*
X25867728Y-5466156D01*
X25747391Y-5466156D01*
X25747391Y-5586492D01*
X25867728Y-5586492D01*
X26361766Y-9125284D02*
X26361766Y-9004947D01*
X26241429Y-9004947D01*
X26241429Y-9125284D01*
X26361766Y-9125284D01*
X26657766Y-7450284D02*
X26657766Y-7329947D01*
X26537429Y-7329947D01*
X26537429Y-7450284D01*
X26657766Y-7450284D01*
X26951016Y-5777505D02*
X26951016Y-5657169D01*
X26830680Y-5657169D01*
X26830680Y-5777505D01*
X26951016Y-5777505D01*
D15*
X15302000Y-4171000D02*
X15437000Y-4036000D01*
X15302000Y-3901000D01*
X15167000Y-4036000D01*
X15302000Y-4171000D01*
D16*
X3988000Y-4888000D02*
X4288000Y-5188000D01*
X4288000Y-4888000D02*
X3988000Y-5188000D01*
X4288000Y-5038000D02*
G75*
G03*
X4288000Y-5038000I-150000J0D01*
G01*
X4282000Y-6564000D02*
X4582000Y-6864000D01*
X4582000Y-6564000D02*
X4282000Y-6864000D01*
X4582000Y-6714000D02*
G75*
G03*
X4582000Y-6714000I-150000J0D01*
G01*
X4518607Y-5017834D02*
X4818607Y-5317834D01*
X4818607Y-5017834D02*
X4518607Y-5317834D01*
X4818607Y-5167834D02*
G75*
G03*
X4818607Y-5167834I-150000J0D01*
G01*
X4577525Y-8238130D02*
X4877525Y-8538130D01*
X4877525Y-8238130D02*
X4577525Y-8538130D01*
X4877525Y-8388130D02*
G75*
G03*
X4877525Y-8388130I-150000J0D01*
G01*
X4812607Y-6693834D02*
X5112607Y-6993834D01*
X5112607Y-6693834D02*
X4812607Y-6993834D01*
X5112607Y-6843834D02*
G75*
G03*
X5112607Y-6843834I-150000J0D01*
G01*
X5108131Y-8367964D02*
X5408131Y-8667964D01*
X5408131Y-8367964D02*
X5108131Y-8667964D01*
X5408131Y-8517964D02*
G75*
G03*
X5408131Y-8517964I-150000J0D01*
G01*
X6045142Y-3436264D02*
X6345142Y-3736264D01*
X6345142Y-3436264D02*
X6045142Y-3736264D01*
X6345142Y-3586264D02*
G75*
G03*
X6345142Y-3586264I-150000J0D01*
G01*
X6193142Y-5127264D02*
X6493142Y-5427264D01*
X6493142Y-5127264D02*
X6193142Y-5427264D01*
X6493142Y-5277264D02*
G75*
G03*
X6493142Y-5277264I-150000J0D01*
G01*
X6341728Y-6820415D02*
X6641728Y-7120415D01*
X6641728Y-6820415D02*
X6341728Y-7120415D01*
X6641728Y-6970415D02*
G75*
G03*
X6641728Y-6970415I-150000J0D01*
G01*
X6562414Y-3611849D02*
X6862414Y-3911849D01*
X6862414Y-3611849D02*
X6562414Y-3911849D01*
X6862414Y-3761849D02*
G75*
G03*
X6862414Y-3761849I-150000J0D01*
G01*
X6710414Y-5302849D02*
X7010414Y-5602849D01*
X7010414Y-5302849D02*
X6710414Y-5602849D01*
X7010414Y-5452849D02*
G75*
G03*
X7010414Y-5452849I-150000J0D01*
G01*
X6859000Y-6996000D02*
X7159000Y-7296000D01*
X7159000Y-6996000D02*
X6859000Y-7296000D01*
X7159000Y-7146000D02*
G75*
G03*
X7159000Y-7146000I-150000J0D01*
G01*
X8280500Y-6267000D02*
X8580500Y-6567000D01*
X8580500Y-6267000D02*
X8280500Y-6567000D01*
X8580500Y-6417000D02*
G75*
G03*
X8580500Y-6417000I-150000J0D01*
G01*
X8282500Y-2863000D02*
X8582500Y-3163000D01*
X8582500Y-2863000D02*
X8282500Y-3163000D01*
X8582500Y-3013000D02*
G75*
G03*
X8582500Y-3013000I-150000J0D01*
G01*
X8282500Y-4563000D02*
X8582500Y-4863000D01*
X8582500Y-4563000D02*
X8282500Y-4863000D01*
X8582500Y-4713000D02*
G75*
G03*
X8582500Y-4713000I-150000J0D01*
G01*
X8780500Y-6487000D02*
X9080500Y-6787000D01*
X9080500Y-6487000D02*
X8780500Y-6787000D01*
X9080500Y-6637000D02*
G75*
G03*
X9080500Y-6637000I-150000J0D01*
G01*
X8782500Y-3083000D02*
X9082500Y-3383000D01*
X9082500Y-3083000D02*
X8782500Y-3383000D01*
X9082500Y-3233000D02*
G75*
G03*
X9082500Y-3233000I-150000J0D01*
G01*
X8782500Y-4783000D02*
X9082500Y-5083000D01*
X9082500Y-4783000D02*
X8782500Y-5083000D01*
X9082500Y-4933000D02*
G75*
G03*
X9082500Y-4933000I-150000J0D01*
G01*
X10081500Y-5165000D02*
X10381500Y-5465000D01*
X10381500Y-5165000D02*
X10081500Y-5465000D01*
X10381500Y-5315000D02*
G75*
G03*
X10381500Y-5315000I-150000J0D01*
G01*
X10082000Y-6866000D02*
X10382000Y-7166000D01*
X10382000Y-6866000D02*
X10082000Y-7166000D01*
X10382000Y-7016000D02*
G75*
G03*
X10382000Y-7016000I-150000J0D01*
G01*
X10084000Y-3462000D02*
X10384000Y-3762000D01*
X10384000Y-3462000D02*
X10084000Y-3762000D01*
X10384000Y-3612000D02*
G75*
G03*
X10384000Y-3612000I-150000J0D01*
G01*
X10224312Y-9081632D02*
X10524312Y-9381632D01*
X10524312Y-9081632D02*
X10224312Y-9381632D01*
X10524312Y-9231632D02*
G75*
G03*
X10524312Y-9231632I-150000J0D01*
G01*
X10581500Y-5385000D02*
X10881500Y-5685000D01*
X10881500Y-5385000D02*
X10581500Y-5685000D01*
X10881500Y-5535000D02*
G75*
G03*
X10881500Y-5535000I-150000J0D01*
G01*
X10582000Y-7086000D02*
X10882000Y-7386000D01*
X10882000Y-7086000D02*
X10582000Y-7386000D01*
X10882000Y-7236000D02*
G75*
G03*
X10882000Y-7236000I-150000J0D01*
G01*
X10584000Y-3682000D02*
X10884000Y-3982000D01*
X10884000Y-3682000D02*
X10584000Y-3982000D01*
X10884000Y-3832000D02*
G75*
G03*
X10884000Y-3832000I-150000J0D01*
G01*
X10650334Y-9423545D02*
X10950334Y-9723545D01*
X10950334Y-9423545D02*
X10650334Y-9723545D01*
X10950334Y-9573545D02*
G75*
G03*
X10950334Y-9573545I-150000J0D01*
G01*
X11882000Y-3664000D02*
X12182000Y-3964000D01*
X12182000Y-3664000D02*
X11882000Y-3964000D01*
X12182000Y-3814000D02*
G75*
G03*
X12182000Y-3814000I-150000J0D01*
G01*
X11882500Y-5365000D02*
X12182500Y-5665000D01*
X12182500Y-5365000D02*
X11882500Y-5665000D01*
X12182500Y-5515000D02*
G75*
G03*
X12182500Y-5515000I-150000J0D01*
G01*
X11882500Y-7063000D02*
X12182500Y-7363000D01*
X12182500Y-7063000D02*
X11882500Y-7363000D01*
X12182500Y-7213000D02*
G75*
G03*
X12182500Y-7213000I-150000J0D01*
G01*
X12245513Y-9919625D02*
X12545513Y-10219625D01*
X12545513Y-9919625D02*
X12245513Y-10219625D01*
X12545513Y-10069625D02*
G75*
G03*
X12545513Y-10069625I-150000J0D01*
G01*
X12382000Y-3884000D02*
X12682000Y-4184000D01*
X12682000Y-3884000D02*
X12382000Y-4184000D01*
X12682000Y-4034000D02*
G75*
G03*
X12682000Y-4034000I-150000J0D01*
G01*
X12382500Y-5585000D02*
X12682500Y-5885000D01*
X12682500Y-5585000D02*
X12382500Y-5885000D01*
X12682500Y-5735000D02*
G75*
G03*
X12682500Y-5735000I-150000J0D01*
G01*
X12382500Y-7283000D02*
X12682500Y-7583000D01*
X12682500Y-7283000D02*
X12382500Y-7583000D01*
X12682500Y-7433000D02*
G75*
G03*
X12682500Y-7433000I-150000J0D01*
G01*
X12568525Y-10360151D02*
X12868525Y-10660151D01*
X12868525Y-10360151D02*
X12568525Y-10660151D01*
X12868525Y-10510151D02*
G75*
G03*
X12868525Y-10510151I-150000J0D01*
G01*
X13980982Y-11252124D02*
X14280982Y-11552124D01*
X14280982Y-11252124D02*
X13980982Y-11552124D01*
X14280982Y-11402124D02*
G75*
G03*
X14280982Y-11402124I-150000J0D01*
G01*
X14178972Y-11761241D02*
X14478972Y-12061241D01*
X14478972Y-11761241D02*
X14178972Y-12061241D01*
X14478972Y-11911241D02*
G75*
G03*
X14478972Y-11911241I-150000J0D01*
G01*
X16310078Y-11249078D02*
X16610078Y-11549078D01*
X16610078Y-11249078D02*
X16310078Y-11549078D01*
X16610078Y-11399078D02*
G75*
G03*
X16610078Y-11399078I-150000J0D01*
G01*
X16819195Y-11051089D02*
X17119195Y-11351089D01*
X17119195Y-11051089D02*
X16819195Y-11351089D01*
X17119195Y-11201089D02*
G75*
G03*
X17119195Y-11201089I-150000J0D01*
G01*
X18045513Y-9919625D02*
X18345513Y-10219625D01*
X18345513Y-9919625D02*
X18045513Y-10219625D01*
X18345513Y-10069625D02*
G75*
G03*
X18345513Y-10069625I-150000J0D01*
G01*
X18407500Y-3662000D02*
X18707500Y-3962000D01*
X18707500Y-3662000D02*
X18407500Y-3962000D01*
X18707500Y-3812000D02*
G75*
G03*
X18707500Y-3812000I-150000J0D01*
G01*
X18407500Y-7062000D02*
X18707500Y-7362000D01*
X18707500Y-7062000D02*
X18407500Y-7362000D01*
X18707500Y-7212000D02*
G75*
G03*
X18707500Y-7212000I-150000J0D01*
G01*
X18408500Y-5361000D02*
X18708500Y-5661000D01*
X18708500Y-5361000D02*
X18408500Y-5661000D01*
X18708500Y-5511000D02*
G75*
G03*
X18708500Y-5511000I-150000J0D01*
G01*
X18588525Y-9860151D02*
X18888525Y-10160151D01*
X18888525Y-9860151D02*
X18588525Y-10160151D01*
X18888525Y-10010151D02*
G75*
G03*
X18888525Y-10010151I-150000J0D01*
G01*
X18907500Y-3882000D02*
X19207500Y-4182000D01*
X19207500Y-3882000D02*
X18907500Y-4182000D01*
X19207500Y-4032000D02*
G75*
G03*
X19207500Y-4032000I-150000J0D01*
G01*
X18907500Y-7282000D02*
X19207500Y-7582000D01*
X19207500Y-7282000D02*
X18907500Y-7582000D01*
X19207500Y-7432000D02*
G75*
G03*
X19207500Y-7432000I-150000J0D01*
G01*
X18908500Y-5581000D02*
X19208500Y-5881000D01*
X19208500Y-5581000D02*
X18908500Y-5881000D01*
X19208500Y-5731000D02*
G75*
G03*
X19208500Y-5731000I-150000J0D01*
G01*
X20064300Y-9082378D02*
X20364300Y-9382378D01*
X20364300Y-9082378D02*
X20064300Y-9382378D01*
X20364300Y-9232378D02*
G75*
G03*
X20364300Y-9232378I-150000J0D01*
G01*
X20207500Y-6860000D02*
X20507500Y-7160000D01*
X20507500Y-6860000D02*
X20207500Y-7160000D01*
X20507500Y-7010000D02*
G75*
G03*
X20507500Y-7010000I-150000J0D01*
G01*
X20208500Y-3460000D02*
X20508500Y-3760000D01*
X20508500Y-3460000D02*
X20208500Y-3760000D01*
X20508500Y-3610000D02*
G75*
G03*
X20508500Y-3610000I-150000J0D01*
G01*
X20208500Y-5160000D02*
X20508500Y-5460000D01*
X20508500Y-5160000D02*
X20208500Y-5460000D01*
X20508500Y-5310000D02*
G75*
G03*
X20508500Y-5310000I-150000J0D01*
G01*
X20604203Y-9165472D02*
X20904203Y-9465472D01*
X20904203Y-9165472D02*
X20604203Y-9465472D01*
X20904203Y-9315472D02*
G75*
G03*
X20904203Y-9315472I-150000J0D01*
G01*
X20707500Y-7080000D02*
X21007500Y-7380000D01*
X21007500Y-7080000D02*
X20707500Y-7380000D01*
X21007500Y-7230000D02*
G75*
G03*
X21007500Y-7230000I-150000J0D01*
G01*
X20708500Y-3680000D02*
X21008500Y-3980000D01*
X21008500Y-3680000D02*
X20708500Y-3980000D01*
X21008500Y-3830000D02*
G75*
G03*
X21008500Y-3830000I-150000J0D01*
G01*
X20708500Y-5380000D02*
X21008500Y-5680000D01*
X21008500Y-5380000D02*
X20708500Y-5680000D01*
X21008500Y-5530000D02*
G75*
G03*
X21008500Y-5530000I-150000J0D01*
G01*
X22007500Y-2860000D02*
X22307500Y-3160000D01*
X22307500Y-2860000D02*
X22007500Y-3160000D01*
X22307500Y-3010000D02*
G75*
G03*
X22307500Y-3010000I-150000J0D01*
G01*
X22007500Y-6261000D02*
X22307500Y-6561000D01*
X22307500Y-6261000D02*
X22007500Y-6561000D01*
X22307500Y-6411000D02*
G75*
G03*
X22307500Y-6411000I-150000J0D01*
G01*
X22008500Y-4561000D02*
X22308500Y-4861000D01*
X22308500Y-4561000D02*
X22008500Y-4861000D01*
X22308500Y-4711000D02*
G75*
G03*
X22308500Y-4711000I-150000J0D01*
G01*
X22507500Y-3080000D02*
X22807500Y-3380000D01*
X22807500Y-3080000D02*
X22507500Y-3380000D01*
X22807500Y-3230000D02*
G75*
G03*
X22807500Y-3230000I-150000J0D01*
G01*
X22507500Y-6481000D02*
X22807500Y-6781000D01*
X22807500Y-6481000D02*
X22507500Y-6781000D01*
X22807500Y-6631000D02*
G75*
G03*
X22807500Y-6631000I-150000J0D01*
G01*
X22508500Y-4781000D02*
X22808500Y-5081000D01*
X22808500Y-4781000D02*
X22508500Y-5081000D01*
X22808500Y-4931000D02*
G75*
G03*
X22808500Y-4931000I-150000J0D01*
G01*
X23949254Y-6820544D02*
X24249254Y-7120544D01*
X24249254Y-6820544D02*
X23949254Y-7120544D01*
X24249254Y-6970544D02*
G75*
G03*
X24249254Y-6970544I-150000J0D01*
G01*
X24097254Y-5126544D02*
X24397254Y-5426544D01*
X24397254Y-5126544D02*
X24097254Y-5426544D01*
X24397254Y-5276544D02*
G75*
G03*
X24397254Y-5276544I-150000J0D01*
G01*
X24245254Y-3431544D02*
X24545254Y-3731544D01*
X24545254Y-3431544D02*
X24245254Y-3731544D01*
X24545254Y-3581544D02*
G75*
G03*
X24545254Y-3581544I-150000J0D01*
G01*
X24428177Y-7083284D02*
X24728177Y-7383284D01*
X24728177Y-7083284D02*
X24428177Y-7383284D01*
X24728177Y-7233284D02*
G75*
G03*
X24728177Y-7233284I-150000J0D01*
G01*
X24576177Y-5389284D02*
X24876177Y-5689284D01*
X24876177Y-5389284D02*
X24576177Y-5689284D01*
X24876177Y-5539284D02*
G75*
G03*
X24876177Y-5539284I-150000J0D01*
G01*
X24724177Y-3694284D02*
X25024177Y-3994284D01*
X25024177Y-3694284D02*
X24724177Y-3994284D01*
X25024177Y-3844284D02*
G75*
G03*
X25024177Y-3844284I-150000J0D01*
G01*
X25713274Y-8233648D02*
X26013274Y-8533648D01*
X26013274Y-8233648D02*
X25713274Y-8533648D01*
X26013274Y-8383648D02*
G75*
G03*
X26013274Y-8383648I-150000J0D01*
G01*
X26009274Y-6558648D02*
X26309274Y-6858648D01*
X26309274Y-6558648D02*
X26009274Y-6858648D01*
X26309274Y-6708648D02*
G75*
G03*
X26309274Y-6708648I-150000J0D01*
G01*
X26167475Y-8537130D02*
X26467475Y-8837130D01*
X26467475Y-8537130D02*
X26167475Y-8837130D01*
X26467475Y-8687130D02*
G75*
G03*
X26467475Y-8687130I-150000J0D01*
G01*
X26302525Y-4885870D02*
X26602525Y-5185870D01*
X26602525Y-4885870D02*
X26302525Y-5185870D01*
X26602525Y-5035870D02*
G75*
G03*
X26602525Y-5035870I-150000J0D01*
G01*
X26463475Y-6862130D02*
X26763475Y-7162130D01*
X26763475Y-6862130D02*
X26463475Y-7162130D01*
X26763475Y-7012130D02*
G75*
G03*
X26763475Y-7012130I-150000J0D01*
G01*
X26756726Y-5189352D02*
X27056726Y-5489352D01*
X27056726Y-5189352D02*
X26756726Y-5489352D01*
X27056726Y-5339352D02*
G75*
G03*
X27056726Y-5339352I-150000J0D01*
G01*
D17*
X4069871Y-5452511D02*
X4412771Y-5795411D01*
X4412771Y-5452511D02*
X4069871Y-5795411D01*
X4241321Y-5452511D02*
X4241321Y-5795411D01*
X4069871Y-5623961D02*
X4412771Y-5623961D01*
X4363871Y-7128511D02*
X4706771Y-7471411D01*
X4706771Y-7128511D02*
X4363871Y-7471411D01*
X4535321Y-7128511D02*
X4535321Y-7471411D01*
X4363871Y-7299961D02*
X4706771Y-7299961D01*
X4659395Y-8802641D02*
X5002295Y-9145541D01*
X5002295Y-8802641D02*
X4659395Y-9145541D01*
X4830845Y-8802641D02*
X4830845Y-9145541D01*
X4659395Y-8974091D02*
X5002295Y-8974091D01*
X6075550Y-4007550D02*
X6418450Y-4350450D01*
X6418450Y-4007550D02*
X6075550Y-4350450D01*
X6247000Y-4007550D02*
X6247000Y-4350450D01*
X6075550Y-4179000D02*
X6418450Y-4179000D01*
X6223550Y-5698550D02*
X6566450Y-6041450D01*
X6566450Y-5698550D02*
X6223550Y-6041450D01*
X6395000Y-5698550D02*
X6395000Y-6041450D01*
X6223550Y-5870000D02*
X6566450Y-5870000D01*
X6372136Y-7391701D02*
X6715036Y-7734601D01*
X6715036Y-7391701D02*
X6372136Y-7734601D01*
X6543586Y-7391701D02*
X6543586Y-7734601D01*
X6372136Y-7563151D02*
X6715036Y-7563151D01*
X8259050Y-6840550D02*
X8601950Y-7183450D01*
X8601950Y-6840550D02*
X8259050Y-7183450D01*
X8430500Y-6840550D02*
X8430500Y-7183450D01*
X8259050Y-7012000D02*
X8601950Y-7012000D01*
X8261050Y-3436550D02*
X8603950Y-3779450D01*
X8603950Y-3436550D02*
X8261050Y-3779450D01*
X8432500Y-3436550D02*
X8432500Y-3779450D01*
X8261050Y-3608000D02*
X8603950Y-3608000D01*
X8261050Y-5136550D02*
X8603950Y-5479450D01*
X8603950Y-5136550D02*
X8261050Y-5479450D01*
X8432500Y-5136550D02*
X8432500Y-5479450D01*
X8261050Y-5308000D02*
X8603950Y-5308000D01*
X10048864Y-9634908D02*
X10391764Y-9977808D01*
X10391764Y-9634908D02*
X10048864Y-9977808D01*
X10220314Y-9634908D02*
X10220314Y-9977808D01*
X10048864Y-9806358D02*
X10391764Y-9806358D01*
X10060050Y-5738550D02*
X10402950Y-6081450D01*
X10402950Y-5738550D02*
X10060050Y-6081450D01*
X10231500Y-5738550D02*
X10231500Y-6081450D01*
X10060050Y-5910000D02*
X10402950Y-5910000D01*
X10060550Y-7439550D02*
X10403450Y-7782450D01*
X10403450Y-7439550D02*
X10060550Y-7782450D01*
X10232000Y-7439550D02*
X10232000Y-7782450D01*
X10060550Y-7611000D02*
X10403450Y-7611000D01*
X10062550Y-4035550D02*
X10405450Y-4378450D01*
X10405450Y-4035550D02*
X10062550Y-4378450D01*
X10234000Y-4035550D02*
X10234000Y-4378450D01*
X10062550Y-4207000D02*
X10405450Y-4207000D01*
X11860550Y-4237550D02*
X12203450Y-4580450D01*
X12203450Y-4237550D02*
X11860550Y-4580450D01*
X12032000Y-4237550D02*
X12032000Y-4580450D01*
X11860550Y-4409000D02*
X12203450Y-4409000D01*
X11861050Y-5938550D02*
X12203950Y-6281450D01*
X12203950Y-5938550D02*
X11861050Y-6281450D01*
X12032500Y-5938550D02*
X12032500Y-6281450D01*
X11861050Y-6110000D02*
X12203950Y-6110000D01*
X11861050Y-7636550D02*
X12203950Y-7979450D01*
X12203950Y-7636550D02*
X11861050Y-7979450D01*
X12032500Y-7636550D02*
X12032500Y-7979450D01*
X11861050Y-7808000D02*
X12203950Y-7808000D01*
X11926563Y-10413460D02*
X12269463Y-10756360D01*
X12269463Y-10413460D02*
X11926563Y-10756360D01*
X12098013Y-10413460D02*
X12098013Y-10756360D01*
X11926563Y-10584910D02*
X12269463Y-10584910D01*
X13538804Y-11651403D02*
X13881704Y-11994303D01*
X13881704Y-11651403D02*
X13538804Y-11994303D01*
X13710254Y-11651403D02*
X13710254Y-11994303D01*
X13538804Y-11822853D02*
X13881704Y-11822853D01*
X16709357Y-11648357D02*
X17052257Y-11991257D01*
X17052257Y-11648357D02*
X16709357Y-11991257D01*
X16880807Y-11648357D02*
X16880807Y-11991257D01*
X16709357Y-11819807D02*
X17052257Y-11819807D01*
X18321563Y-10413460D02*
X18664463Y-10756360D01*
X18664463Y-10413460D02*
X18321563Y-10756360D01*
X18493013Y-10413460D02*
X18493013Y-10756360D01*
X18321563Y-10584910D02*
X18664463Y-10584910D01*
X18386050Y-4235550D02*
X18728950Y-4578450D01*
X18728950Y-4235550D02*
X18386050Y-4578450D01*
X18557500Y-4235550D02*
X18557500Y-4578450D01*
X18386050Y-4407000D02*
X18728950Y-4407000D01*
X18386050Y-7635550D02*
X18728950Y-7978450D01*
X18728950Y-7635550D02*
X18386050Y-7978450D01*
X18557500Y-7635550D02*
X18557500Y-7978450D01*
X18386050Y-7807000D02*
X18728950Y-7807000D01*
X18387050Y-5934550D02*
X18729950Y-6277450D01*
X18729950Y-5934550D02*
X18387050Y-6277450D01*
X18558500Y-5934550D02*
X18558500Y-6277450D01*
X18387050Y-6106000D02*
X18729950Y-6106000D01*
X20186050Y-7433550D02*
X20528950Y-7776450D01*
X20528950Y-7433550D02*
X20186050Y-7776450D01*
X20357500Y-7433550D02*
X20357500Y-7776450D01*
X20186050Y-7605000D02*
X20528950Y-7605000D01*
X20187050Y-4033550D02*
X20529950Y-4376450D01*
X20529950Y-4033550D02*
X20187050Y-4376450D01*
X20358500Y-4033550D02*
X20358500Y-4376450D01*
X20187050Y-4205000D02*
X20529950Y-4205000D01*
X20187050Y-5733550D02*
X20529950Y-6076450D01*
X20529950Y-5733550D02*
X20187050Y-6076450D01*
X20358500Y-5733550D02*
X20358500Y-6076450D01*
X20187050Y-5905000D02*
X20529950Y-5905000D01*
X20196847Y-9635654D02*
X20539747Y-9978554D01*
X20539747Y-9635654D02*
X20196847Y-9978554D01*
X20368297Y-9635654D02*
X20368297Y-9978554D01*
X20196847Y-9807104D02*
X20539747Y-9807104D01*
X21986050Y-3433550D02*
X22328950Y-3776450D01*
X22328950Y-3433550D02*
X21986050Y-3776450D01*
X22157500Y-3433550D02*
X22157500Y-3776450D01*
X21986050Y-3605000D02*
X22328950Y-3605000D01*
X21986050Y-6834550D02*
X22328950Y-7177450D01*
X22328950Y-6834550D02*
X21986050Y-7177450D01*
X22157500Y-6834550D02*
X22157500Y-7177450D01*
X21986050Y-7006000D02*
X22328950Y-7006000D01*
X21987050Y-5134550D02*
X22329950Y-5477450D01*
X22329950Y-5134550D02*
X21987050Y-5477450D01*
X22158500Y-5134550D02*
X22158500Y-5477450D01*
X21987050Y-5306000D02*
X22329950Y-5306000D01*
X23875946Y-7391829D02*
X24218846Y-7734729D01*
X24218846Y-7391829D02*
X23875946Y-7734729D01*
X24047396Y-7391829D02*
X24047396Y-7734729D01*
X23875946Y-7563279D02*
X24218846Y-7563279D01*
X24023946Y-5697829D02*
X24366846Y-6040729D01*
X24366846Y-5697829D02*
X24023946Y-6040729D01*
X24195396Y-5697829D02*
X24195396Y-6040729D01*
X24023946Y-5869279D02*
X24366846Y-5869279D01*
X24171946Y-4002829D02*
X24514846Y-4345729D01*
X24514846Y-4002829D02*
X24171946Y-4345729D01*
X24343396Y-4002829D02*
X24343396Y-4345729D01*
X24171946Y-4174279D02*
X24514846Y-4174279D01*
X25588503Y-8798159D02*
X25931403Y-9141059D01*
X25931403Y-8798159D02*
X25588503Y-9141059D01*
X25759953Y-8798159D02*
X25759953Y-9141059D01*
X25588503Y-8969609D02*
X25931403Y-8969609D01*
X25884503Y-7123159D02*
X26227403Y-7466059D01*
X26227403Y-7123159D02*
X25884503Y-7466059D01*
X26055953Y-7123159D02*
X26055953Y-7466059D01*
X25884503Y-7294609D02*
X26227403Y-7294609D01*
X26177754Y-5450380D02*
X26520654Y-5793280D01*
X26520654Y-5450380D02*
X26177754Y-5793280D01*
X26349204Y-5450380D02*
X26349204Y-5793280D01*
X26177754Y-5621830D02*
X26520654Y-5621830D01*
D11*
X3380194Y-13466559D02*
X3380194Y-13266559D01*
X3380194Y-13266559D02*
X3427813Y-13266559D01*
X3427813Y-13266559D02*
X3456384Y-13276082D01*
X3456384Y-13276082D02*
X3475432Y-13295130D01*
X3475432Y-13295130D02*
X3484956Y-13314178D01*
X3484956Y-13314178D02*
X3494480Y-13352273D01*
X3494480Y-13352273D02*
X3494480Y-13380844D01*
X3494480Y-13380844D02*
X3484956Y-13418940D01*
X3484956Y-13418940D02*
X3475432Y-13437987D01*
X3475432Y-13437987D02*
X3456384Y-13457035D01*
X3456384Y-13457035D02*
X3427813Y-13466559D01*
X3427813Y-13466559D02*
X3380194Y-13466559D01*
X3580194Y-13466559D02*
X3580194Y-13333225D01*
X3580194Y-13371321D02*
X3589718Y-13352273D01*
X3589718Y-13352273D02*
X3599241Y-13342749D01*
X3599241Y-13342749D02*
X3618289Y-13333225D01*
X3618289Y-13333225D02*
X3637337Y-13333225D01*
X3704003Y-13466559D02*
X3704003Y-13333225D01*
X3704003Y-13266559D02*
X3694480Y-13276082D01*
X3694480Y-13276082D02*
X3704003Y-13285606D01*
X3704003Y-13285606D02*
X3713527Y-13276082D01*
X3713527Y-13276082D02*
X3704003Y-13266559D01*
X3704003Y-13266559D02*
X3704003Y-13285606D01*
X3827813Y-13466559D02*
X3808765Y-13457035D01*
X3808765Y-13457035D02*
X3799241Y-13437987D01*
X3799241Y-13437987D02*
X3799241Y-13266559D01*
X3932575Y-13466559D02*
X3913527Y-13457035D01*
X3913527Y-13457035D02*
X3904003Y-13437987D01*
X3904003Y-13437987D02*
X3904003Y-13266559D01*
X4161146Y-13466559D02*
X4161146Y-13266559D01*
X4161146Y-13266559D02*
X4227813Y-13409416D01*
X4227813Y-13409416D02*
X4294480Y-13266559D01*
X4294480Y-13266559D02*
X4294480Y-13466559D01*
X4475432Y-13466559D02*
X4475432Y-13361797D01*
X4475432Y-13361797D02*
X4465908Y-13342749D01*
X4465908Y-13342749D02*
X4446861Y-13333225D01*
X4446861Y-13333225D02*
X4408765Y-13333225D01*
X4408765Y-13333225D02*
X4389718Y-13342749D01*
X4475432Y-13457035D02*
X4456384Y-13466559D01*
X4456384Y-13466559D02*
X4408765Y-13466559D01*
X4408765Y-13466559D02*
X4389718Y-13457035D01*
X4389718Y-13457035D02*
X4380194Y-13437987D01*
X4380194Y-13437987D02*
X4380194Y-13418940D01*
X4380194Y-13418940D02*
X4389718Y-13399892D01*
X4389718Y-13399892D02*
X4408765Y-13390368D01*
X4408765Y-13390368D02*
X4456384Y-13390368D01*
X4456384Y-13390368D02*
X4475432Y-13380844D01*
X4570670Y-13333225D02*
X4570670Y-13533225D01*
X4570670Y-13342749D02*
X4589718Y-13333225D01*
X4589718Y-13333225D02*
X4627813Y-13333225D01*
X4627813Y-13333225D02*
X4646861Y-13342749D01*
X4646861Y-13342749D02*
X4656384Y-13352273D01*
X4656384Y-13352273D02*
X4665908Y-13371321D01*
X4665908Y-13371321D02*
X4665908Y-13428463D01*
X4665908Y-13428463D02*
X4656384Y-13447511D01*
X4656384Y-13447511D02*
X4646861Y-13457035D01*
X4646861Y-13457035D02*
X4627813Y-13466559D01*
X4627813Y-13466559D02*
X4589718Y-13466559D01*
X4589718Y-13466559D02*
X4570670Y-13457035D01*
X4751623Y-13447511D02*
X4761146Y-13457035D01*
X4761146Y-13457035D02*
X4751623Y-13466559D01*
X4751623Y-13466559D02*
X4742099Y-13457035D01*
X4742099Y-13457035D02*
X4751623Y-13447511D01*
X4751623Y-13447511D02*
X4751623Y-13466559D01*
X4751623Y-13342749D02*
X4761146Y-13352273D01*
X4761146Y-13352273D02*
X4751623Y-13361797D01*
X4751623Y-13361797D02*
X4742099Y-13352273D01*
X4742099Y-13352273D02*
X4751623Y-13342749D01*
X4751623Y-13342749D02*
X4751623Y-13361797D01*
D12*
X3040677Y-13755705D02*
X3119417Y-13834445D01*
X3119417Y-13755705D02*
X3040677Y-13834445D01*
D11*
X3418289Y-13686559D02*
X3437337Y-13686559D01*
X3437337Y-13686559D02*
X3456384Y-13696082D01*
X3456384Y-13696082D02*
X3465908Y-13705606D01*
X3465908Y-13705606D02*
X3475432Y-13724654D01*
X3475432Y-13724654D02*
X3484956Y-13762749D01*
X3484956Y-13762749D02*
X3484956Y-13810368D01*
X3484956Y-13810368D02*
X3475432Y-13848463D01*
X3475432Y-13848463D02*
X3465908Y-13867511D01*
X3465908Y-13867511D02*
X3456384Y-13877035D01*
X3456384Y-13877035D02*
X3437337Y-13886559D01*
X3437337Y-13886559D02*
X3418289Y-13886559D01*
X3418289Y-13886559D02*
X3399241Y-13877035D01*
X3399241Y-13877035D02*
X3389718Y-13867511D01*
X3389718Y-13867511D02*
X3380194Y-13848463D01*
X3380194Y-13848463D02*
X3370670Y-13810368D01*
X3370670Y-13810368D02*
X3370670Y-13762749D01*
X3370670Y-13762749D02*
X3380194Y-13724654D01*
X3380194Y-13724654D02*
X3389718Y-13705606D01*
X3389718Y-13705606D02*
X3399241Y-13696082D01*
X3399241Y-13696082D02*
X3418289Y-13686559D01*
X3570670Y-13867511D02*
X3580194Y-13877035D01*
X3580194Y-13877035D02*
X3570670Y-13886559D01*
X3570670Y-13886559D02*
X3561146Y-13877035D01*
X3561146Y-13877035D02*
X3570670Y-13867511D01*
X3570670Y-13867511D02*
X3570670Y-13886559D01*
X3646861Y-13686559D02*
X3780194Y-13686559D01*
X3780194Y-13686559D02*
X3694480Y-13886559D01*
X3884956Y-13772273D02*
X3865908Y-13762749D01*
X3865908Y-13762749D02*
X3856384Y-13753225D01*
X3856384Y-13753225D02*
X3846861Y-13734178D01*
X3846861Y-13734178D02*
X3846861Y-13724654D01*
X3846861Y-13724654D02*
X3856384Y-13705606D01*
X3856384Y-13705606D02*
X3865908Y-13696082D01*
X3865908Y-13696082D02*
X3884956Y-13686559D01*
X3884956Y-13686559D02*
X3923051Y-13686559D01*
X3923051Y-13686559D02*
X3942099Y-13696082D01*
X3942099Y-13696082D02*
X3951622Y-13705606D01*
X3951622Y-13705606D02*
X3961146Y-13724654D01*
X3961146Y-13724654D02*
X3961146Y-13734178D01*
X3961146Y-13734178D02*
X3951622Y-13753225D01*
X3951622Y-13753225D02*
X3942099Y-13762749D01*
X3942099Y-13762749D02*
X3923051Y-13772273D01*
X3923051Y-13772273D02*
X3884956Y-13772273D01*
X3884956Y-13772273D02*
X3865908Y-13781797D01*
X3865908Y-13781797D02*
X3856384Y-13791321D01*
X3856384Y-13791321D02*
X3846861Y-13810368D01*
X3846861Y-13810368D02*
X3846861Y-13848463D01*
X3846861Y-13848463D02*
X3856384Y-13867511D01*
X3856384Y-13867511D02*
X3865908Y-13877035D01*
X3865908Y-13877035D02*
X3884956Y-13886559D01*
X3884956Y-13886559D02*
X3923051Y-13886559D01*
X3923051Y-13886559D02*
X3942099Y-13877035D01*
X3942099Y-13877035D02*
X3951622Y-13867511D01*
X3951622Y-13867511D02*
X3961146Y-13848463D01*
X3961146Y-13848463D02*
X3961146Y-13810368D01*
X3961146Y-13810368D02*
X3951622Y-13791321D01*
X3951622Y-13791321D02*
X3942099Y-13781797D01*
X3942099Y-13781797D02*
X3923051Y-13772273D01*
X4027813Y-13686559D02*
X4161146Y-13686559D01*
X4161146Y-13686559D02*
X4075432Y-13886559D01*
X4237337Y-13886559D02*
X4237337Y-13753225D01*
X4237337Y-13772273D02*
X4246861Y-13762749D01*
X4246861Y-13762749D02*
X4265908Y-13753225D01*
X4265908Y-13753225D02*
X4294480Y-13753225D01*
X4294480Y-13753225D02*
X4313527Y-13762749D01*
X4313527Y-13762749D02*
X4323051Y-13781797D01*
X4323051Y-13781797D02*
X4323051Y-13886559D01*
X4323051Y-13781797D02*
X4332575Y-13762749D01*
X4332575Y-13762749D02*
X4351623Y-13753225D01*
X4351623Y-13753225D02*
X4380194Y-13753225D01*
X4380194Y-13753225D02*
X4399242Y-13762749D01*
X4399242Y-13762749D02*
X4408765Y-13781797D01*
X4408765Y-13781797D02*
X4408765Y-13886559D01*
X4504004Y-13886559D02*
X4504004Y-13753225D01*
X4504004Y-13772273D02*
X4513527Y-13762749D01*
X4513527Y-13762749D02*
X4532575Y-13753225D01*
X4532575Y-13753225D02*
X4561146Y-13753225D01*
X4561146Y-13753225D02*
X4580194Y-13762749D01*
X4580194Y-13762749D02*
X4589718Y-13781797D01*
X4589718Y-13781797D02*
X4589718Y-13886559D01*
X4589718Y-13781797D02*
X4599242Y-13762749D01*
X4599242Y-13762749D02*
X4618289Y-13753225D01*
X4618289Y-13753225D02*
X4646861Y-13753225D01*
X4646861Y-13753225D02*
X4665908Y-13762749D01*
X4665908Y-13762749D02*
X4675432Y-13781797D01*
X4675432Y-13781797D02*
X4675432Y-13886559D01*
X5065908Y-13677035D02*
X4894480Y-13934178D01*
X5323051Y-13686559D02*
X5342099Y-13686559D01*
X5342099Y-13686559D02*
X5361147Y-13696082D01*
X5361147Y-13696082D02*
X5370670Y-13705606D01*
X5370670Y-13705606D02*
X5380194Y-13724654D01*
X5380194Y-13724654D02*
X5389718Y-13762749D01*
X5389718Y-13762749D02*
X5389718Y-13810368D01*
X5389718Y-13810368D02*
X5380194Y-13848463D01*
X5380194Y-13848463D02*
X5370670Y-13867511D01*
X5370670Y-13867511D02*
X5361147Y-13877035D01*
X5361147Y-13877035D02*
X5342099Y-13886559D01*
X5342099Y-13886559D02*
X5323051Y-13886559D01*
X5323051Y-13886559D02*
X5304004Y-13877035D01*
X5304004Y-13877035D02*
X5294480Y-13867511D01*
X5294480Y-13867511D02*
X5284956Y-13848463D01*
X5284956Y-13848463D02*
X5275432Y-13810368D01*
X5275432Y-13810368D02*
X5275432Y-13762749D01*
X5275432Y-13762749D02*
X5284956Y-13724654D01*
X5284956Y-13724654D02*
X5294480Y-13705606D01*
X5294480Y-13705606D02*
X5304004Y-13696082D01*
X5304004Y-13696082D02*
X5323051Y-13686559D01*
X5475432Y-13867511D02*
X5484956Y-13877035D01*
X5484956Y-13877035D02*
X5475432Y-13886559D01*
X5475432Y-13886559D02*
X5465908Y-13877035D01*
X5465908Y-13877035D02*
X5475432Y-13867511D01*
X5475432Y-13867511D02*
X5475432Y-13886559D01*
X5608765Y-13686559D02*
X5627813Y-13686559D01*
X5627813Y-13686559D02*
X5646861Y-13696082D01*
X5646861Y-13696082D02*
X5656385Y-13705606D01*
X5656385Y-13705606D02*
X5665908Y-13724654D01*
X5665908Y-13724654D02*
X5675432Y-13762749D01*
X5675432Y-13762749D02*
X5675432Y-13810368D01*
X5675432Y-13810368D02*
X5665908Y-13848463D01*
X5665908Y-13848463D02*
X5656385Y-13867511D01*
X5656385Y-13867511D02*
X5646861Y-13877035D01*
X5646861Y-13877035D02*
X5627813Y-13886559D01*
X5627813Y-13886559D02*
X5608765Y-13886559D01*
X5608765Y-13886559D02*
X5589718Y-13877035D01*
X5589718Y-13877035D02*
X5580194Y-13867511D01*
X5580194Y-13867511D02*
X5570670Y-13848463D01*
X5570670Y-13848463D02*
X5561147Y-13810368D01*
X5561147Y-13810368D02*
X5561147Y-13762749D01*
X5561147Y-13762749D02*
X5570670Y-13724654D01*
X5570670Y-13724654D02*
X5580194Y-13705606D01*
X5580194Y-13705606D02*
X5589718Y-13696082D01*
X5589718Y-13696082D02*
X5608765Y-13686559D01*
X5742099Y-13686559D02*
X5865908Y-13686559D01*
X5865908Y-13686559D02*
X5799242Y-13762749D01*
X5799242Y-13762749D02*
X5827813Y-13762749D01*
X5827813Y-13762749D02*
X5846861Y-13772273D01*
X5846861Y-13772273D02*
X5856385Y-13781797D01*
X5856385Y-13781797D02*
X5865908Y-13800844D01*
X5865908Y-13800844D02*
X5865908Y-13848463D01*
X5865908Y-13848463D02*
X5856385Y-13867511D01*
X5856385Y-13867511D02*
X5846861Y-13877035D01*
X5846861Y-13877035D02*
X5827813Y-13886559D01*
X5827813Y-13886559D02*
X5770670Y-13886559D01*
X5770670Y-13886559D02*
X5751623Y-13877035D01*
X5751623Y-13877035D02*
X5742099Y-13867511D01*
X6056385Y-13886559D02*
X5942099Y-13886559D01*
X5999242Y-13886559D02*
X5999242Y-13686559D01*
X5999242Y-13686559D02*
X5980194Y-13715130D01*
X5980194Y-13715130D02*
X5961146Y-13734178D01*
X5961146Y-13734178D02*
X5942099Y-13743701D01*
X6180194Y-13686559D02*
X6199242Y-13686559D01*
X6199242Y-13686559D02*
X6218289Y-13696082D01*
X6218289Y-13696082D02*
X6227813Y-13705606D01*
X6227813Y-13705606D02*
X6237337Y-13724654D01*
X6237337Y-13724654D02*
X6246861Y-13762749D01*
X6246861Y-13762749D02*
X6246861Y-13810368D01*
X6246861Y-13810368D02*
X6237337Y-13848463D01*
X6237337Y-13848463D02*
X6227813Y-13867511D01*
X6227813Y-13867511D02*
X6218289Y-13877035D01*
X6218289Y-13877035D02*
X6199242Y-13886559D01*
X6199242Y-13886559D02*
X6180194Y-13886559D01*
X6180194Y-13886559D02*
X6161146Y-13877035D01*
X6161146Y-13877035D02*
X6151623Y-13867511D01*
X6151623Y-13867511D02*
X6142099Y-13848463D01*
X6142099Y-13848463D02*
X6132575Y-13810368D01*
X6132575Y-13810368D02*
X6132575Y-13762749D01*
X6132575Y-13762749D02*
X6142099Y-13724654D01*
X6142099Y-13724654D02*
X6151623Y-13705606D01*
X6151623Y-13705606D02*
X6161146Y-13696082D01*
X6161146Y-13696082D02*
X6180194Y-13686559D01*
X6323051Y-13686559D02*
X6323051Y-13724654D01*
X6399242Y-13686559D02*
X6399242Y-13724654D01*
X6694480Y-13962749D02*
X6684956Y-13953225D01*
X6684956Y-13953225D02*
X6665908Y-13924654D01*
X6665908Y-13924654D02*
X6656385Y-13905606D01*
X6656385Y-13905606D02*
X6646861Y-13877035D01*
X6646861Y-13877035D02*
X6637337Y-13829416D01*
X6637337Y-13829416D02*
X6637337Y-13791321D01*
X6637337Y-13791321D02*
X6646861Y-13743701D01*
X6646861Y-13743701D02*
X6656385Y-13715130D01*
X6656385Y-13715130D02*
X6665908Y-13696082D01*
X6665908Y-13696082D02*
X6684956Y-13667511D01*
X6684956Y-13667511D02*
X6694480Y-13657987D01*
X6761147Y-13705606D02*
X6770670Y-13696082D01*
X6770670Y-13696082D02*
X6789718Y-13686559D01*
X6789718Y-13686559D02*
X6837337Y-13686559D01*
X6837337Y-13686559D02*
X6856385Y-13696082D01*
X6856385Y-13696082D02*
X6865908Y-13705606D01*
X6865908Y-13705606D02*
X6875432Y-13724654D01*
X6875432Y-13724654D02*
X6875432Y-13743701D01*
X6875432Y-13743701D02*
X6865908Y-13772273D01*
X6865908Y-13772273D02*
X6751623Y-13886559D01*
X6751623Y-13886559D02*
X6875432Y-13886559D01*
X6999242Y-13686559D02*
X7018289Y-13686559D01*
X7018289Y-13686559D02*
X7037337Y-13696082D01*
X7037337Y-13696082D02*
X7046861Y-13705606D01*
X7046861Y-13705606D02*
X7056385Y-13724654D01*
X7056385Y-13724654D02*
X7065908Y-13762749D01*
X7065908Y-13762749D02*
X7065908Y-13810368D01*
X7065908Y-13810368D02*
X7056385Y-13848463D01*
X7056385Y-13848463D02*
X7046861Y-13867511D01*
X7046861Y-13867511D02*
X7037337Y-13877035D01*
X7037337Y-13877035D02*
X7018289Y-13886559D01*
X7018289Y-13886559D02*
X6999242Y-13886559D01*
X6999242Y-13886559D02*
X6980194Y-13877035D01*
X6980194Y-13877035D02*
X6970670Y-13867511D01*
X6970670Y-13867511D02*
X6961147Y-13848463D01*
X6961147Y-13848463D02*
X6951623Y-13810368D01*
X6951623Y-13810368D02*
X6951623Y-13762749D01*
X6951623Y-13762749D02*
X6961147Y-13724654D01*
X6961147Y-13724654D02*
X6970670Y-13705606D01*
X6970670Y-13705606D02*
X6980194Y-13696082D01*
X6980194Y-13696082D02*
X6999242Y-13686559D01*
X7304004Y-13886559D02*
X7304004Y-13686559D01*
X7389718Y-13886559D02*
X7389718Y-13781797D01*
X7389718Y-13781797D02*
X7380194Y-13762749D01*
X7380194Y-13762749D02*
X7361147Y-13753225D01*
X7361147Y-13753225D02*
X7332575Y-13753225D01*
X7332575Y-13753225D02*
X7313528Y-13762749D01*
X7313528Y-13762749D02*
X7304004Y-13772273D01*
X7513528Y-13886559D02*
X7494480Y-13877035D01*
X7494480Y-13877035D02*
X7484956Y-13867511D01*
X7484956Y-13867511D02*
X7475432Y-13848463D01*
X7475432Y-13848463D02*
X7475432Y-13791321D01*
X7475432Y-13791321D02*
X7484956Y-13772273D01*
X7484956Y-13772273D02*
X7494480Y-13762749D01*
X7494480Y-13762749D02*
X7513528Y-13753225D01*
X7513528Y-13753225D02*
X7542099Y-13753225D01*
X7542099Y-13753225D02*
X7561147Y-13762749D01*
X7561147Y-13762749D02*
X7570670Y-13772273D01*
X7570670Y-13772273D02*
X7580194Y-13791321D01*
X7580194Y-13791321D02*
X7580194Y-13848463D01*
X7580194Y-13848463D02*
X7570670Y-13867511D01*
X7570670Y-13867511D02*
X7561147Y-13877035D01*
X7561147Y-13877035D02*
X7542099Y-13886559D01*
X7542099Y-13886559D02*
X7513528Y-13886559D01*
X7694480Y-13886559D02*
X7675432Y-13877035D01*
X7675432Y-13877035D02*
X7665909Y-13857987D01*
X7665909Y-13857987D02*
X7665909Y-13686559D01*
X7846861Y-13877035D02*
X7827813Y-13886559D01*
X7827813Y-13886559D02*
X7789718Y-13886559D01*
X7789718Y-13886559D02*
X7770670Y-13877035D01*
X7770670Y-13877035D02*
X7761147Y-13857987D01*
X7761147Y-13857987D02*
X7761147Y-13781797D01*
X7761147Y-13781797D02*
X7770670Y-13762749D01*
X7770670Y-13762749D02*
X7789718Y-13753225D01*
X7789718Y-13753225D02*
X7827813Y-13753225D01*
X7827813Y-13753225D02*
X7846861Y-13762749D01*
X7846861Y-13762749D02*
X7856385Y-13781797D01*
X7856385Y-13781797D02*
X7856385Y-13800844D01*
X7856385Y-13800844D02*
X7761147Y-13819892D01*
X7932575Y-13877035D02*
X7951623Y-13886559D01*
X7951623Y-13886559D02*
X7989718Y-13886559D01*
X7989718Y-13886559D02*
X8008766Y-13877035D01*
X8008766Y-13877035D02*
X8018290Y-13857987D01*
X8018290Y-13857987D02*
X8018290Y-13848463D01*
X8018290Y-13848463D02*
X8008766Y-13829416D01*
X8008766Y-13829416D02*
X7989718Y-13819892D01*
X7989718Y-13819892D02*
X7961147Y-13819892D01*
X7961147Y-13819892D02*
X7942099Y-13810368D01*
X7942099Y-13810368D02*
X7932575Y-13791321D01*
X7932575Y-13791321D02*
X7932575Y-13781797D01*
X7932575Y-13781797D02*
X7942099Y-13762749D01*
X7942099Y-13762749D02*
X7961147Y-13753225D01*
X7961147Y-13753225D02*
X7989718Y-13753225D01*
X7989718Y-13753225D02*
X8008766Y-13762749D01*
X8084956Y-13962749D02*
X8094480Y-13953225D01*
X8094480Y-13953225D02*
X8113528Y-13924654D01*
X8113528Y-13924654D02*
X8123051Y-13905606D01*
X8123051Y-13905606D02*
X8132575Y-13877035D01*
X8132575Y-13877035D02*
X8142099Y-13829416D01*
X8142099Y-13829416D02*
X8142099Y-13791321D01*
X8142099Y-13791321D02*
X8132575Y-13743701D01*
X8132575Y-13743701D02*
X8123051Y-13715130D01*
X8123051Y-13715130D02*
X8113528Y-13696082D01*
X8113528Y-13696082D02*
X8094480Y-13667511D01*
X8094480Y-13667511D02*
X8084956Y-13657987D01*
X8446861Y-13962749D02*
X8437337Y-13953225D01*
X8437337Y-13953225D02*
X8418290Y-13924654D01*
X8418290Y-13924654D02*
X8408766Y-13905606D01*
X8408766Y-13905606D02*
X8399242Y-13877035D01*
X8399242Y-13877035D02*
X8389718Y-13829416D01*
X8389718Y-13829416D02*
X8389718Y-13791321D01*
X8389718Y-13791321D02*
X8399242Y-13743701D01*
X8399242Y-13743701D02*
X8408766Y-13715130D01*
X8408766Y-13715130D02*
X8418290Y-13696082D01*
X8418290Y-13696082D02*
X8437337Y-13667511D01*
X8437337Y-13667511D02*
X8446861Y-13657987D01*
X8523052Y-13753225D02*
X8523052Y-13886559D01*
X8523052Y-13772273D02*
X8532575Y-13762749D01*
X8532575Y-13762749D02*
X8551623Y-13753225D01*
X8551623Y-13753225D02*
X8580194Y-13753225D01*
X8580194Y-13753225D02*
X8599242Y-13762749D01*
X8599242Y-13762749D02*
X8608766Y-13781797D01*
X8608766Y-13781797D02*
X8608766Y-13886559D01*
X8732575Y-13886559D02*
X8713528Y-13877035D01*
X8713528Y-13877035D02*
X8704004Y-13867511D01*
X8704004Y-13867511D02*
X8694480Y-13848463D01*
X8694480Y-13848463D02*
X8694480Y-13791321D01*
X8694480Y-13791321D02*
X8704004Y-13772273D01*
X8704004Y-13772273D02*
X8713528Y-13762749D01*
X8713528Y-13762749D02*
X8732575Y-13753225D01*
X8732575Y-13753225D02*
X8761147Y-13753225D01*
X8761147Y-13753225D02*
X8780194Y-13762749D01*
X8780194Y-13762749D02*
X8789718Y-13772273D01*
X8789718Y-13772273D02*
X8799242Y-13791321D01*
X8799242Y-13791321D02*
X8799242Y-13848463D01*
X8799242Y-13848463D02*
X8789718Y-13867511D01*
X8789718Y-13867511D02*
X8780194Y-13877035D01*
X8780194Y-13877035D02*
X8761147Y-13886559D01*
X8761147Y-13886559D02*
X8732575Y-13886559D01*
X8856385Y-13753225D02*
X8932575Y-13753225D01*
X8884956Y-13686559D02*
X8884956Y-13857987D01*
X8884956Y-13857987D02*
X8894480Y-13877035D01*
X8894480Y-13877035D02*
X8913528Y-13886559D01*
X8913528Y-13886559D02*
X8932575Y-13886559D01*
X9151623Y-13753225D02*
X9151623Y-13953225D01*
X9151623Y-13762749D02*
X9170671Y-13753225D01*
X9170671Y-13753225D02*
X9208766Y-13753225D01*
X9208766Y-13753225D02*
X9227814Y-13762749D01*
X9227814Y-13762749D02*
X9237337Y-13772273D01*
X9237337Y-13772273D02*
X9246861Y-13791321D01*
X9246861Y-13791321D02*
X9246861Y-13848463D01*
X9246861Y-13848463D02*
X9237337Y-13867511D01*
X9237337Y-13867511D02*
X9227814Y-13877035D01*
X9227814Y-13877035D02*
X9208766Y-13886559D01*
X9208766Y-13886559D02*
X9170671Y-13886559D01*
X9170671Y-13886559D02*
X9151623Y-13877035D01*
X9361147Y-13886559D02*
X9342099Y-13877035D01*
X9342099Y-13877035D02*
X9332575Y-13857987D01*
X9332575Y-13857987D02*
X9332575Y-13686559D01*
X9523052Y-13886559D02*
X9523052Y-13781797D01*
X9523052Y-13781797D02*
X9513528Y-13762749D01*
X9513528Y-13762749D02*
X9494480Y-13753225D01*
X9494480Y-13753225D02*
X9456385Y-13753225D01*
X9456385Y-13753225D02*
X9437337Y-13762749D01*
X9523052Y-13877035D02*
X9504004Y-13886559D01*
X9504004Y-13886559D02*
X9456385Y-13886559D01*
X9456385Y-13886559D02*
X9437337Y-13877035D01*
X9437337Y-13877035D02*
X9427814Y-13857987D01*
X9427814Y-13857987D02*
X9427814Y-13838940D01*
X9427814Y-13838940D02*
X9437337Y-13819892D01*
X9437337Y-13819892D02*
X9456385Y-13810368D01*
X9456385Y-13810368D02*
X9504004Y-13810368D01*
X9504004Y-13810368D02*
X9523052Y-13800844D01*
X9589718Y-13753225D02*
X9665909Y-13753225D01*
X9618290Y-13686559D02*
X9618290Y-13857987D01*
X9618290Y-13857987D02*
X9627814Y-13877035D01*
X9627814Y-13877035D02*
X9646861Y-13886559D01*
X9646861Y-13886559D02*
X9665909Y-13886559D01*
X9808766Y-13877035D02*
X9789718Y-13886559D01*
X9789718Y-13886559D02*
X9751623Y-13886559D01*
X9751623Y-13886559D02*
X9732575Y-13877035D01*
X9732575Y-13877035D02*
X9723052Y-13857987D01*
X9723052Y-13857987D02*
X9723052Y-13781797D01*
X9723052Y-13781797D02*
X9732575Y-13762749D01*
X9732575Y-13762749D02*
X9751623Y-13753225D01*
X9751623Y-13753225D02*
X9789718Y-13753225D01*
X9789718Y-13753225D02*
X9808766Y-13762749D01*
X9808766Y-13762749D02*
X9818290Y-13781797D01*
X9818290Y-13781797D02*
X9818290Y-13800844D01*
X9818290Y-13800844D02*
X9723052Y-13819892D01*
X9989718Y-13886559D02*
X9989718Y-13686559D01*
X9989718Y-13877035D02*
X9970671Y-13886559D01*
X9970671Y-13886559D02*
X9932575Y-13886559D01*
X9932575Y-13886559D02*
X9913528Y-13877035D01*
X9913528Y-13877035D02*
X9904004Y-13867511D01*
X9904004Y-13867511D02*
X9894480Y-13848463D01*
X9894480Y-13848463D02*
X9894480Y-13791321D01*
X9894480Y-13791321D02*
X9904004Y-13772273D01*
X9904004Y-13772273D02*
X9913528Y-13762749D01*
X9913528Y-13762749D02*
X9932575Y-13753225D01*
X9932575Y-13753225D02*
X9970671Y-13753225D01*
X9970671Y-13753225D02*
X9989718Y-13762749D01*
X10065909Y-13962749D02*
X10075433Y-13953225D01*
X10075433Y-13953225D02*
X10094480Y-13924654D01*
X10094480Y-13924654D02*
X10104004Y-13905606D01*
X10104004Y-13905606D02*
X10113528Y-13877035D01*
X10113528Y-13877035D02*
X10123052Y-13829416D01*
X10123052Y-13829416D02*
X10123052Y-13791321D01*
X10123052Y-13791321D02*
X10113528Y-13743701D01*
X10113528Y-13743701D02*
X10104004Y-13715130D01*
X10104004Y-13715130D02*
X10094480Y-13696082D01*
X10094480Y-13696082D02*
X10075433Y-13667511D01*
X10075433Y-13667511D02*
X10065909Y-13657987D01*
D13*
X3119417Y-14059075D02*
G75*
G03*
X3119417Y-14059075I-40000J0D01*
G01*
D11*
X3418289Y-13950559D02*
X3437337Y-13950559D01*
X3437337Y-13950559D02*
X3456384Y-13960082D01*
X3456384Y-13960082D02*
X3465908Y-13969606D01*
X3465908Y-13969606D02*
X3475432Y-13988654D01*
X3475432Y-13988654D02*
X3484956Y-14026749D01*
X3484956Y-14026749D02*
X3484956Y-14074368D01*
X3484956Y-14074368D02*
X3475432Y-14112463D01*
X3475432Y-14112463D02*
X3465908Y-14131511D01*
X3465908Y-14131511D02*
X3456384Y-14141035D01*
X3456384Y-14141035D02*
X3437337Y-14150559D01*
X3437337Y-14150559D02*
X3418289Y-14150559D01*
X3418289Y-14150559D02*
X3399241Y-14141035D01*
X3399241Y-14141035D02*
X3389718Y-14131511D01*
X3389718Y-14131511D02*
X3380194Y-14112463D01*
X3380194Y-14112463D02*
X3370670Y-14074368D01*
X3370670Y-14074368D02*
X3370670Y-14026749D01*
X3370670Y-14026749D02*
X3380194Y-13988654D01*
X3380194Y-13988654D02*
X3389718Y-13969606D01*
X3389718Y-13969606D02*
X3399241Y-13960082D01*
X3399241Y-13960082D02*
X3418289Y-13950559D01*
X3570670Y-14131511D02*
X3580194Y-14141035D01*
X3580194Y-14141035D02*
X3570670Y-14150559D01*
X3570670Y-14150559D02*
X3561146Y-14141035D01*
X3561146Y-14141035D02*
X3570670Y-14131511D01*
X3570670Y-14131511D02*
X3570670Y-14150559D01*
X3694480Y-14036273D02*
X3675432Y-14026749D01*
X3675432Y-14026749D02*
X3665908Y-14017225D01*
X3665908Y-14017225D02*
X3656384Y-13998178D01*
X3656384Y-13998178D02*
X3656384Y-13988654D01*
X3656384Y-13988654D02*
X3665908Y-13969606D01*
X3665908Y-13969606D02*
X3675432Y-13960082D01*
X3675432Y-13960082D02*
X3694480Y-13950559D01*
X3694480Y-13950559D02*
X3732575Y-13950559D01*
X3732575Y-13950559D02*
X3751622Y-13960082D01*
X3751622Y-13960082D02*
X3761146Y-13969606D01*
X3761146Y-13969606D02*
X3770670Y-13988654D01*
X3770670Y-13988654D02*
X3770670Y-13998178D01*
X3770670Y-13998178D02*
X3761146Y-14017225D01*
X3761146Y-14017225D02*
X3751622Y-14026749D01*
X3751622Y-14026749D02*
X3732575Y-14036273D01*
X3732575Y-14036273D02*
X3694480Y-14036273D01*
X3694480Y-14036273D02*
X3675432Y-14045797D01*
X3675432Y-14045797D02*
X3665908Y-14055321D01*
X3665908Y-14055321D02*
X3656384Y-14074368D01*
X3656384Y-14074368D02*
X3656384Y-14112463D01*
X3656384Y-14112463D02*
X3665908Y-14131511D01*
X3665908Y-14131511D02*
X3675432Y-14141035D01*
X3675432Y-14141035D02*
X3694480Y-14150559D01*
X3694480Y-14150559D02*
X3732575Y-14150559D01*
X3732575Y-14150559D02*
X3751622Y-14141035D01*
X3751622Y-14141035D02*
X3761146Y-14131511D01*
X3761146Y-14131511D02*
X3770670Y-14112463D01*
X3770670Y-14112463D02*
X3770670Y-14074368D01*
X3770670Y-14074368D02*
X3761146Y-14055321D01*
X3761146Y-14055321D02*
X3751622Y-14045797D01*
X3751622Y-14045797D02*
X3732575Y-14036273D01*
X3894480Y-13950559D02*
X3913527Y-13950559D01*
X3913527Y-13950559D02*
X3932575Y-13960082D01*
X3932575Y-13960082D02*
X3942099Y-13969606D01*
X3942099Y-13969606D02*
X3951622Y-13988654D01*
X3951622Y-13988654D02*
X3961146Y-14026749D01*
X3961146Y-14026749D02*
X3961146Y-14074368D01*
X3961146Y-14074368D02*
X3951622Y-14112463D01*
X3951622Y-14112463D02*
X3942099Y-14131511D01*
X3942099Y-14131511D02*
X3932575Y-14141035D01*
X3932575Y-14141035D02*
X3913527Y-14150559D01*
X3913527Y-14150559D02*
X3894480Y-14150559D01*
X3894480Y-14150559D02*
X3875432Y-14141035D01*
X3875432Y-14141035D02*
X3865908Y-14131511D01*
X3865908Y-14131511D02*
X3856384Y-14112463D01*
X3856384Y-14112463D02*
X3846861Y-14074368D01*
X3846861Y-14074368D02*
X3846861Y-14026749D01*
X3846861Y-14026749D02*
X3856384Y-13988654D01*
X3856384Y-13988654D02*
X3865908Y-13969606D01*
X3865908Y-13969606D02*
X3875432Y-13960082D01*
X3875432Y-13960082D02*
X3894480Y-13950559D01*
X4084956Y-13950559D02*
X4104003Y-13950559D01*
X4104003Y-13950559D02*
X4123051Y-13960082D01*
X4123051Y-13960082D02*
X4132575Y-13969606D01*
X4132575Y-13969606D02*
X4142099Y-13988654D01*
X4142099Y-13988654D02*
X4151622Y-14026749D01*
X4151622Y-14026749D02*
X4151622Y-14074368D01*
X4151622Y-14074368D02*
X4142099Y-14112463D01*
X4142099Y-14112463D02*
X4132575Y-14131511D01*
X4132575Y-14131511D02*
X4123051Y-14141035D01*
X4123051Y-14141035D02*
X4104003Y-14150559D01*
X4104003Y-14150559D02*
X4084956Y-14150559D01*
X4084956Y-14150559D02*
X4065908Y-14141035D01*
X4065908Y-14141035D02*
X4056384Y-14131511D01*
X4056384Y-14131511D02*
X4046861Y-14112463D01*
X4046861Y-14112463D02*
X4037337Y-14074368D01*
X4037337Y-14074368D02*
X4037337Y-14026749D01*
X4037337Y-14026749D02*
X4046861Y-13988654D01*
X4046861Y-13988654D02*
X4056384Y-13969606D01*
X4056384Y-13969606D02*
X4065908Y-13960082D01*
X4065908Y-13960082D02*
X4084956Y-13950559D01*
X4237337Y-14150559D02*
X4237337Y-14017225D01*
X4237337Y-14036273D02*
X4246861Y-14026749D01*
X4246861Y-14026749D02*
X4265908Y-14017225D01*
X4265908Y-14017225D02*
X4294480Y-14017225D01*
X4294480Y-14017225D02*
X4313527Y-14026749D01*
X4313527Y-14026749D02*
X4323051Y-14045797D01*
X4323051Y-14045797D02*
X4323051Y-14150559D01*
X4323051Y-14045797D02*
X4332575Y-14026749D01*
X4332575Y-14026749D02*
X4351623Y-14017225D01*
X4351623Y-14017225D02*
X4380194Y-14017225D01*
X4380194Y-14017225D02*
X4399242Y-14026749D01*
X4399242Y-14026749D02*
X4408765Y-14045797D01*
X4408765Y-14045797D02*
X4408765Y-14150559D01*
X4504004Y-14150559D02*
X4504004Y-14017225D01*
X4504004Y-14036273D02*
X4513527Y-14026749D01*
X4513527Y-14026749D02*
X4532575Y-14017225D01*
X4532575Y-14017225D02*
X4561146Y-14017225D01*
X4561146Y-14017225D02*
X4580194Y-14026749D01*
X4580194Y-14026749D02*
X4589718Y-14045797D01*
X4589718Y-14045797D02*
X4589718Y-14150559D01*
X4589718Y-14045797D02*
X4599242Y-14026749D01*
X4599242Y-14026749D02*
X4618289Y-14017225D01*
X4618289Y-14017225D02*
X4646861Y-14017225D01*
X4646861Y-14017225D02*
X4665908Y-14026749D01*
X4665908Y-14026749D02*
X4675432Y-14045797D01*
X4675432Y-14045797D02*
X4675432Y-14150559D01*
X5065908Y-13941035D02*
X4894480Y-14198178D01*
X5323051Y-13950559D02*
X5342099Y-13950559D01*
X5342099Y-13950559D02*
X5361147Y-13960082D01*
X5361147Y-13960082D02*
X5370670Y-13969606D01*
X5370670Y-13969606D02*
X5380194Y-13988654D01*
X5380194Y-13988654D02*
X5389718Y-14026749D01*
X5389718Y-14026749D02*
X5389718Y-14074368D01*
X5389718Y-14074368D02*
X5380194Y-14112463D01*
X5380194Y-14112463D02*
X5370670Y-14131511D01*
X5370670Y-14131511D02*
X5361147Y-14141035D01*
X5361147Y-14141035D02*
X5342099Y-14150559D01*
X5342099Y-14150559D02*
X5323051Y-14150559D01*
X5323051Y-14150559D02*
X5304004Y-14141035D01*
X5304004Y-14141035D02*
X5294480Y-14131511D01*
X5294480Y-14131511D02*
X5284956Y-14112463D01*
X5284956Y-14112463D02*
X5275432Y-14074368D01*
X5275432Y-14074368D02*
X5275432Y-14026749D01*
X5275432Y-14026749D02*
X5284956Y-13988654D01*
X5284956Y-13988654D02*
X5294480Y-13969606D01*
X5294480Y-13969606D02*
X5304004Y-13960082D01*
X5304004Y-13960082D02*
X5323051Y-13950559D01*
X5475432Y-14131511D02*
X5484956Y-14141035D01*
X5484956Y-14141035D02*
X5475432Y-14150559D01*
X5475432Y-14150559D02*
X5465908Y-14141035D01*
X5465908Y-14141035D02*
X5475432Y-14131511D01*
X5475432Y-14131511D02*
X5475432Y-14150559D01*
X5608765Y-13950559D02*
X5627813Y-13950559D01*
X5627813Y-13950559D02*
X5646861Y-13960082D01*
X5646861Y-13960082D02*
X5656385Y-13969606D01*
X5656385Y-13969606D02*
X5665908Y-13988654D01*
X5665908Y-13988654D02*
X5675432Y-14026749D01*
X5675432Y-14026749D02*
X5675432Y-14074368D01*
X5675432Y-14074368D02*
X5665908Y-14112463D01*
X5665908Y-14112463D02*
X5656385Y-14131511D01*
X5656385Y-14131511D02*
X5646861Y-14141035D01*
X5646861Y-14141035D02*
X5627813Y-14150559D01*
X5627813Y-14150559D02*
X5608765Y-14150559D01*
X5608765Y-14150559D02*
X5589718Y-14141035D01*
X5589718Y-14141035D02*
X5580194Y-14131511D01*
X5580194Y-14131511D02*
X5570670Y-14112463D01*
X5570670Y-14112463D02*
X5561147Y-14074368D01*
X5561147Y-14074368D02*
X5561147Y-14026749D01*
X5561147Y-14026749D02*
X5570670Y-13988654D01*
X5570670Y-13988654D02*
X5580194Y-13969606D01*
X5580194Y-13969606D02*
X5589718Y-13960082D01*
X5589718Y-13960082D02*
X5608765Y-13950559D01*
X5742099Y-13950559D02*
X5865908Y-13950559D01*
X5865908Y-13950559D02*
X5799242Y-14026749D01*
X5799242Y-14026749D02*
X5827813Y-14026749D01*
X5827813Y-14026749D02*
X5846861Y-14036273D01*
X5846861Y-14036273D02*
X5856385Y-14045797D01*
X5856385Y-14045797D02*
X5865908Y-14064844D01*
X5865908Y-14064844D02*
X5865908Y-14112463D01*
X5865908Y-14112463D02*
X5856385Y-14131511D01*
X5856385Y-14131511D02*
X5846861Y-14141035D01*
X5846861Y-14141035D02*
X5827813Y-14150559D01*
X5827813Y-14150559D02*
X5770670Y-14150559D01*
X5770670Y-14150559D02*
X5751623Y-14141035D01*
X5751623Y-14141035D02*
X5742099Y-14131511D01*
X6056385Y-14150559D02*
X5942099Y-14150559D01*
X5999242Y-14150559D02*
X5999242Y-13950559D01*
X5999242Y-13950559D02*
X5980194Y-13979130D01*
X5980194Y-13979130D02*
X5961146Y-13998178D01*
X5961146Y-13998178D02*
X5942099Y-14007701D01*
X6237337Y-13950559D02*
X6142099Y-13950559D01*
X6142099Y-13950559D02*
X6132575Y-14045797D01*
X6132575Y-14045797D02*
X6142099Y-14036273D01*
X6142099Y-14036273D02*
X6161146Y-14026749D01*
X6161146Y-14026749D02*
X6208766Y-14026749D01*
X6208766Y-14026749D02*
X6227813Y-14036273D01*
X6227813Y-14036273D02*
X6237337Y-14045797D01*
X6237337Y-14045797D02*
X6246861Y-14064844D01*
X6246861Y-14064844D02*
X6246861Y-14112463D01*
X6246861Y-14112463D02*
X6237337Y-14131511D01*
X6237337Y-14131511D02*
X6227813Y-14141035D01*
X6227813Y-14141035D02*
X6208766Y-14150559D01*
X6208766Y-14150559D02*
X6161146Y-14150559D01*
X6161146Y-14150559D02*
X6142099Y-14141035D01*
X6142099Y-14141035D02*
X6132575Y-14131511D01*
X6323051Y-13950559D02*
X6323051Y-13988654D01*
X6399242Y-13950559D02*
X6399242Y-13988654D01*
X6694480Y-14226749D02*
X6684956Y-14217225D01*
X6684956Y-14217225D02*
X6665908Y-14188654D01*
X6665908Y-14188654D02*
X6656385Y-14169606D01*
X6656385Y-14169606D02*
X6646861Y-14141035D01*
X6646861Y-14141035D02*
X6637337Y-14093416D01*
X6637337Y-14093416D02*
X6637337Y-14055321D01*
X6637337Y-14055321D02*
X6646861Y-14007701D01*
X6646861Y-14007701D02*
X6656385Y-13979130D01*
X6656385Y-13979130D02*
X6665908Y-13960082D01*
X6665908Y-13960082D02*
X6684956Y-13931511D01*
X6684956Y-13931511D02*
X6694480Y-13921987D01*
X6856385Y-14017225D02*
X6856385Y-14150559D01*
X6808766Y-13941035D02*
X6761147Y-14083892D01*
X6761147Y-14083892D02*
X6884956Y-14083892D01*
X7113528Y-14150559D02*
X7113528Y-13950559D01*
X7199242Y-14150559D02*
X7199242Y-14045797D01*
X7199242Y-14045797D02*
X7189718Y-14026749D01*
X7189718Y-14026749D02*
X7170670Y-14017225D01*
X7170670Y-14017225D02*
X7142099Y-14017225D01*
X7142099Y-14017225D02*
X7123051Y-14026749D01*
X7123051Y-14026749D02*
X7113528Y-14036273D01*
X7323051Y-14150559D02*
X7304004Y-14141035D01*
X7304004Y-14141035D02*
X7294480Y-14131511D01*
X7294480Y-14131511D02*
X7284956Y-14112463D01*
X7284956Y-14112463D02*
X7284956Y-14055321D01*
X7284956Y-14055321D02*
X7294480Y-14036273D01*
X7294480Y-14036273D02*
X7304004Y-14026749D01*
X7304004Y-14026749D02*
X7323051Y-14017225D01*
X7323051Y-14017225D02*
X7351623Y-14017225D01*
X7351623Y-14017225D02*
X7370670Y-14026749D01*
X7370670Y-14026749D02*
X7380194Y-14036273D01*
X7380194Y-14036273D02*
X7389718Y-14055321D01*
X7389718Y-14055321D02*
X7389718Y-14112463D01*
X7389718Y-14112463D02*
X7380194Y-14131511D01*
X7380194Y-14131511D02*
X7370670Y-14141035D01*
X7370670Y-14141035D02*
X7351623Y-14150559D01*
X7351623Y-14150559D02*
X7323051Y-14150559D01*
X7504004Y-14150559D02*
X7484956Y-14141035D01*
X7484956Y-14141035D02*
X7475432Y-14121987D01*
X7475432Y-14121987D02*
X7475432Y-13950559D01*
X7656385Y-14141035D02*
X7637337Y-14150559D01*
X7637337Y-14150559D02*
X7599242Y-14150559D01*
X7599242Y-14150559D02*
X7580194Y-14141035D01*
X7580194Y-14141035D02*
X7570670Y-14121987D01*
X7570670Y-14121987D02*
X7570670Y-14045797D01*
X7570670Y-14045797D02*
X7580194Y-14026749D01*
X7580194Y-14026749D02*
X7599242Y-14017225D01*
X7599242Y-14017225D02*
X7637337Y-14017225D01*
X7637337Y-14017225D02*
X7656385Y-14026749D01*
X7656385Y-14026749D02*
X7665909Y-14045797D01*
X7665909Y-14045797D02*
X7665909Y-14064844D01*
X7665909Y-14064844D02*
X7570670Y-14083892D01*
X7742099Y-14141035D02*
X7761147Y-14150559D01*
X7761147Y-14150559D02*
X7799242Y-14150559D01*
X7799242Y-14150559D02*
X7818290Y-14141035D01*
X7818290Y-14141035D02*
X7827813Y-14121987D01*
X7827813Y-14121987D02*
X7827813Y-14112463D01*
X7827813Y-14112463D02*
X7818290Y-14093416D01*
X7818290Y-14093416D02*
X7799242Y-14083892D01*
X7799242Y-14083892D02*
X7770670Y-14083892D01*
X7770670Y-14083892D02*
X7751623Y-14074368D01*
X7751623Y-14074368D02*
X7742099Y-14055321D01*
X7742099Y-14055321D02*
X7742099Y-14045797D01*
X7742099Y-14045797D02*
X7751623Y-14026749D01*
X7751623Y-14026749D02*
X7770670Y-14017225D01*
X7770670Y-14017225D02*
X7799242Y-14017225D01*
X7799242Y-14017225D02*
X7818290Y-14026749D01*
X7894480Y-14226749D02*
X7904004Y-14217225D01*
X7904004Y-14217225D02*
X7923051Y-14188654D01*
X7923051Y-14188654D02*
X7932575Y-14169606D01*
X7932575Y-14169606D02*
X7942099Y-14141035D01*
X7942099Y-14141035D02*
X7951623Y-14093416D01*
X7951623Y-14093416D02*
X7951623Y-14055321D01*
X7951623Y-14055321D02*
X7942099Y-14007701D01*
X7942099Y-14007701D02*
X7932575Y-13979130D01*
X7932575Y-13979130D02*
X7923051Y-13960082D01*
X7923051Y-13960082D02*
X7904004Y-13931511D01*
X7904004Y-13931511D02*
X7894480Y-13921987D01*
X8256385Y-14226749D02*
X8246861Y-14217225D01*
X8246861Y-14217225D02*
X8227813Y-14188654D01*
X8227813Y-14188654D02*
X8218290Y-14169606D01*
X8218290Y-14169606D02*
X8208766Y-14141035D01*
X8208766Y-14141035D02*
X8199242Y-14093416D01*
X8199242Y-14093416D02*
X8199242Y-14055321D01*
X8199242Y-14055321D02*
X8208766Y-14007701D01*
X8208766Y-14007701D02*
X8218290Y-13979130D01*
X8218290Y-13979130D02*
X8227813Y-13960082D01*
X8227813Y-13960082D02*
X8246861Y-13931511D01*
X8246861Y-13931511D02*
X8256385Y-13921987D01*
X8332575Y-14017225D02*
X8332575Y-14150559D01*
X8332575Y-14036273D02*
X8342099Y-14026749D01*
X8342099Y-14026749D02*
X8361147Y-14017225D01*
X8361147Y-14017225D02*
X8389718Y-14017225D01*
X8389718Y-14017225D02*
X8408766Y-14026749D01*
X8408766Y-14026749D02*
X8418290Y-14045797D01*
X8418290Y-14045797D02*
X8418290Y-14150559D01*
X8542099Y-14150559D02*
X8523052Y-14141035D01*
X8523052Y-14141035D02*
X8513528Y-14131511D01*
X8513528Y-14131511D02*
X8504004Y-14112463D01*
X8504004Y-14112463D02*
X8504004Y-14055321D01*
X8504004Y-14055321D02*
X8513528Y-14036273D01*
X8513528Y-14036273D02*
X8523052Y-14026749D01*
X8523052Y-14026749D02*
X8542099Y-14017225D01*
X8542099Y-14017225D02*
X8570671Y-14017225D01*
X8570671Y-14017225D02*
X8589718Y-14026749D01*
X8589718Y-14026749D02*
X8599242Y-14036273D01*
X8599242Y-14036273D02*
X8608766Y-14055321D01*
X8608766Y-14055321D02*
X8608766Y-14112463D01*
X8608766Y-14112463D02*
X8599242Y-14131511D01*
X8599242Y-14131511D02*
X8589718Y-14141035D01*
X8589718Y-14141035D02*
X8570671Y-14150559D01*
X8570671Y-14150559D02*
X8542099Y-14150559D01*
X8665909Y-14017225D02*
X8742099Y-14017225D01*
X8694480Y-13950559D02*
X8694480Y-14121987D01*
X8694480Y-14121987D02*
X8704004Y-14141035D01*
X8704004Y-14141035D02*
X8723052Y-14150559D01*
X8723052Y-14150559D02*
X8742099Y-14150559D01*
X8961147Y-14017225D02*
X8961147Y-14217225D01*
X8961147Y-14026749D02*
X8980194Y-14017225D01*
X8980194Y-14017225D02*
X9018290Y-14017225D01*
X9018290Y-14017225D02*
X9037337Y-14026749D01*
X9037337Y-14026749D02*
X9046861Y-14036273D01*
X9046861Y-14036273D02*
X9056385Y-14055321D01*
X9056385Y-14055321D02*
X9056385Y-14112463D01*
X9056385Y-14112463D02*
X9046861Y-14131511D01*
X9046861Y-14131511D02*
X9037337Y-14141035D01*
X9037337Y-14141035D02*
X9018290Y-14150559D01*
X9018290Y-14150559D02*
X8980194Y-14150559D01*
X8980194Y-14150559D02*
X8961147Y-14141035D01*
X9170671Y-14150559D02*
X9151623Y-14141035D01*
X9151623Y-14141035D02*
X9142099Y-14121987D01*
X9142099Y-14121987D02*
X9142099Y-13950559D01*
X9332575Y-14150559D02*
X9332575Y-14045797D01*
X9332575Y-14045797D02*
X9323052Y-14026749D01*
X9323052Y-14026749D02*
X9304004Y-14017225D01*
X9304004Y-14017225D02*
X9265909Y-14017225D01*
X9265909Y-14017225D02*
X9246861Y-14026749D01*
X9332575Y-14141035D02*
X9313528Y-14150559D01*
X9313528Y-14150559D02*
X9265909Y-14150559D01*
X9265909Y-14150559D02*
X9246861Y-14141035D01*
X9246861Y-14141035D02*
X9237337Y-14121987D01*
X9237337Y-14121987D02*
X9237337Y-14102940D01*
X9237337Y-14102940D02*
X9246861Y-14083892D01*
X9246861Y-14083892D02*
X9265909Y-14074368D01*
X9265909Y-14074368D02*
X9313528Y-14074368D01*
X9313528Y-14074368D02*
X9332575Y-14064844D01*
X9399242Y-14017225D02*
X9475433Y-14017225D01*
X9427814Y-13950559D02*
X9427814Y-14121987D01*
X9427814Y-14121987D02*
X9437337Y-14141035D01*
X9437337Y-14141035D02*
X9456385Y-14150559D01*
X9456385Y-14150559D02*
X9475433Y-14150559D01*
X9618290Y-14141035D02*
X9599242Y-14150559D01*
X9599242Y-14150559D02*
X9561147Y-14150559D01*
X9561147Y-14150559D02*
X9542099Y-14141035D01*
X9542099Y-14141035D02*
X9532575Y-14121987D01*
X9532575Y-14121987D02*
X9532575Y-14045797D01*
X9532575Y-14045797D02*
X9542099Y-14026749D01*
X9542099Y-14026749D02*
X9561147Y-14017225D01*
X9561147Y-14017225D02*
X9599242Y-14017225D01*
X9599242Y-14017225D02*
X9618290Y-14026749D01*
X9618290Y-14026749D02*
X9627814Y-14045797D01*
X9627814Y-14045797D02*
X9627814Y-14064844D01*
X9627814Y-14064844D02*
X9532575Y-14083892D01*
X9799242Y-14150559D02*
X9799242Y-13950559D01*
X9799242Y-14141035D02*
X9780195Y-14150559D01*
X9780195Y-14150559D02*
X9742099Y-14150559D01*
X9742099Y-14150559D02*
X9723052Y-14141035D01*
X9723052Y-14141035D02*
X9713528Y-14131511D01*
X9713528Y-14131511D02*
X9704004Y-14112463D01*
X9704004Y-14112463D02*
X9704004Y-14055321D01*
X9704004Y-14055321D02*
X9713528Y-14036273D01*
X9713528Y-14036273D02*
X9723052Y-14026749D01*
X9723052Y-14026749D02*
X9742099Y-14017225D01*
X9742099Y-14017225D02*
X9780195Y-14017225D01*
X9780195Y-14017225D02*
X9799242Y-14026749D01*
X9875433Y-14226749D02*
X9884956Y-14217225D01*
X9884956Y-14217225D02*
X9904004Y-14188654D01*
X9904004Y-14188654D02*
X9913528Y-14169606D01*
X9913528Y-14169606D02*
X9923052Y-14141035D01*
X9923052Y-14141035D02*
X9932575Y-14093416D01*
X9932575Y-14093416D02*
X9932575Y-14055321D01*
X9932575Y-14055321D02*
X9923052Y-14007701D01*
X9923052Y-14007701D02*
X9913528Y-13979130D01*
X9913528Y-13979130D02*
X9904004Y-13960082D01*
X9904004Y-13960082D02*
X9884956Y-13931511D01*
X9884956Y-13931511D02*
X9875433Y-13921987D01*
D10*
X3074417Y-14278075D02*
X3074417Y-14368075D01*
X3029417Y-14323075D02*
X3119417Y-14323075D01*
D11*
X3418289Y-14214559D02*
X3437337Y-14214559D01*
X3437337Y-14214559D02*
X3456384Y-14224082D01*
X3456384Y-14224082D02*
X3465908Y-14233606D01*
X3465908Y-14233606D02*
X3475432Y-14252654D01*
X3475432Y-14252654D02*
X3484956Y-14290749D01*
X3484956Y-14290749D02*
X3484956Y-14338368D01*
X3484956Y-14338368D02*
X3475432Y-14376463D01*
X3475432Y-14376463D02*
X3465908Y-14395511D01*
X3465908Y-14395511D02*
X3456384Y-14405035D01*
X3456384Y-14405035D02*
X3437337Y-14414559D01*
X3437337Y-14414559D02*
X3418289Y-14414559D01*
X3418289Y-14414559D02*
X3399241Y-14405035D01*
X3399241Y-14405035D02*
X3389718Y-14395511D01*
X3389718Y-14395511D02*
X3380194Y-14376463D01*
X3380194Y-14376463D02*
X3370670Y-14338368D01*
X3370670Y-14338368D02*
X3370670Y-14290749D01*
X3370670Y-14290749D02*
X3380194Y-14252654D01*
X3380194Y-14252654D02*
X3389718Y-14233606D01*
X3389718Y-14233606D02*
X3399241Y-14224082D01*
X3399241Y-14224082D02*
X3418289Y-14214559D01*
X3570670Y-14395511D02*
X3580194Y-14405035D01*
X3580194Y-14405035D02*
X3570670Y-14414559D01*
X3570670Y-14414559D02*
X3561146Y-14405035D01*
X3561146Y-14405035D02*
X3570670Y-14395511D01*
X3570670Y-14395511D02*
X3570670Y-14414559D01*
X3675432Y-14414559D02*
X3713527Y-14414559D01*
X3713527Y-14414559D02*
X3732575Y-14405035D01*
X3732575Y-14405035D02*
X3742099Y-14395511D01*
X3742099Y-14395511D02*
X3761146Y-14366940D01*
X3761146Y-14366940D02*
X3770670Y-14328844D01*
X3770670Y-14328844D02*
X3770670Y-14252654D01*
X3770670Y-14252654D02*
X3761146Y-14233606D01*
X3761146Y-14233606D02*
X3751622Y-14224082D01*
X3751622Y-14224082D02*
X3732575Y-14214559D01*
X3732575Y-14214559D02*
X3694480Y-14214559D01*
X3694480Y-14214559D02*
X3675432Y-14224082D01*
X3675432Y-14224082D02*
X3665908Y-14233606D01*
X3665908Y-14233606D02*
X3656384Y-14252654D01*
X3656384Y-14252654D02*
X3656384Y-14300273D01*
X3656384Y-14300273D02*
X3665908Y-14319321D01*
X3665908Y-14319321D02*
X3675432Y-14328844D01*
X3675432Y-14328844D02*
X3694480Y-14338368D01*
X3694480Y-14338368D02*
X3732575Y-14338368D01*
X3732575Y-14338368D02*
X3751622Y-14328844D01*
X3751622Y-14328844D02*
X3761146Y-14319321D01*
X3761146Y-14319321D02*
X3770670Y-14300273D01*
X3894480Y-14214559D02*
X3913527Y-14214559D01*
X3913527Y-14214559D02*
X3932575Y-14224082D01*
X3932575Y-14224082D02*
X3942099Y-14233606D01*
X3942099Y-14233606D02*
X3951622Y-14252654D01*
X3951622Y-14252654D02*
X3961146Y-14290749D01*
X3961146Y-14290749D02*
X3961146Y-14338368D01*
X3961146Y-14338368D02*
X3951622Y-14376463D01*
X3951622Y-14376463D02*
X3942099Y-14395511D01*
X3942099Y-14395511D02*
X3932575Y-14405035D01*
X3932575Y-14405035D02*
X3913527Y-14414559D01*
X3913527Y-14414559D02*
X3894480Y-14414559D01*
X3894480Y-14414559D02*
X3875432Y-14405035D01*
X3875432Y-14405035D02*
X3865908Y-14395511D01*
X3865908Y-14395511D02*
X3856384Y-14376463D01*
X3856384Y-14376463D02*
X3846861Y-14338368D01*
X3846861Y-14338368D02*
X3846861Y-14290749D01*
X3846861Y-14290749D02*
X3856384Y-14252654D01*
X3856384Y-14252654D02*
X3865908Y-14233606D01*
X3865908Y-14233606D02*
X3875432Y-14224082D01*
X3875432Y-14224082D02*
X3894480Y-14214559D01*
X4084956Y-14214559D02*
X4104003Y-14214559D01*
X4104003Y-14214559D02*
X4123051Y-14224082D01*
X4123051Y-14224082D02*
X4132575Y-14233606D01*
X4132575Y-14233606D02*
X4142099Y-14252654D01*
X4142099Y-14252654D02*
X4151622Y-14290749D01*
X4151622Y-14290749D02*
X4151622Y-14338368D01*
X4151622Y-14338368D02*
X4142099Y-14376463D01*
X4142099Y-14376463D02*
X4132575Y-14395511D01*
X4132575Y-14395511D02*
X4123051Y-14405035D01*
X4123051Y-14405035D02*
X4104003Y-14414559D01*
X4104003Y-14414559D02*
X4084956Y-14414559D01*
X4084956Y-14414559D02*
X4065908Y-14405035D01*
X4065908Y-14405035D02*
X4056384Y-14395511D01*
X4056384Y-14395511D02*
X4046861Y-14376463D01*
X4046861Y-14376463D02*
X4037337Y-14338368D01*
X4037337Y-14338368D02*
X4037337Y-14290749D01*
X4037337Y-14290749D02*
X4046861Y-14252654D01*
X4046861Y-14252654D02*
X4056384Y-14233606D01*
X4056384Y-14233606D02*
X4065908Y-14224082D01*
X4065908Y-14224082D02*
X4084956Y-14214559D01*
X4237337Y-14414559D02*
X4237337Y-14281225D01*
X4237337Y-14300273D02*
X4246861Y-14290749D01*
X4246861Y-14290749D02*
X4265908Y-14281225D01*
X4265908Y-14281225D02*
X4294480Y-14281225D01*
X4294480Y-14281225D02*
X4313527Y-14290749D01*
X4313527Y-14290749D02*
X4323051Y-14309797D01*
X4323051Y-14309797D02*
X4323051Y-14414559D01*
X4323051Y-14309797D02*
X4332575Y-14290749D01*
X4332575Y-14290749D02*
X4351623Y-14281225D01*
X4351623Y-14281225D02*
X4380194Y-14281225D01*
X4380194Y-14281225D02*
X4399242Y-14290749D01*
X4399242Y-14290749D02*
X4408765Y-14309797D01*
X4408765Y-14309797D02*
X4408765Y-14414559D01*
X4504004Y-14414559D02*
X4504004Y-14281225D01*
X4504004Y-14300273D02*
X4513527Y-14290749D01*
X4513527Y-14290749D02*
X4532575Y-14281225D01*
X4532575Y-14281225D02*
X4561146Y-14281225D01*
X4561146Y-14281225D02*
X4580194Y-14290749D01*
X4580194Y-14290749D02*
X4589718Y-14309797D01*
X4589718Y-14309797D02*
X4589718Y-14414559D01*
X4589718Y-14309797D02*
X4599242Y-14290749D01*
X4599242Y-14290749D02*
X4618289Y-14281225D01*
X4618289Y-14281225D02*
X4646861Y-14281225D01*
X4646861Y-14281225D02*
X4665908Y-14290749D01*
X4665908Y-14290749D02*
X4675432Y-14309797D01*
X4675432Y-14309797D02*
X4675432Y-14414559D01*
X5065908Y-14205035D02*
X4894480Y-14462178D01*
X5323051Y-14214559D02*
X5342099Y-14214559D01*
X5342099Y-14214559D02*
X5361147Y-14224082D01*
X5361147Y-14224082D02*
X5370670Y-14233606D01*
X5370670Y-14233606D02*
X5380194Y-14252654D01*
X5380194Y-14252654D02*
X5389718Y-14290749D01*
X5389718Y-14290749D02*
X5389718Y-14338368D01*
X5389718Y-14338368D02*
X5380194Y-14376463D01*
X5380194Y-14376463D02*
X5370670Y-14395511D01*
X5370670Y-14395511D02*
X5361147Y-14405035D01*
X5361147Y-14405035D02*
X5342099Y-14414559D01*
X5342099Y-14414559D02*
X5323051Y-14414559D01*
X5323051Y-14414559D02*
X5304004Y-14405035D01*
X5304004Y-14405035D02*
X5294480Y-14395511D01*
X5294480Y-14395511D02*
X5284956Y-14376463D01*
X5284956Y-14376463D02*
X5275432Y-14338368D01*
X5275432Y-14338368D02*
X5275432Y-14290749D01*
X5275432Y-14290749D02*
X5284956Y-14252654D01*
X5284956Y-14252654D02*
X5294480Y-14233606D01*
X5294480Y-14233606D02*
X5304004Y-14224082D01*
X5304004Y-14224082D02*
X5323051Y-14214559D01*
X5475432Y-14395511D02*
X5484956Y-14405035D01*
X5484956Y-14405035D02*
X5475432Y-14414559D01*
X5475432Y-14414559D02*
X5465908Y-14405035D01*
X5465908Y-14405035D02*
X5475432Y-14395511D01*
X5475432Y-14395511D02*
X5475432Y-14414559D01*
X5608765Y-14214559D02*
X5627813Y-14214559D01*
X5627813Y-14214559D02*
X5646861Y-14224082D01*
X5646861Y-14224082D02*
X5656385Y-14233606D01*
X5656385Y-14233606D02*
X5665908Y-14252654D01*
X5665908Y-14252654D02*
X5675432Y-14290749D01*
X5675432Y-14290749D02*
X5675432Y-14338368D01*
X5675432Y-14338368D02*
X5665908Y-14376463D01*
X5665908Y-14376463D02*
X5656385Y-14395511D01*
X5656385Y-14395511D02*
X5646861Y-14405035D01*
X5646861Y-14405035D02*
X5627813Y-14414559D01*
X5627813Y-14414559D02*
X5608765Y-14414559D01*
X5608765Y-14414559D02*
X5589718Y-14405035D01*
X5589718Y-14405035D02*
X5580194Y-14395511D01*
X5580194Y-14395511D02*
X5570670Y-14376463D01*
X5570670Y-14376463D02*
X5561147Y-14338368D01*
X5561147Y-14338368D02*
X5561147Y-14290749D01*
X5561147Y-14290749D02*
X5570670Y-14252654D01*
X5570670Y-14252654D02*
X5580194Y-14233606D01*
X5580194Y-14233606D02*
X5589718Y-14224082D01*
X5589718Y-14224082D02*
X5608765Y-14214559D01*
X5742099Y-14214559D02*
X5865908Y-14214559D01*
X5865908Y-14214559D02*
X5799242Y-14290749D01*
X5799242Y-14290749D02*
X5827813Y-14290749D01*
X5827813Y-14290749D02*
X5846861Y-14300273D01*
X5846861Y-14300273D02*
X5856385Y-14309797D01*
X5856385Y-14309797D02*
X5865908Y-14328844D01*
X5865908Y-14328844D02*
X5865908Y-14376463D01*
X5865908Y-14376463D02*
X5856385Y-14395511D01*
X5856385Y-14395511D02*
X5846861Y-14405035D01*
X5846861Y-14405035D02*
X5827813Y-14414559D01*
X5827813Y-14414559D02*
X5770670Y-14414559D01*
X5770670Y-14414559D02*
X5751623Y-14405035D01*
X5751623Y-14405035D02*
X5742099Y-14395511D01*
X6046861Y-14214559D02*
X5951623Y-14214559D01*
X5951623Y-14214559D02*
X5942099Y-14309797D01*
X5942099Y-14309797D02*
X5951623Y-14300273D01*
X5951623Y-14300273D02*
X5970670Y-14290749D01*
X5970670Y-14290749D02*
X6018289Y-14290749D01*
X6018289Y-14290749D02*
X6037337Y-14300273D01*
X6037337Y-14300273D02*
X6046861Y-14309797D01*
X6046861Y-14309797D02*
X6056385Y-14328844D01*
X6056385Y-14328844D02*
X6056385Y-14376463D01*
X6056385Y-14376463D02*
X6046861Y-14395511D01*
X6046861Y-14395511D02*
X6037337Y-14405035D01*
X6037337Y-14405035D02*
X6018289Y-14414559D01*
X6018289Y-14414559D02*
X5970670Y-14414559D01*
X5970670Y-14414559D02*
X5951623Y-14405035D01*
X5951623Y-14405035D02*
X5942099Y-14395511D01*
X6227813Y-14281225D02*
X6227813Y-14414559D01*
X6180194Y-14205035D02*
X6132575Y-14347892D01*
X6132575Y-14347892D02*
X6256385Y-14347892D01*
X6323051Y-14214559D02*
X6323051Y-14252654D01*
X6399242Y-14214559D02*
X6399242Y-14252654D01*
X6694480Y-14490749D02*
X6684956Y-14481225D01*
X6684956Y-14481225D02*
X6665908Y-14452654D01*
X6665908Y-14452654D02*
X6656385Y-14433606D01*
X6656385Y-14433606D02*
X6646861Y-14405035D01*
X6646861Y-14405035D02*
X6637337Y-14357416D01*
X6637337Y-14357416D02*
X6637337Y-14319321D01*
X6637337Y-14319321D02*
X6646861Y-14271701D01*
X6646861Y-14271701D02*
X6656385Y-14243130D01*
X6656385Y-14243130D02*
X6665908Y-14224082D01*
X6665908Y-14224082D02*
X6684956Y-14195511D01*
X6684956Y-14195511D02*
X6694480Y-14185987D01*
X6856385Y-14281225D02*
X6856385Y-14414559D01*
X6808766Y-14205035D02*
X6761147Y-14347892D01*
X6761147Y-14347892D02*
X6884956Y-14347892D01*
X7113528Y-14414559D02*
X7113528Y-14214559D01*
X7199242Y-14414559D02*
X7199242Y-14309797D01*
X7199242Y-14309797D02*
X7189718Y-14290749D01*
X7189718Y-14290749D02*
X7170670Y-14281225D01*
X7170670Y-14281225D02*
X7142099Y-14281225D01*
X7142099Y-14281225D02*
X7123051Y-14290749D01*
X7123051Y-14290749D02*
X7113528Y-14300273D01*
X7323051Y-14414559D02*
X7304004Y-14405035D01*
X7304004Y-14405035D02*
X7294480Y-14395511D01*
X7294480Y-14395511D02*
X7284956Y-14376463D01*
X7284956Y-14376463D02*
X7284956Y-14319321D01*
X7284956Y-14319321D02*
X7294480Y-14300273D01*
X7294480Y-14300273D02*
X7304004Y-14290749D01*
X7304004Y-14290749D02*
X7323051Y-14281225D01*
X7323051Y-14281225D02*
X7351623Y-14281225D01*
X7351623Y-14281225D02*
X7370670Y-14290749D01*
X7370670Y-14290749D02*
X7380194Y-14300273D01*
X7380194Y-14300273D02*
X7389718Y-14319321D01*
X7389718Y-14319321D02*
X7389718Y-14376463D01*
X7389718Y-14376463D02*
X7380194Y-14395511D01*
X7380194Y-14395511D02*
X7370670Y-14405035D01*
X7370670Y-14405035D02*
X7351623Y-14414559D01*
X7351623Y-14414559D02*
X7323051Y-14414559D01*
X7504004Y-14414559D02*
X7484956Y-14405035D01*
X7484956Y-14405035D02*
X7475432Y-14385987D01*
X7475432Y-14385987D02*
X7475432Y-14214559D01*
X7656385Y-14405035D02*
X7637337Y-14414559D01*
X7637337Y-14414559D02*
X7599242Y-14414559D01*
X7599242Y-14414559D02*
X7580194Y-14405035D01*
X7580194Y-14405035D02*
X7570670Y-14385987D01*
X7570670Y-14385987D02*
X7570670Y-14309797D01*
X7570670Y-14309797D02*
X7580194Y-14290749D01*
X7580194Y-14290749D02*
X7599242Y-14281225D01*
X7599242Y-14281225D02*
X7637337Y-14281225D01*
X7637337Y-14281225D02*
X7656385Y-14290749D01*
X7656385Y-14290749D02*
X7665909Y-14309797D01*
X7665909Y-14309797D02*
X7665909Y-14328844D01*
X7665909Y-14328844D02*
X7570670Y-14347892D01*
X7742099Y-14405035D02*
X7761147Y-14414559D01*
X7761147Y-14414559D02*
X7799242Y-14414559D01*
X7799242Y-14414559D02*
X7818290Y-14405035D01*
X7818290Y-14405035D02*
X7827813Y-14385987D01*
X7827813Y-14385987D02*
X7827813Y-14376463D01*
X7827813Y-14376463D02*
X7818290Y-14357416D01*
X7818290Y-14357416D02*
X7799242Y-14347892D01*
X7799242Y-14347892D02*
X7770670Y-14347892D01*
X7770670Y-14347892D02*
X7751623Y-14338368D01*
X7751623Y-14338368D02*
X7742099Y-14319321D01*
X7742099Y-14319321D02*
X7742099Y-14309797D01*
X7742099Y-14309797D02*
X7751623Y-14290749D01*
X7751623Y-14290749D02*
X7770670Y-14281225D01*
X7770670Y-14281225D02*
X7799242Y-14281225D01*
X7799242Y-14281225D02*
X7818290Y-14290749D01*
X7894480Y-14490749D02*
X7904004Y-14481225D01*
X7904004Y-14481225D02*
X7923051Y-14452654D01*
X7923051Y-14452654D02*
X7932575Y-14433606D01*
X7932575Y-14433606D02*
X7942099Y-14405035D01*
X7942099Y-14405035D02*
X7951623Y-14357416D01*
X7951623Y-14357416D02*
X7951623Y-14319321D01*
X7951623Y-14319321D02*
X7942099Y-14271701D01*
X7942099Y-14271701D02*
X7932575Y-14243130D01*
X7932575Y-14243130D02*
X7923051Y-14224082D01*
X7923051Y-14224082D02*
X7904004Y-14195511D01*
X7904004Y-14195511D02*
X7894480Y-14185987D01*
X8256385Y-14490749D02*
X8246861Y-14481225D01*
X8246861Y-14481225D02*
X8227813Y-14452654D01*
X8227813Y-14452654D02*
X8218290Y-14433606D01*
X8218290Y-14433606D02*
X8208766Y-14405035D01*
X8208766Y-14405035D02*
X8199242Y-14357416D01*
X8199242Y-14357416D02*
X8199242Y-14319321D01*
X8199242Y-14319321D02*
X8208766Y-14271701D01*
X8208766Y-14271701D02*
X8218290Y-14243130D01*
X8218290Y-14243130D02*
X8227813Y-14224082D01*
X8227813Y-14224082D02*
X8246861Y-14195511D01*
X8246861Y-14195511D02*
X8256385Y-14185987D01*
X8332575Y-14281225D02*
X8332575Y-14414559D01*
X8332575Y-14300273D02*
X8342099Y-14290749D01*
X8342099Y-14290749D02*
X8361147Y-14281225D01*
X8361147Y-14281225D02*
X8389718Y-14281225D01*
X8389718Y-14281225D02*
X8408766Y-14290749D01*
X8408766Y-14290749D02*
X8418290Y-14309797D01*
X8418290Y-14309797D02*
X8418290Y-14414559D01*
X8542099Y-14414559D02*
X8523052Y-14405035D01*
X8523052Y-14405035D02*
X8513528Y-14395511D01*
X8513528Y-14395511D02*
X8504004Y-14376463D01*
X8504004Y-14376463D02*
X8504004Y-14319321D01*
X8504004Y-14319321D02*
X8513528Y-14300273D01*
X8513528Y-14300273D02*
X8523052Y-14290749D01*
X8523052Y-14290749D02*
X8542099Y-14281225D01*
X8542099Y-14281225D02*
X8570671Y-14281225D01*
X8570671Y-14281225D02*
X8589718Y-14290749D01*
X8589718Y-14290749D02*
X8599242Y-14300273D01*
X8599242Y-14300273D02*
X8608766Y-14319321D01*
X8608766Y-14319321D02*
X8608766Y-14376463D01*
X8608766Y-14376463D02*
X8599242Y-14395511D01*
X8599242Y-14395511D02*
X8589718Y-14405035D01*
X8589718Y-14405035D02*
X8570671Y-14414559D01*
X8570671Y-14414559D02*
X8542099Y-14414559D01*
X8665909Y-14281225D02*
X8742099Y-14281225D01*
X8694480Y-14214559D02*
X8694480Y-14385987D01*
X8694480Y-14385987D02*
X8704004Y-14405035D01*
X8704004Y-14405035D02*
X8723052Y-14414559D01*
X8723052Y-14414559D02*
X8742099Y-14414559D01*
X8961147Y-14281225D02*
X8961147Y-14481225D01*
X8961147Y-14290749D02*
X8980194Y-14281225D01*
X8980194Y-14281225D02*
X9018290Y-14281225D01*
X9018290Y-14281225D02*
X9037337Y-14290749D01*
X9037337Y-14290749D02*
X9046861Y-14300273D01*
X9046861Y-14300273D02*
X9056385Y-14319321D01*
X9056385Y-14319321D02*
X9056385Y-14376463D01*
X9056385Y-14376463D02*
X9046861Y-14395511D01*
X9046861Y-14395511D02*
X9037337Y-14405035D01*
X9037337Y-14405035D02*
X9018290Y-14414559D01*
X9018290Y-14414559D02*
X8980194Y-14414559D01*
X8980194Y-14414559D02*
X8961147Y-14405035D01*
X9170671Y-14414559D02*
X9151623Y-14405035D01*
X9151623Y-14405035D02*
X9142099Y-14385987D01*
X9142099Y-14385987D02*
X9142099Y-14214559D01*
X9332575Y-14414559D02*
X9332575Y-14309797D01*
X9332575Y-14309797D02*
X9323052Y-14290749D01*
X9323052Y-14290749D02*
X9304004Y-14281225D01*
X9304004Y-14281225D02*
X9265909Y-14281225D01*
X9265909Y-14281225D02*
X9246861Y-14290749D01*
X9332575Y-14405035D02*
X9313528Y-14414559D01*
X9313528Y-14414559D02*
X9265909Y-14414559D01*
X9265909Y-14414559D02*
X9246861Y-14405035D01*
X9246861Y-14405035D02*
X9237337Y-14385987D01*
X9237337Y-14385987D02*
X9237337Y-14366940D01*
X9237337Y-14366940D02*
X9246861Y-14347892D01*
X9246861Y-14347892D02*
X9265909Y-14338368D01*
X9265909Y-14338368D02*
X9313528Y-14338368D01*
X9313528Y-14338368D02*
X9332575Y-14328844D01*
X9399242Y-14281225D02*
X9475433Y-14281225D01*
X9427814Y-14214559D02*
X9427814Y-14385987D01*
X9427814Y-14385987D02*
X9437337Y-14405035D01*
X9437337Y-14405035D02*
X9456385Y-14414559D01*
X9456385Y-14414559D02*
X9475433Y-14414559D01*
X9618290Y-14405035D02*
X9599242Y-14414559D01*
X9599242Y-14414559D02*
X9561147Y-14414559D01*
X9561147Y-14414559D02*
X9542099Y-14405035D01*
X9542099Y-14405035D02*
X9532575Y-14385987D01*
X9532575Y-14385987D02*
X9532575Y-14309797D01*
X9532575Y-14309797D02*
X9542099Y-14290749D01*
X9542099Y-14290749D02*
X9561147Y-14281225D01*
X9561147Y-14281225D02*
X9599242Y-14281225D01*
X9599242Y-14281225D02*
X9618290Y-14290749D01*
X9618290Y-14290749D02*
X9627814Y-14309797D01*
X9627814Y-14309797D02*
X9627814Y-14328844D01*
X9627814Y-14328844D02*
X9532575Y-14347892D01*
X9799242Y-14414559D02*
X9799242Y-14214559D01*
X9799242Y-14405035D02*
X9780195Y-14414559D01*
X9780195Y-14414559D02*
X9742099Y-14414559D01*
X9742099Y-14414559D02*
X9723052Y-14405035D01*
X9723052Y-14405035D02*
X9713528Y-14395511D01*
X9713528Y-14395511D02*
X9704004Y-14376463D01*
X9704004Y-14376463D02*
X9704004Y-14319321D01*
X9704004Y-14319321D02*
X9713528Y-14300273D01*
X9713528Y-14300273D02*
X9723052Y-14290749D01*
X9723052Y-14290749D02*
X9742099Y-14281225D01*
X9742099Y-14281225D02*
X9780195Y-14281225D01*
X9780195Y-14281225D02*
X9799242Y-14290749D01*
X9875433Y-14490749D02*
X9884956Y-14481225D01*
X9884956Y-14481225D02*
X9904004Y-14452654D01*
X9904004Y-14452654D02*
X9913528Y-14433606D01*
X9913528Y-14433606D02*
X9923052Y-14405035D01*
X9923052Y-14405035D02*
X9932575Y-14357416D01*
X9932575Y-14357416D02*
X9932575Y-14319321D01*
X9932575Y-14319321D02*
X9923052Y-14271701D01*
X9923052Y-14271701D02*
X9913528Y-14243130D01*
X9913528Y-14243130D02*
X9904004Y-14224082D01*
X9904004Y-14224082D02*
X9884956Y-14195511D01*
X9884956Y-14195511D02*
X9875433Y-14185987D01*
D14*
X3094495Y-14647243D02*
X3094495Y-14526907D01*
X2974159Y-14526907D01*
X2974159Y-14647243D01*
X3094495Y-14647243D01*
D11*
X3484956Y-14678559D02*
X3370670Y-14678559D01*
X3427813Y-14678559D02*
X3427813Y-14478559D01*
X3427813Y-14478559D02*
X3408765Y-14507130D01*
X3408765Y-14507130D02*
X3389718Y-14526178D01*
X3389718Y-14526178D02*
X3370670Y-14535701D01*
X3570670Y-14659511D02*
X3580194Y-14669035D01*
X3580194Y-14669035D02*
X3570670Y-14678559D01*
X3570670Y-14678559D02*
X3561146Y-14669035D01*
X3561146Y-14669035D02*
X3570670Y-14659511D01*
X3570670Y-14659511D02*
X3570670Y-14678559D01*
X3646861Y-14478559D02*
X3780194Y-14478559D01*
X3780194Y-14478559D02*
X3694480Y-14678559D01*
X3894480Y-14478559D02*
X3913527Y-14478559D01*
X3913527Y-14478559D02*
X3932575Y-14488082D01*
X3932575Y-14488082D02*
X3942099Y-14497606D01*
X3942099Y-14497606D02*
X3951622Y-14516654D01*
X3951622Y-14516654D02*
X3961146Y-14554749D01*
X3961146Y-14554749D02*
X3961146Y-14602368D01*
X3961146Y-14602368D02*
X3951622Y-14640463D01*
X3951622Y-14640463D02*
X3942099Y-14659511D01*
X3942099Y-14659511D02*
X3932575Y-14669035D01*
X3932575Y-14669035D02*
X3913527Y-14678559D01*
X3913527Y-14678559D02*
X3894480Y-14678559D01*
X3894480Y-14678559D02*
X3875432Y-14669035D01*
X3875432Y-14669035D02*
X3865908Y-14659511D01*
X3865908Y-14659511D02*
X3856384Y-14640463D01*
X3856384Y-14640463D02*
X3846861Y-14602368D01*
X3846861Y-14602368D02*
X3846861Y-14554749D01*
X3846861Y-14554749D02*
X3856384Y-14516654D01*
X3856384Y-14516654D02*
X3865908Y-14497606D01*
X3865908Y-14497606D02*
X3875432Y-14488082D01*
X3875432Y-14488082D02*
X3894480Y-14478559D01*
X4037337Y-14497606D02*
X4046861Y-14488082D01*
X4046861Y-14488082D02*
X4065908Y-14478559D01*
X4065908Y-14478559D02*
X4113527Y-14478559D01*
X4113527Y-14478559D02*
X4132575Y-14488082D01*
X4132575Y-14488082D02*
X4142099Y-14497606D01*
X4142099Y-14497606D02*
X4151622Y-14516654D01*
X4151622Y-14516654D02*
X4151622Y-14535701D01*
X4151622Y-14535701D02*
X4142099Y-14564273D01*
X4142099Y-14564273D02*
X4027813Y-14678559D01*
X4027813Y-14678559D02*
X4151622Y-14678559D01*
X4237337Y-14678559D02*
X4237337Y-14545225D01*
X4237337Y-14564273D02*
X4246861Y-14554749D01*
X4246861Y-14554749D02*
X4265908Y-14545225D01*
X4265908Y-14545225D02*
X4294480Y-14545225D01*
X4294480Y-14545225D02*
X4313527Y-14554749D01*
X4313527Y-14554749D02*
X4323051Y-14573797D01*
X4323051Y-14573797D02*
X4323051Y-14678559D01*
X4323051Y-14573797D02*
X4332575Y-14554749D01*
X4332575Y-14554749D02*
X4351623Y-14545225D01*
X4351623Y-14545225D02*
X4380194Y-14545225D01*
X4380194Y-14545225D02*
X4399242Y-14554749D01*
X4399242Y-14554749D02*
X4408765Y-14573797D01*
X4408765Y-14573797D02*
X4408765Y-14678559D01*
X4504004Y-14678559D02*
X4504004Y-14545225D01*
X4504004Y-14564273D02*
X4513527Y-14554749D01*
X4513527Y-14554749D02*
X4532575Y-14545225D01*
X4532575Y-14545225D02*
X4561146Y-14545225D01*
X4561146Y-14545225D02*
X4580194Y-14554749D01*
X4580194Y-14554749D02*
X4589718Y-14573797D01*
X4589718Y-14573797D02*
X4589718Y-14678559D01*
X4589718Y-14573797D02*
X4599242Y-14554749D01*
X4599242Y-14554749D02*
X4618289Y-14545225D01*
X4618289Y-14545225D02*
X4646861Y-14545225D01*
X4646861Y-14545225D02*
X4665908Y-14554749D01*
X4665908Y-14554749D02*
X4675432Y-14573797D01*
X4675432Y-14573797D02*
X4675432Y-14678559D01*
X5065908Y-14469035D02*
X4894480Y-14726178D01*
X5323051Y-14478559D02*
X5342099Y-14478559D01*
X5342099Y-14478559D02*
X5361147Y-14488082D01*
X5361147Y-14488082D02*
X5370670Y-14497606D01*
X5370670Y-14497606D02*
X5380194Y-14516654D01*
X5380194Y-14516654D02*
X5389718Y-14554749D01*
X5389718Y-14554749D02*
X5389718Y-14602368D01*
X5389718Y-14602368D02*
X5380194Y-14640463D01*
X5380194Y-14640463D02*
X5370670Y-14659511D01*
X5370670Y-14659511D02*
X5361147Y-14669035D01*
X5361147Y-14669035D02*
X5342099Y-14678559D01*
X5342099Y-14678559D02*
X5323051Y-14678559D01*
X5323051Y-14678559D02*
X5304004Y-14669035D01*
X5304004Y-14669035D02*
X5294480Y-14659511D01*
X5294480Y-14659511D02*
X5284956Y-14640463D01*
X5284956Y-14640463D02*
X5275432Y-14602368D01*
X5275432Y-14602368D02*
X5275432Y-14554749D01*
X5275432Y-14554749D02*
X5284956Y-14516654D01*
X5284956Y-14516654D02*
X5294480Y-14497606D01*
X5294480Y-14497606D02*
X5304004Y-14488082D01*
X5304004Y-14488082D02*
X5323051Y-14478559D01*
X5475432Y-14659511D02*
X5484956Y-14669035D01*
X5484956Y-14669035D02*
X5475432Y-14678559D01*
X5475432Y-14678559D02*
X5465908Y-14669035D01*
X5465908Y-14669035D02*
X5475432Y-14659511D01*
X5475432Y-14659511D02*
X5475432Y-14678559D01*
X5608765Y-14478559D02*
X5627813Y-14478559D01*
X5627813Y-14478559D02*
X5646861Y-14488082D01*
X5646861Y-14488082D02*
X5656385Y-14497606D01*
X5656385Y-14497606D02*
X5665908Y-14516654D01*
X5665908Y-14516654D02*
X5675432Y-14554749D01*
X5675432Y-14554749D02*
X5675432Y-14602368D01*
X5675432Y-14602368D02*
X5665908Y-14640463D01*
X5665908Y-14640463D02*
X5656385Y-14659511D01*
X5656385Y-14659511D02*
X5646861Y-14669035D01*
X5646861Y-14669035D02*
X5627813Y-14678559D01*
X5627813Y-14678559D02*
X5608765Y-14678559D01*
X5608765Y-14678559D02*
X5589718Y-14669035D01*
X5589718Y-14669035D02*
X5580194Y-14659511D01*
X5580194Y-14659511D02*
X5570670Y-14640463D01*
X5570670Y-14640463D02*
X5561147Y-14602368D01*
X5561147Y-14602368D02*
X5561147Y-14554749D01*
X5561147Y-14554749D02*
X5570670Y-14516654D01*
X5570670Y-14516654D02*
X5580194Y-14497606D01*
X5580194Y-14497606D02*
X5589718Y-14488082D01*
X5589718Y-14488082D02*
X5608765Y-14478559D01*
X5846861Y-14478559D02*
X5808765Y-14478559D01*
X5808765Y-14478559D02*
X5789718Y-14488082D01*
X5789718Y-14488082D02*
X5780194Y-14497606D01*
X5780194Y-14497606D02*
X5761146Y-14526178D01*
X5761146Y-14526178D02*
X5751623Y-14564273D01*
X5751623Y-14564273D02*
X5751623Y-14640463D01*
X5751623Y-14640463D02*
X5761146Y-14659511D01*
X5761146Y-14659511D02*
X5770670Y-14669035D01*
X5770670Y-14669035D02*
X5789718Y-14678559D01*
X5789718Y-14678559D02*
X5827813Y-14678559D01*
X5827813Y-14678559D02*
X5846861Y-14669035D01*
X5846861Y-14669035D02*
X5856385Y-14659511D01*
X5856385Y-14659511D02*
X5865908Y-14640463D01*
X5865908Y-14640463D02*
X5865908Y-14592844D01*
X5865908Y-14592844D02*
X5856385Y-14573797D01*
X5856385Y-14573797D02*
X5846861Y-14564273D01*
X5846861Y-14564273D02*
X5827813Y-14554749D01*
X5827813Y-14554749D02*
X5789718Y-14554749D01*
X5789718Y-14554749D02*
X5770670Y-14564273D01*
X5770670Y-14564273D02*
X5761146Y-14573797D01*
X5761146Y-14573797D02*
X5751623Y-14592844D01*
X5932575Y-14478559D02*
X6065908Y-14478559D01*
X6065908Y-14478559D02*
X5980194Y-14678559D01*
X6180194Y-14478559D02*
X6199242Y-14478559D01*
X6199242Y-14478559D02*
X6218289Y-14488082D01*
X6218289Y-14488082D02*
X6227813Y-14497606D01*
X6227813Y-14497606D02*
X6237337Y-14516654D01*
X6237337Y-14516654D02*
X6246861Y-14554749D01*
X6246861Y-14554749D02*
X6246861Y-14602368D01*
X6246861Y-14602368D02*
X6237337Y-14640463D01*
X6237337Y-14640463D02*
X6227813Y-14659511D01*
X6227813Y-14659511D02*
X6218289Y-14669035D01*
X6218289Y-14669035D02*
X6199242Y-14678559D01*
X6199242Y-14678559D02*
X6180194Y-14678559D01*
X6180194Y-14678559D02*
X6161146Y-14669035D01*
X6161146Y-14669035D02*
X6151623Y-14659511D01*
X6151623Y-14659511D02*
X6142099Y-14640463D01*
X6142099Y-14640463D02*
X6132575Y-14602368D01*
X6132575Y-14602368D02*
X6132575Y-14554749D01*
X6132575Y-14554749D02*
X6142099Y-14516654D01*
X6142099Y-14516654D02*
X6151623Y-14497606D01*
X6151623Y-14497606D02*
X6161146Y-14488082D01*
X6161146Y-14488082D02*
X6180194Y-14478559D01*
X6323051Y-14478559D02*
X6323051Y-14516654D01*
X6399242Y-14478559D02*
X6399242Y-14516654D01*
X6694480Y-14754749D02*
X6684956Y-14745225D01*
X6684956Y-14745225D02*
X6665908Y-14716654D01*
X6665908Y-14716654D02*
X6656385Y-14697606D01*
X6656385Y-14697606D02*
X6646861Y-14669035D01*
X6646861Y-14669035D02*
X6637337Y-14621416D01*
X6637337Y-14621416D02*
X6637337Y-14583321D01*
X6637337Y-14583321D02*
X6646861Y-14535701D01*
X6646861Y-14535701D02*
X6656385Y-14507130D01*
X6656385Y-14507130D02*
X6665908Y-14488082D01*
X6665908Y-14488082D02*
X6684956Y-14459511D01*
X6684956Y-14459511D02*
X6694480Y-14449987D01*
X6751623Y-14478559D02*
X6884956Y-14478559D01*
X6884956Y-14478559D02*
X6799242Y-14678559D01*
X6951623Y-14497606D02*
X6961147Y-14488082D01*
X6961147Y-14488082D02*
X6980194Y-14478559D01*
X6980194Y-14478559D02*
X7027813Y-14478559D01*
X7027813Y-14478559D02*
X7046861Y-14488082D01*
X7046861Y-14488082D02*
X7056385Y-14497606D01*
X7056385Y-14497606D02*
X7065908Y-14516654D01*
X7065908Y-14516654D02*
X7065908Y-14535701D01*
X7065908Y-14535701D02*
X7056385Y-14564273D01*
X7056385Y-14564273D02*
X6942099Y-14678559D01*
X6942099Y-14678559D02*
X7065908Y-14678559D01*
X7304004Y-14678559D02*
X7304004Y-14478559D01*
X7389718Y-14678559D02*
X7389718Y-14573797D01*
X7389718Y-14573797D02*
X7380194Y-14554749D01*
X7380194Y-14554749D02*
X7361147Y-14545225D01*
X7361147Y-14545225D02*
X7332575Y-14545225D01*
X7332575Y-14545225D02*
X7313528Y-14554749D01*
X7313528Y-14554749D02*
X7304004Y-14564273D01*
X7513528Y-14678559D02*
X7494480Y-14669035D01*
X7494480Y-14669035D02*
X7484956Y-14659511D01*
X7484956Y-14659511D02*
X7475432Y-14640463D01*
X7475432Y-14640463D02*
X7475432Y-14583321D01*
X7475432Y-14583321D02*
X7484956Y-14564273D01*
X7484956Y-14564273D02*
X7494480Y-14554749D01*
X7494480Y-14554749D02*
X7513528Y-14545225D01*
X7513528Y-14545225D02*
X7542099Y-14545225D01*
X7542099Y-14545225D02*
X7561147Y-14554749D01*
X7561147Y-14554749D02*
X7570670Y-14564273D01*
X7570670Y-14564273D02*
X7580194Y-14583321D01*
X7580194Y-14583321D02*
X7580194Y-14640463D01*
X7580194Y-14640463D02*
X7570670Y-14659511D01*
X7570670Y-14659511D02*
X7561147Y-14669035D01*
X7561147Y-14669035D02*
X7542099Y-14678559D01*
X7542099Y-14678559D02*
X7513528Y-14678559D01*
X7694480Y-14678559D02*
X7675432Y-14669035D01*
X7675432Y-14669035D02*
X7665909Y-14649987D01*
X7665909Y-14649987D02*
X7665909Y-14478559D01*
X7846861Y-14669035D02*
X7827813Y-14678559D01*
X7827813Y-14678559D02*
X7789718Y-14678559D01*
X7789718Y-14678559D02*
X7770670Y-14669035D01*
X7770670Y-14669035D02*
X7761147Y-14649987D01*
X7761147Y-14649987D02*
X7761147Y-14573797D01*
X7761147Y-14573797D02*
X7770670Y-14554749D01*
X7770670Y-14554749D02*
X7789718Y-14545225D01*
X7789718Y-14545225D02*
X7827813Y-14545225D01*
X7827813Y-14545225D02*
X7846861Y-14554749D01*
X7846861Y-14554749D02*
X7856385Y-14573797D01*
X7856385Y-14573797D02*
X7856385Y-14592844D01*
X7856385Y-14592844D02*
X7761147Y-14611892D01*
X7932575Y-14669035D02*
X7951623Y-14678559D01*
X7951623Y-14678559D02*
X7989718Y-14678559D01*
X7989718Y-14678559D02*
X8008766Y-14669035D01*
X8008766Y-14669035D02*
X8018290Y-14649987D01*
X8018290Y-14649987D02*
X8018290Y-14640463D01*
X8018290Y-14640463D02*
X8008766Y-14621416D01*
X8008766Y-14621416D02*
X7989718Y-14611892D01*
X7989718Y-14611892D02*
X7961147Y-14611892D01*
X7961147Y-14611892D02*
X7942099Y-14602368D01*
X7942099Y-14602368D02*
X7932575Y-14583321D01*
X7932575Y-14583321D02*
X7932575Y-14573797D01*
X7932575Y-14573797D02*
X7942099Y-14554749D01*
X7942099Y-14554749D02*
X7961147Y-14545225D01*
X7961147Y-14545225D02*
X7989718Y-14545225D01*
X7989718Y-14545225D02*
X8008766Y-14554749D01*
X8084956Y-14754749D02*
X8094480Y-14745225D01*
X8094480Y-14745225D02*
X8113528Y-14716654D01*
X8113528Y-14716654D02*
X8123051Y-14697606D01*
X8123051Y-14697606D02*
X8132575Y-14669035D01*
X8132575Y-14669035D02*
X8142099Y-14621416D01*
X8142099Y-14621416D02*
X8142099Y-14583321D01*
X8142099Y-14583321D02*
X8132575Y-14535701D01*
X8132575Y-14535701D02*
X8123051Y-14507130D01*
X8123051Y-14507130D02*
X8113528Y-14488082D01*
X8113528Y-14488082D02*
X8094480Y-14459511D01*
X8094480Y-14459511D02*
X8084956Y-14449987D01*
X8446861Y-14754749D02*
X8437337Y-14745225D01*
X8437337Y-14745225D02*
X8418290Y-14716654D01*
X8418290Y-14716654D02*
X8408766Y-14697606D01*
X8408766Y-14697606D02*
X8399242Y-14669035D01*
X8399242Y-14669035D02*
X8389718Y-14621416D01*
X8389718Y-14621416D02*
X8389718Y-14583321D01*
X8389718Y-14583321D02*
X8399242Y-14535701D01*
X8399242Y-14535701D02*
X8408766Y-14507130D01*
X8408766Y-14507130D02*
X8418290Y-14488082D01*
X8418290Y-14488082D02*
X8437337Y-14459511D01*
X8437337Y-14459511D02*
X8446861Y-14449987D01*
X8523052Y-14545225D02*
X8523052Y-14678559D01*
X8523052Y-14564273D02*
X8532575Y-14554749D01*
X8532575Y-14554749D02*
X8551623Y-14545225D01*
X8551623Y-14545225D02*
X8580194Y-14545225D01*
X8580194Y-14545225D02*
X8599242Y-14554749D01*
X8599242Y-14554749D02*
X8608766Y-14573797D01*
X8608766Y-14573797D02*
X8608766Y-14678559D01*
X8732575Y-14678559D02*
X8713528Y-14669035D01*
X8713528Y-14669035D02*
X8704004Y-14659511D01*
X8704004Y-14659511D02*
X8694480Y-14640463D01*
X8694480Y-14640463D02*
X8694480Y-14583321D01*
X8694480Y-14583321D02*
X8704004Y-14564273D01*
X8704004Y-14564273D02*
X8713528Y-14554749D01*
X8713528Y-14554749D02*
X8732575Y-14545225D01*
X8732575Y-14545225D02*
X8761147Y-14545225D01*
X8761147Y-14545225D02*
X8780194Y-14554749D01*
X8780194Y-14554749D02*
X8789718Y-14564273D01*
X8789718Y-14564273D02*
X8799242Y-14583321D01*
X8799242Y-14583321D02*
X8799242Y-14640463D01*
X8799242Y-14640463D02*
X8789718Y-14659511D01*
X8789718Y-14659511D02*
X8780194Y-14669035D01*
X8780194Y-14669035D02*
X8761147Y-14678559D01*
X8761147Y-14678559D02*
X8732575Y-14678559D01*
X8856385Y-14545225D02*
X8932575Y-14545225D01*
X8884956Y-14478559D02*
X8884956Y-14649987D01*
X8884956Y-14649987D02*
X8894480Y-14669035D01*
X8894480Y-14669035D02*
X8913528Y-14678559D01*
X8913528Y-14678559D02*
X8932575Y-14678559D01*
X9151623Y-14545225D02*
X9151623Y-14745225D01*
X9151623Y-14554749D02*
X9170671Y-14545225D01*
X9170671Y-14545225D02*
X9208766Y-14545225D01*
X9208766Y-14545225D02*
X9227814Y-14554749D01*
X9227814Y-14554749D02*
X9237337Y-14564273D01*
X9237337Y-14564273D02*
X9246861Y-14583321D01*
X9246861Y-14583321D02*
X9246861Y-14640463D01*
X9246861Y-14640463D02*
X9237337Y-14659511D01*
X9237337Y-14659511D02*
X9227814Y-14669035D01*
X9227814Y-14669035D02*
X9208766Y-14678559D01*
X9208766Y-14678559D02*
X9170671Y-14678559D01*
X9170671Y-14678559D02*
X9151623Y-14669035D01*
X9361147Y-14678559D02*
X9342099Y-14669035D01*
X9342099Y-14669035D02*
X9332575Y-14649987D01*
X9332575Y-14649987D02*
X9332575Y-14478559D01*
X9523052Y-14678559D02*
X9523052Y-14573797D01*
X9523052Y-14573797D02*
X9513528Y-14554749D01*
X9513528Y-14554749D02*
X9494480Y-14545225D01*
X9494480Y-14545225D02*
X9456385Y-14545225D01*
X9456385Y-14545225D02*
X9437337Y-14554749D01*
X9523052Y-14669035D02*
X9504004Y-14678559D01*
X9504004Y-14678559D02*
X9456385Y-14678559D01*
X9456385Y-14678559D02*
X9437337Y-14669035D01*
X9437337Y-14669035D02*
X9427814Y-14649987D01*
X9427814Y-14649987D02*
X9427814Y-14630940D01*
X9427814Y-14630940D02*
X9437337Y-14611892D01*
X9437337Y-14611892D02*
X9456385Y-14602368D01*
X9456385Y-14602368D02*
X9504004Y-14602368D01*
X9504004Y-14602368D02*
X9523052Y-14592844D01*
X9589718Y-14545225D02*
X9665909Y-14545225D01*
X9618290Y-14478559D02*
X9618290Y-14649987D01*
X9618290Y-14649987D02*
X9627814Y-14669035D01*
X9627814Y-14669035D02*
X9646861Y-14678559D01*
X9646861Y-14678559D02*
X9665909Y-14678559D01*
X9808766Y-14669035D02*
X9789718Y-14678559D01*
X9789718Y-14678559D02*
X9751623Y-14678559D01*
X9751623Y-14678559D02*
X9732575Y-14669035D01*
X9732575Y-14669035D02*
X9723052Y-14649987D01*
X9723052Y-14649987D02*
X9723052Y-14573797D01*
X9723052Y-14573797D02*
X9732575Y-14554749D01*
X9732575Y-14554749D02*
X9751623Y-14545225D01*
X9751623Y-14545225D02*
X9789718Y-14545225D01*
X9789718Y-14545225D02*
X9808766Y-14554749D01*
X9808766Y-14554749D02*
X9818290Y-14573797D01*
X9818290Y-14573797D02*
X9818290Y-14592844D01*
X9818290Y-14592844D02*
X9723052Y-14611892D01*
X9989718Y-14678559D02*
X9989718Y-14478559D01*
X9989718Y-14669035D02*
X9970671Y-14678559D01*
X9970671Y-14678559D02*
X9932575Y-14678559D01*
X9932575Y-14678559D02*
X9913528Y-14669035D01*
X9913528Y-14669035D02*
X9904004Y-14659511D01*
X9904004Y-14659511D02*
X9894480Y-14640463D01*
X9894480Y-14640463D02*
X9894480Y-14583321D01*
X9894480Y-14583321D02*
X9904004Y-14564273D01*
X9904004Y-14564273D02*
X9913528Y-14554749D01*
X9913528Y-14554749D02*
X9932575Y-14545225D01*
X9932575Y-14545225D02*
X9970671Y-14545225D01*
X9970671Y-14545225D02*
X9989718Y-14554749D01*
X10065909Y-14754749D02*
X10075433Y-14745225D01*
X10075433Y-14745225D02*
X10094480Y-14716654D01*
X10094480Y-14716654D02*
X10104004Y-14697606D01*
X10104004Y-14697606D02*
X10113528Y-14669035D01*
X10113528Y-14669035D02*
X10123052Y-14621416D01*
X10123052Y-14621416D02*
X10123052Y-14583321D01*
X10123052Y-14583321D02*
X10113528Y-14535701D01*
X10113528Y-14535701D02*
X10104004Y-14507130D01*
X10104004Y-14507130D02*
X10094480Y-14488082D01*
X10094480Y-14488082D02*
X10075433Y-14459511D01*
X10075433Y-14459511D02*
X10065909Y-14449987D01*
X3019417Y-14977255D02*
X3119417Y-14877255D01*
X3019417Y-14777255D01*
X2919417Y-14877255D01*
X3019417Y-14977255D01*
X3370670Y-14787786D02*
X3380194Y-14778262D01*
X3380194Y-14778262D02*
X3399241Y-14768739D01*
X3399241Y-14768739D02*
X3446861Y-14768739D01*
X3446861Y-14768739D02*
X3465908Y-14778262D01*
X3465908Y-14778262D02*
X3475432Y-14787786D01*
X3475432Y-14787786D02*
X3484956Y-14806834D01*
X3484956Y-14806834D02*
X3484956Y-14825881D01*
X3484956Y-14825881D02*
X3475432Y-14854453D01*
X3475432Y-14854453D02*
X3361146Y-14968739D01*
X3361146Y-14968739D02*
X3484956Y-14968739D01*
X3570670Y-14949691D02*
X3580194Y-14959215D01*
X3580194Y-14959215D02*
X3570670Y-14968739D01*
X3570670Y-14968739D02*
X3561146Y-14959215D01*
X3561146Y-14959215D02*
X3570670Y-14949691D01*
X3570670Y-14949691D02*
X3570670Y-14968739D01*
X3646861Y-14768739D02*
X3780194Y-14768739D01*
X3780194Y-14768739D02*
X3694480Y-14968739D01*
X3894480Y-14768739D02*
X3913527Y-14768739D01*
X3913527Y-14768739D02*
X3932575Y-14778262D01*
X3932575Y-14778262D02*
X3942099Y-14787786D01*
X3942099Y-14787786D02*
X3951622Y-14806834D01*
X3951622Y-14806834D02*
X3961146Y-14844929D01*
X3961146Y-14844929D02*
X3961146Y-14892548D01*
X3961146Y-14892548D02*
X3951622Y-14930643D01*
X3951622Y-14930643D02*
X3942099Y-14949691D01*
X3942099Y-14949691D02*
X3932575Y-14959215D01*
X3932575Y-14959215D02*
X3913527Y-14968739D01*
X3913527Y-14968739D02*
X3894480Y-14968739D01*
X3894480Y-14968739D02*
X3875432Y-14959215D01*
X3875432Y-14959215D02*
X3865908Y-14949691D01*
X3865908Y-14949691D02*
X3856384Y-14930643D01*
X3856384Y-14930643D02*
X3846861Y-14892548D01*
X3846861Y-14892548D02*
X3846861Y-14844929D01*
X3846861Y-14844929D02*
X3856384Y-14806834D01*
X3856384Y-14806834D02*
X3865908Y-14787786D01*
X3865908Y-14787786D02*
X3875432Y-14778262D01*
X3875432Y-14778262D02*
X3894480Y-14768739D01*
X4084956Y-14768739D02*
X4104003Y-14768739D01*
X4104003Y-14768739D02*
X4123051Y-14778262D01*
X4123051Y-14778262D02*
X4132575Y-14787786D01*
X4132575Y-14787786D02*
X4142099Y-14806834D01*
X4142099Y-14806834D02*
X4151622Y-14844929D01*
X4151622Y-14844929D02*
X4151622Y-14892548D01*
X4151622Y-14892548D02*
X4142099Y-14930643D01*
X4142099Y-14930643D02*
X4132575Y-14949691D01*
X4132575Y-14949691D02*
X4123051Y-14959215D01*
X4123051Y-14959215D02*
X4104003Y-14968739D01*
X4104003Y-14968739D02*
X4084956Y-14968739D01*
X4084956Y-14968739D02*
X4065908Y-14959215D01*
X4065908Y-14959215D02*
X4056384Y-14949691D01*
X4056384Y-14949691D02*
X4046861Y-14930643D01*
X4046861Y-14930643D02*
X4037337Y-14892548D01*
X4037337Y-14892548D02*
X4037337Y-14844929D01*
X4037337Y-14844929D02*
X4046861Y-14806834D01*
X4046861Y-14806834D02*
X4056384Y-14787786D01*
X4056384Y-14787786D02*
X4065908Y-14778262D01*
X4065908Y-14778262D02*
X4084956Y-14768739D01*
X4237337Y-14968739D02*
X4237337Y-14835405D01*
X4237337Y-14854453D02*
X4246861Y-14844929D01*
X4246861Y-14844929D02*
X4265908Y-14835405D01*
X4265908Y-14835405D02*
X4294480Y-14835405D01*
X4294480Y-14835405D02*
X4313527Y-14844929D01*
X4313527Y-14844929D02*
X4323051Y-14863977D01*
X4323051Y-14863977D02*
X4323051Y-14968739D01*
X4323051Y-14863977D02*
X4332575Y-14844929D01*
X4332575Y-14844929D02*
X4351623Y-14835405D01*
X4351623Y-14835405D02*
X4380194Y-14835405D01*
X4380194Y-14835405D02*
X4399242Y-14844929D01*
X4399242Y-14844929D02*
X4408765Y-14863977D01*
X4408765Y-14863977D02*
X4408765Y-14968739D01*
X4504004Y-14968739D02*
X4504004Y-14835405D01*
X4504004Y-14854453D02*
X4513527Y-14844929D01*
X4513527Y-14844929D02*
X4532575Y-14835405D01*
X4532575Y-14835405D02*
X4561146Y-14835405D01*
X4561146Y-14835405D02*
X4580194Y-14844929D01*
X4580194Y-14844929D02*
X4589718Y-14863977D01*
X4589718Y-14863977D02*
X4589718Y-14968739D01*
X4589718Y-14863977D02*
X4599242Y-14844929D01*
X4599242Y-14844929D02*
X4618289Y-14835405D01*
X4618289Y-14835405D02*
X4646861Y-14835405D01*
X4646861Y-14835405D02*
X4665908Y-14844929D01*
X4665908Y-14844929D02*
X4675432Y-14863977D01*
X4675432Y-14863977D02*
X4675432Y-14968739D01*
X5065908Y-14759215D02*
X4894480Y-15016358D01*
X5323051Y-14768739D02*
X5342099Y-14768739D01*
X5342099Y-14768739D02*
X5361147Y-14778262D01*
X5361147Y-14778262D02*
X5370670Y-14787786D01*
X5370670Y-14787786D02*
X5380194Y-14806834D01*
X5380194Y-14806834D02*
X5389718Y-14844929D01*
X5389718Y-14844929D02*
X5389718Y-14892548D01*
X5389718Y-14892548D02*
X5380194Y-14930643D01*
X5380194Y-14930643D02*
X5370670Y-14949691D01*
X5370670Y-14949691D02*
X5361147Y-14959215D01*
X5361147Y-14959215D02*
X5342099Y-14968739D01*
X5342099Y-14968739D02*
X5323051Y-14968739D01*
X5323051Y-14968739D02*
X5304004Y-14959215D01*
X5304004Y-14959215D02*
X5294480Y-14949691D01*
X5294480Y-14949691D02*
X5284956Y-14930643D01*
X5284956Y-14930643D02*
X5275432Y-14892548D01*
X5275432Y-14892548D02*
X5275432Y-14844929D01*
X5275432Y-14844929D02*
X5284956Y-14806834D01*
X5284956Y-14806834D02*
X5294480Y-14787786D01*
X5294480Y-14787786D02*
X5304004Y-14778262D01*
X5304004Y-14778262D02*
X5323051Y-14768739D01*
X5475432Y-14949691D02*
X5484956Y-14959215D01*
X5484956Y-14959215D02*
X5475432Y-14968739D01*
X5475432Y-14968739D02*
X5465908Y-14959215D01*
X5465908Y-14959215D02*
X5475432Y-14949691D01*
X5475432Y-14949691D02*
X5475432Y-14968739D01*
X5675432Y-14968739D02*
X5561147Y-14968739D01*
X5618289Y-14968739D02*
X5618289Y-14768739D01*
X5618289Y-14768739D02*
X5599242Y-14797310D01*
X5599242Y-14797310D02*
X5580194Y-14816358D01*
X5580194Y-14816358D02*
X5561147Y-14825881D01*
X5799242Y-14768739D02*
X5818289Y-14768739D01*
X5818289Y-14768739D02*
X5837337Y-14778262D01*
X5837337Y-14778262D02*
X5846861Y-14787786D01*
X5846861Y-14787786D02*
X5856385Y-14806834D01*
X5856385Y-14806834D02*
X5865908Y-14844929D01*
X5865908Y-14844929D02*
X5865908Y-14892548D01*
X5865908Y-14892548D02*
X5856385Y-14930643D01*
X5856385Y-14930643D02*
X5846861Y-14949691D01*
X5846861Y-14949691D02*
X5837337Y-14959215D01*
X5837337Y-14959215D02*
X5818289Y-14968739D01*
X5818289Y-14968739D02*
X5799242Y-14968739D01*
X5799242Y-14968739D02*
X5780194Y-14959215D01*
X5780194Y-14959215D02*
X5770670Y-14949691D01*
X5770670Y-14949691D02*
X5761146Y-14930643D01*
X5761146Y-14930643D02*
X5751623Y-14892548D01*
X5751623Y-14892548D02*
X5751623Y-14844929D01*
X5751623Y-14844929D02*
X5761146Y-14806834D01*
X5761146Y-14806834D02*
X5770670Y-14787786D01*
X5770670Y-14787786D02*
X5780194Y-14778262D01*
X5780194Y-14778262D02*
X5799242Y-14768739D01*
X6037337Y-14768739D02*
X5999242Y-14768739D01*
X5999242Y-14768739D02*
X5980194Y-14778262D01*
X5980194Y-14778262D02*
X5970670Y-14787786D01*
X5970670Y-14787786D02*
X5951623Y-14816358D01*
X5951623Y-14816358D02*
X5942099Y-14854453D01*
X5942099Y-14854453D02*
X5942099Y-14930643D01*
X5942099Y-14930643D02*
X5951623Y-14949691D01*
X5951623Y-14949691D02*
X5961146Y-14959215D01*
X5961146Y-14959215D02*
X5980194Y-14968739D01*
X5980194Y-14968739D02*
X6018289Y-14968739D01*
X6018289Y-14968739D02*
X6037337Y-14959215D01*
X6037337Y-14959215D02*
X6046861Y-14949691D01*
X6046861Y-14949691D02*
X6056385Y-14930643D01*
X6056385Y-14930643D02*
X6056385Y-14883024D01*
X6056385Y-14883024D02*
X6046861Y-14863977D01*
X6046861Y-14863977D02*
X6037337Y-14854453D01*
X6037337Y-14854453D02*
X6018289Y-14844929D01*
X6018289Y-14844929D02*
X5980194Y-14844929D01*
X5980194Y-14844929D02*
X5961146Y-14854453D01*
X5961146Y-14854453D02*
X5951623Y-14863977D01*
X5951623Y-14863977D02*
X5942099Y-14883024D01*
X6123051Y-14768739D02*
X6246861Y-14768739D01*
X6246861Y-14768739D02*
X6180194Y-14844929D01*
X6180194Y-14844929D02*
X6208766Y-14844929D01*
X6208766Y-14844929D02*
X6227813Y-14854453D01*
X6227813Y-14854453D02*
X6237337Y-14863977D01*
X6237337Y-14863977D02*
X6246861Y-14883024D01*
X6246861Y-14883024D02*
X6246861Y-14930643D01*
X6246861Y-14930643D02*
X6237337Y-14949691D01*
X6237337Y-14949691D02*
X6227813Y-14959215D01*
X6227813Y-14959215D02*
X6208766Y-14968739D01*
X6208766Y-14968739D02*
X6151623Y-14968739D01*
X6151623Y-14968739D02*
X6132575Y-14959215D01*
X6132575Y-14959215D02*
X6123051Y-14949691D01*
X6323051Y-14768739D02*
X6323051Y-14806834D01*
X6399242Y-14768739D02*
X6399242Y-14806834D01*
X6694480Y-15044929D02*
X6684956Y-15035405D01*
X6684956Y-15035405D02*
X6665908Y-15006834D01*
X6665908Y-15006834D02*
X6656385Y-14987786D01*
X6656385Y-14987786D02*
X6646861Y-14959215D01*
X6646861Y-14959215D02*
X6637337Y-14911596D01*
X6637337Y-14911596D02*
X6637337Y-14873501D01*
X6637337Y-14873501D02*
X6646861Y-14825881D01*
X6646861Y-14825881D02*
X6656385Y-14797310D01*
X6656385Y-14797310D02*
X6665908Y-14778262D01*
X6665908Y-14778262D02*
X6684956Y-14749691D01*
X6684956Y-14749691D02*
X6694480Y-14740167D01*
X6875432Y-14968739D02*
X6761147Y-14968739D01*
X6818289Y-14968739D02*
X6818289Y-14768739D01*
X6818289Y-14768739D02*
X6799242Y-14797310D01*
X6799242Y-14797310D02*
X6780194Y-14816358D01*
X6780194Y-14816358D02*
X6761147Y-14825881D01*
X7113528Y-14968739D02*
X7113528Y-14768739D01*
X7199242Y-14968739D02*
X7199242Y-14863977D01*
X7199242Y-14863977D02*
X7189718Y-14844929D01*
X7189718Y-14844929D02*
X7170670Y-14835405D01*
X7170670Y-14835405D02*
X7142099Y-14835405D01*
X7142099Y-14835405D02*
X7123051Y-14844929D01*
X7123051Y-14844929D02*
X7113528Y-14854453D01*
X7323051Y-14968739D02*
X7304004Y-14959215D01*
X7304004Y-14959215D02*
X7294480Y-14949691D01*
X7294480Y-14949691D02*
X7284956Y-14930643D01*
X7284956Y-14930643D02*
X7284956Y-14873501D01*
X7284956Y-14873501D02*
X7294480Y-14854453D01*
X7294480Y-14854453D02*
X7304004Y-14844929D01*
X7304004Y-14844929D02*
X7323051Y-14835405D01*
X7323051Y-14835405D02*
X7351623Y-14835405D01*
X7351623Y-14835405D02*
X7370670Y-14844929D01*
X7370670Y-14844929D02*
X7380194Y-14854453D01*
X7380194Y-14854453D02*
X7389718Y-14873501D01*
X7389718Y-14873501D02*
X7389718Y-14930643D01*
X7389718Y-14930643D02*
X7380194Y-14949691D01*
X7380194Y-14949691D02*
X7370670Y-14959215D01*
X7370670Y-14959215D02*
X7351623Y-14968739D01*
X7351623Y-14968739D02*
X7323051Y-14968739D01*
X7504004Y-14968739D02*
X7484956Y-14959215D01*
X7484956Y-14959215D02*
X7475432Y-14940167D01*
X7475432Y-14940167D02*
X7475432Y-14768739D01*
X7656385Y-14959215D02*
X7637337Y-14968739D01*
X7637337Y-14968739D02*
X7599242Y-14968739D01*
X7599242Y-14968739D02*
X7580194Y-14959215D01*
X7580194Y-14959215D02*
X7570670Y-14940167D01*
X7570670Y-14940167D02*
X7570670Y-14863977D01*
X7570670Y-14863977D02*
X7580194Y-14844929D01*
X7580194Y-14844929D02*
X7599242Y-14835405D01*
X7599242Y-14835405D02*
X7637337Y-14835405D01*
X7637337Y-14835405D02*
X7656385Y-14844929D01*
X7656385Y-14844929D02*
X7665909Y-14863977D01*
X7665909Y-14863977D02*
X7665909Y-14883024D01*
X7665909Y-14883024D02*
X7570670Y-14902072D01*
X7732575Y-15044929D02*
X7742099Y-15035405D01*
X7742099Y-15035405D02*
X7761147Y-15006834D01*
X7761147Y-15006834D02*
X7770670Y-14987786D01*
X7770670Y-14987786D02*
X7780194Y-14959215D01*
X7780194Y-14959215D02*
X7789718Y-14911596D01*
X7789718Y-14911596D02*
X7789718Y-14873501D01*
X7789718Y-14873501D02*
X7780194Y-14825881D01*
X7780194Y-14825881D02*
X7770670Y-14797310D01*
X7770670Y-14797310D02*
X7761147Y-14778262D01*
X7761147Y-14778262D02*
X7742099Y-14749691D01*
X7742099Y-14749691D02*
X7732575Y-14740167D01*
X8094480Y-15044929D02*
X8084956Y-15035405D01*
X8084956Y-15035405D02*
X8065909Y-15006834D01*
X8065909Y-15006834D02*
X8056385Y-14987786D01*
X8056385Y-14987786D02*
X8046861Y-14959215D01*
X8046861Y-14959215D02*
X8037337Y-14911596D01*
X8037337Y-14911596D02*
X8037337Y-14873501D01*
X8037337Y-14873501D02*
X8046861Y-14825881D01*
X8046861Y-14825881D02*
X8056385Y-14797310D01*
X8056385Y-14797310D02*
X8065909Y-14778262D01*
X8065909Y-14778262D02*
X8084956Y-14749691D01*
X8084956Y-14749691D02*
X8094480Y-14740167D01*
X8170670Y-14835405D02*
X8170670Y-14968739D01*
X8170670Y-14854453D02*
X8180194Y-14844929D01*
X8180194Y-14844929D02*
X8199242Y-14835405D01*
X8199242Y-14835405D02*
X8227813Y-14835405D01*
X8227813Y-14835405D02*
X8246861Y-14844929D01*
X8246861Y-14844929D02*
X8256385Y-14863977D01*
X8256385Y-14863977D02*
X8256385Y-14968739D01*
X8380194Y-14968739D02*
X8361147Y-14959215D01*
X8361147Y-14959215D02*
X8351623Y-14949691D01*
X8351623Y-14949691D02*
X8342099Y-14930643D01*
X8342099Y-14930643D02*
X8342099Y-14873501D01*
X8342099Y-14873501D02*
X8351623Y-14854453D01*
X8351623Y-14854453D02*
X8361147Y-14844929D01*
X8361147Y-14844929D02*
X8380194Y-14835405D01*
X8380194Y-14835405D02*
X8408766Y-14835405D01*
X8408766Y-14835405D02*
X8427813Y-14844929D01*
X8427813Y-14844929D02*
X8437337Y-14854453D01*
X8437337Y-14854453D02*
X8446861Y-14873501D01*
X8446861Y-14873501D02*
X8446861Y-14930643D01*
X8446861Y-14930643D02*
X8437337Y-14949691D01*
X8437337Y-14949691D02*
X8427813Y-14959215D01*
X8427813Y-14959215D02*
X8408766Y-14968739D01*
X8408766Y-14968739D02*
X8380194Y-14968739D01*
X8504004Y-14835405D02*
X8580194Y-14835405D01*
X8532575Y-14768739D02*
X8532575Y-14940167D01*
X8532575Y-14940167D02*
X8542099Y-14959215D01*
X8542099Y-14959215D02*
X8561147Y-14968739D01*
X8561147Y-14968739D02*
X8580194Y-14968739D01*
X8799242Y-14835405D02*
X8799242Y-15035405D01*
X8799242Y-14844929D02*
X8818290Y-14835405D01*
X8818290Y-14835405D02*
X8856385Y-14835405D01*
X8856385Y-14835405D02*
X8875433Y-14844929D01*
X8875433Y-14844929D02*
X8884956Y-14854453D01*
X8884956Y-14854453D02*
X8894480Y-14873501D01*
X8894480Y-14873501D02*
X8894480Y-14930643D01*
X8894480Y-14930643D02*
X8884956Y-14949691D01*
X8884956Y-14949691D02*
X8875433Y-14959215D01*
X8875433Y-14959215D02*
X8856385Y-14968739D01*
X8856385Y-14968739D02*
X8818290Y-14968739D01*
X8818290Y-14968739D02*
X8799242Y-14959215D01*
X9008766Y-14968739D02*
X8989718Y-14959215D01*
X8989718Y-14959215D02*
X8980194Y-14940167D01*
X8980194Y-14940167D02*
X8980194Y-14768739D01*
X9170671Y-14968739D02*
X9170671Y-14863977D01*
X9170671Y-14863977D02*
X9161147Y-14844929D01*
X9161147Y-14844929D02*
X9142099Y-14835405D01*
X9142099Y-14835405D02*
X9104004Y-14835405D01*
X9104004Y-14835405D02*
X9084956Y-14844929D01*
X9170671Y-14959215D02*
X9151623Y-14968739D01*
X9151623Y-14968739D02*
X9104004Y-14968739D01*
X9104004Y-14968739D02*
X9084956Y-14959215D01*
X9084956Y-14959215D02*
X9075433Y-14940167D01*
X9075433Y-14940167D02*
X9075433Y-14921120D01*
X9075433Y-14921120D02*
X9084956Y-14902072D01*
X9084956Y-14902072D02*
X9104004Y-14892548D01*
X9104004Y-14892548D02*
X9151623Y-14892548D01*
X9151623Y-14892548D02*
X9170671Y-14883024D01*
X9237337Y-14835405D02*
X9313528Y-14835405D01*
X9265909Y-14768739D02*
X9265909Y-14940167D01*
X9265909Y-14940167D02*
X9275433Y-14959215D01*
X9275433Y-14959215D02*
X9294480Y-14968739D01*
X9294480Y-14968739D02*
X9313528Y-14968739D01*
X9456385Y-14959215D02*
X9437337Y-14968739D01*
X9437337Y-14968739D02*
X9399242Y-14968739D01*
X9399242Y-14968739D02*
X9380194Y-14959215D01*
X9380194Y-14959215D02*
X9370671Y-14940167D01*
X9370671Y-14940167D02*
X9370671Y-14863977D01*
X9370671Y-14863977D02*
X9380194Y-14844929D01*
X9380194Y-14844929D02*
X9399242Y-14835405D01*
X9399242Y-14835405D02*
X9437337Y-14835405D01*
X9437337Y-14835405D02*
X9456385Y-14844929D01*
X9456385Y-14844929D02*
X9465909Y-14863977D01*
X9465909Y-14863977D02*
X9465909Y-14883024D01*
X9465909Y-14883024D02*
X9370671Y-14902072D01*
X9637337Y-14968739D02*
X9637337Y-14768739D01*
X9637337Y-14959215D02*
X9618290Y-14968739D01*
X9618290Y-14968739D02*
X9580194Y-14968739D01*
X9580194Y-14968739D02*
X9561147Y-14959215D01*
X9561147Y-14959215D02*
X9551623Y-14949691D01*
X9551623Y-14949691D02*
X9542099Y-14930643D01*
X9542099Y-14930643D02*
X9542099Y-14873501D01*
X9542099Y-14873501D02*
X9551623Y-14854453D01*
X9551623Y-14854453D02*
X9561147Y-14844929D01*
X9561147Y-14844929D02*
X9580194Y-14835405D01*
X9580194Y-14835405D02*
X9618290Y-14835405D01*
X9618290Y-14835405D02*
X9637337Y-14844929D01*
X9713528Y-15044929D02*
X9723052Y-15035405D01*
X9723052Y-15035405D02*
X9742099Y-15006834D01*
X9742099Y-15006834D02*
X9751623Y-14987786D01*
X9751623Y-14987786D02*
X9761147Y-14959215D01*
X9761147Y-14959215D02*
X9770671Y-14911596D01*
X9770671Y-14911596D02*
X9770671Y-14873501D01*
X9770671Y-14873501D02*
X9761147Y-14825881D01*
X9761147Y-14825881D02*
X9751623Y-14797310D01*
X9751623Y-14797310D02*
X9742099Y-14778262D01*
X9742099Y-14778262D02*
X9723052Y-14749691D01*
X9723052Y-14749691D02*
X9713528Y-14740167D01*
X2919417Y-15097255D02*
X3119417Y-15297255D01*
X3119417Y-15097255D02*
X2919417Y-15297255D01*
X3119417Y-15197255D02*
G75*
G03*
X3119417Y-15197255I-100000J0D01*
G01*
X3361146Y-15088739D02*
X3484956Y-15088739D01*
X3484956Y-15088739D02*
X3418289Y-15164929D01*
X3418289Y-15164929D02*
X3446861Y-15164929D01*
X3446861Y-15164929D02*
X3465908Y-15174453D01*
X3465908Y-15174453D02*
X3475432Y-15183977D01*
X3475432Y-15183977D02*
X3484956Y-15203024D01*
X3484956Y-15203024D02*
X3484956Y-15250643D01*
X3484956Y-15250643D02*
X3475432Y-15269691D01*
X3475432Y-15269691D02*
X3465908Y-15279215D01*
X3465908Y-15279215D02*
X3446861Y-15288739D01*
X3446861Y-15288739D02*
X3389718Y-15288739D01*
X3389718Y-15288739D02*
X3370670Y-15279215D01*
X3370670Y-15279215D02*
X3361146Y-15269691D01*
X3570670Y-15269691D02*
X3580194Y-15279215D01*
X3580194Y-15279215D02*
X3570670Y-15288739D01*
X3570670Y-15288739D02*
X3561146Y-15279215D01*
X3561146Y-15279215D02*
X3570670Y-15269691D01*
X3570670Y-15269691D02*
X3570670Y-15288739D01*
X3704003Y-15088739D02*
X3723051Y-15088739D01*
X3723051Y-15088739D02*
X3742099Y-15098262D01*
X3742099Y-15098262D02*
X3751622Y-15107786D01*
X3751622Y-15107786D02*
X3761146Y-15126834D01*
X3761146Y-15126834D02*
X3770670Y-15164929D01*
X3770670Y-15164929D02*
X3770670Y-15212548D01*
X3770670Y-15212548D02*
X3761146Y-15250643D01*
X3761146Y-15250643D02*
X3751622Y-15269691D01*
X3751622Y-15269691D02*
X3742099Y-15279215D01*
X3742099Y-15279215D02*
X3723051Y-15288739D01*
X3723051Y-15288739D02*
X3704003Y-15288739D01*
X3704003Y-15288739D02*
X3684956Y-15279215D01*
X3684956Y-15279215D02*
X3675432Y-15269691D01*
X3675432Y-15269691D02*
X3665908Y-15250643D01*
X3665908Y-15250643D02*
X3656384Y-15212548D01*
X3656384Y-15212548D02*
X3656384Y-15164929D01*
X3656384Y-15164929D02*
X3665908Y-15126834D01*
X3665908Y-15126834D02*
X3675432Y-15107786D01*
X3675432Y-15107786D02*
X3684956Y-15098262D01*
X3684956Y-15098262D02*
X3704003Y-15088739D01*
X3894480Y-15088739D02*
X3913527Y-15088739D01*
X3913527Y-15088739D02*
X3932575Y-15098262D01*
X3932575Y-15098262D02*
X3942099Y-15107786D01*
X3942099Y-15107786D02*
X3951622Y-15126834D01*
X3951622Y-15126834D02*
X3961146Y-15164929D01*
X3961146Y-15164929D02*
X3961146Y-15212548D01*
X3961146Y-15212548D02*
X3951622Y-15250643D01*
X3951622Y-15250643D02*
X3942099Y-15269691D01*
X3942099Y-15269691D02*
X3932575Y-15279215D01*
X3932575Y-15279215D02*
X3913527Y-15288739D01*
X3913527Y-15288739D02*
X3894480Y-15288739D01*
X3894480Y-15288739D02*
X3875432Y-15279215D01*
X3875432Y-15279215D02*
X3865908Y-15269691D01*
X3865908Y-15269691D02*
X3856384Y-15250643D01*
X3856384Y-15250643D02*
X3846861Y-15212548D01*
X3846861Y-15212548D02*
X3846861Y-15164929D01*
X3846861Y-15164929D02*
X3856384Y-15126834D01*
X3856384Y-15126834D02*
X3865908Y-15107786D01*
X3865908Y-15107786D02*
X3875432Y-15098262D01*
X3875432Y-15098262D02*
X3894480Y-15088739D01*
X4084956Y-15088739D02*
X4104003Y-15088739D01*
X4104003Y-15088739D02*
X4123051Y-15098262D01*
X4123051Y-15098262D02*
X4132575Y-15107786D01*
X4132575Y-15107786D02*
X4142099Y-15126834D01*
X4142099Y-15126834D02*
X4151622Y-15164929D01*
X4151622Y-15164929D02*
X4151622Y-15212548D01*
X4151622Y-15212548D02*
X4142099Y-15250643D01*
X4142099Y-15250643D02*
X4132575Y-15269691D01*
X4132575Y-15269691D02*
X4123051Y-15279215D01*
X4123051Y-15279215D02*
X4104003Y-15288739D01*
X4104003Y-15288739D02*
X4084956Y-15288739D01*
X4084956Y-15288739D02*
X4065908Y-15279215D01*
X4065908Y-15279215D02*
X4056384Y-15269691D01*
X4056384Y-15269691D02*
X4046861Y-15250643D01*
X4046861Y-15250643D02*
X4037337Y-15212548D01*
X4037337Y-15212548D02*
X4037337Y-15164929D01*
X4037337Y-15164929D02*
X4046861Y-15126834D01*
X4046861Y-15126834D02*
X4056384Y-15107786D01*
X4056384Y-15107786D02*
X4065908Y-15098262D01*
X4065908Y-15098262D02*
X4084956Y-15088739D01*
X4237337Y-15288739D02*
X4237337Y-15155405D01*
X4237337Y-15174453D02*
X4246861Y-15164929D01*
X4246861Y-15164929D02*
X4265908Y-15155405D01*
X4265908Y-15155405D02*
X4294480Y-15155405D01*
X4294480Y-15155405D02*
X4313527Y-15164929D01*
X4313527Y-15164929D02*
X4323051Y-15183977D01*
X4323051Y-15183977D02*
X4323051Y-15288739D01*
X4323051Y-15183977D02*
X4332575Y-15164929D01*
X4332575Y-15164929D02*
X4351623Y-15155405D01*
X4351623Y-15155405D02*
X4380194Y-15155405D01*
X4380194Y-15155405D02*
X4399242Y-15164929D01*
X4399242Y-15164929D02*
X4408765Y-15183977D01*
X4408765Y-15183977D02*
X4408765Y-15288739D01*
X4504004Y-15288739D02*
X4504004Y-15155405D01*
X4504004Y-15174453D02*
X4513527Y-15164929D01*
X4513527Y-15164929D02*
X4532575Y-15155405D01*
X4532575Y-15155405D02*
X4561146Y-15155405D01*
X4561146Y-15155405D02*
X4580194Y-15164929D01*
X4580194Y-15164929D02*
X4589718Y-15183977D01*
X4589718Y-15183977D02*
X4589718Y-15288739D01*
X4589718Y-15183977D02*
X4599242Y-15164929D01*
X4599242Y-15164929D02*
X4618289Y-15155405D01*
X4618289Y-15155405D02*
X4646861Y-15155405D01*
X4646861Y-15155405D02*
X4665908Y-15164929D01*
X4665908Y-15164929D02*
X4675432Y-15183977D01*
X4675432Y-15183977D02*
X4675432Y-15288739D01*
X5065908Y-15079215D02*
X4894480Y-15336358D01*
X5323051Y-15088739D02*
X5342099Y-15088739D01*
X5342099Y-15088739D02*
X5361147Y-15098262D01*
X5361147Y-15098262D02*
X5370670Y-15107786D01*
X5370670Y-15107786D02*
X5380194Y-15126834D01*
X5380194Y-15126834D02*
X5389718Y-15164929D01*
X5389718Y-15164929D02*
X5389718Y-15212548D01*
X5389718Y-15212548D02*
X5380194Y-15250643D01*
X5380194Y-15250643D02*
X5370670Y-15269691D01*
X5370670Y-15269691D02*
X5361147Y-15279215D01*
X5361147Y-15279215D02*
X5342099Y-15288739D01*
X5342099Y-15288739D02*
X5323051Y-15288739D01*
X5323051Y-15288739D02*
X5304004Y-15279215D01*
X5304004Y-15279215D02*
X5294480Y-15269691D01*
X5294480Y-15269691D02*
X5284956Y-15250643D01*
X5284956Y-15250643D02*
X5275432Y-15212548D01*
X5275432Y-15212548D02*
X5275432Y-15164929D01*
X5275432Y-15164929D02*
X5284956Y-15126834D01*
X5284956Y-15126834D02*
X5294480Y-15107786D01*
X5294480Y-15107786D02*
X5304004Y-15098262D01*
X5304004Y-15098262D02*
X5323051Y-15088739D01*
X5475432Y-15269691D02*
X5484956Y-15279215D01*
X5484956Y-15279215D02*
X5475432Y-15288739D01*
X5475432Y-15288739D02*
X5465908Y-15279215D01*
X5465908Y-15279215D02*
X5475432Y-15269691D01*
X5475432Y-15269691D02*
X5475432Y-15288739D01*
X5675432Y-15288739D02*
X5561147Y-15288739D01*
X5618289Y-15288739D02*
X5618289Y-15088739D01*
X5618289Y-15088739D02*
X5599242Y-15117310D01*
X5599242Y-15117310D02*
X5580194Y-15136358D01*
X5580194Y-15136358D02*
X5561147Y-15145881D01*
X5865908Y-15288739D02*
X5751623Y-15288739D01*
X5808765Y-15288739D02*
X5808765Y-15088739D01*
X5808765Y-15088739D02*
X5789718Y-15117310D01*
X5789718Y-15117310D02*
X5770670Y-15136358D01*
X5770670Y-15136358D02*
X5751623Y-15145881D01*
X5980194Y-15174453D02*
X5961146Y-15164929D01*
X5961146Y-15164929D02*
X5951623Y-15155405D01*
X5951623Y-15155405D02*
X5942099Y-15136358D01*
X5942099Y-15136358D02*
X5942099Y-15126834D01*
X5942099Y-15126834D02*
X5951623Y-15107786D01*
X5951623Y-15107786D02*
X5961146Y-15098262D01*
X5961146Y-15098262D02*
X5980194Y-15088739D01*
X5980194Y-15088739D02*
X6018289Y-15088739D01*
X6018289Y-15088739D02*
X6037337Y-15098262D01*
X6037337Y-15098262D02*
X6046861Y-15107786D01*
X6046861Y-15107786D02*
X6056385Y-15126834D01*
X6056385Y-15126834D02*
X6056385Y-15136358D01*
X6056385Y-15136358D02*
X6046861Y-15155405D01*
X6046861Y-15155405D02*
X6037337Y-15164929D01*
X6037337Y-15164929D02*
X6018289Y-15174453D01*
X6018289Y-15174453D02*
X5980194Y-15174453D01*
X5980194Y-15174453D02*
X5961146Y-15183977D01*
X5961146Y-15183977D02*
X5951623Y-15193501D01*
X5951623Y-15193501D02*
X5942099Y-15212548D01*
X5942099Y-15212548D02*
X5942099Y-15250643D01*
X5942099Y-15250643D02*
X5951623Y-15269691D01*
X5951623Y-15269691D02*
X5961146Y-15279215D01*
X5961146Y-15279215D02*
X5980194Y-15288739D01*
X5980194Y-15288739D02*
X6018289Y-15288739D01*
X6018289Y-15288739D02*
X6037337Y-15279215D01*
X6037337Y-15279215D02*
X6046861Y-15269691D01*
X6046861Y-15269691D02*
X6056385Y-15250643D01*
X6056385Y-15250643D02*
X6056385Y-15212548D01*
X6056385Y-15212548D02*
X6046861Y-15193501D01*
X6046861Y-15193501D02*
X6037337Y-15183977D01*
X6037337Y-15183977D02*
X6018289Y-15174453D01*
X6246861Y-15288739D02*
X6132575Y-15288739D01*
X6189718Y-15288739D02*
X6189718Y-15088739D01*
X6189718Y-15088739D02*
X6170670Y-15117310D01*
X6170670Y-15117310D02*
X6151623Y-15136358D01*
X6151623Y-15136358D02*
X6132575Y-15145881D01*
X6323051Y-15088739D02*
X6323051Y-15126834D01*
X6399242Y-15088739D02*
X6399242Y-15126834D01*
X6694480Y-15364929D02*
X6684956Y-15355405D01*
X6684956Y-15355405D02*
X6665908Y-15326834D01*
X6665908Y-15326834D02*
X6656385Y-15307786D01*
X6656385Y-15307786D02*
X6646861Y-15279215D01*
X6646861Y-15279215D02*
X6637337Y-15231596D01*
X6637337Y-15231596D02*
X6637337Y-15193501D01*
X6637337Y-15193501D02*
X6646861Y-15145881D01*
X6646861Y-15145881D02*
X6656385Y-15117310D01*
X6656385Y-15117310D02*
X6665908Y-15098262D01*
X6665908Y-15098262D02*
X6684956Y-15069691D01*
X6684956Y-15069691D02*
X6694480Y-15060167D01*
X6751623Y-15088739D02*
X6884956Y-15088739D01*
X6884956Y-15088739D02*
X6799242Y-15288739D01*
X6951623Y-15107786D02*
X6961147Y-15098262D01*
X6961147Y-15098262D02*
X6980194Y-15088739D01*
X6980194Y-15088739D02*
X7027813Y-15088739D01*
X7027813Y-15088739D02*
X7046861Y-15098262D01*
X7046861Y-15098262D02*
X7056385Y-15107786D01*
X7056385Y-15107786D02*
X7065908Y-15126834D01*
X7065908Y-15126834D02*
X7065908Y-15145881D01*
X7065908Y-15145881D02*
X7056385Y-15174453D01*
X7056385Y-15174453D02*
X6942099Y-15288739D01*
X6942099Y-15288739D02*
X7065908Y-15288739D01*
X7304004Y-15288739D02*
X7304004Y-15088739D01*
X7389718Y-15288739D02*
X7389718Y-15183977D01*
X7389718Y-15183977D02*
X7380194Y-15164929D01*
X7380194Y-15164929D02*
X7361147Y-15155405D01*
X7361147Y-15155405D02*
X7332575Y-15155405D01*
X7332575Y-15155405D02*
X7313528Y-15164929D01*
X7313528Y-15164929D02*
X7304004Y-15174453D01*
X7513528Y-15288739D02*
X7494480Y-15279215D01*
X7494480Y-15279215D02*
X7484956Y-15269691D01*
X7484956Y-15269691D02*
X7475432Y-15250643D01*
X7475432Y-15250643D02*
X7475432Y-15193501D01*
X7475432Y-15193501D02*
X7484956Y-15174453D01*
X7484956Y-15174453D02*
X7494480Y-15164929D01*
X7494480Y-15164929D02*
X7513528Y-15155405D01*
X7513528Y-15155405D02*
X7542099Y-15155405D01*
X7542099Y-15155405D02*
X7561147Y-15164929D01*
X7561147Y-15164929D02*
X7570670Y-15174453D01*
X7570670Y-15174453D02*
X7580194Y-15193501D01*
X7580194Y-15193501D02*
X7580194Y-15250643D01*
X7580194Y-15250643D02*
X7570670Y-15269691D01*
X7570670Y-15269691D02*
X7561147Y-15279215D01*
X7561147Y-15279215D02*
X7542099Y-15288739D01*
X7542099Y-15288739D02*
X7513528Y-15288739D01*
X7694480Y-15288739D02*
X7675432Y-15279215D01*
X7675432Y-15279215D02*
X7665909Y-15260167D01*
X7665909Y-15260167D02*
X7665909Y-15088739D01*
X7846861Y-15279215D02*
X7827813Y-15288739D01*
X7827813Y-15288739D02*
X7789718Y-15288739D01*
X7789718Y-15288739D02*
X7770670Y-15279215D01*
X7770670Y-15279215D02*
X7761147Y-15260167D01*
X7761147Y-15260167D02*
X7761147Y-15183977D01*
X7761147Y-15183977D02*
X7770670Y-15164929D01*
X7770670Y-15164929D02*
X7789718Y-15155405D01*
X7789718Y-15155405D02*
X7827813Y-15155405D01*
X7827813Y-15155405D02*
X7846861Y-15164929D01*
X7846861Y-15164929D02*
X7856385Y-15183977D01*
X7856385Y-15183977D02*
X7856385Y-15203024D01*
X7856385Y-15203024D02*
X7761147Y-15222072D01*
X7932575Y-15279215D02*
X7951623Y-15288739D01*
X7951623Y-15288739D02*
X7989718Y-15288739D01*
X7989718Y-15288739D02*
X8008766Y-15279215D01*
X8008766Y-15279215D02*
X8018290Y-15260167D01*
X8018290Y-15260167D02*
X8018290Y-15250643D01*
X8018290Y-15250643D02*
X8008766Y-15231596D01*
X8008766Y-15231596D02*
X7989718Y-15222072D01*
X7989718Y-15222072D02*
X7961147Y-15222072D01*
X7961147Y-15222072D02*
X7942099Y-15212548D01*
X7942099Y-15212548D02*
X7932575Y-15193501D01*
X7932575Y-15193501D02*
X7932575Y-15183977D01*
X7932575Y-15183977D02*
X7942099Y-15164929D01*
X7942099Y-15164929D02*
X7961147Y-15155405D01*
X7961147Y-15155405D02*
X7989718Y-15155405D01*
X7989718Y-15155405D02*
X8008766Y-15164929D01*
X8084956Y-15364929D02*
X8094480Y-15355405D01*
X8094480Y-15355405D02*
X8113528Y-15326834D01*
X8113528Y-15326834D02*
X8123051Y-15307786D01*
X8123051Y-15307786D02*
X8132575Y-15279215D01*
X8132575Y-15279215D02*
X8142099Y-15231596D01*
X8142099Y-15231596D02*
X8142099Y-15193501D01*
X8142099Y-15193501D02*
X8132575Y-15145881D01*
X8132575Y-15145881D02*
X8123051Y-15117310D01*
X8123051Y-15117310D02*
X8113528Y-15098262D01*
X8113528Y-15098262D02*
X8094480Y-15069691D01*
X8094480Y-15069691D02*
X8084956Y-15060167D01*
X8446861Y-15364929D02*
X8437337Y-15355405D01*
X8437337Y-15355405D02*
X8418290Y-15326834D01*
X8418290Y-15326834D02*
X8408766Y-15307786D01*
X8408766Y-15307786D02*
X8399242Y-15279215D01*
X8399242Y-15279215D02*
X8389718Y-15231596D01*
X8389718Y-15231596D02*
X8389718Y-15193501D01*
X8389718Y-15193501D02*
X8399242Y-15145881D01*
X8399242Y-15145881D02*
X8408766Y-15117310D01*
X8408766Y-15117310D02*
X8418290Y-15098262D01*
X8418290Y-15098262D02*
X8437337Y-15069691D01*
X8437337Y-15069691D02*
X8446861Y-15060167D01*
X8523052Y-15155405D02*
X8523052Y-15288739D01*
X8523052Y-15174453D02*
X8532575Y-15164929D01*
X8532575Y-15164929D02*
X8551623Y-15155405D01*
X8551623Y-15155405D02*
X8580194Y-15155405D01*
X8580194Y-15155405D02*
X8599242Y-15164929D01*
X8599242Y-15164929D02*
X8608766Y-15183977D01*
X8608766Y-15183977D02*
X8608766Y-15288739D01*
X8732575Y-15288739D02*
X8713528Y-15279215D01*
X8713528Y-15279215D02*
X8704004Y-15269691D01*
X8704004Y-15269691D02*
X8694480Y-15250643D01*
X8694480Y-15250643D02*
X8694480Y-15193501D01*
X8694480Y-15193501D02*
X8704004Y-15174453D01*
X8704004Y-15174453D02*
X8713528Y-15164929D01*
X8713528Y-15164929D02*
X8732575Y-15155405D01*
X8732575Y-15155405D02*
X8761147Y-15155405D01*
X8761147Y-15155405D02*
X8780194Y-15164929D01*
X8780194Y-15164929D02*
X8789718Y-15174453D01*
X8789718Y-15174453D02*
X8799242Y-15193501D01*
X8799242Y-15193501D02*
X8799242Y-15250643D01*
X8799242Y-15250643D02*
X8789718Y-15269691D01*
X8789718Y-15269691D02*
X8780194Y-15279215D01*
X8780194Y-15279215D02*
X8761147Y-15288739D01*
X8761147Y-15288739D02*
X8732575Y-15288739D01*
X8856385Y-15155405D02*
X8932575Y-15155405D01*
X8884956Y-15088739D02*
X8884956Y-15260167D01*
X8884956Y-15260167D02*
X8894480Y-15279215D01*
X8894480Y-15279215D02*
X8913528Y-15288739D01*
X8913528Y-15288739D02*
X8932575Y-15288739D01*
X9151623Y-15155405D02*
X9151623Y-15355405D01*
X9151623Y-15164929D02*
X9170671Y-15155405D01*
X9170671Y-15155405D02*
X9208766Y-15155405D01*
X9208766Y-15155405D02*
X9227814Y-15164929D01*
X9227814Y-15164929D02*
X9237337Y-15174453D01*
X9237337Y-15174453D02*
X9246861Y-15193501D01*
X9246861Y-15193501D02*
X9246861Y-15250643D01*
X9246861Y-15250643D02*
X9237337Y-15269691D01*
X9237337Y-15269691D02*
X9227814Y-15279215D01*
X9227814Y-15279215D02*
X9208766Y-15288739D01*
X9208766Y-15288739D02*
X9170671Y-15288739D01*
X9170671Y-15288739D02*
X9151623Y-15279215D01*
X9361147Y-15288739D02*
X9342099Y-15279215D01*
X9342099Y-15279215D02*
X9332575Y-15260167D01*
X9332575Y-15260167D02*
X9332575Y-15088739D01*
X9523052Y-15288739D02*
X9523052Y-15183977D01*
X9523052Y-15183977D02*
X9513528Y-15164929D01*
X9513528Y-15164929D02*
X9494480Y-15155405D01*
X9494480Y-15155405D02*
X9456385Y-15155405D01*
X9456385Y-15155405D02*
X9437337Y-15164929D01*
X9523052Y-15279215D02*
X9504004Y-15288739D01*
X9504004Y-15288739D02*
X9456385Y-15288739D01*
X9456385Y-15288739D02*
X9437337Y-15279215D01*
X9437337Y-15279215D02*
X9427814Y-15260167D01*
X9427814Y-15260167D02*
X9427814Y-15241120D01*
X9427814Y-15241120D02*
X9437337Y-15222072D01*
X9437337Y-15222072D02*
X9456385Y-15212548D01*
X9456385Y-15212548D02*
X9504004Y-15212548D01*
X9504004Y-15212548D02*
X9523052Y-15203024D01*
X9589718Y-15155405D02*
X9665909Y-15155405D01*
X9618290Y-15088739D02*
X9618290Y-15260167D01*
X9618290Y-15260167D02*
X9627814Y-15279215D01*
X9627814Y-15279215D02*
X9646861Y-15288739D01*
X9646861Y-15288739D02*
X9665909Y-15288739D01*
X9808766Y-15279215D02*
X9789718Y-15288739D01*
X9789718Y-15288739D02*
X9751623Y-15288739D01*
X9751623Y-15288739D02*
X9732575Y-15279215D01*
X9732575Y-15279215D02*
X9723052Y-15260167D01*
X9723052Y-15260167D02*
X9723052Y-15183977D01*
X9723052Y-15183977D02*
X9732575Y-15164929D01*
X9732575Y-15164929D02*
X9751623Y-15155405D01*
X9751623Y-15155405D02*
X9789718Y-15155405D01*
X9789718Y-15155405D02*
X9808766Y-15164929D01*
X9808766Y-15164929D02*
X9818290Y-15183977D01*
X9818290Y-15183977D02*
X9818290Y-15203024D01*
X9818290Y-15203024D02*
X9723052Y-15222072D01*
X9989718Y-15288739D02*
X9989718Y-15088739D01*
X9989718Y-15279215D02*
X9970671Y-15288739D01*
X9970671Y-15288739D02*
X9932575Y-15288739D01*
X9932575Y-15288739D02*
X9913528Y-15279215D01*
X9913528Y-15279215D02*
X9904004Y-15269691D01*
X9904004Y-15269691D02*
X9894480Y-15250643D01*
X9894480Y-15250643D02*
X9894480Y-15193501D01*
X9894480Y-15193501D02*
X9904004Y-15174453D01*
X9904004Y-15174453D02*
X9913528Y-15164929D01*
X9913528Y-15164929D02*
X9932575Y-15155405D01*
X9932575Y-15155405D02*
X9970671Y-15155405D01*
X9970671Y-15155405D02*
X9989718Y-15164929D01*
X10065909Y-15364929D02*
X10075433Y-15355405D01*
X10075433Y-15355405D02*
X10094480Y-15326834D01*
X10094480Y-15326834D02*
X10104004Y-15307786D01*
X10104004Y-15307786D02*
X10113528Y-15279215D01*
X10113528Y-15279215D02*
X10123052Y-15231596D01*
X10123052Y-15231596D02*
X10123052Y-15193501D01*
X10123052Y-15193501D02*
X10113528Y-15145881D01*
X10113528Y-15145881D02*
X10104004Y-15117310D01*
X10104004Y-15117310D02*
X10094480Y-15098262D01*
X10094480Y-15098262D02*
X10075433Y-15069691D01*
X10075433Y-15069691D02*
X10065909Y-15060167D01*
X2919417Y-15417255D02*
X3119417Y-15617255D01*
X3119417Y-15417255D02*
X2919417Y-15617255D01*
X3019417Y-15417255D02*
X3019417Y-15617255D01*
X2919417Y-15517255D02*
X3119417Y-15517255D01*
X3361146Y-15408739D02*
X3484956Y-15408739D01*
X3484956Y-15408739D02*
X3418289Y-15484929D01*
X3418289Y-15484929D02*
X3446861Y-15484929D01*
X3446861Y-15484929D02*
X3465908Y-15494453D01*
X3465908Y-15494453D02*
X3475432Y-15503977D01*
X3475432Y-15503977D02*
X3484956Y-15523024D01*
X3484956Y-15523024D02*
X3484956Y-15570643D01*
X3484956Y-15570643D02*
X3475432Y-15589691D01*
X3475432Y-15589691D02*
X3465908Y-15599215D01*
X3465908Y-15599215D02*
X3446861Y-15608739D01*
X3446861Y-15608739D02*
X3389718Y-15608739D01*
X3389718Y-15608739D02*
X3370670Y-15599215D01*
X3370670Y-15599215D02*
X3361146Y-15589691D01*
X3570670Y-15589691D02*
X3580194Y-15599215D01*
X3580194Y-15599215D02*
X3570670Y-15608739D01*
X3570670Y-15608739D02*
X3561146Y-15599215D01*
X3561146Y-15599215D02*
X3570670Y-15589691D01*
X3570670Y-15589691D02*
X3570670Y-15608739D01*
X3751622Y-15475405D02*
X3751622Y-15608739D01*
X3704003Y-15399215D02*
X3656384Y-15542072D01*
X3656384Y-15542072D02*
X3780194Y-15542072D01*
X3846861Y-15427786D02*
X3856384Y-15418262D01*
X3856384Y-15418262D02*
X3875432Y-15408739D01*
X3875432Y-15408739D02*
X3923051Y-15408739D01*
X3923051Y-15408739D02*
X3942099Y-15418262D01*
X3942099Y-15418262D02*
X3951622Y-15427786D01*
X3951622Y-15427786D02*
X3961146Y-15446834D01*
X3961146Y-15446834D02*
X3961146Y-15465881D01*
X3961146Y-15465881D02*
X3951622Y-15494453D01*
X3951622Y-15494453D02*
X3837337Y-15608739D01*
X3837337Y-15608739D02*
X3961146Y-15608739D01*
X4056384Y-15608739D02*
X4094480Y-15608739D01*
X4094480Y-15608739D02*
X4113527Y-15599215D01*
X4113527Y-15599215D02*
X4123051Y-15589691D01*
X4123051Y-15589691D02*
X4142099Y-15561120D01*
X4142099Y-15561120D02*
X4151622Y-15523024D01*
X4151622Y-15523024D02*
X4151622Y-15446834D01*
X4151622Y-15446834D02*
X4142099Y-15427786D01*
X4142099Y-15427786D02*
X4132575Y-15418262D01*
X4132575Y-15418262D02*
X4113527Y-15408739D01*
X4113527Y-15408739D02*
X4075432Y-15408739D01*
X4075432Y-15408739D02*
X4056384Y-15418262D01*
X4056384Y-15418262D02*
X4046861Y-15427786D01*
X4046861Y-15427786D02*
X4037337Y-15446834D01*
X4037337Y-15446834D02*
X4037337Y-15494453D01*
X4037337Y-15494453D02*
X4046861Y-15513501D01*
X4046861Y-15513501D02*
X4056384Y-15523024D01*
X4056384Y-15523024D02*
X4075432Y-15532548D01*
X4075432Y-15532548D02*
X4113527Y-15532548D01*
X4113527Y-15532548D02*
X4132575Y-15523024D01*
X4132575Y-15523024D02*
X4142099Y-15513501D01*
X4142099Y-15513501D02*
X4151622Y-15494453D01*
X4237337Y-15608739D02*
X4237337Y-15475405D01*
X4237337Y-15494453D02*
X4246861Y-15484929D01*
X4246861Y-15484929D02*
X4265908Y-15475405D01*
X4265908Y-15475405D02*
X4294480Y-15475405D01*
X4294480Y-15475405D02*
X4313527Y-15484929D01*
X4313527Y-15484929D02*
X4323051Y-15503977D01*
X4323051Y-15503977D02*
X4323051Y-15608739D01*
X4323051Y-15503977D02*
X4332575Y-15484929D01*
X4332575Y-15484929D02*
X4351623Y-15475405D01*
X4351623Y-15475405D02*
X4380194Y-15475405D01*
X4380194Y-15475405D02*
X4399242Y-15484929D01*
X4399242Y-15484929D02*
X4408765Y-15503977D01*
X4408765Y-15503977D02*
X4408765Y-15608739D01*
X4504004Y-15608739D02*
X4504004Y-15475405D01*
X4504004Y-15494453D02*
X4513527Y-15484929D01*
X4513527Y-15484929D02*
X4532575Y-15475405D01*
X4532575Y-15475405D02*
X4561146Y-15475405D01*
X4561146Y-15475405D02*
X4580194Y-15484929D01*
X4580194Y-15484929D02*
X4589718Y-15503977D01*
X4589718Y-15503977D02*
X4589718Y-15608739D01*
X4589718Y-15503977D02*
X4599242Y-15484929D01*
X4599242Y-15484929D02*
X4618289Y-15475405D01*
X4618289Y-15475405D02*
X4646861Y-15475405D01*
X4646861Y-15475405D02*
X4665908Y-15484929D01*
X4665908Y-15484929D02*
X4675432Y-15503977D01*
X4675432Y-15503977D02*
X4675432Y-15608739D01*
X5065908Y-15399215D02*
X4894480Y-15656358D01*
X5323051Y-15408739D02*
X5342099Y-15408739D01*
X5342099Y-15408739D02*
X5361147Y-15418262D01*
X5361147Y-15418262D02*
X5370670Y-15427786D01*
X5370670Y-15427786D02*
X5380194Y-15446834D01*
X5380194Y-15446834D02*
X5389718Y-15484929D01*
X5389718Y-15484929D02*
X5389718Y-15532548D01*
X5389718Y-15532548D02*
X5380194Y-15570643D01*
X5380194Y-15570643D02*
X5370670Y-15589691D01*
X5370670Y-15589691D02*
X5361147Y-15599215D01*
X5361147Y-15599215D02*
X5342099Y-15608739D01*
X5342099Y-15608739D02*
X5323051Y-15608739D01*
X5323051Y-15608739D02*
X5304004Y-15599215D01*
X5304004Y-15599215D02*
X5294480Y-15589691D01*
X5294480Y-15589691D02*
X5284956Y-15570643D01*
X5284956Y-15570643D02*
X5275432Y-15532548D01*
X5275432Y-15532548D02*
X5275432Y-15484929D01*
X5275432Y-15484929D02*
X5284956Y-15446834D01*
X5284956Y-15446834D02*
X5294480Y-15427786D01*
X5294480Y-15427786D02*
X5304004Y-15418262D01*
X5304004Y-15418262D02*
X5323051Y-15408739D01*
X5475432Y-15589691D02*
X5484956Y-15599215D01*
X5484956Y-15599215D02*
X5475432Y-15608739D01*
X5475432Y-15608739D02*
X5465908Y-15599215D01*
X5465908Y-15599215D02*
X5475432Y-15589691D01*
X5475432Y-15589691D02*
X5475432Y-15608739D01*
X5675432Y-15608739D02*
X5561147Y-15608739D01*
X5618289Y-15608739D02*
X5618289Y-15408739D01*
X5618289Y-15408739D02*
X5599242Y-15437310D01*
X5599242Y-15437310D02*
X5580194Y-15456358D01*
X5580194Y-15456358D02*
X5561147Y-15465881D01*
X5742099Y-15408739D02*
X5865908Y-15408739D01*
X5865908Y-15408739D02*
X5799242Y-15484929D01*
X5799242Y-15484929D02*
X5827813Y-15484929D01*
X5827813Y-15484929D02*
X5846861Y-15494453D01*
X5846861Y-15494453D02*
X5856385Y-15503977D01*
X5856385Y-15503977D02*
X5865908Y-15523024D01*
X5865908Y-15523024D02*
X5865908Y-15570643D01*
X5865908Y-15570643D02*
X5856385Y-15589691D01*
X5856385Y-15589691D02*
X5846861Y-15599215D01*
X5846861Y-15599215D02*
X5827813Y-15608739D01*
X5827813Y-15608739D02*
X5770670Y-15608739D01*
X5770670Y-15608739D02*
X5751623Y-15599215D01*
X5751623Y-15599215D02*
X5742099Y-15589691D01*
X6046861Y-15408739D02*
X5951623Y-15408739D01*
X5951623Y-15408739D02*
X5942099Y-15503977D01*
X5942099Y-15503977D02*
X5951623Y-15494453D01*
X5951623Y-15494453D02*
X5970670Y-15484929D01*
X5970670Y-15484929D02*
X6018289Y-15484929D01*
X6018289Y-15484929D02*
X6037337Y-15494453D01*
X6037337Y-15494453D02*
X6046861Y-15503977D01*
X6046861Y-15503977D02*
X6056385Y-15523024D01*
X6056385Y-15523024D02*
X6056385Y-15570643D01*
X6056385Y-15570643D02*
X6046861Y-15589691D01*
X6046861Y-15589691D02*
X6037337Y-15599215D01*
X6037337Y-15599215D02*
X6018289Y-15608739D01*
X6018289Y-15608739D02*
X5970670Y-15608739D01*
X5970670Y-15608739D02*
X5951623Y-15599215D01*
X5951623Y-15599215D02*
X5942099Y-15589691D01*
X6180194Y-15408739D02*
X6199242Y-15408739D01*
X6199242Y-15408739D02*
X6218289Y-15418262D01*
X6218289Y-15418262D02*
X6227813Y-15427786D01*
X6227813Y-15427786D02*
X6237337Y-15446834D01*
X6237337Y-15446834D02*
X6246861Y-15484929D01*
X6246861Y-15484929D02*
X6246861Y-15532548D01*
X6246861Y-15532548D02*
X6237337Y-15570643D01*
X6237337Y-15570643D02*
X6227813Y-15589691D01*
X6227813Y-15589691D02*
X6218289Y-15599215D01*
X6218289Y-15599215D02*
X6199242Y-15608739D01*
X6199242Y-15608739D02*
X6180194Y-15608739D01*
X6180194Y-15608739D02*
X6161146Y-15599215D01*
X6161146Y-15599215D02*
X6151623Y-15589691D01*
X6151623Y-15589691D02*
X6142099Y-15570643D01*
X6142099Y-15570643D02*
X6132575Y-15532548D01*
X6132575Y-15532548D02*
X6132575Y-15484929D01*
X6132575Y-15484929D02*
X6142099Y-15446834D01*
X6142099Y-15446834D02*
X6151623Y-15427786D01*
X6151623Y-15427786D02*
X6161146Y-15418262D01*
X6161146Y-15418262D02*
X6180194Y-15408739D01*
X6323051Y-15408739D02*
X6323051Y-15446834D01*
X6399242Y-15408739D02*
X6399242Y-15446834D01*
X6694480Y-15684929D02*
X6684956Y-15675405D01*
X6684956Y-15675405D02*
X6665908Y-15646834D01*
X6665908Y-15646834D02*
X6656385Y-15627786D01*
X6656385Y-15627786D02*
X6646861Y-15599215D01*
X6646861Y-15599215D02*
X6637337Y-15551596D01*
X6637337Y-15551596D02*
X6637337Y-15513501D01*
X6637337Y-15513501D02*
X6646861Y-15465881D01*
X6646861Y-15465881D02*
X6656385Y-15437310D01*
X6656385Y-15437310D02*
X6665908Y-15418262D01*
X6665908Y-15418262D02*
X6684956Y-15389691D01*
X6684956Y-15389691D02*
X6694480Y-15380167D01*
X6751623Y-15408739D02*
X6875432Y-15408739D01*
X6875432Y-15408739D02*
X6808766Y-15484929D01*
X6808766Y-15484929D02*
X6837337Y-15484929D01*
X6837337Y-15484929D02*
X6856385Y-15494453D01*
X6856385Y-15494453D02*
X6865908Y-15503977D01*
X6865908Y-15503977D02*
X6875432Y-15523024D01*
X6875432Y-15523024D02*
X6875432Y-15570643D01*
X6875432Y-15570643D02*
X6865908Y-15589691D01*
X6865908Y-15589691D02*
X6856385Y-15599215D01*
X6856385Y-15599215D02*
X6837337Y-15608739D01*
X6837337Y-15608739D02*
X6780194Y-15608739D01*
X6780194Y-15608739D02*
X6761147Y-15599215D01*
X6761147Y-15599215D02*
X6751623Y-15589691D01*
X7046861Y-15408739D02*
X7008766Y-15408739D01*
X7008766Y-15408739D02*
X6989718Y-15418262D01*
X6989718Y-15418262D02*
X6980194Y-15427786D01*
X6980194Y-15427786D02*
X6961147Y-15456358D01*
X6961147Y-15456358D02*
X6951623Y-15494453D01*
X6951623Y-15494453D02*
X6951623Y-15570643D01*
X6951623Y-15570643D02*
X6961147Y-15589691D01*
X6961147Y-15589691D02*
X6970670Y-15599215D01*
X6970670Y-15599215D02*
X6989718Y-15608739D01*
X6989718Y-15608739D02*
X7027813Y-15608739D01*
X7027813Y-15608739D02*
X7046861Y-15599215D01*
X7046861Y-15599215D02*
X7056385Y-15589691D01*
X7056385Y-15589691D02*
X7065908Y-15570643D01*
X7065908Y-15570643D02*
X7065908Y-15523024D01*
X7065908Y-15523024D02*
X7056385Y-15503977D01*
X7056385Y-15503977D02*
X7046861Y-15494453D01*
X7046861Y-15494453D02*
X7027813Y-15484929D01*
X7027813Y-15484929D02*
X6989718Y-15484929D01*
X6989718Y-15484929D02*
X6970670Y-15494453D01*
X6970670Y-15494453D02*
X6961147Y-15503977D01*
X6961147Y-15503977D02*
X6951623Y-15523024D01*
X7304004Y-15608739D02*
X7304004Y-15408739D01*
X7389718Y-15608739D02*
X7389718Y-15503977D01*
X7389718Y-15503977D02*
X7380194Y-15484929D01*
X7380194Y-15484929D02*
X7361147Y-15475405D01*
X7361147Y-15475405D02*
X7332575Y-15475405D01*
X7332575Y-15475405D02*
X7313528Y-15484929D01*
X7313528Y-15484929D02*
X7304004Y-15494453D01*
X7513528Y-15608739D02*
X7494480Y-15599215D01*
X7494480Y-15599215D02*
X7484956Y-15589691D01*
X7484956Y-15589691D02*
X7475432Y-15570643D01*
X7475432Y-15570643D02*
X7475432Y-15513501D01*
X7475432Y-15513501D02*
X7484956Y-15494453D01*
X7484956Y-15494453D02*
X7494480Y-15484929D01*
X7494480Y-15484929D02*
X7513528Y-15475405D01*
X7513528Y-15475405D02*
X7542099Y-15475405D01*
X7542099Y-15475405D02*
X7561147Y-15484929D01*
X7561147Y-15484929D02*
X7570670Y-15494453D01*
X7570670Y-15494453D02*
X7580194Y-15513501D01*
X7580194Y-15513501D02*
X7580194Y-15570643D01*
X7580194Y-15570643D02*
X7570670Y-15589691D01*
X7570670Y-15589691D02*
X7561147Y-15599215D01*
X7561147Y-15599215D02*
X7542099Y-15608739D01*
X7542099Y-15608739D02*
X7513528Y-15608739D01*
X7694480Y-15608739D02*
X7675432Y-15599215D01*
X7675432Y-15599215D02*
X7665909Y-15580167D01*
X7665909Y-15580167D02*
X7665909Y-15408739D01*
X7846861Y-15599215D02*
X7827813Y-15608739D01*
X7827813Y-15608739D02*
X7789718Y-15608739D01*
X7789718Y-15608739D02*
X7770670Y-15599215D01*
X7770670Y-15599215D02*
X7761147Y-15580167D01*
X7761147Y-15580167D02*
X7761147Y-15503977D01*
X7761147Y-15503977D02*
X7770670Y-15484929D01*
X7770670Y-15484929D02*
X7789718Y-15475405D01*
X7789718Y-15475405D02*
X7827813Y-15475405D01*
X7827813Y-15475405D02*
X7846861Y-15484929D01*
X7846861Y-15484929D02*
X7856385Y-15503977D01*
X7856385Y-15503977D02*
X7856385Y-15523024D01*
X7856385Y-15523024D02*
X7761147Y-15542072D01*
X7932575Y-15599215D02*
X7951623Y-15608739D01*
X7951623Y-15608739D02*
X7989718Y-15608739D01*
X7989718Y-15608739D02*
X8008766Y-15599215D01*
X8008766Y-15599215D02*
X8018290Y-15580167D01*
X8018290Y-15580167D02*
X8018290Y-15570643D01*
X8018290Y-15570643D02*
X8008766Y-15551596D01*
X8008766Y-15551596D02*
X7989718Y-15542072D01*
X7989718Y-15542072D02*
X7961147Y-15542072D01*
X7961147Y-15542072D02*
X7942099Y-15532548D01*
X7942099Y-15532548D02*
X7932575Y-15513501D01*
X7932575Y-15513501D02*
X7932575Y-15503977D01*
X7932575Y-15503977D02*
X7942099Y-15484929D01*
X7942099Y-15484929D02*
X7961147Y-15475405D01*
X7961147Y-15475405D02*
X7989718Y-15475405D01*
X7989718Y-15475405D02*
X8008766Y-15484929D01*
X8084956Y-15684929D02*
X8094480Y-15675405D01*
X8094480Y-15675405D02*
X8113528Y-15646834D01*
X8113528Y-15646834D02*
X8123051Y-15627786D01*
X8123051Y-15627786D02*
X8132575Y-15599215D01*
X8132575Y-15599215D02*
X8142099Y-15551596D01*
X8142099Y-15551596D02*
X8142099Y-15513501D01*
X8142099Y-15513501D02*
X8132575Y-15465881D01*
X8132575Y-15465881D02*
X8123051Y-15437310D01*
X8123051Y-15437310D02*
X8113528Y-15418262D01*
X8113528Y-15418262D02*
X8094480Y-15389691D01*
X8094480Y-15389691D02*
X8084956Y-15380167D01*
X8446861Y-15684929D02*
X8437337Y-15675405D01*
X8437337Y-15675405D02*
X8418290Y-15646834D01*
X8418290Y-15646834D02*
X8408766Y-15627786D01*
X8408766Y-15627786D02*
X8399242Y-15599215D01*
X8399242Y-15599215D02*
X8389718Y-15551596D01*
X8389718Y-15551596D02*
X8389718Y-15513501D01*
X8389718Y-15513501D02*
X8399242Y-15465881D01*
X8399242Y-15465881D02*
X8408766Y-15437310D01*
X8408766Y-15437310D02*
X8418290Y-15418262D01*
X8418290Y-15418262D02*
X8437337Y-15389691D01*
X8437337Y-15389691D02*
X8446861Y-15380167D01*
X8523052Y-15475405D02*
X8523052Y-15608739D01*
X8523052Y-15494453D02*
X8532575Y-15484929D01*
X8532575Y-15484929D02*
X8551623Y-15475405D01*
X8551623Y-15475405D02*
X8580194Y-15475405D01*
X8580194Y-15475405D02*
X8599242Y-15484929D01*
X8599242Y-15484929D02*
X8608766Y-15503977D01*
X8608766Y-15503977D02*
X8608766Y-15608739D01*
X8732575Y-15608739D02*
X8713528Y-15599215D01*
X8713528Y-15599215D02*
X8704004Y-15589691D01*
X8704004Y-15589691D02*
X8694480Y-15570643D01*
X8694480Y-15570643D02*
X8694480Y-15513501D01*
X8694480Y-15513501D02*
X8704004Y-15494453D01*
X8704004Y-15494453D02*
X8713528Y-15484929D01*
X8713528Y-15484929D02*
X8732575Y-15475405D01*
X8732575Y-15475405D02*
X8761147Y-15475405D01*
X8761147Y-15475405D02*
X8780194Y-15484929D01*
X8780194Y-15484929D02*
X8789718Y-15494453D01*
X8789718Y-15494453D02*
X8799242Y-15513501D01*
X8799242Y-15513501D02*
X8799242Y-15570643D01*
X8799242Y-15570643D02*
X8789718Y-15589691D01*
X8789718Y-15589691D02*
X8780194Y-15599215D01*
X8780194Y-15599215D02*
X8761147Y-15608739D01*
X8761147Y-15608739D02*
X8732575Y-15608739D01*
X8856385Y-15475405D02*
X8932575Y-15475405D01*
X8884956Y-15408739D02*
X8884956Y-15580167D01*
X8884956Y-15580167D02*
X8894480Y-15599215D01*
X8894480Y-15599215D02*
X8913528Y-15608739D01*
X8913528Y-15608739D02*
X8932575Y-15608739D01*
X9151623Y-15475405D02*
X9151623Y-15675405D01*
X9151623Y-15484929D02*
X9170671Y-15475405D01*
X9170671Y-15475405D02*
X9208766Y-15475405D01*
X9208766Y-15475405D02*
X9227814Y-15484929D01*
X9227814Y-15484929D02*
X9237337Y-15494453D01*
X9237337Y-15494453D02*
X9246861Y-15513501D01*
X9246861Y-15513501D02*
X9246861Y-15570643D01*
X9246861Y-15570643D02*
X9237337Y-15589691D01*
X9237337Y-15589691D02*
X9227814Y-15599215D01*
X9227814Y-15599215D02*
X9208766Y-15608739D01*
X9208766Y-15608739D02*
X9170671Y-15608739D01*
X9170671Y-15608739D02*
X9151623Y-15599215D01*
X9361147Y-15608739D02*
X9342099Y-15599215D01*
X9342099Y-15599215D02*
X9332575Y-15580167D01*
X9332575Y-15580167D02*
X9332575Y-15408739D01*
X9523052Y-15608739D02*
X9523052Y-15503977D01*
X9523052Y-15503977D02*
X9513528Y-15484929D01*
X9513528Y-15484929D02*
X9494480Y-15475405D01*
X9494480Y-15475405D02*
X9456385Y-15475405D01*
X9456385Y-15475405D02*
X9437337Y-15484929D01*
X9523052Y-15599215D02*
X9504004Y-15608739D01*
X9504004Y-15608739D02*
X9456385Y-15608739D01*
X9456385Y-15608739D02*
X9437337Y-15599215D01*
X9437337Y-15599215D02*
X9427814Y-15580167D01*
X9427814Y-15580167D02*
X9427814Y-15561120D01*
X9427814Y-15561120D02*
X9437337Y-15542072D01*
X9437337Y-15542072D02*
X9456385Y-15532548D01*
X9456385Y-15532548D02*
X9504004Y-15532548D01*
X9504004Y-15532548D02*
X9523052Y-15523024D01*
X9589718Y-15475405D02*
X9665909Y-15475405D01*
X9618290Y-15408739D02*
X9618290Y-15580167D01*
X9618290Y-15580167D02*
X9627814Y-15599215D01*
X9627814Y-15599215D02*
X9646861Y-15608739D01*
X9646861Y-15608739D02*
X9665909Y-15608739D01*
X9808766Y-15599215D02*
X9789718Y-15608739D01*
X9789718Y-15608739D02*
X9751623Y-15608739D01*
X9751623Y-15608739D02*
X9732575Y-15599215D01*
X9732575Y-15599215D02*
X9723052Y-15580167D01*
X9723052Y-15580167D02*
X9723052Y-15503977D01*
X9723052Y-15503977D02*
X9732575Y-15484929D01*
X9732575Y-15484929D02*
X9751623Y-15475405D01*
X9751623Y-15475405D02*
X9789718Y-15475405D01*
X9789718Y-15475405D02*
X9808766Y-15484929D01*
X9808766Y-15484929D02*
X9818290Y-15503977D01*
X9818290Y-15503977D02*
X9818290Y-15523024D01*
X9818290Y-15523024D02*
X9723052Y-15542072D01*
X9989718Y-15608739D02*
X9989718Y-15408739D01*
X9989718Y-15599215D02*
X9970671Y-15608739D01*
X9970671Y-15608739D02*
X9932575Y-15608739D01*
X9932575Y-15608739D02*
X9913528Y-15599215D01*
X9913528Y-15599215D02*
X9904004Y-15589691D01*
X9904004Y-15589691D02*
X9894480Y-15570643D01*
X9894480Y-15570643D02*
X9894480Y-15513501D01*
X9894480Y-15513501D02*
X9904004Y-15494453D01*
X9904004Y-15494453D02*
X9913528Y-15484929D01*
X9913528Y-15484929D02*
X9932575Y-15475405D01*
X9932575Y-15475405D02*
X9970671Y-15475405D01*
X9970671Y-15475405D02*
X9989718Y-15484929D01*
X10065909Y-15684929D02*
X10075433Y-15675405D01*
X10075433Y-15675405D02*
X10094480Y-15646834D01*
X10094480Y-15646834D02*
X10104004Y-15627786D01*
X10104004Y-15627786D02*
X10113528Y-15599215D01*
X10113528Y-15599215D02*
X10123052Y-15551596D01*
X10123052Y-15551596D02*
X10123052Y-15513501D01*
X10123052Y-15513501D02*
X10113528Y-15465881D01*
X10113528Y-15465881D02*
X10104004Y-15437310D01*
X10104004Y-15437310D02*
X10094480Y-15418262D01*
X10094480Y-15418262D02*
X10075433Y-15389691D01*
X10075433Y-15389691D02*
X10065909Y-15380167D01*
M02*
