G04 #@! TF.GenerationSoftware,KiCad,Pcbnew,7.0.6*
G04 #@! TF.CreationDate,2023-10-23T01:01:23+01:00*
G04 #@! TF.ProjectId,dasbob,64617362-6f62-42e6-9b69-6361645f7063,rev?*
G04 #@! TF.SameCoordinates,Original*
G04 #@! TF.FileFunction,Soldermask,Bot*
G04 #@! TF.FilePolarity,Negative*
%FSLAX46Y46*%
G04 Gerber Fmt 4.6, Leading zero omitted, Abs format (unit mm)*
G04 Created by KiCad (PCBNEW 7.0.6) date 2023-10-23 01:01:23*
%MOMM*%
%LPD*%
G01*
G04 APERTURE LIST*
G04 Aperture macros list*
%AMRoundRect*
0 Rectangle with rounded corners*
0 $1 Rounding radius*
0 $2 $3 $4 $5 $6 $7 $8 $9 X,Y pos of 4 corners*
0 Add a 4 corners polygon primitive as box body*
4,1,4,$2,$3,$4,$5,$6,$7,$8,$9,$2,$3,0*
0 Add four circle primitives for the rounded corners*
1,1,$1+$1,$2,$3*
1,1,$1+$1,$4,$5*
1,1,$1+$1,$6,$7*
1,1,$1+$1,$8,$9*
0 Add four rect primitives between the rounded corners*
20,1,$1+$1,$2,$3,$4,$5,0*
20,1,$1+$1,$4,$5,$6,$7,0*
20,1,$1+$1,$6,$7,$8,$9,0*
20,1,$1+$1,$8,$9,$2,$3,0*%
%AMRotRect*
0 Rectangle, with rotation*
0 The origin of the aperture is its center*
0 $1 length*
0 $2 width*
0 $3 Rotation angle, in degrees counterclockwise*
0 Add horizontal line*
21,1,$1,$2,0,0,$3*%
G04 Aperture macros list end*
%ADD10C,1.701800*%
%ADD11C,3.000000*%
%ADD12C,3.429000*%
%ADD13RotRect,2.600000X2.600000X5.000000*%
%ADD14C,2.032000*%
%ADD15C,1.752600*%
%ADD16RotRect,2.600000X2.600000X315.000000*%
%ADD17RoundRect,0.381000X-0.381000X0.762000X-0.381000X-0.762000X0.381000X-0.762000X0.381000X0.762000X0*%
%ADD18R,2.600000X2.600000*%
%ADD19C,0.900000*%
%ADD20RotRect,2.600000X2.600000X350.000000*%
%ADD21RotRect,2.600000X2.600000X330.000000*%
%ADD22C,1.700000*%
%ADD23O,1.700000X1.700000*%
%ADD24RotRect,2.600000X2.600000X345.000000*%
%ADD25RotRect,2.600000X2.600000X355.000000*%
%ADD26C,0.800000*%
%ADD27O,2.000000X1.600000*%
%ADD28RotRect,2.600000X2.600000X30.000000*%
%ADD29R,1.700000X1.700000*%
%ADD30C,0.787400*%
%ADD31C,2.000000*%
%ADD32RotRect,2.600000X2.600000X45.000000*%
%ADD33RotRect,2.600000X2.600000X10.000000*%
%ADD34RotRect,2.600000X2.600000X15.000000*%
%ADD35C,2.700000*%
%ADD36R,1.752600X1.752600*%
G04 APERTURE END LIST*
D10*
X59956790Y-76110866D03*
D11*
X64917284Y-69704151D03*
D12*
X65435861Y-75631509D03*
D11*
X70090000Y-71460000D03*
D10*
X70914932Y-75152152D03*
D13*
X61654747Y-69989586D03*
D14*
X65950080Y-81509058D03*
X60786079Y-79852828D03*
D13*
X73352538Y-71174565D03*
D15*
X141510000Y-64940000D03*
D10*
X133213453Y-114339441D03*
D11*
X141309825Y-114021243D03*
D12*
X137102540Y-118228528D03*
D11*
X143289724Y-119112411D03*
D10*
X140991627Y-122117615D03*
D16*
X138994051Y-111705468D03*
D14*
X132930610Y-122400458D03*
X130880000Y-117380000D03*
D16*
X145605499Y-121428186D03*
D17*
X220319600Y-85852000D03*
X222859600Y-85852000D03*
D15*
X169680000Y-64916750D03*
D10*
X180075000Y-44070000D03*
D11*
X185575000Y-38120000D03*
D12*
X185575000Y-44070000D03*
D11*
X190575000Y-40320000D03*
D10*
X191075000Y-44070000D03*
D18*
X182300000Y-38120000D03*
D14*
X185575000Y-49970000D03*
X180575000Y-47870000D03*
D18*
X193850000Y-40320000D03*
D10*
X114825000Y-78080000D03*
D11*
X120325000Y-72130000D03*
D12*
X120325000Y-78080000D03*
D11*
X125325000Y-74330000D03*
D10*
X125825000Y-78080000D03*
D18*
X117050000Y-72130000D03*
D14*
X120325000Y-83980000D03*
X115325000Y-81880000D03*
D18*
X128600000Y-74330000D03*
D19*
X168760400Y-36957200D03*
X165760400Y-36957200D03*
D10*
X258075596Y-55263239D03*
D11*
X264525246Y-50358698D03*
D12*
X263492039Y-56218304D03*
D11*
X269067258Y-53393516D03*
D10*
X268908482Y-57173369D03*
D20*
X261300000Y-49790000D03*
D14*
X262467515Y-62028670D03*
X257908137Y-59092333D03*
D20*
X272292504Y-53962214D03*
D10*
X255143092Y-71991025D03*
D11*
X261592742Y-67086484D03*
D12*
X260559535Y-72946090D03*
D11*
X266134754Y-70121302D03*
D10*
X265975978Y-73901155D03*
D20*
X258367496Y-66517786D03*
D14*
X259535011Y-78756456D03*
X254975633Y-75820119D03*
D20*
X269360000Y-70690000D03*
D10*
X96840000Y-42070000D03*
D11*
X102340000Y-36120000D03*
D12*
X102340000Y-42070000D03*
D11*
X107340000Y-38320000D03*
D10*
X107840000Y-42070000D03*
D18*
X99065000Y-36120000D03*
D14*
X102340000Y-47970000D03*
X97340000Y-45870000D03*
D18*
X110615000Y-38320000D03*
D10*
X116216987Y-103099103D03*
D11*
X123955127Y-100696252D03*
D12*
X120980127Y-105849103D03*
D11*
X127185254Y-105101508D03*
D10*
X125743267Y-108599103D03*
D21*
X121118894Y-99058752D03*
D14*
X118030127Y-110958653D03*
X114750000Y-106640000D03*
D21*
X130021487Y-106739008D03*
D22*
X142780000Y-72220000D03*
D23*
X140240000Y-72220000D03*
X137700000Y-72220000D03*
X135160000Y-72220000D03*
D22*
X170970000Y-72200000D03*
D23*
X168430000Y-72200000D03*
X165890000Y-72200000D03*
X163350000Y-72200000D03*
D10*
X96890550Y-96640072D03*
D11*
X103743115Y-92316318D03*
D12*
X102203142Y-98063577D03*
D11*
X108003343Y-95735450D03*
D10*
X107515734Y-99487082D03*
D24*
X100579708Y-91468686D03*
D14*
X100676110Y-103762539D03*
X96390000Y-100440000D03*
D24*
X111166750Y-96583083D03*
D15*
X141510000Y-62400000D03*
X172220000Y-64916750D03*
D10*
X234994890Y-75153437D03*
D11*
X240992538Y-69705436D03*
D12*
X240473961Y-75632794D03*
D11*
X245781769Y-72332843D03*
D10*
X245953032Y-76112151D03*
D25*
X237730000Y-69420000D03*
D14*
X239959742Y-81510343D03*
X235161796Y-78982555D03*
D25*
X249044306Y-72618278D03*
D26*
X159110000Y-82550000D03*
X166110000Y-82550000D03*
D27*
X168810000Y-84850000D03*
X167710000Y-80250000D03*
X163710000Y-80250000D03*
X160710000Y-80250000D03*
D10*
X180085000Y-61060000D03*
D11*
X185585000Y-55110000D03*
D12*
X185585000Y-61060000D03*
D11*
X190585000Y-57310000D03*
D10*
X191085000Y-61060000D03*
D18*
X182310000Y-55110000D03*
D14*
X185585000Y-66960000D03*
X180585000Y-64860000D03*
D18*
X193860000Y-57310000D03*
D10*
X180166987Y-108599103D03*
D11*
X181955127Y-100696252D03*
D12*
X184930127Y-105849103D03*
D11*
X187385254Y-100101508D03*
D10*
X189693267Y-103099103D03*
D28*
X179118894Y-102333752D03*
D14*
X187880127Y-110958653D03*
X182500000Y-111640000D03*
D28*
X190221487Y-98464008D03*
D11*
X73240000Y-63600000D03*
X92290000Y-44550000D03*
X92290000Y-82650000D03*
X111340000Y-63600000D03*
X194710000Y-63600000D03*
X213760000Y-44550000D03*
X213760000Y-82650000D03*
X232810000Y-63600000D03*
D10*
X78825000Y-36080000D03*
D11*
X84325000Y-30130000D03*
D12*
X84325000Y-36080000D03*
D11*
X89325000Y-32330000D03*
D10*
X89825000Y-36080000D03*
D18*
X81050000Y-30130000D03*
D14*
X84325000Y-41980000D03*
X79325000Y-39880000D03*
D18*
X92600000Y-32330000D03*
D15*
X144050000Y-64940000D03*
D29*
X144475200Y-36957000D03*
D15*
X133807200Y-36957000D03*
D30*
X156307250Y-85090000D03*
X156307250Y-83820000D03*
X156307250Y-82550000D03*
X156307250Y-81280000D03*
X156307250Y-80010000D03*
D31*
X135680000Y-76150000D03*
X142180000Y-76150000D03*
D10*
X237954890Y-41263437D03*
D11*
X243952538Y-35815436D03*
D12*
X243433961Y-41742794D03*
D11*
X248741769Y-38442843D03*
D10*
X248913032Y-42222151D03*
D25*
X240690000Y-35530000D03*
D14*
X242919742Y-47620343D03*
X238121796Y-45092555D03*
D25*
X252004306Y-38728278D03*
D15*
X138966000Y-62400000D03*
D29*
X161899600Y-36957000D03*
D15*
X172567600Y-36957000D03*
D19*
X140614400Y-36975000D03*
X137614400Y-36975000D03*
D10*
X164918983Y-122087157D03*
D11*
X164600785Y-113990785D03*
D12*
X168808070Y-118198070D03*
D11*
X169691953Y-112010886D03*
D10*
X172697157Y-114308983D03*
D32*
X162285010Y-116306559D03*
D14*
X172980000Y-122370000D03*
X167959542Y-124420610D03*
D32*
X172007728Y-109695111D03*
D10*
X198085000Y-42050000D03*
D11*
X203585000Y-36100000D03*
D12*
X203585000Y-42050000D03*
D11*
X208585000Y-38300000D03*
D10*
X209085000Y-42050000D03*
D18*
X200310000Y-36100000D03*
D14*
X203585000Y-47950000D03*
X198585000Y-45850000D03*
D18*
X211860000Y-38300000D03*
D10*
X198075000Y-76050000D03*
D11*
X203575000Y-70100000D03*
D12*
X203575000Y-76050000D03*
D11*
X208575000Y-72300000D03*
D10*
X209075000Y-76050000D03*
D18*
X200300000Y-70100000D03*
D14*
X203575000Y-81950000D03*
X198575000Y-79850000D03*
D18*
X211850000Y-72300000D03*
D15*
X138966000Y-64940000D03*
D17*
X83058000Y-85852000D03*
X85598000Y-85852000D03*
D10*
X39936764Y-73954671D03*
D11*
X44320000Y-67140000D03*
D12*
X45353207Y-72999606D03*
D11*
X49626065Y-68438336D03*
D10*
X50769650Y-72044541D03*
D33*
X41094755Y-67708698D03*
D14*
X46377731Y-78809972D03*
X41089031Y-77610116D03*
D33*
X52851310Y-67869638D03*
D10*
X114825000Y-61100000D03*
D11*
X120325000Y-55150000D03*
D12*
X120325000Y-61100000D03*
D11*
X125325000Y-57350000D03*
D10*
X125825000Y-61100000D03*
D18*
X117050000Y-55150000D03*
D14*
X120325000Y-67000000D03*
X115325000Y-64900000D03*
D18*
X128600000Y-57350000D03*
D10*
X58470929Y-59179357D03*
D11*
X63431423Y-52772642D03*
D12*
X63950000Y-58700000D03*
D11*
X68604139Y-54528491D03*
D10*
X69429071Y-58220643D03*
D13*
X60168886Y-53058077D03*
D14*
X64464219Y-64577549D03*
X59300218Y-62921319D03*
D13*
X71866677Y-54243056D03*
D10*
X236474890Y-58213437D03*
D11*
X242472538Y-52765436D03*
D12*
X241953961Y-58692794D03*
D11*
X247261769Y-55392843D03*
D10*
X247433032Y-59172151D03*
D25*
X239210000Y-52480000D03*
D14*
X241439742Y-64570343D03*
X236641796Y-62042555D03*
D25*
X250524306Y-55678278D03*
D10*
X198085000Y-59050000D03*
D11*
X203585000Y-53100000D03*
D12*
X203585000Y-59050000D03*
D11*
X208585000Y-55300000D03*
D10*
X209085000Y-59050000D03*
D18*
X200310000Y-53100000D03*
D14*
X203585000Y-64950000D03*
X198585000Y-62850000D03*
D18*
X211860000Y-55300000D03*
D10*
X78805000Y-70120000D03*
D11*
X84305000Y-64170000D03*
D12*
X84305000Y-70120000D03*
D11*
X89305000Y-66370000D03*
D10*
X89805000Y-70120000D03*
D18*
X81030000Y-64170000D03*
D14*
X84305000Y-76020000D03*
X79305000Y-73920000D03*
D18*
X92580000Y-66370000D03*
D10*
X180075000Y-78070000D03*
D11*
X185575000Y-72120000D03*
D12*
X185575000Y-78070000D03*
D11*
X190575000Y-74320000D03*
D10*
X191075000Y-78070000D03*
D18*
X182300000Y-72120000D03*
D14*
X185575000Y-83970000D03*
X180575000Y-81870000D03*
D18*
X193850000Y-74320000D03*
D31*
X164020000Y-76160000D03*
X170520000Y-76160000D03*
D15*
X167140000Y-62376750D03*
D10*
X42892009Y-90695973D03*
D11*
X47275245Y-83881302D03*
D12*
X48308452Y-89740908D03*
D11*
X52581310Y-85179638D03*
D10*
X53724895Y-88785843D03*
D33*
X44050000Y-84450000D03*
D14*
X49332976Y-95551274D03*
X44044276Y-94351418D03*
D33*
X55806555Y-84610940D03*
D10*
X36996764Y-57194671D03*
D11*
X41380000Y-50380000D03*
D12*
X42413207Y-56239606D03*
D11*
X46686065Y-51678336D03*
D10*
X47829650Y-55284541D03*
D33*
X38154755Y-50948698D03*
D14*
X43437731Y-62049972D03*
X38149031Y-60850116D03*
D33*
X49911310Y-51109638D03*
D10*
X56990929Y-42269357D03*
D11*
X61951423Y-35862642D03*
D12*
X62470000Y-41790000D03*
D11*
X67124139Y-37618491D03*
D10*
X67949071Y-41310643D03*
D13*
X58688886Y-36148077D03*
D14*
X62984219Y-47667549D03*
X57820218Y-46011319D03*
D13*
X70386677Y-37333056D03*
D15*
X144050000Y-62400000D03*
D30*
X149775150Y-42940000D03*
X149775150Y-44210000D03*
X149775150Y-45480000D03*
X149775150Y-46750000D03*
X149775150Y-48020000D03*
D10*
X96815000Y-59100000D03*
D11*
X102315000Y-53150000D03*
D12*
X102315000Y-59100000D03*
D11*
X107315000Y-55350000D03*
D10*
X107815000Y-59100000D03*
D18*
X99040000Y-53150000D03*
D14*
X102315000Y-65000000D03*
X97315000Y-62900000D03*
D18*
X110590000Y-55350000D03*
D26*
X146850000Y-82550000D03*
X139850000Y-82550000D03*
D27*
X137150000Y-80250000D03*
X138250000Y-84850000D03*
X142250000Y-84850000D03*
X145250000Y-84850000D03*
D30*
X156284000Y-42930000D03*
X156284000Y-44200000D03*
X156284000Y-45470000D03*
X156284000Y-46740000D03*
X156284000Y-48010000D03*
D10*
X198370376Y-99494543D03*
D11*
X202142995Y-92323779D03*
D12*
X203682968Y-98071038D03*
D11*
X207542026Y-93154721D03*
D10*
X208995560Y-96647533D03*
D34*
X198979588Y-93171412D03*
D14*
X205210000Y-103770000D03*
X199836851Y-103035651D03*
D34*
X210705433Y-92307089D03*
D30*
X149758400Y-80010000D03*
X149758400Y-81280000D03*
X149758400Y-82550000D03*
X149758400Y-83820000D03*
X149758400Y-85090000D03*
D15*
X172220000Y-62376750D03*
D10*
X114820000Y-44090000D03*
D11*
X120320000Y-38140000D03*
D12*
X120320000Y-44090000D03*
D11*
X125320000Y-40340000D03*
D10*
X125820000Y-44090000D03*
D18*
X117045000Y-38140000D03*
D14*
X120320000Y-49990000D03*
X115320000Y-47890000D03*
D18*
X128595000Y-40340000D03*
D10*
X252183092Y-88741025D03*
D11*
X258632742Y-83836484D03*
D12*
X257599535Y-89696090D03*
D11*
X263174754Y-86871302D03*
D10*
X263015978Y-90651155D03*
D20*
X255407496Y-83267786D03*
D14*
X256575011Y-95506456D03*
X252015633Y-92570119D03*
D20*
X266400000Y-87440000D03*
D10*
X96820000Y-76110000D03*
D11*
X102320000Y-70160000D03*
D12*
X102320000Y-76110000D03*
D11*
X107320000Y-72360000D03*
D10*
X107820000Y-76110000D03*
D18*
X99045000Y-70160000D03*
D14*
X102320000Y-82010000D03*
X97320000Y-79910000D03*
D18*
X110595000Y-72360000D03*
D10*
X216075000Y-70060000D03*
D11*
X221575000Y-64110000D03*
D12*
X221575000Y-70060000D03*
D11*
X226575000Y-66310000D03*
D10*
X227075000Y-70060000D03*
D18*
X218300000Y-64110000D03*
D14*
X221575000Y-75960000D03*
X216575000Y-73860000D03*
D18*
X229850000Y-66310000D03*
D15*
X167140000Y-64916750D03*
D35*
X153020000Y-40360000D03*
D10*
X78825000Y-53080000D03*
D11*
X84325000Y-47130000D03*
D12*
X84325000Y-53080000D03*
D11*
X89325000Y-49330000D03*
D10*
X89825000Y-53080000D03*
D18*
X81050000Y-47130000D03*
D14*
X84325000Y-58980000D03*
X79325000Y-56880000D03*
D18*
X92600000Y-49330000D03*
D10*
X216085000Y-53060000D03*
D11*
X221585000Y-47110000D03*
D12*
X221585000Y-53060000D03*
D11*
X226585000Y-49310000D03*
D10*
X227085000Y-53060000D03*
D18*
X218310000Y-47110000D03*
D14*
X221585000Y-58960000D03*
X216585000Y-56860000D03*
D18*
X229860000Y-49310000D03*
D15*
X169680000Y-62376750D03*
D10*
X216075000Y-36050000D03*
D11*
X221575000Y-30100000D03*
D12*
X221575000Y-36050000D03*
D11*
X226575000Y-32300000D03*
D10*
X227075000Y-36050000D03*
D18*
X218300000Y-30100000D03*
D14*
X221575000Y-41950000D03*
X216575000Y-39850000D03*
D18*
X229850000Y-32300000D03*
D36*
X146590000Y-39540000D03*
D15*
X146590000Y-42080000D03*
X146590000Y-44620000D03*
X146590000Y-47160000D03*
X146590000Y-49700000D03*
X146590000Y-52240000D03*
X146590000Y-54780000D03*
X146590000Y-57320000D03*
X146590000Y-59860000D03*
X146590000Y-62400000D03*
X146590000Y-64940000D03*
X146590000Y-67480000D03*
X131350000Y-67480000D03*
X131350000Y-64940000D03*
X131350000Y-62400000D03*
X131350000Y-59860000D03*
X131350000Y-57320000D03*
X131350000Y-54780000D03*
X131350000Y-52240000D03*
X131350000Y-49700000D03*
X131350000Y-47160000D03*
X131350000Y-44620000D03*
X131350000Y-42080000D03*
X131350000Y-39540000D03*
X144050000Y-67480000D03*
X141510000Y-67480000D03*
X138970000Y-67480000D03*
D36*
X174760000Y-39516750D03*
D15*
X174760000Y-42056750D03*
X174760000Y-44596750D03*
X174760000Y-47136750D03*
X174760000Y-49676750D03*
X174760000Y-52216750D03*
X174760000Y-54756750D03*
X174760000Y-57296750D03*
X174760000Y-59836750D03*
X174760000Y-62376750D03*
X174760000Y-64916750D03*
X174760000Y-67456750D03*
X159520000Y-67456750D03*
X159520000Y-64916750D03*
X159520000Y-62376750D03*
X159520000Y-59836750D03*
X159520000Y-57296750D03*
X159520000Y-54756750D03*
X159520000Y-52216750D03*
X159520000Y-49676750D03*
X159520000Y-47136750D03*
X159520000Y-44596750D03*
X159520000Y-42056750D03*
X159520000Y-39516750D03*
X172220000Y-67456750D03*
X169680000Y-67456750D03*
X167140000Y-67456750D03*
M02*
