G04 #@! TF.GenerationSoftware,KiCad,Pcbnew,7.0.6*
G04 #@! TF.CreationDate,2023-10-23T01:01:23+01:00*
G04 #@! TF.ProjectId,dasbob,64617362-6f62-42e6-9b69-6361645f7063,rev?*
G04 #@! TF.SameCoordinates,Original*
G04 #@! TF.FileFunction,Paste,Bot*
G04 #@! TF.FilePolarity,Positive*
%FSLAX46Y46*%
G04 Gerber Fmt 4.6, Leading zero omitted, Abs format (unit mm)*
G04 Created by KiCad (PCBNEW 7.0.6) date 2023-10-23 01:01:23*
%MOMM*%
%LPD*%
G01*
G04 APERTURE LIST*
G04 Aperture macros list*
%AMRoundRect*
0 Rectangle with rounded corners*
0 $1 Rounding radius*
0 $2 $3 $4 $5 $6 $7 $8 $9 X,Y pos of 4 corners*
0 Add a 4 corners polygon primitive as box body*
4,1,4,$2,$3,$4,$5,$6,$7,$8,$9,$2,$3,0*
0 Add four circle primitives for the rounded corners*
1,1,$1+$1,$2,$3*
1,1,$1+$1,$4,$5*
1,1,$1+$1,$6,$7*
1,1,$1+$1,$8,$9*
0 Add four rect primitives between the rounded corners*
20,1,$1+$1,$2,$3,$4,$5,0*
20,1,$1+$1,$4,$5,$6,$7,0*
20,1,$1+$1,$6,$7,$8,$9,0*
20,1,$1+$1,$8,$9,$2,$3,0*%
%AMRotRect*
0 Rectangle, with rotation*
0 The origin of the aperture is its center*
0 $1 length*
0 $2 width*
0 $3 Rotation angle, in degrees counterclockwise*
0 Add horizontal line*
21,1,$1,$2,0,0,$3*%
G04 Aperture macros list end*
%ADD10RotRect,2.600000X2.600000X5.000000*%
%ADD11RotRect,2.600000X2.600000X315.000000*%
%ADD12RoundRect,0.381000X-0.381000X0.762000X-0.381000X-0.762000X0.381000X-0.762000X0.381000X0.762000X0*%
%ADD13R,2.600000X2.600000*%
%ADD14RotRect,2.600000X2.600000X350.000000*%
%ADD15RotRect,2.600000X2.600000X330.000000*%
%ADD16RotRect,2.600000X2.600000X345.000000*%
%ADD17RotRect,2.600000X2.600000X355.000000*%
%ADD18RotRect,2.600000X2.600000X30.000000*%
%ADD19RotRect,2.600000X2.600000X45.000000*%
%ADD20RotRect,2.600000X2.600000X10.000000*%
%ADD21RotRect,2.600000X2.600000X15.000000*%
G04 APERTURE END LIST*
D10*
X61654747Y-69989586D03*
X73352538Y-71174565D03*
D11*
X138994051Y-111705468D03*
X145605499Y-121428186D03*
D12*
X220319600Y-85852000D03*
X222859600Y-85852000D03*
D13*
X182300000Y-38120000D03*
X193850000Y-40320000D03*
X117050000Y-72130000D03*
X128600000Y-74330000D03*
D14*
X261300000Y-49790000D03*
X272292504Y-53962214D03*
X258367496Y-66517786D03*
X269360000Y-70690000D03*
D13*
X99065000Y-36120000D03*
X110615000Y-38320000D03*
D15*
X121118894Y-99058752D03*
X130021487Y-106739008D03*
D16*
X100579708Y-91468686D03*
X111166750Y-96583083D03*
D17*
X237730000Y-69420000D03*
X249044306Y-72618278D03*
D13*
X182310000Y-55110000D03*
X193860000Y-57310000D03*
D18*
X179118894Y-102333752D03*
X190221487Y-98464008D03*
D13*
X81050000Y-30130000D03*
X92600000Y-32330000D03*
D17*
X240690000Y-35530000D03*
X252004306Y-38728278D03*
D19*
X162285010Y-116306559D03*
X172007728Y-109695111D03*
D13*
X200310000Y-36100000D03*
X211860000Y-38300000D03*
X200300000Y-70100000D03*
X211850000Y-72300000D03*
D12*
X83058000Y-85852000D03*
X85598000Y-85852000D03*
D20*
X41094755Y-67708698D03*
X52851310Y-67869638D03*
D13*
X117050000Y-55150000D03*
X128600000Y-57350000D03*
D10*
X60168886Y-53058077D03*
X71866677Y-54243056D03*
D17*
X239210000Y-52480000D03*
X250524306Y-55678278D03*
D13*
X200310000Y-53100000D03*
X211860000Y-55300000D03*
X81030000Y-64170000D03*
X92580000Y-66370000D03*
X182300000Y-72120000D03*
X193850000Y-74320000D03*
D20*
X44050000Y-84450000D03*
X55806555Y-84610940D03*
X38154755Y-50948698D03*
X49911310Y-51109638D03*
D10*
X58688886Y-36148077D03*
X70386677Y-37333056D03*
D13*
X99040000Y-53150000D03*
X110590000Y-55350000D03*
D21*
X198979588Y-93171412D03*
X210705433Y-92307089D03*
D13*
X117045000Y-38140000D03*
X128595000Y-40340000D03*
D14*
X255407496Y-83267786D03*
X266400000Y-87440000D03*
D13*
X99045000Y-70160000D03*
X110595000Y-72360000D03*
X218300000Y-64110000D03*
X229850000Y-66310000D03*
X81050000Y-47130000D03*
X92600000Y-49330000D03*
X218310000Y-47110000D03*
X229860000Y-49310000D03*
X218300000Y-30100000D03*
X229850000Y-32300000D03*
M02*
